<svg id="svg" xmlns="http://www.w3.org/2000/svg" xmlns:xlink="http://www.w3.org/1999/xlink" width="400" height="400" viewBox="0, 0, 400,400" version="1.1"><g id="svgg"><path id="path0" d="" stroke="none" fill="#a451bd" fill-rule="evenodd"></path><path id="path1" d="" stroke="none" fill="#a451bd" fill-rule="evenodd"></path><path id="path2" d="" stroke="none" fill="#a451bd" fill-rule="evenodd"></path><path id="path3" d="M113.000 38.400 C 112.340 38.837,111.980 39.192,112.200 39.188 C 112.601 39.182,114.776 37.623,114.400 37.612 C 114.290 37.608,113.660 37.963,113.000 38.400 M286.400 38.364 C 286.950 38.814,287.580 39.183,287.800 39.185 C 288.228 39.188,287.505 38.634,286.200 37.960 C 285.669 37.685,285.736 37.821,286.400 38.364 M197.105 50.283 C 197.602 50.379,198.322 50.375,198.705 50.275 C 199.087 50.175,198.680 50.096,197.800 50.101 C 196.920 50.105,196.607 50.187,197.105 50.283 M201.505 50.283 C 202.002 50.379,202.722 50.375,203.105 50.275 C 203.487 50.175,203.080 50.096,202.200 50.101 C 201.320 50.105,201.007 50.187,201.505 50.283 M70.175 70.500 L 69.000 71.800 70.300 70.625 C 71.015 69.979,71.600 69.394,71.600 69.325 C 71.600 69.016,71.270 69.288,70.175 70.500 M328.400 69.325 C 328.400 69.394,328.985 69.979,329.700 70.625 L 331.000 71.800 329.825 70.500 C 328.730 69.288,328.400 69.016,328.400 69.325 M38.253 113.300 L 37.533 114.600 38.358 113.600 C 39.089 112.713,39.414 112.000,39.086 112.000 C 39.024 112.000,38.649 112.585,38.253 113.300 M360.815 112.200 C 360.817 112.420,361.186 113.050,361.636 113.600 C 362.179 114.264,362.315 114.331,362.040 113.800 C 361.366 112.495,360.812 111.772,360.815 112.200 M50.101 197.800 C 50.105 198.680,50.187 198.993,50.283 198.495 C 50.379 197.998,50.375 197.278,50.275 196.895 C 50.175 196.513,50.096 196.920,50.101 197.800 M349.701 197.800 C 349.705 198.680,349.787 198.993,349.883 198.495 C 349.979 197.998,349.975 197.278,349.875 196.895 C 349.775 196.513,349.696 196.920,349.701 197.800 M50.101 202.200 C 50.105 203.080,50.187 203.393,50.283 202.895 C 50.379 202.398,50.375 201.678,50.275 201.295 C 50.175 200.913,50.096 201.320,50.101 202.200 M349.701 202.200 C 349.705 203.080,349.787 203.393,349.883 202.895 C 349.979 202.398,349.975 201.678,349.875 201.295 C 349.775 200.913,349.696 201.320,349.701 202.200 M157.774 234.358 C 157.923 234.599,158.416 234.995,158.871 235.238 C 159.462 235.554,159.620 235.556,159.426 235.242 C 159.277 235.001,158.784 234.605,158.329 234.362 C 157.738 234.046,157.580 234.044,157.774 234.358 M241.144 234.823 C 240.250 235.602,240.246 235.623,241.078 235.220 C 241.560 234.987,242.066 234.617,242.201 234.398 C 242.595 233.762,242.163 233.935,241.144 234.823 M37.960 286.200 C 38.634 287.505,39.188 288.228,39.185 287.800 C 39.183 287.580,38.814 286.950,38.364 286.400 C 37.821 285.736,37.685 285.669,37.960 286.200 M361.414 286.635 C 361.041 287.204,360.805 287.738,360.889 287.822 C 360.973 287.907,361.358 287.441,361.744 286.788 C 362.606 285.328,362.348 285.209,361.414 286.635 M69.200 328.525 C 69.200 328.594,69.785 329.179,70.500 329.825 L 71.800 331.000 70.625 329.700 C 69.530 328.488,69.200 328.216,69.200 328.525 M329.375 329.700 L 328.200 331.000 329.500 329.825 C 330.215 329.179,330.800 328.594,330.800 328.525 C 330.800 328.216,330.470 328.488,329.375 329.700 M197.105 349.883 C 197.602 349.979,198.322 349.975,198.705 349.875 C 199.087 349.775,198.680 349.696,197.800 349.701 C 196.920 349.705,196.607 349.787,197.105 349.883 M201.505 349.883 C 202.002 349.979,202.722 349.975,203.105 349.875 C 203.487 349.775,203.080 349.696,202.200 349.701 C 201.320 349.705,201.007 349.787,201.505 349.883 M112.400 361.220 C 113.787 362.161,114.578 362.435,113.600 361.636 C 113.050 361.186,112.420 360.817,112.200 360.815 C 111.980 360.813,112.070 360.996,112.400 361.220 M286.400 361.636 C 285.736 362.179,285.669 362.315,286.200 362.040 C 287.505 361.366,288.228 360.812,287.800 360.815 C 287.580 360.817,286.950 361.186,286.400 361.636 " stroke="none" fill="#a451bd" fill-rule="evenodd"></path><path id="path4" d="M193.818 16.715 C 193.755 16.778,191.835 16.929,189.552 17.051 C 183.690 17.363,181.800 17.499,181.800 17.610 C 181.800 17.744,179.358 17.973,177.200 18.041 C 176.210 18.073,175.220 18.206,175.000 18.338 C 174.497 18.639,173.815 18.748,171.800 18.849 C 170.920 18.893,170.038 19.018,169.840 19.125 C 169.529 19.295,167.241 19.615,165.700 19.704 C 165.425 19.720,165.200 19.853,165.200 20.000 C 165.200 20.147,164.975 20.294,164.700 20.328 C 164.425 20.361,163.480 20.471,162.600 20.571 C 161.720 20.671,160.910 20.785,160.800 20.824 C 160.690 20.863,160.458 20.871,160.284 20.842 C 160.110 20.813,159.626 20.972,159.208 21.196 C 158.790 21.419,157.223 21.875,155.724 22.208 C 154.226 22.542,152.685 22.901,152.300 23.007 C 151.915 23.113,151.252 23.277,150.826 23.372 C 150.400 23.467,149.692 23.737,149.252 23.972 C 148.812 24.207,147.916 24.400,147.260 24.400 C 146.604 24.400,146.007 24.540,145.933 24.710 C 145.787 25.051,139.414 27.290,138.308 27.389 C 137.928 27.423,137.493 27.574,137.341 27.725 C 137.190 27.876,136.737 28.000,136.333 28.000 C 135.930 28.000,135.600 28.210,135.600 28.467 C 135.600 28.723,135.479 28.813,135.332 28.665 C 135.184 28.518,134.689 28.639,134.232 28.935 C 133.555 29.373,132.286 29.834,130.800 30.182 C 130.690 30.207,130.195 30.453,129.700 30.728 C 129.205 31.003,128.800 31.135,128.800 31.022 C 128.800 30.909,127.990 31.268,127.000 31.821 C 126.010 32.373,125.200 32.728,125.200 32.608 C 125.200 32.488,124.480 32.844,123.600 33.400 C 122.720 33.956,122.000 34.314,122.000 34.196 C 122.000 34.078,121.550 34.276,121.000 34.637 C 120.450 34.997,120.000 35.159,120.000 34.997 C 120.000 34.835,119.775 34.887,119.500 35.113 C 119.225 35.339,117.920 36.108,116.600 36.821 C 115.280 37.535,113.435 38.539,112.500 39.052 C 111.565 39.564,110.800 39.893,110.800 39.781 C 110.800 39.670,109.857 40.214,108.705 40.989 C 107.553 41.765,106.383 42.400,106.105 42.400 C 105.827 42.400,105.600 42.581,105.600 42.803 C 105.600 43.025,104.880 43.495,104.000 43.847 C 103.120 44.199,102.400 44.677,102.400 44.910 C 102.400 45.143,102.289 45.222,102.152 45.086 C 102.016 44.950,101.671 45.055,101.385 45.319 C 100.523 46.116,95.109 49.802,94.846 49.771 C 94.710 49.756,94.405 49.936,94.166 50.171 C 93.927 50.407,93.229 50.960,92.614 51.400 C 91.999 51.840,91.024 52.602,90.448 53.094 C 89.872 53.585,89.183 54.170,88.917 54.394 C 88.651 54.617,88.265 54.800,88.060 54.800 C 87.854 54.800,87.582 55.070,87.455 55.400 C 87.329 55.730,87.015 56.000,86.758 56.000 C 86.502 56.000,85.893 56.405,85.406 56.900 C 84.918 57.395,83.818 58.365,82.960 59.056 C 79.404 61.921,78.593 62.615,78.464 62.908 C 78.389 63.078,77.804 63.488,77.164 63.819 C 76.524 64.150,76.000 64.686,76.000 65.010 C 76.000 65.335,75.842 65.600,75.649 65.600 C 75.191 65.600,65.600 75.191,65.600 75.649 C 65.600 75.842,65.335 76.000,65.010 76.000 C 64.686 76.000,64.150 76.524,63.819 77.164 C 63.488 77.804,63.078 78.389,62.908 78.464 C 62.615 78.593,61.921 79.404,59.056 82.960 C 58.365 83.818,57.427 84.898,56.970 85.360 C 56.514 85.822,56.024 86.515,55.883 86.900 C 55.741 87.285,55.439 87.600,55.213 87.600 C 54.986 87.600,54.800 87.788,54.800 88.017 C 54.800 88.246,54.617 88.651,54.394 88.917 C 54.170 89.183,53.585 89.872,53.094 90.448 C 52.602 91.024,51.840 91.999,51.400 92.614 C 50.960 93.229,50.369 93.966,50.086 94.252 C 49.803 94.538,49.579 94.913,49.589 95.086 C 49.599 95.259,49.380 95.677,49.103 96.015 C 48.826 96.354,47.880 97.704,47.000 99.015 C 46.120 100.327,45.264 101.460,45.098 101.534 C 44.931 101.608,44.897 101.833,45.021 102.034 C 45.145 102.235,45.078 102.400,44.872 102.400 C 44.666 102.400,44.267 102.985,43.987 103.700 C 43.706 104.415,43.279 105.185,43.038 105.410 C 42.557 105.860,41.959 106.912,39.290 112.000 C 36.853 116.644,35.592 118.907,35.109 119.500 C 34.885 119.775,34.820 120.000,34.965 120.000 C 35.110 120.000,35.003 120.405,34.728 120.900 C 34.453 121.395,34.210 121.890,34.188 122.000 C 34.166 122.110,33.482 123.594,32.667 125.297 C 31.852 127.000,31.171 128.530,31.153 128.697 C 31.136 128.864,30.920 129.360,30.675 129.800 C 30.429 130.240,30.207 130.690,30.182 130.800 C 29.850 132.217,29.458 133.200,29.223 133.200 C 29.064 133.200,28.903 133.470,28.867 133.800 C 28.830 134.130,28.770 134.670,28.733 135.000 C 28.697 135.330,28.517 135.600,28.333 135.600 C 28.150 135.600,28.000 135.949,28.000 136.376 C 28.000 136.803,27.817 137.266,27.593 137.404 C 27.370 137.542,27.283 137.811,27.400 138.000 C 27.518 138.190,27.146 139.573,26.574 141.073 C 26.002 142.573,25.449 144.250,25.344 144.800 C 25.239 145.350,24.984 145.860,24.776 145.933 C 24.569 146.007,24.400 146.604,24.400 147.260 C 24.400 147.916,24.207 148.812,23.972 149.252 C 23.737 149.692,23.467 150.400,23.372 150.826 C 23.179 151.693,23.164 151.753,21.995 156.200 C 21.533 157.960,21.090 159.760,21.011 160.200 C 20.931 160.640,20.841 161.000,20.810 161.000 C 20.778 161.000,20.671 161.720,20.571 162.600 C 20.471 163.480,20.361 164.425,20.328 164.700 C 20.294 164.975,20.153 165.200,20.015 165.200 C 19.877 165.200,19.712 165.785,19.649 166.500 C 19.435 168.937,19.362 169.414,19.146 169.807 C 19.027 170.023,18.893 170.920,18.849 171.800 C 18.748 173.815,18.639 174.497,18.338 175.000 C 18.206 175.220,18.073 176.210,18.041 177.200 C 17.973 179.358,17.744 181.800,17.610 181.800 C 17.509 181.800,17.433 182.794,17.013 189.600 C 16.681 194.985,16.681 205.015,17.013 210.400 C 17.433 217.206,17.509 218.200,17.610 218.200 C 17.744 218.200,17.973 220.642,18.041 222.800 C 18.073 223.790,18.206 224.780,18.338 225.000 C 18.639 225.503,18.748 226.185,18.849 228.200 C 18.893 229.080,19.018 229.962,19.125 230.160 C 19.295 230.471,19.615 232.759,19.704 234.300 C 19.720 234.575,19.853 234.800,20.000 234.800 C 20.147 234.800,20.294 235.025,20.328 235.300 C 20.361 235.575,20.471 236.520,20.571 237.400 C 20.671 238.280,20.785 239.090,20.824 239.200 C 20.863 239.310,20.871 239.542,20.842 239.716 C 20.813 239.890,20.972 240.374,21.196 240.792 C 21.419 241.210,21.875 242.777,22.208 244.276 C 22.542 245.774,22.901 247.315,23.007 247.700 C 23.113 248.085,23.277 248.748,23.372 249.174 C 23.467 249.600,23.737 250.308,23.972 250.748 C 24.207 251.188,24.400 252.084,24.400 252.740 C 24.400 253.396,24.540 253.993,24.710 254.067 C 25.051 254.213,27.290 260.586,27.389 261.692 C 27.423 262.072,27.574 262.507,27.725 262.659 C 27.876 262.810,28.000 263.263,28.000 263.667 C 28.000 264.070,28.210 264.400,28.467 264.400 C 28.723 264.400,28.813 264.521,28.665 264.668 C 28.518 264.816,28.639 265.311,28.935 265.768 C 29.373 266.445,29.834 267.714,30.182 269.200 C 30.207 269.310,30.453 269.805,30.728 270.300 C 31.003 270.795,31.135 271.200,31.022 271.200 C 30.909 271.200,31.268 272.010,31.821 273.000 C 32.373 273.990,32.728 274.800,32.608 274.800 C 32.488 274.800,32.844 275.520,33.400 276.400 C 33.956 277.280,34.314 278.000,34.196 278.000 C 34.078 278.000,34.276 278.450,34.637 279.000 C 34.997 279.550,35.159 280.000,34.997 280.000 C 34.835 280.000,34.887 280.225,35.113 280.500 C 35.339 280.775,36.108 282.080,36.821 283.400 C 37.535 284.720,38.539 286.565,39.052 287.500 C 39.564 288.435,39.893 289.200,39.781 289.200 C 39.670 289.200,40.214 290.143,40.989 291.295 C 41.765 292.447,42.400 293.617,42.400 293.895 C 42.400 294.173,42.581 294.400,42.803 294.400 C 43.025 294.400,43.495 295.120,43.847 296.000 C 44.199 296.880,44.677 297.600,44.910 297.600 C 45.143 297.600,45.222 297.711,45.086 297.848 C 44.950 297.984,45.055 298.329,45.319 298.615 C 46.215 299.584,49.582 304.599,49.491 304.829 C 49.441 304.954,49.670 305.330,50.000 305.663 C 50.330 305.996,50.960 306.771,51.400 307.386 C 51.840 308.001,52.602 308.976,53.094 309.552 C 53.585 310.128,54.170 310.817,54.394 311.083 C 54.617 311.349,54.800 311.735,54.800 311.940 C 54.800 312.146,55.070 312.418,55.400 312.545 C 55.730 312.671,56.000 312.985,56.000 313.242 C 56.000 313.498,56.405 314.107,56.900 314.594 C 57.395 315.082,58.365 316.182,59.056 317.040 C 61.921 320.596,62.615 321.407,62.908 321.536 C 63.078 321.611,63.488 322.196,63.819 322.836 C 64.150 323.476,64.686 324.000,65.010 324.000 C 65.335 324.000,65.600 324.158,65.600 324.351 C 65.600 324.809,75.191 334.400,75.649 334.400 C 75.842 334.400,76.000 334.665,76.000 334.990 C 76.000 335.314,76.524 335.850,77.164 336.181 C 77.804 336.512,78.389 336.922,78.464 337.092 C 78.593 337.385,79.404 338.079,82.960 340.944 C 83.818 341.635,84.898 342.573,85.360 343.030 C 85.822 343.486,86.515 343.976,86.900 344.117 C 87.285 344.259,87.600 344.561,87.600 344.787 C 87.600 345.014,87.788 345.200,88.017 345.200 C 88.246 345.200,88.651 345.383,88.917 345.606 C 89.183 345.830,89.872 346.415,90.448 346.906 C 91.024 347.398,91.999 348.160,92.614 348.600 C 93.229 349.040,94.004 349.670,94.337 350.000 C 94.670 350.330,94.995 350.510,95.058 350.400 C 95.122 350.290,95.502 350.470,95.902 350.800 C 96.303 351.130,97.704 352.120,99.015 353.000 C 100.327 353.880,101.460 354.736,101.534 354.902 C 101.608 355.069,101.833 355.103,102.034 354.979 C 102.235 354.855,102.400 354.922,102.400 355.128 C 102.400 355.334,102.985 355.733,103.700 356.013 C 104.415 356.294,105.185 356.721,105.410 356.962 C 105.860 357.443,106.912 358.041,112.000 360.710 C 116.644 363.147,118.907 364.408,119.500 364.891 C 119.775 365.115,120.000 365.180,120.000 365.035 C 120.000 364.890,120.405 364.997,120.900 365.272 C 121.395 365.547,121.890 365.790,122.000 365.812 C 122.110 365.834,123.550 366.498,125.200 367.288 C 126.850 368.077,128.380 368.759,128.600 368.801 C 128.820 368.844,129.360 369.080,129.800 369.325 C 130.240 369.571,130.690 369.793,130.800 369.818 C 132.217 370.150,133.200 370.542,133.200 370.777 C 133.200 370.936,133.470 371.097,133.800 371.133 C 134.130 371.170,134.670 371.230,135.000 371.267 C 135.330 371.303,135.600 371.483,135.600 371.667 C 135.600 371.850,135.949 372.000,136.376 372.000 C 136.803 372.000,137.266 372.183,137.404 372.407 C 137.542 372.630,137.811 372.717,138.000 372.600 C 138.190 372.482,139.573 372.854,141.073 373.426 C 142.573 373.998,144.250 374.551,144.800 374.656 C 145.350 374.761,145.860 375.016,145.933 375.224 C 146.007 375.431,146.604 375.600,147.260 375.600 C 147.916 375.600,148.812 375.793,149.252 376.028 C 149.692 376.263,150.400 376.533,150.826 376.628 C 151.693 376.821,151.753 376.836,156.200 378.005 C 157.960 378.467,159.760 378.910,160.200 378.989 C 160.640 379.069,161.000 379.159,161.000 379.190 C 161.000 379.222,161.720 379.329,162.600 379.429 C 163.480 379.529,164.425 379.639,164.700 379.672 C 164.975 379.706,165.200 379.853,165.200 380.000 C 165.200 380.147,165.425 380.280,165.700 380.296 C 167.241 380.385,169.529 380.705,169.840 380.875 C 170.038 380.982,170.920 381.107,171.800 381.151 C 173.815 381.252,174.497 381.361,175.000 381.662 C 175.220 381.794,176.210 381.927,177.200 381.959 C 179.340 382.027,181.760 382.252,181.900 382.397 C 181.955 382.453,182.675 382.544,183.500 382.598 C 191.905 383.149,194.641 383.258,200.000 383.258 C 205.359 383.258,208.095 383.149,216.500 382.598 C 217.325 382.544,218.045 382.453,218.100 382.397 C 218.240 382.252,220.660 382.027,222.800 381.959 C 223.790 381.927,224.780 381.794,225.000 381.662 C 225.503 381.361,226.185 381.252,228.200 381.151 C 229.080 381.107,229.962 380.982,230.160 380.875 C 230.471 380.705,232.759 380.385,234.300 380.296 C 234.575 380.280,234.800 380.147,234.800 380.000 C 234.800 379.853,235.025 379.706,235.300 379.672 C 235.575 379.639,236.520 379.529,237.400 379.429 C 238.280 379.329,239.090 379.215,239.200 379.176 C 239.310 379.137,239.542 379.129,239.716 379.158 C 239.890 379.187,240.374 379.028,240.792 378.804 C 241.210 378.581,242.777 378.125,244.276 377.792 C 245.774 377.458,247.315 377.099,247.700 376.993 C 248.085 376.887,248.748 376.723,249.174 376.628 C 249.600 376.533,250.308 376.263,250.748 376.028 C 251.188 375.793,252.084 375.600,252.740 375.600 C 253.396 375.600,253.993 375.460,254.067 375.290 C 254.213 374.949,260.586 372.710,261.692 372.611 C 262.072 372.577,262.507 372.426,262.659 372.275 C 262.810 372.124,263.263 372.000,263.667 372.000 C 264.070 372.000,264.400 371.790,264.400 371.533 C 264.400 371.277,264.521 371.187,264.668 371.335 C 264.816 371.482,265.311 371.361,265.768 371.065 C 266.445 370.627,267.714 370.166,269.200 369.818 C 269.310 369.793,269.805 369.547,270.300 369.272 C 270.795 368.997,271.200 368.865,271.200 368.978 C 271.200 369.091,272.010 368.732,273.000 368.179 C 273.990 367.627,274.800 367.272,274.800 367.392 C 274.800 367.512,275.520 367.156,276.400 366.600 C 277.280 366.044,278.000 365.686,278.000 365.804 C 278.000 365.922,278.450 365.724,279.000 365.363 C 279.550 365.003,280.000 364.841,280.000 365.003 C 280.000 365.165,280.225 365.113,280.500 364.887 C 280.775 364.661,282.080 363.892,283.400 363.179 C 284.720 362.465,286.565 361.461,287.500 360.948 C 288.435 360.436,289.200 360.107,289.200 360.219 C 289.200 360.330,290.143 359.786,291.295 359.011 C 292.447 358.235,293.617 357.600,293.895 357.600 C 294.173 357.600,294.400 357.419,294.400 357.197 C 294.400 356.975,295.120 356.505,296.000 356.153 C 296.880 355.801,297.600 355.323,297.600 355.090 C 297.600 354.857,297.709 354.776,297.843 354.909 C 297.976 355.043,298.291 354.978,298.543 354.765 C 299.781 353.716,305.648 349.600,305.906 349.600 C 306.068 349.599,306.740 349.157,307.400 348.617 C 308.060 348.076,309.019 347.311,309.532 346.917 C 310.045 346.523,310.707 345.975,311.004 345.700 C 311.300 345.425,311.736 345.200,311.971 345.200 C 312.207 345.200,312.400 345.014,312.400 344.787 C 312.400 344.561,312.715 344.259,313.100 344.117 C 313.485 343.976,314.178 343.486,314.640 343.030 C 315.102 342.573,316.182 341.635,317.040 340.944 C 320.596 338.079,321.407 337.385,321.536 337.092 C 321.611 336.922,322.196 336.512,322.836 336.181 C 323.476 335.850,324.000 335.314,324.000 334.990 C 324.000 334.665,324.158 334.400,324.351 334.400 C 324.544 334.400,326.884 332.218,329.551 329.551 C 332.218 326.884,334.400 324.544,334.400 324.351 C 334.400 324.158,334.665 324.000,334.990 324.000 C 335.314 324.000,335.850 323.476,336.181 322.836 C 336.512 322.196,336.922 321.611,337.092 321.536 C 337.385 321.407,338.079 320.596,340.944 317.040 C 341.635 316.182,342.605 315.082,343.100 314.594 C 343.595 314.107,344.000 313.498,344.000 313.242 C 344.000 312.985,344.270 312.671,344.600 312.545 C 344.930 312.418,345.200 312.146,345.200 311.940 C 345.200 311.735,345.383 311.349,345.606 311.083 C 345.830 310.817,346.415 310.128,346.906 309.552 C 347.398 308.976,348.160 308.001,348.600 307.386 C 349.040 306.771,349.593 306.073,349.829 305.834 C 350.064 305.595,350.244 305.271,350.229 305.113 C 350.213 304.955,350.470 304.498,350.800 304.098 C 351.130 303.697,352.120 302.296,353.000 300.985 C 353.880 299.673,354.736 298.540,354.902 298.466 C 355.069 298.392,355.103 298.167,354.979 297.966 C 354.855 297.765,354.922 297.600,355.128 297.600 C 355.334 297.600,355.733 297.015,356.013 296.300 C 356.294 295.585,356.721 294.815,356.962 294.590 C 357.443 294.140,358.041 293.088,360.710 288.000 C 363.147 283.356,364.408 281.093,364.891 280.500 C 365.115 280.225,365.180 280.000,365.035 280.000 C 364.890 280.000,364.997 279.595,365.272 279.100 C 365.547 278.605,365.790 278.110,365.812 278.000 C 365.834 277.890,366.518 276.406,367.333 274.703 C 368.148 273.000,368.829 271.470,368.847 271.303 C 368.864 271.136,369.080 270.640,369.325 270.200 C 369.571 269.760,369.793 269.310,369.818 269.200 C 370.150 267.783,370.542 266.800,370.777 266.800 C 370.936 266.800,371.097 266.530,371.133 266.200 C 371.170 265.870,371.230 265.330,371.267 265.000 C 371.303 264.670,371.483 264.400,371.667 264.400 C 371.850 264.400,372.000 264.051,372.000 263.624 C 372.000 263.197,372.183 262.734,372.407 262.596 C 372.630 262.458,372.717 262.189,372.600 262.000 C 372.482 261.810,372.854 260.427,373.426 258.927 C 373.998 257.427,374.551 255.750,374.656 255.200 C 374.761 254.650,375.016 254.140,375.224 254.067 C 375.431 253.993,375.600 253.396,375.600 252.740 C 375.600 252.084,375.793 251.188,376.028 250.748 C 376.263 250.308,376.533 249.600,376.628 249.174 C 376.821 248.307,376.836 248.247,378.005 243.800 C 378.467 242.040,378.910 240.240,378.989 239.800 C 379.069 239.360,379.159 239.000,379.190 239.000 C 379.222 239.000,379.329 238.280,379.429 237.400 C 379.529 236.520,379.639 235.575,379.672 235.300 C 379.706 235.025,379.847 234.800,379.985 234.800 C 380.123 234.800,380.288 234.215,380.351 233.500 C 380.565 231.063,380.638 230.586,380.854 230.193 C 380.973 229.977,381.107 229.080,381.151 228.200 C 381.252 226.185,381.361 225.503,381.662 225.000 C 381.794 224.780,381.927 223.790,381.959 222.800 C 382.027 220.642,382.256 218.200,382.390 218.200 C 382.491 218.200,382.567 217.206,382.987 210.400 C 383.319 205.015,383.319 194.985,382.987 189.600 C 382.567 182.794,382.491 181.800,382.390 181.800 C 382.256 181.800,382.027 179.358,381.959 177.200 C 381.927 176.210,381.794 175.220,381.662 175.000 C 381.361 174.497,381.252 173.815,381.151 171.800 C 381.107 170.920,380.982 170.038,380.875 169.840 C 380.705 169.529,380.385 167.241,380.296 165.700 C 380.280 165.425,380.147 165.200,380.000 165.200 C 379.853 165.200,379.706 164.975,379.672 164.700 C 379.639 164.425,379.529 163.480,379.429 162.600 C 379.329 161.720,379.215 160.910,379.176 160.800 C 379.137 160.690,379.129 160.458,379.158 160.284 C 379.187 160.110,379.028 159.626,378.804 159.208 C 378.581 158.790,378.125 157.223,377.792 155.724 C 377.458 154.226,377.099 152.685,376.993 152.300 C 376.887 151.915,376.723 151.252,376.628 150.826 C 376.533 150.400,376.263 149.692,376.028 149.252 C 375.793 148.812,375.600 147.916,375.600 147.260 C 375.600 146.604,375.460 146.007,375.290 145.933 C 374.949 145.787,372.710 139.414,372.611 138.308 C 372.577 137.928,372.426 137.493,372.275 137.341 C 372.124 137.190,372.000 136.737,372.000 136.333 C 372.000 135.930,371.850 135.600,371.667 135.600 C 371.483 135.600,371.303 135.330,371.267 135.000 C 371.230 134.670,371.170 134.130,371.133 133.800 C 371.097 133.470,370.936 133.200,370.777 133.200 C 370.542 133.200,370.150 132.217,369.818 130.800 C 369.793 130.690,369.547 130.195,369.272 129.700 C 368.997 129.205,368.865 128.800,368.978 128.800 C 369.091 128.800,368.732 127.990,368.179 127.000 C 367.627 126.010,367.272 125.200,367.392 125.200 C 367.512 125.200,367.156 124.480,366.600 123.600 C 366.044 122.720,365.686 122.000,365.804 122.000 C 365.922 122.000,365.724 121.550,365.363 121.000 C 365.003 120.450,364.841 120.000,365.003 120.000 C 365.165 120.000,365.113 119.775,364.887 119.500 C 364.661 119.225,363.892 117.920,363.179 116.600 C 362.465 115.280,361.461 113.435,360.948 112.500 C 360.436 111.565,360.107 110.800,360.219 110.800 C 360.330 110.800,359.786 109.857,359.011 108.705 C 358.235 107.553,357.600 106.383,357.600 106.105 C 357.600 105.827,357.419 105.600,357.197 105.600 C 356.975 105.600,356.505 104.880,356.153 104.000 C 355.801 103.120,355.323 102.400,355.090 102.400 C 354.857 102.400,354.778 102.289,354.914 102.152 C 355.050 102.016,354.945 101.671,354.681 101.385 C 353.826 100.461,350.196 95.096,350.314 94.931 C 350.377 94.843,350.197 94.538,349.914 94.252 C 349.631 93.966,349.040 93.229,348.600 92.614 C 348.160 91.999,347.398 91.024,346.906 90.448 C 346.415 89.872,345.830 89.183,345.606 88.917 C 345.383 88.651,345.200 88.265,345.200 88.060 C 345.200 87.854,344.930 87.582,344.600 87.455 C 344.270 87.329,344.000 87.015,344.000 86.758 C 344.000 86.502,343.595 85.893,343.100 85.406 C 342.605 84.918,341.635 83.818,340.944 82.960 C 338.079 79.404,337.385 78.593,337.092 78.464 C 336.922 78.389,336.512 77.804,336.181 77.164 C 335.850 76.524,335.314 76.000,334.990 76.000 C 334.665 76.000,334.400 75.842,334.400 75.649 C 334.400 75.191,324.809 65.600,324.351 65.600 C 324.158 65.600,324.000 65.335,324.000 65.010 C 324.000 64.686,323.476 64.150,322.836 63.819 C 322.196 63.488,321.611 63.078,321.536 62.908 C 321.407 62.615,320.596 61.921,317.040 59.056 C 316.182 58.365,315.082 57.395,314.594 56.900 C 314.107 56.405,313.498 56.000,313.242 56.000 C 312.985 56.000,312.671 55.730,312.545 55.400 C 312.418 55.070,312.146 54.800,311.940 54.800 C 311.735 54.800,311.349 54.617,311.083 54.394 C 310.817 54.170,310.128 53.585,309.552 53.094 C 308.976 52.602,308.001 51.840,307.386 51.400 C 306.771 50.960,306.073 50.407,305.834 50.171 C 305.595 49.936,305.271 49.756,305.113 49.771 C 304.955 49.787,304.498 49.530,304.098 49.200 C 303.697 48.870,302.296 47.880,300.985 47.000 C 299.673 46.120,298.540 45.264,298.466 45.098 C 298.392 44.931,298.167 44.897,297.966 45.021 C 297.765 45.145,297.600 45.078,297.600 44.872 C 297.600 44.666,297.015 44.267,296.300 43.987 C 295.585 43.706,294.815 43.279,294.590 43.038 C 294.140 42.557,293.088 41.959,288.000 39.290 C 283.356 36.853,281.093 35.592,280.500 35.109 C 280.225 34.885,280.000 34.820,280.000 34.965 C 280.000 35.110,279.595 35.003,279.100 34.728 C 278.605 34.453,278.110 34.210,278.000 34.188 C 277.890 34.166,276.406 33.482,274.703 32.667 C 273.000 31.852,271.560 31.219,271.503 31.260 C 271.446 31.302,270.950 31.086,270.400 30.782 C 269.850 30.477,269.310 30.207,269.200 30.182 C 267.783 29.850,266.800 29.458,266.800 29.223 C 266.800 29.064,266.530 28.903,266.200 28.867 C 265.870 28.830,265.330 28.770,265.000 28.733 C 264.670 28.697,264.400 28.517,264.400 28.333 C 264.400 28.150,264.051 28.000,263.624 28.000 C 263.197 28.000,262.734 27.817,262.596 27.593 C 262.458 27.370,262.189 27.283,262.000 27.400 C 261.810 27.518,260.427 27.146,258.927 26.574 C 257.427 26.002,255.750 25.449,255.200 25.344 C 254.650 25.239,254.140 24.984,254.067 24.776 C 253.993 24.569,253.396 24.400,252.740 24.400 C 252.084 24.400,251.188 24.207,250.748 23.972 C 250.308 23.737,249.600 23.467,249.174 23.372 C 248.307 23.179,248.247 23.164,243.800 21.995 C 242.040 21.533,240.240 21.090,239.800 21.011 C 239.360 20.931,239.000 20.841,239.000 20.810 C 239.000 20.778,238.280 20.671,237.400 20.571 C 236.520 20.471,235.575 20.361,235.300 20.328 C 235.025 20.294,234.800 20.153,234.800 20.015 C 234.800 19.877,234.215 19.712,233.500 19.649 C 231.063 19.435,230.586 19.362,230.193 19.146 C 229.977 19.027,229.080 18.893,228.200 18.849 C 226.185 18.748,225.503 18.639,225.000 18.338 C 224.780 18.206,223.790 18.073,222.800 18.041 C 220.642 17.973,218.200 17.744,218.200 17.610 C 218.200 17.508,217.115 17.425,210.400 17.016 C 205.891 16.741,194.008 16.525,193.818 16.715 M213.400 50.552 C 214.500 50.674,216.390 50.866,217.600 50.978 C 218.810 51.090,220.250 51.292,220.800 51.427 C 221.350 51.562,222.340 51.714,223.000 51.764 C 223.660 51.813,224.740 51.973,225.400 52.119 C 226.535 52.369,228.000 52.657,229.800 52.983 C 233.737 53.697,235.549 54.092,236.400 54.423 C 237.370 54.799,238.327 55.040,240.400 55.429 C 240.950 55.532,241.760 55.779,242.200 55.977 C 243.180 56.419,245.291 56.955,245.700 56.866 C 245.865 56.830,246.000 56.958,246.000 57.150 C 246.000 57.466,247.623 57.998,249.216 58.203 C 249.555 58.247,250.455 58.565,251.216 58.910 C 251.977 59.254,253.050 59.665,253.600 59.822 C 254.150 59.979,254.698 60.259,254.817 60.444 C 254.937 60.629,255.477 60.861,256.017 60.960 C 256.558 61.059,257.045 61.176,257.100 61.220 C 257.155 61.264,257.335 61.333,257.500 61.374 C 257.665 61.415,258.478 61.745,259.307 62.107 C 260.136 62.469,260.946 62.805,261.107 62.854 C 261.268 62.903,261.640 63.182,261.932 63.475 C 262.225 63.768,262.630 63.905,262.832 63.780 C 263.035 63.655,263.200 63.724,263.200 63.933 C 263.200 64.242,264.539 64.812,265.629 64.967 C 265.754 64.985,266.172 65.315,266.557 65.700 C 266.942 66.085,267.514 66.422,267.829 66.450 C 269.033 66.555,269.197 66.620,269.987 67.296 C 270.434 67.679,270.803 67.859,270.806 67.696 C 270.809 67.533,270.963 67.637,271.146 67.927 C 271.330 68.216,271.732 68.501,272.040 68.560 C 273.023 68.748,274.800 69.716,274.800 70.064 C 274.800 70.249,275.160 70.400,275.600 70.400 C 276.040 70.400,276.400 70.580,276.400 70.800 C 276.400 71.020,276.651 71.200,276.957 71.200 C 277.264 71.200,277.622 71.481,277.754 71.825 C 277.886 72.169,278.155 72.351,278.352 72.230 C 278.548 72.108,278.932 72.277,279.204 72.604 C 279.476 72.932,279.946 73.200,280.249 73.200 C 280.552 73.200,280.800 73.345,280.800 73.523 C 280.800 73.701,281.475 74.147,282.300 74.516 C 283.125 74.884,284.340 75.689,285.000 76.305 C 285.660 76.920,286.920 77.842,287.800 78.353 C 288.680 78.865,289.544 79.534,289.720 79.841 C 289.896 80.149,290.256 80.402,290.520 80.404 C 290.784 80.407,291.627 81.054,292.393 81.842 C 293.160 82.631,294.285 83.533,294.893 83.848 C 295.502 84.163,296.000 84.626,296.000 84.877 C 296.000 85.128,296.109 85.225,296.241 85.092 C 296.374 84.959,297.198 85.559,298.073 86.425 C 298.948 87.291,299.754 88.000,299.864 88.000 C 300.127 88.000,312.000 99.873,312.000 100.136 C 312.000 100.246,312.727 101.071,313.615 101.968 C 314.504 102.866,315.134 103.600,315.015 103.600 C 314.792 103.600,315.278 104.220,316.991 106.118 C 317.546 106.733,318.000 107.389,318.000 107.575 C 318.000 107.762,318.273 108.019,318.606 108.147 C 318.939 108.275,319.385 108.834,319.596 109.390 C 319.807 109.945,320.132 110.400,320.316 110.400 C 320.501 110.400,321.081 111.165,321.605 112.100 C 322.128 113.035,323.055 114.336,323.664 114.990 C 324.273 115.645,325.093 116.815,325.486 117.590 C 325.879 118.366,326.335 119.060,326.500 119.133 C 326.665 119.207,326.800 119.500,326.800 119.784 C 326.800 120.069,327.068 120.524,327.396 120.796 C 327.723 121.068,327.892 121.452,327.770 121.648 C 327.649 121.845,327.831 122.114,328.175 122.246 C 328.519 122.378,328.800 122.736,328.800 123.043 C 328.800 123.349,328.980 123.600,329.200 123.600 C 329.420 123.600,329.600 123.960,329.600 124.400 C 329.600 124.840,329.751 125.200,329.936 125.200 C 330.284 125.200,331.252 126.977,331.440 127.960 C 331.499 128.268,331.784 128.670,332.073 128.854 C 332.363 129.037,332.467 129.191,332.304 129.194 C 332.141 129.197,332.321 129.566,332.704 130.013 C 333.380 130.803,333.445 130.967,333.550 132.171 C 333.578 132.486,333.915 133.058,334.300 133.443 C 334.685 133.828,335.015 134.246,335.033 134.371 C 335.188 135.461,335.758 136.800,336.067 136.800 C 336.276 136.800,336.345 136.965,336.220 137.168 C 336.095 137.370,336.271 137.814,336.611 138.153 C 336.950 138.493,337.230 138.865,337.232 138.978 C 337.233 139.092,337.531 139.864,337.893 140.693 C 338.255 141.522,338.585 142.335,338.626 142.500 C 338.667 142.665,338.736 142.845,338.780 142.900 C 338.824 142.955,338.941 143.442,339.040 143.983 C 339.139 144.523,339.371 145.063,339.556 145.183 C 339.741 145.302,340.021 145.850,340.178 146.400 C 340.335 146.950,340.746 148.023,341.090 148.784 C 341.435 149.545,341.753 150.445,341.797 150.784 C 341.986 152.252,342.522 154.000,342.783 154.000 C 342.939 154.000,343.091 154.225,343.122 154.500 C 343.311 156.219,343.585 157.300,343.941 157.729 C 344.165 157.999,344.410 158.665,344.484 159.210 C 344.559 159.754,344.769 160.437,344.950 160.727 C 345.132 161.016,345.182 161.352,345.061 161.472 C 344.941 161.592,345.095 162.345,345.402 163.145 C 345.973 164.627,346.983 169.408,347.360 172.405 C 347.429 172.958,347.591 173.768,347.720 174.205 C 347.848 174.642,348.060 175.720,348.190 176.600 C 348.319 177.480,348.525 178.740,348.647 179.400 C 348.769 180.060,348.933 181.320,349.012 182.200 C 349.091 183.080,349.293 185.150,349.462 186.800 C 349.854 190.635,349.847 209.263,349.452 213.200 C 349.286 214.850,349.088 216.920,349.011 217.800 C 348.934 218.680,348.749 219.940,348.601 220.600 C 348.453 221.260,348.286 222.340,348.230 223.000 C 348.141 224.063,347.868 225.627,347.326 228.200 C 347.233 228.640,347.093 229.360,347.014 229.800 C 346.358 233.478,345.907 235.550,345.577 236.400 C 345.201 237.370,344.960 238.327,344.571 240.400 C 344.468 240.950,344.221 241.760,344.023 242.200 C 343.581 243.180,343.045 245.291,343.134 245.700 C 343.170 245.865,343.042 246.000,342.850 246.000 C 342.534 246.000,342.002 247.623,341.797 249.216 C 341.753 249.555,341.435 250.455,341.090 251.216 C 340.746 251.977,340.335 253.050,340.178 253.600 C 340.021 254.150,339.741 254.698,339.556 254.817 C 339.371 254.937,339.139 255.477,339.040 256.017 C 338.941 256.558,338.824 257.045,338.780 257.100 C 338.736 257.155,338.667 257.335,338.626 257.500 C 338.585 257.665,338.255 258.478,337.893 259.307 C 337.531 260.136,337.233 260.908,337.232 261.022 C 337.230 261.135,336.950 261.507,336.611 261.847 C 336.271 262.186,336.095 262.630,336.220 262.832 C 336.345 263.035,336.276 263.200,336.067 263.200 C 335.758 263.200,335.188 264.539,335.033 265.629 C 335.015 265.754,334.685 266.172,334.300 266.557 C 333.915 266.942,333.578 267.514,333.550 267.829 C 333.445 269.033,333.380 269.197,332.704 269.987 C 332.321 270.434,332.141 270.803,332.304 270.806 C 332.467 270.809,332.363 270.963,332.073 271.146 C 331.784 271.330,331.499 271.732,331.440 272.040 C 331.252 273.023,330.284 274.800,329.936 274.800 C 329.751 274.800,329.600 275.160,329.600 275.600 C 329.600 276.040,329.420 276.400,329.200 276.400 C 328.980 276.400,328.800 276.651,328.800 276.957 C 328.800 277.264,328.519 277.622,328.175 277.754 C 327.831 277.886,327.649 278.155,327.770 278.352 C 327.892 278.548,327.723 278.932,327.396 279.204 C 327.068 279.476,326.800 279.946,326.800 280.249 C 326.800 280.552,326.655 280.800,326.477 280.800 C 326.299 280.800,325.853 281.475,325.484 282.300 C 325.116 283.125,324.311 284.340,323.695 285.000 C 323.080 285.660,322.158 286.920,321.647 287.800 C 321.135 288.680,320.466 289.544,320.159 289.720 C 319.851 289.896,319.598 290.256,319.596 290.520 C 319.593 290.784,318.946 291.627,318.158 292.393 C 317.369 293.160,316.467 294.285,316.152 294.893 C 315.837 295.502,315.374 296.000,315.123 296.000 C 314.872 296.000,314.775 296.109,314.908 296.241 C 315.041 296.374,314.441 297.198,313.575 298.073 C 312.709 298.948,312.000 299.754,312.000 299.864 C 312.000 300.127,300.127 312.000,299.864 312.000 C 299.754 312.000,298.929 312.727,298.032 313.615 C 297.134 314.504,296.400 315.134,296.400 315.015 C 296.400 314.800,295.818 315.259,293.827 317.045 C 293.242 317.570,292.611 318.000,292.425 318.000 C 292.238 318.000,291.981 318.273,291.853 318.606 C 291.725 318.939,291.166 319.385,290.610 319.596 C 290.055 319.807,289.600 320.132,289.600 320.316 C 289.600 320.501,288.835 321.081,287.900 321.605 C 286.965 322.128,285.664 323.055,285.010 323.664 C 284.355 324.273,283.185 325.093,282.410 325.486 C 281.634 325.879,280.940 326.335,280.867 326.500 C 280.793 326.665,280.500 326.800,280.216 326.800 C 279.931 326.800,279.476 327.068,279.204 327.396 C 278.932 327.723,278.548 327.892,278.352 327.770 C 278.155 327.649,277.886 327.831,277.754 328.175 C 277.622 328.519,277.264 328.800,276.957 328.800 C 276.651 328.800,276.400 328.980,276.400 329.200 C 276.400 329.420,276.040 329.600,275.600 329.600 C 275.160 329.600,274.800 329.751,274.800 329.936 C 274.800 330.284,273.023 331.252,272.040 331.440 C 271.732 331.499,271.330 331.784,271.146 332.073 C 270.963 332.363,270.809 332.467,270.806 332.304 C 270.803 332.141,270.434 332.321,269.987 332.704 C 269.197 333.380,269.033 333.445,267.829 333.550 C 267.514 333.577,266.942 333.915,266.557 334.300 C 266.172 334.685,265.754 335.015,265.629 335.033 C 264.539 335.188,263.200 335.758,263.200 336.067 C 263.200 336.276,263.035 336.345,262.832 336.220 C 262.630 336.095,262.225 336.232,261.932 336.525 C 261.640 336.818,261.268 337.097,261.107 337.146 C 260.946 337.195,260.136 337.531,259.307 337.893 C 258.478 338.255,257.665 338.585,257.500 338.626 C 257.335 338.667,257.155 338.736,257.100 338.780 C 257.045 338.824,256.558 338.941,256.017 339.040 C 255.477 339.139,254.937 339.371,254.817 339.556 C 254.698 339.741,254.150 340.021,253.600 340.178 C 253.050 340.335,251.977 340.746,251.216 341.090 C 250.455 341.435,249.555 341.753,249.216 341.797 C 247.748 341.986,246.000 342.522,246.000 342.783 C 246.000 342.939,245.775 343.091,245.500 343.122 C 243.781 343.311,242.700 343.585,242.271 343.941 C 242.001 344.165,241.335 344.410,240.790 344.484 C 240.246 344.559,239.563 344.769,239.273 344.950 C 238.984 345.132,238.648 345.182,238.528 345.061 C 238.408 344.941,237.655 345.095,236.855 345.402 C 235.373 345.973,230.592 346.983,227.595 347.360 C 227.042 347.429,226.232 347.591,225.795 347.720 C 225.358 347.848,224.280 348.060,223.400 348.190 C 222.520 348.319,221.260 348.525,220.600 348.647 C 219.940 348.769,218.680 348.933,217.800 349.012 C 216.920 349.091,214.850 349.293,213.200 349.462 C 209.365 349.854,190.737 349.847,186.800 349.452 C 185.150 349.286,183.080 349.088,182.200 349.011 C 181.320 348.934,180.060 348.749,179.400 348.601 C 178.740 348.453,177.660 348.290,177.000 348.239 C 176.340 348.188,175.260 348.027,174.600 347.881 C 173.465 347.631,172.000 347.343,170.200 347.017 C 166.263 346.303,164.451 345.908,163.600 345.577 C 162.630 345.201,161.673 344.960,159.600 344.571 C 159.050 344.468,158.240 344.221,157.800 344.023 C 156.820 343.581,154.709 343.045,154.300 343.134 C 154.135 343.170,154.000 343.043,154.000 342.850 C 154.000 342.534,152.377 342.002,150.784 341.797 C 150.445 341.753,149.545 341.435,148.784 341.090 C 148.023 340.746,146.950 340.335,146.400 340.178 C 145.850 340.021,145.302 339.741,145.183 339.556 C 145.063 339.371,144.523 339.139,143.983 339.040 C 143.442 338.941,142.955 338.824,142.900 338.780 C 142.845 338.736,142.665 338.667,142.500 338.626 C 142.335 338.585,141.522 338.255,140.693 337.893 C 139.864 337.531,139.054 337.195,138.893 337.146 C 138.732 337.097,138.360 336.818,138.068 336.525 C 137.775 336.232,137.370 336.095,137.168 336.220 C 136.965 336.345,136.800 336.276,136.800 336.067 C 136.800 335.758,135.461 335.188,134.371 335.033 C 134.246 335.015,133.828 334.685,133.443 334.300 C 133.058 333.915,132.486 333.577,132.171 333.550 C 130.967 333.445,130.803 333.380,130.013 332.704 C 129.566 332.321,129.197 332.141,129.194 332.304 C 129.191 332.467,129.037 332.363,128.854 332.073 C 128.670 331.784,128.268 331.499,127.960 331.440 C 126.977 331.252,125.200 330.284,125.200 329.936 C 125.200 329.751,124.840 329.600,124.400 329.600 C 123.960 329.600,123.600 329.420,123.600 329.200 C 123.600 328.980,123.349 328.800,123.043 328.800 C 122.736 328.800,122.378 328.519,122.246 328.175 C 122.114 327.831,121.845 327.649,121.648 327.770 C 121.452 327.892,121.068 327.723,120.796 327.396 C 120.524 327.068,120.054 326.800,119.751 326.800 C 119.448 326.800,119.200 326.655,119.200 326.477 C 119.200 326.299,118.525 325.853,117.700 325.484 C 116.875 325.116,115.660 324.311,115.000 323.695 C 114.340 323.080,113.080 322.158,112.200 321.647 C 111.320 321.135,110.456 320.466,110.280 320.159 C 110.104 319.851,109.744 319.598,109.480 319.596 C 109.216 319.593,108.373 318.946,107.607 318.158 C 106.840 317.369,105.715 316.467,105.107 316.152 C 104.498 315.837,104.000 315.374,104.000 315.123 C 104.000 314.872,103.891 314.775,103.759 314.908 C 103.626 315.041,102.802 314.441,101.927 313.575 C 101.052 312.709,100.246 312.000,100.136 312.000 C 99.873 312.000,88.000 300.127,88.000 299.864 C 88.000 299.754,87.273 298.929,86.385 298.032 C 85.496 297.134,84.866 296.400,84.985 296.400 C 85.200 296.400,84.741 295.818,82.955 293.827 C 82.430 293.242,82.000 292.611,82.000 292.425 C 82.000 292.238,81.727 291.981,81.394 291.853 C 81.061 291.725,80.615 291.166,80.404 290.610 C 80.193 290.055,79.868 289.600,79.684 289.600 C 79.499 289.600,78.919 288.835,78.395 287.900 C 77.872 286.965,76.945 285.664,76.336 285.010 C 75.727 284.355,74.907 283.185,74.514 282.410 C 74.121 281.634,73.665 280.940,73.500 280.867 C 73.335 280.793,73.200 280.500,73.200 280.216 C 73.200 279.931,72.932 279.476,72.604 279.204 C 72.277 278.932,72.108 278.548,72.230 278.352 C 72.351 278.155,72.169 277.886,71.825 277.754 C 71.481 277.622,71.200 277.264,71.200 276.957 C 71.200 276.651,71.020 276.400,70.800 276.400 C 70.580 276.400,70.400 276.040,70.400 275.600 C 70.400 275.160,70.249 274.800,70.064 274.800 C 69.716 274.800,68.748 273.023,68.560 272.040 C 68.501 271.732,68.216 271.330,67.927 271.146 C 67.637 270.963,67.533 270.809,67.696 270.806 C 67.859 270.803,67.679 270.434,67.296 269.987 C 66.620 269.197,66.555 269.033,66.450 267.829 C 66.422 267.514,66.085 266.942,65.700 266.557 C 65.315 266.172,64.985 265.754,64.967 265.629 C 64.812 264.539,64.242 263.200,63.933 263.200 C 63.724 263.200,63.655 263.035,63.780 262.832 C 63.905 262.630,63.729 262.186,63.389 261.847 C 63.050 261.507,62.787 261.177,62.807 261.114 C 62.827 261.051,62.529 260.280,62.146 259.400 C 61.762 258.520,61.415 257.665,61.374 257.500 C 61.333 257.335,61.264 257.155,61.220 257.100 C 61.176 257.045,61.059 256.558,60.960 256.017 C 60.861 255.477,60.629 254.937,60.444 254.817 C 60.259 254.698,59.979 254.150,59.822 253.600 C 59.665 253.050,59.254 251.977,58.910 251.216 C 58.565 250.455,58.247 249.555,58.203 249.216 C 58.014 247.748,57.478 246.000,57.217 246.000 C 57.061 246.000,56.909 245.775,56.878 245.500 C 56.689 243.781,56.415 242.700,56.059 242.271 C 55.835 242.001,55.590 241.335,55.516 240.790 C 55.441 240.246,55.231 239.563,55.050 239.273 C 54.868 238.984,54.818 238.648,54.939 238.528 C 55.059 238.408,54.905 237.655,54.598 236.855 C 54.027 235.373,53.017 230.592,52.640 227.595 C 52.571 227.042,52.409 226.232,52.280 225.795 C 52.152 225.358,51.940 224.280,51.810 223.400 C 51.681 222.520,51.475 221.260,51.353 220.600 C 51.231 219.940,51.067 218.680,50.988 217.800 C 50.909 216.920,50.707 214.850,50.538 213.200 C 50.146 209.365,50.153 190.737,50.548 186.800 C 50.714 185.150,50.912 183.080,50.989 182.200 C 51.066 181.320,51.251 180.060,51.399 179.400 C 51.547 178.740,51.710 177.660,51.761 177.000 C 51.812 176.340,51.973 175.260,52.119 174.600 C 52.369 173.465,52.657 172.000,52.983 170.200 C 53.697 166.263,54.092 164.451,54.423 163.600 C 54.799 162.630,55.040 161.673,55.429 159.600 C 55.532 159.050,55.779 158.240,55.977 157.800 C 56.419 156.820,56.955 154.709,56.866 154.300 C 56.830 154.135,56.958 154.000,57.150 154.000 C 57.466 154.000,57.998 152.377,58.203 150.784 C 58.247 150.445,58.565 149.545,58.910 148.784 C 59.254 148.023,59.665 146.950,59.822 146.400 C 59.979 145.850,60.259 145.302,60.444 145.183 C 60.629 145.063,60.861 144.523,60.960 143.983 C 61.059 143.442,61.176 142.955,61.220 142.900 C 61.264 142.845,61.333 142.665,61.374 142.500 C 61.415 142.335,61.745 141.522,62.107 140.693 C 62.469 139.864,62.767 139.092,62.768 138.978 C 62.770 138.865,63.050 138.493,63.389 138.153 C 63.729 137.814,63.905 137.370,63.780 137.168 C 63.655 136.965,63.724 136.800,63.933 136.800 C 64.242 136.800,64.812 135.461,64.967 134.371 C 64.985 134.246,65.315 133.828,65.700 133.443 C 66.085 133.058,66.422 132.486,66.450 132.171 C 66.555 130.967,66.620 130.803,67.296 130.013 C 67.679 129.566,67.859 129.197,67.696 129.194 C 67.533 129.191,67.637 129.037,67.927 128.854 C 68.216 128.670,68.501 128.268,68.560 127.960 C 68.748 126.977,69.716 125.200,70.064 125.200 C 70.249 125.200,70.400 124.840,70.400 124.400 C 70.400 123.960,70.580 123.600,70.800 123.600 C 71.020 123.600,71.200 123.349,71.200 123.043 C 71.200 122.736,71.481 122.378,71.825 122.246 C 72.169 122.114,72.351 121.845,72.230 121.648 C 72.108 121.452,72.277 121.068,72.604 120.796 C 72.932 120.524,73.200 120.054,73.200 119.751 C 73.200 119.448,73.345 119.200,73.523 119.200 C 73.701 119.200,74.147 118.525,74.516 117.700 C 74.884 116.875,75.689 115.660,76.305 115.000 C 76.920 114.340,77.842 113.080,78.353 112.200 C 78.865 111.320,79.534 110.456,79.841 110.280 C 80.149 110.104,80.402 109.744,80.404 109.480 C 80.407 109.216,81.054 108.373,81.842 107.607 C 82.631 106.840,83.533 105.715,83.848 105.107 C 84.163 104.498,84.626 104.000,84.877 104.000 C 85.128 104.000,85.225 103.891,85.092 103.759 C 84.959 103.626,85.559 102.802,86.425 101.927 C 87.291 101.052,88.000 100.246,88.000 100.136 C 88.000 99.873,99.873 88.000,100.136 88.000 C 100.246 88.000,101.071 87.273,101.968 86.385 C 102.866 85.496,103.600 84.866,103.600 84.985 C 103.600 85.200,104.182 84.741,106.173 82.955 C 106.758 82.430,107.389 82.000,107.575 82.000 C 107.762 82.000,108.019 81.727,108.147 81.394 C 108.275 81.061,108.834 80.615,109.390 80.404 C 109.945 80.193,110.400 79.868,110.400 79.684 C 110.400 79.499,111.165 78.919,112.100 78.395 C 113.035 77.872,114.336 76.945,114.990 76.336 C 115.645 75.727,116.815 74.907,117.590 74.514 C 118.366 74.121,119.060 73.665,119.133 73.500 C 119.207 73.335,119.500 73.200,119.784 73.200 C 120.069 73.200,120.524 72.932,120.796 72.604 C 121.068 72.277,121.452 72.108,121.648 72.230 C 121.845 72.351,122.114 72.169,122.246 71.825 C 122.378 71.481,122.736 71.200,123.043 71.200 C 123.349 71.200,123.600 71.020,123.600 70.800 C 123.600 70.580,123.960 70.400,124.400 70.400 C 124.840 70.400,125.200 70.249,125.200 70.064 C 125.200 69.716,126.977 68.748,127.960 68.560 C 128.268 68.501,128.670 68.216,128.854 67.927 C 129.037 67.637,129.191 67.533,129.194 67.696 C 129.197 67.859,129.566 67.679,130.013 67.296 C 130.803 66.620,130.967 66.555,132.171 66.450 C 132.486 66.422,133.058 66.085,133.443 65.700 C 133.828 65.315,134.246 64.985,134.371 64.967 C 135.461 64.812,136.800 64.242,136.800 63.933 C 136.800 63.724,136.965 63.655,137.168 63.780 C 137.370 63.905,137.814 63.729,138.153 63.389 C 138.493 63.050,138.865 62.770,138.978 62.768 C 139.092 62.767,139.864 62.469,140.693 62.107 C 141.522 61.745,142.335 61.415,142.500 61.374 C 142.665 61.333,142.845 61.264,142.900 61.220 C 142.955 61.176,143.442 61.059,143.983 60.960 C 144.523 60.861,145.063 60.629,145.183 60.444 C 145.302 60.259,145.850 59.979,146.400 59.822 C 146.950 59.665,148.023 59.254,148.784 58.910 C 149.545 58.565,150.445 58.247,150.784 58.203 C 152.252 58.014,154.000 57.478,154.000 57.217 C 154.000 57.061,154.225 56.909,154.500 56.878 C 156.219 56.689,157.300 56.415,157.729 56.059 C 157.999 55.835,158.665 55.590,159.210 55.516 C 159.754 55.441,160.437 55.231,160.727 55.050 C 161.016 54.868,161.352 54.818,161.472 54.939 C 161.592 55.059,162.345 54.905,163.145 54.598 C 164.627 54.027,169.408 53.017,172.405 52.640 C 172.958 52.571,173.768 52.409,174.205 52.280 C 174.642 52.152,175.720 51.940,176.600 51.810 C 177.480 51.681,178.740 51.475,179.400 51.353 C 180.634 51.126,181.639 51.023,186.791 50.598 C 188.436 50.462,189.847 50.287,189.926 50.208 C 190.144 49.989,211.114 50.296,213.400 50.552 M148.271 133.462 C 148.178 133.555,147.494 133.696,146.751 133.774 C 146.008 133.852,144.500 134.324,143.400 134.824 C 142.300 135.323,141.220 135.686,141.000 135.632 C 140.780 135.578,140.729 135.662,140.887 135.820 C 141.044 135.977,140.470 136.615,139.612 137.238 C 138.753 137.860,137.618 139.005,137.090 139.782 C 136.561 140.560,135.995 141.062,135.831 140.898 C 135.667 140.734,135.578 140.780,135.632 141.000 C 135.686 141.220,135.323 142.300,134.824 143.400 C 132.995 147.431,132.995 152.569,134.824 156.600 C 135.323 157.700,135.686 158.780,135.632 159.000 C 135.578 159.220,135.662 159.271,135.820 159.113 C 135.977 158.956,136.615 159.530,137.238 160.388 C 137.860 161.247,139.005 162.382,139.782 162.910 C 140.560 163.439,141.062 164.005,140.898 164.169 C 140.734 164.333,140.780 164.422,141.000 164.368 C 141.220 164.314,142.300 164.678,143.400 165.179 C 144.500 165.679,145.940 166.170,146.600 166.269 C 148.875 166.611,153.001 166.650,153.431 166.333 C 153.669 166.159,154.209 165.959,154.631 165.888 C 155.054 165.818,155.827 165.527,156.348 165.241 C 157.115 164.820,157.236 164.819,156.978 165.235 C 156.424 166.133,160.481 163.079,162.481 161.095 C 163.536 160.047,164.400 158.922,164.400 158.595 C 164.400 158.268,164.610 158.000,164.867 158.000 C 165.123 158.000,165.221 157.887,165.083 157.749 C 164.945 157.611,165.094 156.991,165.415 156.371 C 165.736 155.750,166.054 154.878,166.122 154.432 C 166.190 153.986,166.371 153.496,166.523 153.344 C 166.884 152.983,166.884 147.017,166.523 146.656 C 166.371 146.504,166.190 146.014,166.122 145.568 C 166.054 145.122,165.736 144.250,165.415 143.629 C 165.094 143.009,164.945 142.389,165.083 142.251 C 165.221 142.113,165.123 142.000,164.867 142.000 C 164.610 142.000,164.400 141.732,164.400 141.405 C 164.400 141.078,163.536 139.953,162.481 138.905 C 160.481 136.921,156.424 133.867,156.978 134.765 C 157.235 135.181,157.115 135.180,156.348 134.759 C 155.827 134.473,155.161 134.199,154.869 134.150 C 154.577 134.101,154.037 133.934,153.669 133.779 C 152.912 133.459,148.532 133.202,148.271 133.462 M248.271 133.462 C 248.178 133.555,247.494 133.696,246.751 133.774 C 246.008 133.852,244.500 134.324,243.400 134.824 C 242.300 135.323,241.220 135.686,241.000 135.632 C 240.780 135.578,240.729 135.662,240.887 135.820 C 241.044 135.977,240.470 136.615,239.612 137.238 C 238.753 137.860,237.618 139.005,237.090 139.782 C 236.561 140.560,235.995 141.062,235.831 140.898 C 235.667 140.734,235.578 140.780,235.632 141.000 C 235.686 141.220,235.323 142.300,234.824 143.400 C 232.995 147.431,232.995 152.569,234.824 156.600 C 235.323 157.700,235.686 158.780,235.632 159.000 C 235.578 159.220,235.662 159.271,235.820 159.113 C 235.977 158.956,236.615 159.530,237.238 160.388 C 237.860 161.247,239.005 162.382,239.782 162.910 C 240.560 163.439,241.062 164.005,240.898 164.169 C 240.734 164.333,240.780 164.422,241.000 164.368 C 241.220 164.314,242.300 164.678,243.400 165.179 C 244.500 165.679,245.940 166.170,246.600 166.269 C 248.875 166.611,253.001 166.650,253.431 166.333 C 253.669 166.159,254.209 165.959,254.631 165.888 C 255.054 165.818,255.827 165.527,256.348 165.241 C 257.115 164.820,257.236 164.819,256.978 165.235 C 256.424 166.133,260.481 163.079,262.481 161.095 C 263.536 160.047,264.400 158.922,264.400 158.595 C 264.400 158.268,264.610 158.000,264.867 158.000 C 265.123 158.000,265.221 157.887,265.083 157.749 C 264.945 157.611,265.094 156.991,265.415 156.371 C 265.736 155.750,266.054 154.878,266.122 154.432 C 266.190 153.986,266.371 153.496,266.523 153.344 C 266.675 153.191,266.800 151.687,266.800 150.000 C 266.800 148.313,266.675 146.809,266.523 146.656 C 266.371 146.504,266.190 146.014,266.122 145.568 C 266.054 145.122,265.736 144.250,265.415 143.629 C 265.094 143.009,264.945 142.389,265.083 142.251 C 265.221 142.113,265.123 142.000,264.867 142.000 C 264.610 142.000,264.400 141.732,264.400 141.405 C 264.400 141.078,263.536 139.953,262.481 138.905 C 260.481 136.921,256.424 133.867,256.978 134.765 C 257.235 135.181,257.115 135.180,256.348 134.759 C 255.827 134.473,255.161 134.199,254.869 134.150 C 254.577 134.101,254.037 133.934,253.669 133.779 C 252.912 133.459,248.532 133.202,248.271 133.462 M132.277 216.657 C 132.178 216.755,131.581 216.923,130.949 217.031 C 128.382 217.469,125.407 218.509,124.931 219.135 C 124.653 219.501,124.420 219.658,124.413 219.484 C 124.379 218.653,119.200 223.885,119.200 224.750 C 119.200 224.961,119.012 225.196,118.782 225.273 C 118.552 225.349,118.334 225.814,118.297 226.306 C 118.260 226.798,118.108 227.200,117.960 227.200 C 117.028 227.200,116.676 237.086,117.570 238.163 C 117.860 238.514,117.964 238.800,117.800 238.800 C 117.636 238.800,117.703 239.042,117.948 239.337 C 118.193 239.632,118.275 239.992,118.130 240.137 C 117.985 240.282,118.077 240.400,118.333 240.400 C 118.590 240.400,118.800 240.661,118.800 240.979 C 118.800 241.298,119.250 242.044,119.800 242.638 C 120.350 243.231,120.800 243.871,120.800 244.058 C 120.800 244.246,121.115 244.762,121.500 245.205 C 122.661 246.541,133.600 257.578,133.600 257.414 C 133.600 257.330,134.106 257.743,134.724 258.331 C 136.533 260.050,138.408 261.560,139.647 262.291 C 140.281 262.666,140.800 263.114,140.800 263.286 C 140.800 263.459,140.975 263.600,141.190 263.600 C 141.620 263.600,149.787 268.799,150.900 269.782 C 151.285 270.122,151.645 270.388,151.700 270.374 C 151.906 270.321,153.408 270.951,153.600 271.171 C 153.710 271.297,155.105 272.020,156.700 272.777 C 158.295 273.535,159.600 274.315,159.600 274.511 C 159.600 274.706,159.825 274.791,160.100 274.698 C 160.375 274.606,160.838 274.816,161.130 275.165 C 161.546 275.664,161.598 275.672,161.371 275.200 C 161.137 274.713,161.184 274.694,161.621 275.100 C 161.918 275.375,162.462 275.600,162.831 275.600 C 163.200 275.600,163.733 275.878,164.015 276.218 C 164.297 276.558,164.769 276.744,165.064 276.631 C 165.359 276.518,165.600 276.599,165.600 276.813 C 165.600 277.026,166.050 277.200,166.600 277.200 C 167.150 277.200,167.600 277.410,167.600 277.667 C 167.600 277.923,167.718 278.015,167.863 277.870 C 168.008 277.725,168.329 277.775,168.576 277.980 C 168.994 278.327,170.752 278.812,171.900 278.896 C 172.175 278.917,172.400 279.073,172.400 279.244 C 172.400 279.414,172.756 279.485,173.192 279.402 C 173.627 279.318,174.088 279.418,174.215 279.625 C 174.343 279.831,174.966 280.000,175.600 280.000 C 176.234 280.000,176.859 280.172,176.989 280.383 C 177.119 280.593,177.490 280.664,177.813 280.540 C 178.136 280.416,178.400 280.498,178.400 280.722 C 178.400 280.946,178.850 281.080,179.400 281.020 C 179.950 280.959,180.400 281.077,180.400 281.280 C 180.400 281.484,180.715 281.618,181.100 281.579 C 181.485 281.540,181.935 281.551,182.100 281.604 C 182.265 281.657,182.760 281.745,183.200 281.800 C 183.640 281.855,184.135 281.951,184.300 282.013 C 184.465 282.075,185.140 282.169,185.800 282.221 C 186.460 282.273,187.990 282.455,189.200 282.625 C 192.109 283.033,208.001 283.041,210.800 282.635 C 212.010 282.459,213.540 282.273,214.200 282.221 C 214.860 282.169,215.535 282.075,215.700 282.013 C 215.865 281.951,216.360 281.855,216.800 281.800 C 217.240 281.745,217.735 281.657,217.900 281.604 C 218.065 281.551,218.515 281.540,218.900 281.579 C 219.285 281.618,219.600 281.484,219.600 281.280 C 219.600 281.077,220.050 280.959,220.600 281.020 C 221.150 281.080,221.600 280.958,221.600 280.747 C 221.600 280.537,221.825 280.414,222.100 280.474 C 222.375 280.535,223.590 280.277,224.800 279.903 C 226.010 279.529,227.450 279.155,228.000 279.073 C 228.550 278.990,229.315 278.805,229.700 278.661 C 230.085 278.518,230.715 278.281,231.100 278.136 C 231.485 277.992,231.935 277.902,232.100 277.936 C 232.265 277.971,232.400 277.820,232.400 277.600 C 232.400 277.380,232.850 277.200,233.400 277.200 C 233.950 277.200,234.400 277.026,234.400 276.813 C 234.400 276.599,234.641 276.518,234.936 276.631 C 235.231 276.744,235.703 276.558,235.985 276.218 C 236.267 275.878,236.800 275.600,237.169 275.600 C 237.538 275.600,238.082 275.375,238.379 275.100 C 238.816 274.694,238.863 274.713,238.629 275.200 C 238.402 275.672,238.454 275.664,238.870 275.165 C 239.162 274.816,239.625 274.606,239.900 274.698 C 240.175 274.791,240.400 274.706,240.400 274.511 C 240.400 274.315,241.705 273.535,243.300 272.777 C 244.895 272.020,246.290 271.297,246.400 271.171 C 246.596 270.947,247.816 270.433,248.204 270.411 C 248.312 270.405,248.715 270.122,249.100 269.782 C 250.213 268.799,258.380 263.600,258.810 263.600 C 259.025 263.600,259.200 263.459,259.200 263.286 C 259.200 263.114,259.745 262.651,260.410 262.257 C 261.076 261.864,262.047 261.150,262.567 260.671 C 263.087 260.192,264.166 259.260,264.964 258.600 C 267.657 256.373,278.736 245.269,278.500 245.034 C 278.372 244.905,278.477 244.800,278.733 244.800 C 278.990 244.800,279.200 244.556,279.200 244.258 C 279.200 243.961,279.650 243.231,280.200 242.638 C 280.750 242.044,281.200 241.309,281.200 241.003 C 281.200 240.697,281.380 240.336,281.600 240.200 C 281.820 240.064,282.000 239.618,282.000 239.210 C 282.000 238.801,282.179 238.407,282.398 238.333 C 282.900 238.165,283.421 231.128,283.004 230.138 C 282.834 229.732,282.637 228.966,282.568 228.436 C 282.498 227.906,282.297 227.366,282.120 227.236 C 281.944 227.106,281.742 226.664,281.672 226.253 C 281.601 225.842,281.181 225.122,280.738 224.653 C 280.295 224.184,279.673 223.305,279.356 222.700 C 279.039 222.095,278.649 221.599,278.490 221.598 C 278.330 221.597,277.635 221.067,276.945 220.420 C 276.255 219.773,275.584 219.349,275.454 219.479 C 275.325 219.609,275.105 219.419,274.967 219.057 C 274.828 218.696,274.365 218.400,273.937 218.400 C 273.510 218.400,272.674 218.150,272.080 217.844 C 269.237 216.381,262.564 216.503,260.563 218.054 C 260.323 218.241,260.008 218.275,259.863 218.130 C 259.718 217.985,259.600 218.087,259.600 218.357 C 259.600 218.627,259.420 218.736,259.200 218.600 C 258.980 218.464,258.800 218.499,258.800 218.679 C 258.800 218.858,258.305 219.230,257.700 219.506 C 256.540 220.035,253.536 222.589,253.597 222.994 C 253.674 223.505,246.105 231.171,245.812 230.878 C 245.695 230.762,245.600 230.977,245.600 231.357 C 245.600 231.737,245.420 231.936,245.200 231.800 C 244.980 231.664,244.800 231.731,244.800 231.949 C 244.800 232.168,244.437 232.461,243.994 232.602 C 243.551 232.743,243.292 233.025,243.418 233.229 C 243.544 233.433,243.465 233.600,243.242 233.600 C 243.019 233.600,242.402 234.005,241.871 234.500 C 240.262 236.001,238.659 237.174,237.500 237.698 C 236.895 237.971,236.400 238.331,236.400 238.498 C 236.400 238.664,236.156 238.800,235.858 238.800 C 235.561 238.800,234.828 239.253,234.231 239.807 C 233.633 240.360,232.977 240.709,232.772 240.583 C 232.568 240.456,232.400 240.554,232.400 240.800 C 232.400 241.046,232.220 241.136,232.000 241.000 C 231.780 240.864,231.600 240.899,231.600 241.077 C 231.600 241.644,224.558 244.995,220.600 246.312 C 215.059 248.156,213.144 248.679,210.800 248.992 C 205.660 249.677,203.667 249.813,199.400 249.772 C 195.206 249.731,193.435 249.593,188.800 248.945 C 188.250 248.868,187.464 248.794,187.053 248.781 C 186.643 248.768,185.908 248.496,185.421 248.177 C 184.935 247.858,184.420 247.713,184.278 247.856 C 184.136 247.998,183.764 247.902,183.452 247.643 C 183.140 247.384,182.730 247.200,182.542 247.233 C 182.354 247.267,182.110 247.260,182.000 247.217 C 181.890 247.174,181.530 247.082,181.200 247.013 C 180.398 246.844,174.470 244.469,173.204 243.809 C 172.652 243.521,171.345 242.861,170.300 242.343 C 169.255 241.825,168.400 241.255,168.400 241.077 C 168.400 240.899,168.220 240.864,168.000 241.000 C 167.780 241.136,167.600 241.046,167.600 240.800 C 167.600 240.554,167.432 240.456,167.228 240.583 C 167.023 240.709,166.367 240.360,165.769 239.807 C 165.172 239.253,164.439 238.800,164.142 238.800 C 163.844 238.800,163.600 238.664,163.600 238.498 C 163.600 238.331,163.105 237.971,162.500 237.698 C 161.341 237.174,159.738 236.001,158.129 234.500 C 157.598 234.005,156.981 233.600,156.758 233.600 C 156.535 233.600,156.456 233.433,156.582 233.229 C 156.708 233.025,156.494 232.755,156.106 232.631 C 155.411 232.407,148.089 225.600,148.543 225.600 C 148.672 225.600,147.358 224.160,145.624 222.400 C 143.890 220.640,142.185 219.200,141.836 219.200 C 141.486 219.200,141.200 219.009,141.200 218.776 C 141.200 218.543,141.020 218.464,140.800 218.600 C 140.580 218.736,140.400 218.646,140.400 218.400 C 140.400 218.154,140.232 218.056,140.028 218.183 C 139.823 218.309,139.550 218.242,139.421 218.033 C 139.091 217.500,132.671 216.263,132.277 216.657 " stroke="none" fill="#a451bd" fill-rule="evenodd"></path></g></svg>