<svg id="svg" xmlns="http://www.w3.org/2000/svg" xmlns:xlink="http://www.w3.org/1999/xlink" width="400" height="400" viewBox="0, 0, 400,400" version="1.1"><g id="svgg"><path id="path0" d="M193.592 16.523 C 193.487 16.618,191.060 16.808,188.200 16.945 C 169.096 17.858,137.655 25.567,125.323 32.363 C 124.925 32.582,122.455 33.764,119.833 34.989 C 46.440 69.286,4.098 153.740,19.804 234.510 C 22.426 247.998,28.676 267.987,32.363 274.677 C 32.582 275.075,33.764 277.545,34.989 280.167 C 72.010 359.390,166.166 401.205,251.200 376.186 C 259.017 373.886,271.753 369.249,274.677 367.637 C 275.075 367.418,277.545 366.236,280.167 365.011 C 349.685 332.525,392.035 254.303,382.016 176.890 C 379.789 159.687,372.840 134.765,367.637 125.323 C 367.418 124.925,366.236 122.455,365.011 119.833 C 339.604 65.465,284.179 25.673,223.200 18.023 C 214.132 16.885,194.302 15.880,193.592 16.523 M211.000 50.589 C 232.328 52.066,256.794 59.544,274.318 69.943 C 275.482 70.635,276.507 71.200,276.596 71.200 C 278.853 71.200,297.540 85.887,305.827 94.173 C 314.050 102.397,328.800 121.155,328.800 123.390 C 328.800 123.486,329.365 124.518,330.056 125.682 C 356.116 169.624,356.116 230.404,330.057 274.318 C 329.365 275.482,328.800 276.507,328.800 276.596 C 328.800 278.853,314.113 297.540,305.827 305.827 C 297.603 314.050,278.845 328.800,276.610 328.800 C 276.514 328.800,275.482 329.365,274.318 330.056 C 230.376 356.116,169.596 356.116,125.682 330.057 C 124.518 329.365,123.493 328.800,123.404 328.800 C 121.147 328.800,102.460 314.113,94.173 305.827 C 85.950 297.603,71.200 278.845,71.200 276.610 C 71.200 276.514,70.635 275.482,69.944 274.318 C 43.884 230.376,43.884 169.596,69.943 125.682 C 70.635 124.518,71.200 123.493,71.200 123.404 C 71.200 121.147,85.887 102.460,94.173 94.173 C 102.397 85.950,121.155 71.200,123.390 71.200 C 123.486 71.200,124.518 70.635,125.682 69.944 C 149.743 55.675,181.244 48.528,211.000 50.589 M267.400 112.849 C 264.708 113.469,158.707 148.860,157.043 149.694 C 155.005 150.715,151.762 153.750,150.353 155.953 C 148.906 158.216,112.929 266.067,112.562 269.241 C 111.428 279.070,121.168 288.675,130.998 287.422 C 134.084 287.028,241.959 250.982,244.047 249.647 C 246.250 248.238,249.284 244.995,250.307 242.957 C 251.622 240.337,287.212 133.018,287.460 130.926 C 288.718 120.301,277.792 110.455,267.400 112.849 M243.906 156.500 C 243.807 156.775,238.905 171.490,233.013 189.200 C 227.121 206.910,222.098 221.603,221.850 221.851 C 221.386 222.317,156.365 244.098,156.133 243.866 C 155.975 243.708,177.433 179.232,177.912 178.427 C 178.179 177.979,242.360 156.141,243.743 156.028 C 243.931 156.013,244.005 156.225,243.906 156.500 " stroke="none" fill="#0fc8e0" fill-rule="evenodd"></path><path id="path1" d="" stroke="none" fill="#0fc8e0" fill-rule="evenodd"></path><path id="path2" d="" stroke="none" fill="#0fc8e0" fill-rule="evenodd"></path><path id="path3" d="" stroke="none" fill="#0fc8e0" fill-rule="evenodd"></path><path id="path4" d="" stroke="none" fill="#0fc8e0" fill-rule="evenodd"></path></g></svg>