<svg id="svg" xmlns="http://www.w3.org/2000/svg" xmlns:xlink="http://www.w3.org/1999/xlink" width="400" height="400" viewBox="0, 0, 400,400" version="1.1"><g id="svgg"><path id="path0" d="M242.433 34.549 C 242.845 34.917,245.200 36.000,245.200 35.821 C 245.200 35.590,242.982 34.400,242.553 34.400 C 242.396 34.400,242.342 34.467,242.433 34.549 M216.586 171.400 C 216.586 183.060,216.637 187.772,216.700 181.872 C 216.762 175.971,216.762 166.431,216.700 160.672 C 216.637 154.912,216.586 159.740,216.586 171.400 " stroke="none" fill="#a451bd" fill-rule="evenodd"></path><path id="path1" d="" stroke="none" fill="#a451bd" fill-rule="evenodd"></path><path id="path2" d="M139.900 5.829 C 138.405 6.640,138.496 6.978,140.000 6.200 C 140.660 5.859,141.200 5.494,141.200 5.390 C 141.200 5.132,141.157 5.147,139.900 5.829 M271.583 14.500 C 272.564 15.545,273.419 16.400,273.483 16.400 C 273.784 16.400,273.466 16.041,271.700 14.383 L 269.800 12.600 271.583 14.500 M128.000 15.000 C 127.028 15.990,126.323 16.800,126.433 16.800 C 126.543 16.800,127.428 15.990,128.400 15.000 C 129.372 14.010,130.077 13.200,129.967 13.200 C 129.857 13.200,128.972 14.010,128.000 15.000 M181.700 33.500 C 191.765 33.559,208.235 33.559,218.300 33.500 C 228.365 33.440,220.130 33.392,200.000 33.392 C 179.870 33.392,171.635 33.440,181.700 33.500 M195.505 100.283 C 196.002 100.379,196.722 100.375,197.105 100.275 C 197.487 100.175,197.080 100.096,196.200 100.101 C 195.320 100.105,195.007 100.187,195.505 100.283 M129.178 129.500 L 127.800 131.000 129.300 129.622 C 130.125 128.863,130.800 128.188,130.800 128.122 C 130.800 127.816,130.462 128.104,129.178 129.500 M270.400 129.400 C 271.146 130.170,271.847 130.800,271.957 130.800 C 272.067 130.800,271.546 130.170,270.800 129.400 C 270.054 128.630,269.353 128.000,269.243 128.000 C 269.133 128.000,269.654 128.630,270.400 129.400 M216.986 171.000 C 216.986 182.660,217.037 187.372,217.100 181.472 C 217.162 175.571,217.162 166.031,217.100 160.272 C 217.037 154.512,216.986 159.340,216.986 171.000 M299.701 196.200 C 299.705 197.080,299.787 197.393,299.883 196.895 C 299.979 196.398,299.975 195.678,299.875 195.295 C 299.775 194.913,299.696 195.320,299.701 196.200 M100.101 203.800 C 100.105 204.680,100.187 204.993,100.283 204.495 C 100.379 203.998,100.375 203.278,100.275 202.895 C 100.175 202.513,100.096 202.920,100.101 203.800 M183.501 203.795 C 183.606 204.343,183.851 204.692,184.047 204.571 C 184.248 204.447,184.222 204.015,183.987 203.576 C 183.427 202.530,183.273 202.600,183.501 203.795 M200.400 223.985 C 200.400 224.358,203.160 226.978,203.336 226.773 C 203.417 226.678,202.790 225.954,201.942 225.164 C 201.094 224.374,200.400 223.844,200.400 223.985 M228.723 241.010 C 228.608 241.126,227.850 241.245,227.040 241.275 C 226.229 241.306,225.461 241.501,225.333 241.709 C 225.041 242.181,228.440 241.668,228.980 241.159 C 229.189 240.961,229.264 240.800,229.147 240.800 C 229.029 240.800,228.839 240.895,228.723 241.010 M129.200 270.600 C 129.946 271.370,130.647 272.000,130.757 272.000 C 130.867 272.000,130.346 271.370,129.600 270.600 C 128.854 269.830,128.153 269.200,128.043 269.200 C 127.933 269.200,128.454 269.830,129.200 270.600 M270.378 270.700 L 269.000 272.200 270.500 270.822 C 271.896 269.538,272.184 269.200,271.878 269.200 C 271.812 269.200,271.137 269.875,270.378 270.700 M203.105 299.883 C 203.602 299.979,204.322 299.975,204.705 299.875 C 205.087 299.775,204.680 299.696,203.800 299.701 C 202.920 299.705,202.607 299.787,203.105 299.883 M181.930 366.700 C 192.122 366.759,208.682 366.759,218.730 366.700 C 228.779 366.640,220.440 366.592,200.200 366.592 C 179.960 366.592,171.739 366.640,181.930 366.700 M271.186 385.500 L 269.000 387.800 271.300 385.614 C 273.437 383.582,273.783 383.200,273.486 383.200 C 273.424 383.200,272.389 384.235,271.186 385.500 M266.843 389.223 C 266.317 389.661,265.971 390.105,266.075 390.208 C 266.179 390.312,266.686 389.948,267.201 389.398 C 268.324 388.204,268.162 388.125,266.843 389.223 M143.770 395.952 C 143.890 396.145,144.395 396.406,144.894 396.532 C 145.768 396.752,145.773 396.740,145.024 396.180 C 144.164 395.538,143.432 395.404,143.770 395.952 " stroke="none" fill="#a451bd" fill-rule="evenodd"></path><path id="path3" d="M157.663 0.431 C 157.148 0.635,156.563 0.701,156.363 0.577 C 156.163 0.454,155.775 0.496,155.500 0.670 C 155.225 0.845,154.685 1.013,154.300 1.044 C 153.915 1.075,153.555 1.137,153.500 1.183 C 153.400 1.267,152.501 1.444,151.000 1.676 C 150.560 1.744,150.110 1.899,150.000 2.019 C 149.890 2.140,148.630 2.576,147.200 2.989 C 145.770 3.402,144.420 3.866,144.200 4.020 C 143.538 4.483,137.815 7.381,137.600 7.363 C 137.490 7.354,136.860 7.854,136.200 8.474 C 135.540 9.095,134.640 9.711,134.200 9.845 C 133.284 10.123,132.801 10.548,129.148 14.286 C 125.868 17.643,123.200 20.738,123.200 21.186 C 123.200 21.372,122.569 22.280,121.797 23.203 C 121.026 24.127,120.286 25.314,120.154 25.841 C 120.022 26.368,119.742 26.800,119.533 26.800 C 119.324 26.800,119.255 26.965,119.380 27.168 C 119.505 27.370,119.370 27.775,119.081 28.068 C 118.791 28.360,118.316 29.455,118.025 30.500 C 117.734 31.545,117.329 32.400,117.124 32.400 C 116.920 32.400,116.844 32.548,116.956 32.729 C 117.068 32.909,116.930 33.499,116.650 34.039 C 116.370 34.579,116.222 35.266,116.322 35.566 C 116.422 35.867,116.320 35.998,116.094 35.858 C 115.861 35.714,115.687 35.991,115.691 36.503 C 115.697 37.519,115.365 39.009,115.001 39.598 C 114.867 39.816,114.682 40.760,114.590 41.697 C 114.373 43.900,114.032 46.980,113.781 49.000 C 113.671 49.880,113.522 51.519,113.449 52.643 C 113.377 53.767,113.240 54.847,113.146 55.043 C 113.051 55.239,112.990 56.345,113.009 57.500 C 113.029 58.655,112.944 59.600,112.822 59.600 C 112.700 59.600,112.571 60.545,112.537 61.700 C 112.502 62.855,112.363 64.700,112.229 65.800 C 111.962 67.986,111.670 71.167,111.365 75.200 C 111.257 76.630,111.085 78.700,110.982 79.800 C 110.879 80.900,110.707 82.790,110.600 84.000 C 110.493 85.210,110.315 87.100,110.204 88.200 C 110.093 89.300,109.914 91.100,109.807 92.200 C 109.699 93.300,109.519 95.100,109.407 96.200 C 109.294 97.300,109.133 99.226,109.048 100.481 C 108.902 102.665,108.211 104.000,107.229 104.000 C 106.993 104.000,106.800 104.172,106.800 104.382 C 106.800 104.878,104.878 106.800,104.382 106.800 C 104.172 106.800,104.000 106.962,104.000 107.159 C 104.000 107.357,102.965 108.607,101.700 109.937 C 98.565 113.233,97.222 114.800,97.532 114.800 C 97.675 114.800,97.344 115.242,96.796 115.781 C 95.313 117.243,94.800 117.917,94.800 118.407 C 94.800 118.649,94.625 118.739,94.412 118.607 C 94.198 118.475,93.907 118.829,93.766 119.394 C 93.624 119.959,93.153 120.611,92.720 120.843 C 92.286 121.075,92.028 121.362,92.147 121.480 C 92.265 121.598,92.145 121.938,91.881 122.234 C 90.745 123.506,90.400 123.986,90.400 124.295 C 90.400 124.476,90.040 124.883,89.600 125.200 C 89.160 125.517,88.800 126.097,88.800 126.488 C 88.800 126.880,88.628 127.200,88.419 127.200 C 88.209 127.200,87.720 127.875,87.332 128.700 C 86.944 129.525,86.329 130.524,85.965 130.920 C 85.601 131.316,84.970 132.396,84.563 133.320 C 84.155 134.244,83.707 135.090,83.567 135.200 C 83.320 135.394,81.877 137.995,81.792 138.400 C 81.638 139.130,78.215 145.826,77.941 145.933 C 77.753 146.007,77.600 146.462,77.600 146.944 C 77.600 147.427,77.331 148.205,77.003 148.674 C 76.675 149.143,76.351 149.858,76.284 150.263 C 76.216 150.668,75.938 151.405,75.666 151.900 C 75.394 152.395,75.313 152.803,75.486 152.806 C 75.659 152.809,75.611 152.944,75.381 153.106 C 75.034 153.349,74.673 154.281,73.791 157.200 C 73.758 157.310,73.598 157.701,73.435 158.069 C 73.272 158.437,73.097 159.016,73.047 159.357 C 72.997 159.698,72.831 160.102,72.678 160.255 C 72.525 160.408,72.400 160.960,72.400 161.481 C 72.400 162.002,72.113 162.866,71.762 163.401 C 71.412 163.936,71.206 164.605,71.305 164.887 C 71.404 165.169,71.315 165.850,71.107 166.400 C 70.572 167.815,70.103 169.892,69.730 172.500 C 69.612 173.325,69.394 174.000,69.245 174.000 C 69.096 174.000,68.995 174.495,69.022 175.100 C 69.049 175.705,68.920 176.830,68.737 177.600 C 68.553 178.370,68.295 179.900,68.163 181.000 C 68.031 182.100,67.821 183.167,67.695 183.370 C 67.569 183.574,67.401 184.834,67.321 186.170 C 67.241 187.507,67.081 190.040,66.966 191.800 C 66.697 195.906,66.697 204.094,66.966 208.200 C 67.081 209.960,67.241 212.493,67.321 213.830 C 67.401 215.166,67.569 216.426,67.695 216.630 C 67.821 216.833,68.031 217.900,68.163 219.000 C 68.295 220.100,68.553 221.630,68.737 222.400 C 68.920 223.170,69.049 224.295,69.022 224.900 C 68.995 225.505,69.096 226.000,69.245 226.000 C 69.394 226.000,69.608 226.675,69.721 227.500 C 70.068 230.044,70.527 232.066,71.107 233.600 C 71.315 234.150,71.404 234.831,71.305 235.113 C 71.206 235.395,71.385 236.025,71.702 236.513 C 72.020 237.001,72.408 238.094,72.566 238.943 C 72.723 239.791,73.050 240.961,73.293 241.543 C 73.535 242.124,73.760 242.690,73.792 242.800 C 74.603 245.532,75.038 246.654,75.381 246.894 C 75.611 247.056,75.659 247.191,75.486 247.194 C 75.313 247.197,75.394 247.605,75.666 248.100 C 75.938 248.595,76.216 249.332,76.284 249.737 C 76.351 250.142,76.675 250.857,77.003 251.326 C 77.331 251.795,77.600 252.573,77.600 253.056 C 77.600 253.538,77.753 253.993,77.941 254.067 C 78.215 254.174,81.638 260.870,81.792 261.600 C 81.877 262.005,83.320 264.606,83.567 264.800 C 83.707 264.910,84.155 265.756,84.563 266.680 C 84.970 267.604,85.601 268.684,85.965 269.080 C 86.329 269.476,86.944 270.475,87.332 271.300 C 87.720 272.125,88.209 272.800,88.419 272.800 C 88.628 272.800,88.800 273.120,88.800 273.512 C 88.800 273.903,89.160 274.483,89.600 274.800 C 90.040 275.117,90.400 275.530,90.400 275.717 C 90.400 275.904,90.625 276.308,90.900 276.615 C 92.087 277.938,92.340 278.327,92.142 278.525 C 92.026 278.641,92.286 278.925,92.720 279.157 C 93.153 279.389,93.624 280.041,93.766 280.606 C 93.907 281.171,94.198 281.525,94.412 281.393 C 94.625 281.261,94.800 281.351,94.800 281.593 C 94.800 282.083,95.313 282.757,96.796 284.219 C 97.344 284.758,97.675 285.200,97.532 285.200 C 97.222 285.200,98.565 286.767,101.700 290.063 C 102.965 291.393,104.000 292.643,104.000 292.841 C 104.000 293.038,104.172 293.200,104.382 293.200 C 104.878 293.200,106.800 295.122,106.800 295.618 C 106.800 295.828,107.051 296.000,107.357 296.000 C 107.873 296.000,108.470 296.854,108.616 297.800 C 108.650 298.020,108.798 298.473,108.945 298.806 C 109.093 299.139,109.152 300.183,109.078 301.126 C 109.003 302.069,109.092 302.933,109.275 303.046 C 109.457 303.159,109.578 304.095,109.542 305.126 C 109.506 306.157,109.598 307.273,109.745 307.606 C 109.893 307.939,109.952 308.983,109.878 309.926 C 109.803 310.869,109.892 311.733,110.075 311.846 C 110.257 311.959,110.378 312.895,110.342 313.926 C 110.306 314.957,110.398 316.073,110.545 316.406 C 110.693 316.739,110.752 317.783,110.678 318.726 C 110.603 319.669,110.692 320.533,110.875 320.646 C 111.057 320.759,111.165 321.695,111.114 322.726 C 111.063 323.757,111.143 324.795,111.293 325.033 C 111.442 325.271,111.515 326.316,111.453 327.354 C 111.392 328.391,111.487 329.330,111.663 329.439 C 111.839 329.548,111.929 330.538,111.862 331.638 C 111.795 332.739,111.885 333.729,112.062 333.838 C 112.239 333.948,112.329 334.938,112.262 336.038 C 112.195 337.139,112.285 338.129,112.462 338.238 C 112.639 338.348,112.729 339.338,112.662 340.438 C 112.595 341.539,112.685 342.529,112.862 342.638 C 113.039 342.748,113.129 343.738,113.062 344.838 C 112.995 345.939,113.085 346.929,113.262 347.038 C 113.439 347.148,113.529 348.138,113.462 349.238 C 113.395 350.339,113.505 351.341,113.708 351.466 C 113.910 351.591,113.992 352.127,113.891 352.657 C 113.790 353.187,113.860 354.441,114.048 355.445 C 114.235 356.448,114.468 357.839,114.565 358.535 C 114.662 359.231,114.866 360.340,115.017 361.000 C 115.169 361.660,115.302 362.425,115.313 362.700 C 115.324 362.975,115.483 363.200,115.667 363.200 C 115.850 363.200,115.966 363.335,115.924 363.500 C 115.822 363.901,116.425 366.418,116.807 367.187 C 117.118 367.814,117.854 369.470,118.970 372.060 C 119.317 372.864,119.600 373.641,119.600 373.787 C 119.600 373.934,120.071 374.671,120.647 375.427 C 121.224 376.182,121.539 376.803,121.347 376.806 C 121.156 376.809,121.189 376.944,121.419 377.106 C 121.650 377.268,122.272 378.030,122.801 378.800 C 125.942 383.370,137.898 393.984,139.925 394.002 C 140.076 394.004,140.678 394.254,141.261 394.559 C 141.845 394.863,142.956 395.321,143.729 395.577 C 144.503 395.832,145.344 396.291,145.597 396.597 C 145.851 396.902,146.315 397.054,146.629 396.933 C 146.943 396.813,147.200 396.875,147.200 397.072 C 147.200 397.388,147.796 397.549,149.500 397.691 C 149.775 397.714,150.000 397.903,150.000 398.109 C 150.000 398.316,150.252 398.389,150.561 398.270 C 150.869 398.152,151.235 398.168,151.372 398.306 C 151.636 398.569,152.108 398.680,154.400 399.016 C 155.170 399.128,156.250 399.347,156.800 399.501 C 158.240 399.906,241.935 400.005,242.991 399.603 C 243.476 399.419,244.397 399.170,245.037 399.050 C 245.676 398.930,246.875 398.664,247.700 398.458 C 248.525 398.252,249.200 398.177,249.200 398.291 C 249.200 398.405,249.451 398.290,249.758 398.035 C 250.065 397.780,250.470 397.621,250.658 397.681 C 251.021 397.797,252.892 397.128,255.200 396.056 C 255.970 395.699,256.780 395.394,257.000 395.379 C 258.074 395.307,259.183 394.697,258.944 394.309 C 258.797 394.071,258.859 393.989,259.083 394.128 C 259.306 394.266,260.369 393.753,261.443 392.989 C 262.518 392.225,263.623 391.600,263.899 391.600 C 264.174 391.600,264.400 391.390,264.400 391.133 C 264.400 390.877,264.501 390.768,264.624 390.891 C 264.748 391.014,265.274 390.729,265.793 390.258 C 266.313 389.786,268.356 387.960,270.334 386.200 C 272.311 384.440,273.947 382.820,273.968 382.600 C 273.989 382.380,274.647 381.525,275.429 380.700 C 276.211 379.875,276.715 379.200,276.550 379.200 C 276.384 379.200,276.643 378.833,277.125 378.384 C 277.606 377.936,278.000 377.316,278.000 377.007 C 278.000 376.698,278.315 376.210,278.700 375.923 C 279.085 375.635,279.459 375.130,279.532 374.800 C 279.604 374.470,279.906 373.930,280.203 373.600 C 280.500 373.270,280.777 372.820,280.819 372.600 C 280.994 371.684,281.577 370.461,281.948 370.232 C 282.167 370.097,282.567 368.999,282.836 367.793 C 283.106 366.587,283.462 365.600,283.626 365.600 C 283.791 365.600,283.824 365.212,283.700 364.737 C 283.575 364.263,283.637 363.976,283.837 364.098 C 284.037 364.221,284.246 363.696,284.302 362.931 C 284.358 362.165,284.594 361.185,284.825 360.753 C 285.057 360.320,285.321 359.209,285.412 358.283 C 285.628 356.085,285.970 353.002,286.219 351.000 C 286.329 350.120,286.478 348.481,286.551 347.357 C 286.623 346.233,286.760 345.153,286.854 344.957 C 286.949 344.761,287.010 343.655,286.991 342.500 C 286.971 341.345,287.056 340.400,287.178 340.400 C 287.300 340.400,287.429 339.455,287.463 338.300 C 287.498 337.145,287.637 335.300,287.771 334.200 C 288.038 332.014,288.330 328.833,288.635 324.800 C 288.743 323.370,288.915 321.300,289.018 320.200 C 289.121 319.100,289.293 317.210,289.400 316.000 C 289.507 314.790,289.685 312.900,289.796 311.800 C 289.907 310.700,290.086 308.900,290.193 307.800 C 290.301 306.700,290.481 304.900,290.593 303.800 C 290.706 302.700,290.867 300.774,290.952 299.519 C 291.098 297.335,291.789 296.000,292.771 296.000 C 293.007 296.000,293.200 295.828,293.200 295.618 C 293.200 295.122,295.122 293.200,295.618 293.200 C 295.828 293.200,296.000 293.038,296.000 292.841 C 296.000 292.643,297.035 291.393,298.300 290.063 C 301.435 286.767,302.778 285.200,302.468 285.200 C 302.325 285.200,302.656 284.758,303.204 284.219 C 304.687 282.757,305.200 282.083,305.200 281.593 C 305.200 281.351,305.375 281.261,305.588 281.393 C 305.802 281.525,306.093 281.171,306.234 280.606 C 306.376 280.041,306.847 279.389,307.280 279.157 C 307.714 278.925,307.972 278.638,307.853 278.520 C 307.735 278.402,307.855 278.062,308.119 277.766 C 309.255 276.494,309.600 276.014,309.600 275.705 C 309.600 275.524,309.960 275.117,310.400 274.800 C 310.840 274.483,311.200 273.903,311.200 273.512 C 311.200 273.120,311.372 272.800,311.581 272.800 C 311.791 272.800,312.280 272.125,312.668 271.300 C 313.056 270.475,313.671 269.476,314.035 269.080 C 314.399 268.684,315.030 267.604,315.437 266.680 C 315.845 265.756,316.293 264.910,316.433 264.800 C 316.680 264.606,318.123 262.005,318.208 261.600 C 318.362 260.870,321.785 254.174,322.059 254.067 C 322.247 253.993,322.400 253.538,322.400 253.056 C 322.400 252.573,322.669 251.795,322.997 251.326 C 323.325 250.857,323.649 250.142,323.716 249.737 C 323.784 249.332,324.062 248.595,324.334 248.100 C 324.606 247.605,324.687 247.197,324.514 247.194 C 324.341 247.191,324.389 247.056,324.619 246.894 C 324.966 246.651,325.327 245.719,326.209 242.800 C 326.242 242.690,326.402 242.299,326.565 241.931 C 326.728 241.563,326.903 240.984,326.953 240.643 C 327.003 240.302,327.169 239.898,327.322 239.745 C 327.475 239.592,327.600 239.040,327.600 238.519 C 327.600 237.998,327.887 237.134,328.238 236.599 C 328.588 236.064,328.794 235.395,328.695 235.113 C 328.596 234.831,328.685 234.150,328.893 233.600 C 329.428 232.185,329.897 230.108,330.270 227.500 C 330.388 226.675,330.606 226.000,330.755 226.000 C 330.904 226.000,331.005 225.505,330.978 224.900 C 330.951 224.295,331.080 223.170,331.263 222.400 C 331.447 221.630,331.705 220.100,331.837 219.000 C 331.969 217.900,332.179 216.833,332.305 216.630 C 332.431 216.426,332.599 215.166,332.679 213.830 C 332.759 212.493,332.919 209.960,333.034 208.200 C 333.303 204.094,333.303 195.906,333.034 191.800 C 332.919 190.040,332.759 187.507,332.679 186.170 C 332.599 184.834,332.431 183.574,332.305 183.370 C 332.179 183.167,331.969 182.100,331.837 181.000 C 331.705 179.900,331.447 178.370,331.263 177.600 C 331.080 176.830,330.951 175.705,330.978 175.100 C 331.005 174.495,330.904 174.000,330.755 174.000 C 330.606 174.000,330.392 173.325,330.279 172.500 C 329.932 169.956,329.473 167.934,328.893 166.400 C 328.685 165.850,328.596 165.169,328.695 164.887 C 328.794 164.605,328.615 163.975,328.298 163.487 C 327.980 162.999,327.592 161.906,327.434 161.057 C 327.277 160.209,326.950 159.039,326.707 158.457 C 326.465 157.876,326.240 157.310,326.208 157.200 C 325.397 154.468,324.962 153.346,324.619 153.106 C 324.389 152.944,324.341 152.809,324.514 152.806 C 324.687 152.803,324.606 152.395,324.334 151.900 C 324.062 151.405,323.784 150.668,323.716 150.263 C 323.649 149.858,323.325 149.143,322.997 148.674 C 322.669 148.205,322.400 147.427,322.400 146.944 C 322.400 146.462,322.247 146.007,322.059 145.933 C 321.785 145.826,318.362 139.130,318.208 138.400 C 318.123 137.995,316.680 135.394,316.433 135.200 C 316.293 135.090,315.845 134.244,315.437 133.320 C 315.030 132.396,314.399 131.316,314.035 130.920 C 313.671 130.524,313.056 129.525,312.668 128.700 C 312.280 127.875,311.791 127.200,311.581 127.200 C 311.372 127.200,311.200 126.880,311.200 126.488 C 311.200 126.097,310.840 125.517,310.400 125.200 C 309.960 124.883,309.600 124.470,309.600 124.283 C 309.600 124.096,309.375 123.692,309.100 123.385 C 307.913 122.062,307.660 121.673,307.858 121.475 C 307.974 121.359,307.714 121.075,307.280 120.843 C 306.847 120.611,306.376 119.959,306.234 119.394 C 306.093 118.829,305.802 118.475,305.588 118.607 C 305.375 118.739,305.200 118.649,305.200 118.407 C 305.200 117.917,304.687 117.243,303.204 115.781 C 302.656 115.242,302.325 114.800,302.468 114.800 C 302.778 114.800,301.435 113.233,298.300 109.937 C 297.035 108.607,296.000 107.357,296.000 107.159 C 296.000 106.962,295.828 106.800,295.618 106.800 C 295.122 106.800,293.200 104.878,293.200 104.382 C 293.200 104.172,292.942 104.000,292.627 104.000 C 292.312 104.000,291.923 103.595,291.763 103.100 C 291.475 102.208,291.403 101.644,290.983 97.000 C 290.864 95.680,290.691 93.790,290.600 92.800 C 290.509 91.810,290.329 89.830,290.200 88.400 C 290.071 86.970,289.891 84.990,289.800 84.000 C 289.709 83.010,289.529 81.030,289.400 79.600 C 289.271 78.170,289.091 76.190,289.000 75.200 C 288.909 74.210,288.729 72.230,288.600 70.800 C 288.471 69.370,288.291 67.390,288.200 66.400 C 288.109 65.410,287.929 63.430,287.800 62.000 C 287.671 60.570,287.491 58.590,287.400 57.600 C 287.309 56.610,287.129 54.630,287.000 53.200 C 286.725 50.144,286.476 47.690,286.188 45.200 C 286.074 44.210,285.917 42.757,285.840 41.972 C 285.763 41.186,285.553 40.106,285.373 39.572 C 285.194 39.037,285.027 38.420,285.002 38.200 C 284.977 37.980,284.734 37.274,284.462 36.631 C 284.190 35.988,284.059 35.223,284.171 34.931 C 284.283 34.639,284.220 34.400,284.031 34.400 C 283.692 34.400,283.006 32.486,283.134 31.900 C 283.170 31.735,283.026 31.600,282.813 31.600 C 282.599 31.600,282.529 31.330,282.655 31.000 C 282.786 30.660,282.665 30.400,282.376 30.400 C 282.096 30.400,281.987 30.280,282.134 30.132 C 282.281 29.985,282.086 29.504,281.701 29.064 C 281.315 28.623,281.234 28.400,281.521 28.568 C 281.807 28.735,281.193 27.551,280.156 25.936 C 279.119 24.321,278.270 22.783,278.269 22.518 C 278.268 22.252,278.117 22.128,277.933 22.241 C 277.750 22.355,277.600 22.182,277.600 21.857 C 277.600 21.532,277.434 21.207,277.230 21.133 C 277.027 21.060,276.802 20.730,276.730 20.400 C 276.659 20.070,276.015 19.227,275.300 18.527 C 274.585 17.827,274.000 17.179,274.000 17.088 C 274.000 16.808,269.496 12.400,269.211 12.400 C 269.064 12.400,268.437 11.764,267.818 10.988 C 267.198 10.211,266.602 9.665,266.492 9.774 C 266.383 9.884,265.843 9.620,265.292 9.187 C 264.742 8.754,264.129 8.400,263.930 8.400 C 263.505 8.400,261.133 6.781,260.706 6.200 C 260.544 5.980,260.409 5.930,260.406 6.090 C 260.403 6.249,259.500 5.849,258.400 5.200 C 257.300 4.551,256.400 4.134,256.400 4.272 C 256.400 4.411,256.040 4.198,255.600 3.800 C 255.160 3.402,254.800 3.199,254.800 3.348 C 254.800 3.498,254.283 3.353,253.651 3.026 C 253.019 2.699,252.393 2.540,252.260 2.673 C 252.128 2.806,251.745 2.686,251.410 2.408 C 251.074 2.130,250.800 2.020,250.800 2.165 C 250.800 2.310,250.415 2.222,249.945 1.970 C 249.474 1.719,248.619 1.457,248.045 1.389 C 246.376 1.192,244.345 0.759,243.395 0.398 C 242.172 -0.067,158.842 -0.035,157.663 0.431 M240.212 33.770 C 242.881 34.344,245.200 35.397,245.200 36.034 C 245.200 36.261,245.341 36.360,245.514 36.253 C 245.686 36.147,246.720 36.856,247.811 37.830 C 248.902 38.803,249.653 39.600,249.479 39.600 C 249.305 39.600,249.802 40.436,250.582 41.458 C 251.362 42.479,252.014 43.424,252.031 43.558 C 252.058 43.778,252.280 44.783,252.526 45.800 C 252.579 46.020,252.712 46.380,252.821 46.600 C 252.931 46.820,253.010 47.585,252.997 48.300 C 252.984 49.015,253.092 49.600,253.238 49.600 C 253.385 49.600,253.471 50.590,253.430 51.800 C 253.390 53.010,253.456 54.000,253.578 54.000 C 253.700 54.000,253.836 55.035,253.879 56.300 C 253.923 57.565,254.071 59.500,254.209 60.600 C 254.347 61.700,254.484 63.635,254.512 64.900 C 254.541 66.165,254.662 67.200,254.782 67.200 C 254.902 67.200,255.038 68.055,255.084 69.100 C 255.203 71.795,255.503 75.800,255.585 75.800 C 255.623 75.800,255.722 76.543,255.805 77.452 C 255.953 79.076,255.939 79.096,254.981 78.652 C 254.445 78.403,254.005 78.065,254.003 77.900 C 254.001 77.735,253.590 77.600,253.089 77.600 C 252.588 77.600,251.795 77.331,251.326 77.003 C 250.857 76.675,250.142 76.351,249.737 76.284 C 249.332 76.216,248.595 75.938,248.100 75.666 C 247.605 75.394,247.197 75.313,247.194 75.486 C 247.191 75.659,247.056 75.611,246.894 75.381 C 246.651 75.034,245.719 74.673,242.800 73.791 C 242.690 73.758,242.299 73.598,241.931 73.435 C 241.563 73.272,240.984 73.097,240.643 73.047 C 240.302 72.997,239.898 72.831,239.745 72.678 C 239.592 72.525,239.040 72.400,238.519 72.400 C 237.998 72.400,237.134 72.113,236.599 71.762 C 236.064 71.412,235.395 71.206,235.113 71.305 C 234.831 71.404,234.150 71.315,233.600 71.107 C 232.185 70.572,230.108 70.103,227.500 69.730 C 226.675 69.612,226.000 69.394,226.000 69.245 C 226.000 69.096,225.505 68.995,224.900 69.022 C 224.295 69.049,223.170 68.920,222.400 68.737 C 221.630 68.553,220.100 68.295,219.000 68.163 C 217.900 68.031,216.833 67.821,216.630 67.695 C 216.426 67.569,215.166 67.401,213.830 67.321 C 212.493 67.241,209.960 67.081,208.200 66.966 C 206.440 66.851,202.750 66.757,200.000 66.757 C 197.250 66.757,193.560 66.851,191.800 66.966 C 190.040 67.081,187.507 67.241,186.170 67.321 C 184.834 67.401,183.574 67.569,183.370 67.695 C 183.167 67.821,182.100 68.031,181.000 68.163 C 179.900 68.295,178.370 68.553,177.600 68.737 C 176.830 68.920,175.705 69.049,175.100 69.022 C 174.495 68.995,174.000 69.096,174.000 69.245 C 174.000 69.394,173.325 69.608,172.500 69.721 C 169.956 70.068,167.934 70.527,166.400 71.107 C 165.850 71.315,165.169 71.404,164.887 71.305 C 164.605 71.206,163.975 71.385,163.487 71.702 C 162.999 72.020,161.906 72.408,161.057 72.566 C 160.209 72.723,159.039 73.050,158.457 73.293 C 157.876 73.535,157.310 73.760,157.200 73.792 C 154.468 74.603,153.346 75.038,153.106 75.381 C 152.944 75.611,152.809 75.659,152.806 75.486 C 152.803 75.313,152.395 75.394,151.900 75.666 C 151.405 75.938,150.668 76.216,150.263 76.284 C 149.858 76.351,149.143 76.675,148.674 77.003 C 148.205 77.331,147.412 77.600,146.911 77.600 C 146.410 77.600,146.000 77.780,146.000 78.000 C 146.000 78.220,145.649 78.400,145.219 78.400 C 144.560 78.400,144.472 78.197,144.654 77.100 C 144.773 76.385,144.899 74.765,144.935 73.500 C 144.971 72.235,145.092 71.200,145.204 71.200 C 145.317 71.200,145.426 70.165,145.447 68.900 C 145.483 66.782,145.803 63.044,146.244 59.600 C 146.343 58.830,146.509 57.210,146.614 56.000 C 147.448 46.358,147.623 45.247,148.670 42.960 C 149.214 41.772,149.825 40.800,150.029 40.800 C 150.233 40.800,150.400 40.582,150.400 40.316 C 150.400 39.702,154.831 35.608,155.500 35.603 C 155.775 35.601,156.000 35.420,156.000 35.200 C 156.000 34.980,156.450 34.800,157.000 34.800 C 157.550 34.800,158.000 34.655,158.000 34.477 C 158.000 33.216,234.575 32.557,240.212 33.770 M211.000 100.538 C 211.660 100.651,213.100 100.861,214.200 101.005 C 217.429 101.428,218.113 101.549,219.800 101.992 C 220.680 102.223,221.940 102.501,222.600 102.609 C 223.662 102.783,225.222 103.084,225.500 103.169 C 225.555 103.186,225.691 103.198,225.802 103.195 C 225.913 103.193,226.618 103.448,227.369 103.761 C 228.120 104.075,228.839 104.227,228.967 104.099 C 229.095 103.971,229.200 104.077,229.200 104.333 C 229.200 104.590,229.335 104.762,229.500 104.717 C 229.665 104.671,230.970 105.009,232.400 105.468 C 233.830 105.928,235.495 106.419,236.100 106.559 C 236.705 106.700,237.200 106.986,237.200 107.195 C 237.200 107.404,237.470 107.471,237.800 107.345 C 238.130 107.218,238.400 107.324,238.400 107.581 C 238.400 107.837,238.580 107.936,238.800 107.800 C 239.020 107.664,239.200 107.743,239.200 107.976 C 239.200 108.209,239.466 108.400,239.791 108.400 C 240.116 108.400,241.358 108.928,242.551 109.573 C 243.744 110.219,244.828 110.639,244.960 110.507 C 245.092 110.375,245.200 110.477,245.200 110.733 C 245.200 110.990,245.335 111.167,245.500 111.126 C 246.017 110.998,248.557 112.261,249.552 113.141 C 250.075 113.604,250.633 113.903,250.791 113.806 C 250.949 113.708,251.466 113.988,251.939 114.429 C 252.413 114.870,252.800 115.125,252.800 114.995 C 252.800 114.719,255.662 116.806,256.094 117.398 C 256.288 117.664,256.392 117.665,256.400 117.400 C 256.407 117.180,256.544 117.207,256.706 117.460 C 257.091 118.061,261.903 121.600,262.337 121.600 C 262.521 121.600,263.221 122.185,263.894 122.900 C 264.566 123.615,265.707 124.650,266.431 125.200 C 268.543 126.807,276.707 135.200,276.157 135.200 C 276.037 135.200,276.492 135.666,277.169 136.236 C 277.846 136.805,278.400 137.435,278.400 137.634 C 278.400 138.089,281.916 142.895,282.540 143.294 C 282.793 143.456,282.820 143.593,282.600 143.600 C 282.335 143.608,282.336 143.712,282.602 143.906 C 283.194 144.338,285.281 147.200,285.005 147.200 C 284.875 147.200,285.130 147.587,285.571 148.061 C 286.012 148.534,286.292 149.051,286.194 149.209 C 286.097 149.367,286.396 149.925,286.859 150.448 C 287.739 151.443,289.002 153.983,288.874 154.500 C 288.833 154.665,289.010 154.800,289.267 154.800 C 289.523 154.800,289.625 154.908,289.493 155.040 C 289.361 155.172,289.781 156.256,290.427 157.449 C 291.072 158.642,291.600 159.884,291.600 160.209 C 291.600 160.534,291.791 160.800,292.024 160.800 C 292.257 160.800,292.336 160.980,292.200 161.200 C 292.064 161.420,292.163 161.600,292.419 161.600 C 292.676 161.600,292.782 161.870,292.655 162.200 C 292.529 162.530,292.596 162.800,292.805 162.800 C 293.014 162.800,293.300 163.295,293.441 163.900 C 293.581 164.505,294.072 166.170,294.532 167.600 C 294.991 169.030,295.329 170.335,295.283 170.500 C 295.238 170.665,295.410 170.800,295.667 170.800 C 295.923 170.800,296.029 170.905,295.901 171.033 C 295.773 171.161,295.925 171.881,296.239 172.633 C 296.554 173.385,296.696 174.000,296.556 174.000 C 296.416 174.000,296.490 174.227,296.720 174.503 C 296.950 174.780,297.241 175.815,297.368 176.803 C 297.495 177.792,297.785 179.320,298.013 180.200 C 298.522 182.164,298.655 182.879,298.960 185.300 C 299.092 186.345,299.326 188.055,299.480 189.100 C 299.634 190.145,299.755 195.050,299.750 200.000 C 299.741 208.142,299.625 210.250,298.934 214.800 C 298.817 215.570,298.655 216.650,298.575 217.200 C 298.494 217.750,298.239 218.920,298.008 219.800 C 297.777 220.680,297.499 221.940,297.391 222.600 C 297.217 223.662,296.916 225.222,296.831 225.500 C 296.814 225.555,296.802 225.691,296.805 225.802 C 296.807 225.913,296.552 226.618,296.239 227.369 C 295.925 228.120,295.773 228.839,295.901 228.967 C 296.029 229.095,295.923 229.200,295.667 229.200 C 295.410 229.200,295.238 229.335,295.283 229.500 C 295.329 229.665,294.991 230.970,294.532 232.400 C 294.072 233.830,293.581 235.495,293.441 236.100 C 293.300 236.705,293.014 237.200,292.805 237.200 C 292.596 237.200,292.529 237.470,292.655 237.800 C 292.782 238.130,292.676 238.400,292.419 238.400 C 292.163 238.400,292.064 238.580,292.200 238.800 C 292.336 239.020,292.257 239.200,292.024 239.200 C 291.791 239.200,291.600 239.466,291.600 239.791 C 291.600 240.116,291.072 241.358,290.427 242.551 C 289.781 243.744,289.361 244.828,289.493 244.960 C 289.625 245.092,289.523 245.200,289.267 245.200 C 289.010 245.200,288.833 245.335,288.874 245.500 C 289.002 246.017,287.739 248.557,286.859 249.552 C 286.396 250.075,286.097 250.633,286.194 250.791 C 286.292 250.949,286.012 251.466,285.571 251.939 C 285.130 252.413,284.875 252.800,285.005 252.800 C 285.281 252.800,283.194 255.662,282.602 256.094 C 282.336 256.288,282.335 256.392,282.600 256.400 C 282.820 256.407,282.793 256.544,282.540 256.706 C 281.916 257.105,278.400 261.911,278.400 262.366 C 278.400 262.565,277.846 263.195,277.169 263.764 C 276.492 264.334,276.037 264.800,276.157 264.800 C 276.747 264.800,268.276 273.455,266.084 275.092 C 265.268 275.701,264.420 276.405,264.200 276.656 C 263.980 276.906,262.270 278.231,260.400 279.601 C 258.530 280.970,256.868 282.295,256.706 282.545 C 256.544 282.796,256.407 282.821,256.400 282.600 C 256.392 282.335,256.288 282.336,256.094 282.602 C 255.662 283.194,252.800 285.281,252.800 285.005 C 252.800 284.875,252.413 285.130,251.939 285.571 C 251.466 286.012,250.949 286.292,250.791 286.194 C 250.633 286.097,250.075 286.396,249.552 286.859 C 248.557 287.739,246.017 289.002,245.500 288.874 C 245.335 288.833,245.200 289.010,245.200 289.267 C 245.200 289.523,245.092 289.625,244.960 289.493 C 244.828 289.361,243.744 289.781,242.551 290.427 C 241.358 291.072,240.116 291.600,239.791 291.600 C 239.466 291.600,239.200 291.791,239.200 292.024 C 239.200 292.257,239.020 292.336,238.800 292.200 C 238.580 292.064,238.400 292.163,238.400 292.419 C 238.400 292.676,238.130 292.782,237.800 292.655 C 237.470 292.529,237.200 292.596,237.200 292.805 C 237.200 293.014,236.705 293.300,236.100 293.441 C 235.495 293.581,233.830 294.072,232.400 294.532 C 230.970 294.991,229.665 295.329,229.500 295.283 C 229.335 295.238,229.200 295.410,229.200 295.667 C 229.200 295.923,229.095 296.029,228.967 295.901 C 228.839 295.773,228.119 295.925,227.367 296.239 C 226.615 296.554,226.000 296.696,226.000 296.556 C 226.000 296.416,225.773 296.490,225.497 296.720 C 225.220 296.950,224.185 297.241,223.197 297.368 C 222.208 297.495,220.680 297.785,219.800 298.013 C 217.836 298.522,217.121 298.655,214.700 298.960 C 213.655 299.092,211.945 299.326,210.900 299.480 C 208.465 299.838,191.600 299.833,189.100 299.473 C 188.055 299.323,186.345 299.092,185.300 298.960 C 182.862 298.653,182.151 298.520,180.200 298.008 C 179.320 297.777,178.060 297.499,177.400 297.391 C 176.338 297.217,174.778 296.916,174.500 296.831 C 174.445 296.814,174.265 296.784,174.100 296.764 C 173.935 296.744,173.230 296.489,172.533 296.198 C 171.836 295.906,171.161 295.773,171.033 295.901 C 170.905 296.029,170.800 295.923,170.800 295.667 C 170.800 295.410,170.665 295.238,170.500 295.283 C 170.335 295.329,169.030 294.991,167.600 294.532 C 166.170 294.072,164.505 293.581,163.900 293.441 C 163.295 293.300,162.800 293.014,162.800 292.805 C 162.800 292.596,162.530 292.529,162.200 292.655 C 161.870 292.782,161.600 292.676,161.600 292.419 C 161.600 292.163,161.420 292.064,161.200 292.200 C 160.980 292.336,160.800 292.257,160.800 292.024 C 160.800 291.791,160.534 291.600,160.209 291.600 C 159.884 291.600,158.642 291.072,157.449 290.427 C 156.256 289.781,155.172 289.361,155.040 289.493 C 154.908 289.625,154.800 289.523,154.800 289.267 C 154.800 289.010,154.665 288.833,154.500 288.874 C 153.983 289.002,151.443 287.739,150.448 286.859 C 149.925 286.396,149.367 286.097,149.209 286.194 C 149.051 286.292,148.534 286.012,148.061 285.571 C 147.587 285.130,147.200 284.875,147.200 285.005 C 147.200 285.281,144.338 283.194,143.906 282.602 C 143.712 282.336,143.608 282.335,143.600 282.600 C 143.593 282.820,143.456 282.793,143.294 282.540 C 142.895 281.916,138.089 278.400,137.634 278.400 C 137.435 278.400,136.817 277.860,136.261 277.200 C 135.706 276.540,135.134 276.000,134.990 276.000 C 134.652 276.000,133.058 274.537,129.260 270.741 C 125.723 267.205,123.530 264.800,123.843 264.800 C 123.963 264.800,123.508 264.334,122.831 263.764 C 122.154 263.195,121.600 262.565,121.600 262.366 C 121.600 261.911,118.084 257.105,117.460 256.706 C 117.207 256.544,117.180 256.407,117.400 256.400 C 117.665 256.392,117.664 256.288,117.398 256.094 C 116.806 255.662,114.719 252.800,114.995 252.800 C 115.125 252.800,114.870 252.413,114.429 251.939 C 113.988 251.466,113.708 250.949,113.806 250.791 C 113.903 250.633,113.604 250.075,113.141 249.552 C 112.261 248.557,110.998 246.017,111.126 245.500 C 111.167 245.335,110.990 245.200,110.733 245.200 C 110.477 245.200,110.375 245.092,110.507 244.960 C 110.639 244.828,110.219 243.744,109.573 242.551 C 108.928 241.358,108.400 240.116,108.400 239.791 C 108.400 239.466,108.209 239.200,107.976 239.200 C 107.743 239.200,107.664 239.020,107.800 238.800 C 107.936 238.580,107.837 238.400,107.581 238.400 C 107.324 238.400,107.218 238.130,107.345 237.800 C 107.471 237.470,107.404 237.200,107.195 237.200 C 106.986 237.200,106.700 236.705,106.559 236.100 C 106.419 235.495,105.928 233.830,105.468 232.400 C 105.009 230.970,104.671 229.665,104.717 229.500 C 104.762 229.335,104.590 229.200,104.333 229.200 C 104.077 229.200,103.971 229.095,104.099 228.967 C 104.227 228.839,104.075 228.119,103.761 227.367 C 103.446 226.615,103.304 226.000,103.444 226.000 C 103.584 226.000,103.510 225.773,103.280 225.497 C 103.050 225.220,102.759 224.185,102.632 223.197 C 102.505 222.208,102.215 220.680,101.987 219.800 C 101.478 217.836,101.345 217.121,101.040 214.700 C 100.908 213.655,100.674 211.945,100.520 210.900 C 100.162 208.465,100.167 191.600,100.527 189.100 C 100.677 188.055,100.908 186.345,101.040 185.300 C 101.347 182.862,101.480 182.151,101.992 180.200 C 102.223 179.320,102.501 178.060,102.609 177.400 C 102.783 176.338,103.084 174.778,103.169 174.500 C 103.186 174.445,103.198 174.309,103.195 174.198 C 103.193 174.087,103.448 173.382,103.761 172.631 C 104.075 171.880,104.227 171.161,104.099 171.033 C 103.971 170.905,104.077 170.800,104.333 170.800 C 104.590 170.800,104.762 170.665,104.717 170.500 C 104.671 170.335,105.009 169.030,105.468 167.600 C 105.928 166.170,106.419 164.505,106.559 163.900 C 106.700 163.295,106.986 162.800,107.195 162.800 C 107.404 162.800,107.471 162.530,107.345 162.200 C 107.218 161.870,107.324 161.600,107.581 161.600 C 107.837 161.600,107.936 161.420,107.800 161.200 C 107.664 160.980,107.743 160.800,107.976 160.800 C 108.209 160.800,108.400 160.534,108.400 160.209 C 108.400 159.884,108.928 158.642,109.573 157.449 C 110.219 156.256,110.639 155.172,110.507 155.040 C 110.375 154.908,110.477 154.800,110.733 154.800 C 110.990 154.800,111.167 154.665,111.126 154.500 C 110.998 153.983,112.261 151.443,113.141 150.448 C 113.604 149.925,113.903 149.367,113.806 149.209 C 113.708 149.051,113.988 148.534,114.429 148.061 C 114.870 147.587,115.125 147.200,114.995 147.200 C 114.719 147.200,116.806 144.338,117.398 143.906 C 117.664 143.712,117.665 143.608,117.400 143.600 C 117.180 143.593,117.207 143.456,117.460 143.294 C 118.084 142.895,121.600 138.089,121.600 137.634 C 121.600 137.435,122.154 136.805,122.831 136.236 C 123.508 135.666,123.963 135.200,123.843 135.200 C 123.253 135.200,131.724 126.545,133.916 124.908 C 134.732 124.299,135.580 123.595,135.800 123.344 C 136.020 123.094,137.730 121.769,139.600 120.399 C 141.470 119.030,143.132 117.705,143.294 117.455 C 143.456 117.204,143.593 117.179,143.600 117.400 C 143.608 117.665,143.712 117.664,143.906 117.398 C 144.338 116.806,147.200 114.719,147.200 114.995 C 147.200 115.125,147.587 114.870,148.061 114.429 C 148.534 113.988,149.051 113.708,149.209 113.806 C 149.367 113.903,149.925 113.604,150.448 113.141 C 151.443 112.261,153.983 110.998,154.500 111.126 C 154.665 111.167,154.800 110.990,154.800 110.733 C 154.800 110.477,154.908 110.375,155.040 110.507 C 155.172 110.639,156.256 110.219,157.449 109.573 C 158.642 108.928,159.884 108.400,160.209 108.400 C 160.534 108.400,160.800 108.209,160.800 107.976 C 160.800 107.743,160.980 107.664,161.200 107.800 C 161.420 107.936,161.600 107.837,161.600 107.581 C 161.600 107.324,161.870 107.218,162.200 107.345 C 162.530 107.471,162.800 107.404,162.800 107.195 C 162.800 106.986,163.295 106.700,163.900 106.559 C 164.505 106.419,166.170 105.928,167.600 105.468 C 169.030 105.009,170.335 104.671,170.500 104.717 C 170.665 104.762,170.800 104.590,170.800 104.333 C 170.800 104.077,170.905 103.971,171.033 104.099 C 171.161 104.227,171.881 104.075,172.633 103.761 C 173.385 103.446,174.000 103.304,174.000 103.444 C 174.000 103.584,174.227 103.510,174.503 103.280 C 174.780 103.050,175.815 102.759,176.803 102.632 C 177.792 102.505,179.320 102.215,180.200 101.987 C 182.548 101.378,183.882 101.169,189.177 100.577 C 190.155 100.468,191.027 100.306,191.116 100.217 C 191.341 99.992,209.524 100.285,211.000 100.538 M197.100 133.783 C 195.835 134.043,194.800 134.203,194.800 134.139 C 194.800 134.020,192.197 135.379,190.422 136.424 C 189.149 137.174,187.596 138.663,187.837 138.903 C 187.940 139.007,187.569 139.390,187.012 139.755 C 186.456 140.120,186.000 140.684,186.000 141.009 C 186.000 141.334,185.820 141.600,185.600 141.600 C 185.380 141.600,185.200 141.966,185.200 142.414 C 185.200 142.862,184.914 143.664,184.566 144.196 C 184.217 144.729,184.038 145.338,184.169 145.550 C 184.300 145.762,184.147 146.196,183.829 146.514 C 183.082 147.261,182.920 202.380,183.663 202.839 C 183.904 202.988,184.123 203.760,184.150 204.554 C 184.178 205.349,184.299 205.999,184.420 205.999 C 184.540 206.000,184.867 206.630,185.146 207.400 C 185.424 208.170,185.831 208.800,186.049 208.800 C 186.268 208.800,186.336 208.980,186.200 209.200 C 186.064 209.420,186.143 209.600,186.376 209.600 C 186.609 209.600,186.755 209.825,186.700 210.100 C 186.645 210.375,186.825 210.555,187.100 210.500 C 187.375 210.445,187.600 210.583,187.600 210.806 C 187.600 211.272,194.414 218.000,194.887 218.000 C 195.059 218.000,195.208 218.225,195.218 218.500 C 195.228 218.775,196.229 219.900,197.442 221.000 C 201.282 224.482,203.370 226.590,203.284 226.900 C 203.238 227.065,203.481 227.200,203.824 227.200 C 204.167 227.200,204.336 227.380,204.200 227.600 C 204.064 227.820,204.156 228.000,204.405 228.000 C 205.008 228.000,206.000 229.019,206.000 229.638 C 206.000 229.910,206.094 230.039,206.210 229.924 C 206.463 229.670,209.600 232.746,209.600 233.247 C 209.600 233.441,209.742 233.555,209.915 233.500 C 210.309 233.375,214.000 237.134,214.000 237.660 C 214.000 237.873,214.161 237.948,214.358 237.826 C 214.555 237.704,214.819 237.874,214.946 238.202 C 215.072 238.531,215.431 238.800,215.745 238.800 C 216.058 238.800,216.428 239.096,216.567 239.457 C 216.705 239.819,216.927 240.006,217.059 239.874 C 217.191 239.742,218.019 240.002,218.899 240.451 C 219.780 240.900,220.837 241.179,221.250 241.071 C 221.662 240.963,222.108 241.050,222.240 241.265 C 222.373 241.479,222.733 241.558,223.040 241.440 C 223.348 241.322,223.600 241.375,223.600 241.558 C 223.600 241.920,224.642 241.889,225.600 241.499 C 225.930 241.365,227.157 241.165,228.326 241.055 C 229.495 240.945,230.702 240.647,231.008 240.393 C 231.314 240.139,231.781 240.064,232.044 240.227 C 232.348 240.415,232.419 240.354,232.238 240.062 C 232.081 239.808,232.143 239.578,232.376 239.550 C 233.292 239.442,233.440 239.383,234.010 238.897 C 234.334 238.620,235.365 237.743,236.300 236.949 C 237.235 236.154,238.000 235.245,238.000 234.928 C 238.000 234.612,238.159 234.451,238.354 234.571 C 238.548 234.691,238.930 234.252,239.202 233.595 C 239.474 232.938,239.885 232.400,240.115 232.400 C 240.345 232.400,240.421 232.287,240.283 232.149 C 240.145 232.011,240.308 231.365,240.645 230.713 C 240.982 230.061,241.168 229.295,241.059 229.010 C 240.950 228.725,241.148 228.081,241.499 227.580 C 241.851 227.078,241.945 226.787,241.709 226.933 C 241.152 227.277,241.241 223.917,241.800 223.506 C 242.035 223.333,241.953 223.207,241.600 223.200 C 241.067 223.189,241.067 223.145,241.600 222.800 C 242.063 222.501,242.076 222.411,241.657 222.406 C 241.332 222.402,241.210 222.151,241.353 221.779 C 241.502 221.390,241.427 221.260,241.153 221.429 C 240.859 221.611,240.805 221.414,240.990 220.831 C 241.148 220.335,241.059 219.712,240.784 219.381 C 240.519 219.061,240.427 218.800,240.580 218.800 C 240.732 218.800,240.573 218.515,240.225 218.168 C 239.877 217.820,239.683 217.389,239.794 217.210 C 239.905 217.030,239.726 216.781,239.398 216.654 C 239.069 216.528,238.800 216.149,238.800 215.813 C 238.800 215.476,238.609 215.200,238.376 215.200 C 238.143 215.200,238.064 215.020,238.200 214.800 C 238.336 214.580,238.156 214.400,237.800 214.400 C 237.444 214.400,237.264 214.220,237.400 214.000 C 237.536 213.780,237.367 213.600,237.024 213.600 C 236.681 213.600,236.436 213.465,236.480 213.300 C 236.524 213.135,232.204 208.618,226.880 203.262 C 221.556 197.905,217.200 193.260,217.200 192.938 C 217.200 192.616,217.020 192.464,216.800 192.600 C 216.535 192.764,216.400 185.604,216.400 171.424 C 216.400 154.555,216.506 149.999,216.900 149.994 C 217.220 149.990,217.252 149.882,216.988 149.694 C 216.762 149.532,216.603 148.991,216.634 148.490 C 216.666 147.990,216.536 147.484,216.346 147.367 C 216.156 147.249,216.000 146.794,216.000 146.354 C 216.000 145.915,215.612 144.711,215.138 143.678 C 214.664 142.645,214.274 141.583,214.272 141.318 C 214.269 141.052,214.130 140.920,213.962 141.023 C 213.795 141.127,213.543 140.849,213.402 140.406 C 213.261 139.963,212.978 139.600,212.773 139.600 C 212.568 139.600,212.400 139.319,212.400 138.976 C 212.400 138.633,212.208 138.472,211.973 138.617 C 211.738 138.762,211.448 138.504,211.328 138.045 C 211.207 137.585,210.950 137.308,210.755 137.428 C 210.560 137.549,210.400 137.457,210.400 137.224 C 210.400 136.991,210.130 136.800,209.800 136.800 C 209.470 136.800,209.245 136.583,209.300 136.318 C 209.355 136.053,209.220 135.804,209.000 135.764 C 207.893 135.565,206.800 135.069,206.800 134.766 C 206.800 134.578,206.530 134.529,206.200 134.655 C 205.870 134.782,205.600 134.676,205.600 134.419 C 205.600 134.163,205.432 134.056,205.228 134.183 C 205.023 134.309,204.766 134.269,204.658 134.094 C 204.549 133.918,203.502 133.795,202.330 133.821 C 201.159 133.847,200.020 133.743,199.800 133.589 C 199.580 133.436,198.365 133.523,197.100 133.783 M146.000 322.047 C 146.000 322.241,146.410 322.400,146.911 322.400 C 147.412 322.400,148.205 322.669,148.674 322.997 C 149.143 323.325,149.858 323.649,150.263 323.716 C 150.668 323.784,151.405 324.062,151.900 324.334 C 152.395 324.606,152.803 324.687,152.806 324.514 C 152.809 324.341,152.944 324.389,153.106 324.619 C 153.349 324.966,154.281 325.327,157.200 326.209 C 157.310 326.242,157.701 326.402,158.069 326.565 C 158.437 326.728,159.016 326.903,159.357 326.953 C 159.698 327.003,160.102 327.169,160.255 327.322 C 160.408 327.475,160.960 327.600,161.481 327.600 C 162.002 327.600,162.866 327.887,163.401 328.238 C 163.936 328.588,164.605 328.794,164.887 328.695 C 165.169 328.596,165.850 328.685,166.400 328.893 C 167.815 329.428,169.892 329.897,172.500 330.270 C 173.325 330.388,174.000 330.606,174.000 330.755 C 174.000 330.904,174.495 331.005,175.100 330.978 C 175.705 330.951,176.830 331.080,177.600 331.263 C 178.370 331.447,179.900 331.705,181.000 331.837 C 182.100 331.969,183.167 332.179,183.370 332.305 C 183.574 332.431,184.834 332.599,186.170 332.679 C 187.507 332.759,190.040 332.919,191.800 333.034 C 195.906 333.303,204.094 333.303,208.200 333.034 C 209.960 332.919,212.493 332.759,213.830 332.679 C 215.166 332.599,216.426 332.431,216.630 332.305 C 216.833 332.179,217.900 331.969,219.000 331.837 C 220.100 331.705,221.630 331.447,222.400 331.263 C 223.170 331.080,224.295 330.951,224.900 330.978 C 225.505 331.005,226.000 330.904,226.000 330.755 C 226.000 330.606,226.675 330.392,227.500 330.279 C 230.044 329.932,232.066 329.473,233.600 328.893 C 234.150 328.685,234.831 328.596,235.113 328.695 C 235.395 328.794,236.025 328.615,236.513 328.298 C 237.001 327.980,238.094 327.592,238.943 327.434 C 239.791 327.277,240.961 326.950,241.543 326.707 C 242.124 326.465,242.690 326.240,242.800 326.208 C 245.532 325.397,246.654 324.962,246.894 324.619 C 247.056 324.389,247.191 324.341,247.194 324.514 C 247.197 324.687,247.605 324.606,248.100 324.334 C 248.595 324.062,249.332 323.784,249.737 323.716 C 250.142 323.649,250.857 323.325,251.326 322.997 C 251.795 322.669,252.588 322.400,253.089 322.400 C 253.590 322.400,254.000 322.220,254.000 322.000 C 254.000 321.780,254.351 321.600,254.781 321.600 C 255.440 321.600,255.528 321.803,255.346 322.900 C 255.227 323.615,255.101 325.235,255.065 326.500 C 255.029 327.765,254.908 328.800,254.796 328.800 C 254.683 328.800,254.574 329.835,254.553 331.100 C 254.517 333.218,254.197 336.956,253.756 340.400 C 253.657 341.170,253.491 342.790,253.386 344.000 C 252.950 349.046,252.540 352.822,252.388 353.200 C 252.344 353.310,252.334 353.681,252.366 354.025 C 252.445 354.865,250.438 359.200,249.971 359.200 C 249.767 359.200,249.600 359.422,249.600 359.692 C 249.600 360.440,245.986 363.647,244.400 364.307 C 243.630 364.628,242.897 365.054,242.771 365.254 C 242.551 365.603,241.394 365.969,239.908 366.161 C 239.528 366.210,239.096 366.371,238.949 366.518 C 238.802 366.665,221.383 366.783,200.241 366.782 C 161.209 366.779,157.727 366.659,156.849 365.294 C 156.712 365.082,156.176 364.776,155.659 364.614 C 154.415 364.225,150.661 360.543,149.834 358.900 C 149.474 358.185,149.010 357.600,148.802 357.600 C 148.595 357.600,148.529 357.330,148.655 357.000 C 148.782 356.670,148.667 356.400,148.400 356.400 C 148.125 356.400,148.018 356.130,148.153 355.779 C 148.289 355.423,148.222 355.263,147.995 355.403 C 147.778 355.537,147.585 355.322,147.567 354.924 C 147.548 354.526,147.469 353.840,147.390 353.400 C 147.167 352.154,146.808 348.855,146.585 346.000 C 146.381 343.399,146.131 340.583,145.801 337.200 C 145.705 336.210,145.545 334.500,145.445 333.400 C 145.346 332.300,145.149 330.230,145.009 328.800 C 144.385 322.460,144.423 321.281,145.244 321.496 C 145.660 321.604,146.000 321.852,146.000 322.047 " stroke="none" fill="#a451bd" fill-rule="evenodd"></path><path id="path4" d="M157.663 0.431 C 157.148 0.635,156.563 0.701,156.363 0.577 C 156.163 0.454,155.775 0.496,155.500 0.670 C 155.225 0.845,154.685 1.013,154.300 1.044 C 153.915 1.075,153.555 1.137,153.500 1.183 C 153.400 1.267,152.501 1.444,151.000 1.676 C 150.560 1.744,150.110 1.899,150.000 2.019 C 149.890 2.140,148.630 2.576,147.200 2.989 C 145.770 3.402,144.420 3.866,144.200 4.020 C 143.538 4.483,137.815 7.381,137.600 7.363 C 137.490 7.354,136.860 7.854,136.200 8.474 C 135.540 9.095,134.640 9.711,134.200 9.845 C 133.284 10.123,132.801 10.548,129.148 14.286 C 125.868 17.643,123.200 20.738,123.200 21.186 C 123.200 21.372,122.569 22.280,121.797 23.203 C 121.026 24.127,120.286 25.314,120.154 25.841 C 120.022 26.368,119.742 26.800,119.533 26.800 C 119.324 26.800,119.255 26.965,119.380 27.168 C 119.505 27.370,119.370 27.775,119.081 28.068 C 118.791 28.360,118.316 29.455,118.025 30.500 C 117.734 31.545,117.329 32.400,117.124 32.400 C 116.920 32.400,116.844 32.548,116.956 32.729 C 117.068 32.909,116.930 33.499,116.650 34.039 C 116.370 34.579,116.222 35.266,116.322 35.566 C 116.422 35.867,116.320 35.998,116.094 35.858 C 115.861 35.714,115.687 35.991,115.691 36.503 C 115.697 37.519,115.365 39.009,115.001 39.598 C 114.867 39.816,114.682 40.760,114.590 41.697 C 114.373 43.900,114.032 46.980,113.781 49.000 C 113.671 49.880,113.522 51.519,113.449 52.643 C 113.377 53.767,113.240 54.847,113.146 55.043 C 113.051 55.239,112.990 56.345,113.009 57.500 C 113.029 58.655,112.944 59.600,112.822 59.600 C 112.700 59.600,112.571 60.545,112.537 61.700 C 112.502 62.855,112.363 64.700,112.229 65.800 C 111.962 67.986,111.670 71.167,111.365 75.200 C 111.257 76.630,111.085 78.700,110.982 79.800 C 110.879 80.900,110.707 82.790,110.600 84.000 C 110.493 85.210,110.315 87.100,110.204 88.200 C 110.093 89.300,109.914 91.100,109.807 92.200 C 109.699 93.300,109.519 95.100,109.407 96.200 C 109.294 97.300,109.133 99.226,109.048 100.481 C 108.902 102.665,108.211 104.000,107.229 104.000 C 106.993 104.000,106.800 104.172,106.800 104.382 C 106.800 104.878,104.878 106.800,104.382 106.800 C 104.172 106.800,104.000 106.962,104.000 107.159 C 104.000 107.357,102.965 108.607,101.700 109.937 C 98.565 113.233,97.222 114.800,97.532 114.800 C 97.675 114.800,97.344 115.242,96.796 115.781 C 95.313 117.243,94.800 117.917,94.800 118.407 C 94.800 118.649,94.625 118.739,94.412 118.607 C 94.198 118.475,93.907 118.829,93.766 119.394 C 93.624 119.959,93.153 120.611,92.720 120.843 C 92.286 121.075,92.028 121.362,92.147 121.480 C 92.265 121.598,92.145 121.938,91.881 122.234 C 90.745 123.506,90.400 123.986,90.400 124.295 C 90.400 124.476,90.040 124.883,89.600 125.200 C 89.160 125.517,88.800 126.097,88.800 126.488 C 88.800 126.880,88.628 127.200,88.419 127.200 C 88.209 127.200,87.720 127.875,87.332 128.700 C 86.944 129.525,86.329 130.524,85.965 130.920 C 85.601 131.316,84.970 132.396,84.563 133.320 C 84.155 134.244,83.707 135.090,83.567 135.200 C 83.320 135.394,81.877 137.995,81.792 138.400 C 81.638 139.130,78.215 145.826,77.941 145.933 C 77.753 146.007,77.600 146.462,77.600 146.944 C 77.600 147.427,77.331 148.205,77.003 148.674 C 76.675 149.143,76.351 149.858,76.284 150.263 C 76.216 150.668,75.938 151.405,75.666 151.900 C 75.394 152.395,75.313 152.803,75.486 152.806 C 75.659 152.809,75.611 152.944,75.381 153.106 C 75.034 153.349,74.673 154.281,73.791 157.200 C 73.758 157.310,73.598 157.701,73.435 158.069 C 73.272 158.437,73.097 159.016,73.047 159.357 C 72.997 159.698,72.831 160.102,72.678 160.255 C 72.525 160.408,72.400 160.960,72.400 161.481 C 72.400 162.002,72.113 162.866,71.762 163.401 C 71.412 163.936,71.206 164.605,71.305 164.887 C 71.404 165.169,71.315 165.850,71.107 166.400 C 70.572 167.815,70.103 169.892,69.730 172.500 C 69.612 173.325,69.394 174.000,69.245 174.000 C 69.096 174.000,68.995 174.495,69.022 175.100 C 69.049 175.705,68.920 176.830,68.737 177.600 C 68.553 178.370,68.295 179.900,68.163 181.000 C 68.031 182.100,67.821 183.167,67.695 183.370 C 67.569 183.574,67.401 184.834,67.321 186.170 C 67.241 187.507,67.081 190.040,66.966 191.800 C 66.697 195.906,66.697 204.094,66.966 208.200 C 67.081 209.960,67.241 212.493,67.321 213.830 C 67.401 215.166,67.569 216.426,67.695 216.630 C 67.821 216.833,68.031 217.900,68.163 219.000 C 68.295 220.100,68.553 221.630,68.737 222.400 C 68.920 223.170,69.049 224.295,69.022 224.900 C 68.995 225.505,69.096 226.000,69.245 226.000 C 69.394 226.000,69.608 226.675,69.721 227.500 C 70.068 230.044,70.527 232.066,71.107 233.600 C 71.315 234.150,71.404 234.831,71.305 235.113 C 71.206 235.395,71.385 236.025,71.702 236.513 C 72.020 237.001,72.408 238.094,72.566 238.943 C 72.723 239.791,73.050 240.961,73.293 241.543 C 73.535 242.124,73.760 242.690,73.792 242.800 C 74.603 245.532,75.038 246.654,75.381 246.894 C 75.611 247.056,75.659 247.191,75.486 247.194 C 75.313 247.197,75.394 247.605,75.666 248.100 C 75.938 248.595,76.216 249.332,76.284 249.737 C 76.351 250.142,76.675 250.857,77.003 251.326 C 77.331 251.795,77.600 252.573,77.600 253.056 C 77.600 253.538,77.753 253.993,77.941 254.067 C 78.215 254.174,81.638 260.870,81.792 261.600 C 81.877 262.005,83.320 264.606,83.567 264.800 C 83.707 264.910,84.155 265.756,84.563 266.680 C 84.970 267.604,85.601 268.684,85.965 269.080 C 86.329 269.476,86.944 270.475,87.332 271.300 C 87.720 272.125,88.209 272.800,88.419 272.800 C 88.628 272.800,88.800 273.120,88.800 273.512 C 88.800 273.903,89.160 274.483,89.600 274.800 C 90.040 275.117,90.400 275.530,90.400 275.717 C 90.400 275.904,90.625 276.308,90.900 276.615 C 92.087 277.938,92.340 278.327,92.142 278.525 C 92.026 278.641,92.286 278.925,92.720 279.157 C 93.153 279.389,93.624 280.041,93.766 280.606 C 93.907 281.171,94.198 281.525,94.412 281.393 C 94.625 281.261,94.800 281.351,94.800 281.593 C 94.800 282.083,95.313 282.757,96.796 284.219 C 97.344 284.758,97.675 285.200,97.532 285.200 C 97.222 285.200,98.565 286.767,101.700 290.063 C 102.965 291.393,104.000 292.643,104.000 292.841 C 104.000 293.038,104.172 293.200,104.382 293.200 C 104.878 293.200,106.800 295.122,106.800 295.618 C 106.800 295.828,107.051 296.000,107.357 296.000 C 107.873 296.000,108.470 296.854,108.616 297.800 C 108.650 298.020,108.798 298.473,108.945 298.806 C 109.093 299.139,109.152 300.183,109.078 301.126 C 109.003 302.069,109.092 302.933,109.275 303.046 C 109.457 303.159,109.578 304.095,109.542 305.126 C 109.506 306.157,109.598 307.273,109.745 307.606 C 109.893 307.939,109.952 308.983,109.878 309.926 C 109.803 310.869,109.892 311.733,110.075 311.846 C 110.257 311.959,110.378 312.895,110.342 313.926 C 110.306 314.957,110.398 316.073,110.545 316.406 C 110.693 316.739,110.752 317.783,110.678 318.726 C 110.603 319.669,110.692 320.533,110.875 320.646 C 111.057 320.759,111.165 321.695,111.114 322.726 C 111.063 323.757,111.143 324.795,111.293 325.033 C 111.442 325.271,111.515 326.316,111.453 327.354 C 111.392 328.391,111.487 329.330,111.663 329.439 C 111.839 329.548,111.929 330.538,111.862 331.638 C 111.795 332.739,111.885 333.729,112.062 333.838 C 112.239 333.948,112.329 334.938,112.262 336.038 C 112.195 337.139,112.285 338.129,112.462 338.238 C 112.639 338.348,112.729 339.338,112.662 340.438 C 112.595 341.539,112.685 342.529,112.862 342.638 C 113.039 342.748,113.129 343.738,113.062 344.838 C 112.995 345.939,113.085 346.929,113.262 347.038 C 113.439 347.148,113.529 348.138,113.462 349.238 C 113.395 350.339,113.505 351.341,113.708 351.466 C 113.910 351.591,113.992 352.127,113.891 352.657 C 113.790 353.187,113.860 354.441,114.048 355.445 C 114.235 356.448,114.468 357.839,114.565 358.535 C 114.662 359.231,114.866 360.340,115.017 361.000 C 115.169 361.660,115.302 362.425,115.313 362.700 C 115.324 362.975,115.483 363.200,115.667 363.200 C 115.850 363.200,115.966 363.335,115.924 363.500 C 115.822 363.901,116.425 366.418,116.807 367.187 C 117.118 367.814,117.854 369.470,118.970 372.060 C 119.317 372.864,119.600 373.641,119.600 373.787 C 119.600 373.934,120.071 374.671,120.647 375.427 C 121.224 376.182,121.539 376.803,121.347 376.806 C 121.156 376.809,121.189 376.944,121.419 377.106 C 121.650 377.268,122.272 378.030,122.801 378.800 C 125.942 383.370,137.898 393.984,139.925 394.002 C 140.076 394.004,140.678 394.254,141.261 394.559 C 141.845 394.863,142.956 395.321,143.729 395.577 C 144.503 395.832,145.344 396.291,145.597 396.597 C 145.851 396.902,146.315 397.054,146.629 396.933 C 146.943 396.813,147.200 396.875,147.200 397.072 C 147.200 397.388,147.796 397.549,149.500 397.691 C 149.775 397.714,150.000 397.903,150.000 398.109 C 150.000 398.316,150.252 398.389,150.561 398.270 C 150.869 398.152,151.235 398.168,151.372 398.306 C 151.636 398.569,152.108 398.680,154.400 399.016 C 155.170 399.128,156.250 399.347,156.800 399.501 C 158.240 399.906,241.935 400.005,242.991 399.603 C 243.476 399.419,244.397 399.170,245.037 399.050 C 245.676 398.930,246.875 398.664,247.700 398.458 C 248.525 398.252,249.200 398.177,249.200 398.291 C 249.200 398.405,249.451 398.290,249.758 398.035 C 250.065 397.780,250.470 397.621,250.658 397.681 C 251.021 397.797,252.892 397.128,255.200 396.056 C 255.970 395.699,256.780 395.394,257.000 395.379 C 258.074 395.307,259.183 394.697,258.944 394.309 C 258.797 394.071,258.859 393.989,259.083 394.128 C 259.306 394.266,260.369 393.753,261.443 392.989 C 262.518 392.225,263.623 391.600,263.899 391.600 C 264.174 391.600,264.400 391.390,264.400 391.133 C 264.400 390.877,264.501 390.768,264.624 390.891 C 264.748 391.014,265.274 390.729,265.793 390.258 C 266.313 389.786,268.356 387.960,270.334 386.200 C 272.311 384.440,273.947 382.820,273.968 382.600 C 273.989 382.380,274.647 381.525,275.429 380.700 C 276.211 379.875,276.715 379.200,276.550 379.200 C 276.384 379.200,276.643 378.833,277.125 378.384 C 277.606 377.936,278.000 377.316,278.000 377.007 C 278.000 376.698,278.315 376.210,278.700 375.923 C 279.085 375.635,279.459 375.130,279.532 374.800 C 279.604 374.470,279.906 373.930,280.203 373.600 C 280.500 373.270,280.777 372.820,280.819 372.600 C 280.994 371.684,281.577 370.461,281.948 370.232 C 282.167 370.097,282.567 368.999,282.836 367.793 C 283.106 366.587,283.462 365.600,283.626 365.600 C 283.791 365.600,283.824 365.212,283.700 364.737 C 283.575 364.263,283.637 363.976,283.837 364.098 C 284.037 364.221,284.246 363.696,284.302 362.931 C 284.358 362.165,284.594 361.185,284.825 360.753 C 285.057 360.320,285.321 359.209,285.412 358.283 C 285.628 356.085,285.970 353.002,286.219 351.000 C 286.329 350.120,286.478 348.481,286.551 347.357 C 286.623 346.233,286.760 345.153,286.854 344.957 C 286.949 344.761,287.010 343.655,286.991 342.500 C 286.971 341.345,287.056 340.400,287.178 340.400 C 287.300 340.400,287.429 339.455,287.463 338.300 C 287.498 337.145,287.637 335.300,287.771 334.200 C 288.038 332.014,288.330 328.833,288.635 324.800 C 288.743 323.370,288.915 321.300,289.018 320.200 C 289.121 319.100,289.293 317.210,289.400 316.000 C 289.507 314.790,289.685 312.900,289.796 311.800 C 289.907 310.700,290.086 308.900,290.193 307.800 C 290.301 306.700,290.481 304.900,290.593 303.800 C 290.706 302.700,290.867 300.774,290.952 299.519 C 291.098 297.335,291.789 296.000,292.771 296.000 C 293.007 296.000,293.200 295.828,293.200 295.618 C 293.200 295.122,295.122 293.200,295.618 293.200 C 295.828 293.200,296.000 293.038,296.000 292.841 C 296.000 292.643,297.035 291.393,298.300 290.063 C 301.435 286.767,302.778 285.200,302.468 285.200 C 302.325 285.200,302.656 284.758,303.204 284.219 C 304.687 282.757,305.200 282.083,305.200 281.593 C 305.200 281.351,305.375 281.261,305.588 281.393 C 305.802 281.525,306.093 281.171,306.234 280.606 C 306.376 280.041,306.847 279.389,307.280 279.157 C 307.714 278.925,307.972 278.638,307.853 278.520 C 307.735 278.402,307.855 278.062,308.119 277.766 C 309.255 276.494,309.600 276.014,309.600 275.705 C 309.600 275.524,309.960 275.117,310.400 274.800 C 310.840 274.483,311.200 273.903,311.200 273.512 C 311.200 273.120,311.372 272.800,311.581 272.800 C 311.791 272.800,312.280 272.125,312.668 271.300 C 313.056 270.475,313.671 269.476,314.035 269.080 C 314.399 268.684,315.030 267.604,315.437 266.680 C 315.845 265.756,316.293 264.910,316.433 264.800 C 316.680 264.606,318.123 262.005,318.208 261.600 C 318.362 260.870,321.785 254.174,322.059 254.067 C 322.247 253.993,322.400 253.538,322.400 253.056 C 322.400 252.573,322.669 251.795,322.997 251.326 C 323.325 250.857,323.649 250.142,323.716 249.737 C 323.784 249.332,324.062 248.595,324.334 248.100 C 324.606 247.605,324.687 247.197,324.514 247.194 C 324.341 247.191,324.389 247.056,324.619 246.894 C 324.966 246.651,325.327 245.719,326.209 242.800 C 326.242 242.690,326.402 242.299,326.565 241.931 C 326.728 241.563,326.903 240.984,326.953 240.643 C 327.003 240.302,327.169 239.898,327.322 239.745 C 327.475 239.592,327.600 239.040,327.600 238.519 C 327.600 237.998,327.887 237.134,328.238 236.599 C 328.588 236.064,328.794 235.395,328.695 235.113 C 328.596 234.831,328.685 234.150,328.893 233.600 C 329.428 232.185,329.897 230.108,330.270 227.500 C 330.388 226.675,330.606 226.000,330.755 226.000 C 330.904 226.000,331.005 225.505,330.978 224.900 C 330.951 224.295,331.080 223.170,331.263 222.400 C 331.447 221.630,331.705 220.100,331.837 219.000 C 331.969 217.900,332.179 216.833,332.305 216.630 C 332.431 216.426,332.599 215.166,332.679 213.830 C 332.759 212.493,332.919 209.960,333.034 208.200 C 333.303 204.094,333.303 195.906,333.034 191.800 C 332.919 190.040,332.759 187.507,332.679 186.170 C 332.599 184.834,332.431 183.574,332.305 183.370 C 332.179 183.167,331.969 182.100,331.837 181.000 C 331.705 179.900,331.447 178.370,331.263 177.600 C 331.080 176.830,330.951 175.705,330.978 175.100 C 331.005 174.495,330.904 174.000,330.755 174.000 C 330.606 174.000,330.392 173.325,330.279 172.500 C 329.932 169.956,329.473 167.934,328.893 166.400 C 328.685 165.850,328.596 165.169,328.695 164.887 C 328.794 164.605,328.615 163.975,328.298 163.487 C 327.980 162.999,327.592 161.906,327.434 161.057 C 327.277 160.209,326.950 159.039,326.707 158.457 C 326.465 157.876,326.240 157.310,326.208 157.200 C 325.397 154.468,324.962 153.346,324.619 153.106 C 324.389 152.944,324.341 152.809,324.514 152.806 C 324.687 152.803,324.606 152.395,324.334 151.900 C 324.062 151.405,323.784 150.668,323.716 150.263 C 323.649 149.858,323.325 149.143,322.997 148.674 C 322.669 148.205,322.400 147.427,322.400 146.944 C 322.400 146.462,322.247 146.007,322.059 145.933 C 321.785 145.826,318.362 139.130,318.208 138.400 C 318.123 137.995,316.680 135.394,316.433 135.200 C 316.293 135.090,315.845 134.244,315.437 133.320 C 315.030 132.396,314.399 131.316,314.035 130.920 C 313.671 130.524,313.056 129.525,312.668 128.700 C 312.280 127.875,311.791 127.200,311.581 127.200 C 311.372 127.200,311.200 126.880,311.200 126.488 C 311.200 126.097,310.840 125.517,310.400 125.200 C 309.960 124.883,309.600 124.470,309.600 124.283 C 309.600 124.096,309.375 123.692,309.100 123.385 C 307.913 122.062,307.660 121.673,307.858 121.475 C 307.974 121.359,307.714 121.075,307.280 120.843 C 306.847 120.611,306.376 119.959,306.234 119.394 C 306.093 118.829,305.802 118.475,305.588 118.607 C 305.375 118.739,305.200 118.649,305.200 118.407 C 305.200 117.917,304.687 117.243,303.204 115.781 C 302.656 115.242,302.325 114.800,302.468 114.800 C 302.778 114.800,301.435 113.233,298.300 109.937 C 297.035 108.607,296.000 107.357,296.000 107.159 C 296.000 106.962,295.828 106.800,295.618 106.800 C 295.122 106.800,293.200 104.878,293.200 104.382 C 293.200 104.172,292.942 104.000,292.627 104.000 C 292.312 104.000,291.923 103.595,291.763 103.100 C 291.475 102.208,291.403 101.644,290.983 97.000 C 290.864 95.680,290.691 93.790,290.600 92.800 C 290.509 91.810,290.329 89.830,290.200 88.400 C 290.071 86.970,289.891 84.990,289.800 84.000 C 289.709 83.010,289.529 81.030,289.400 79.600 C 289.271 78.170,289.091 76.190,289.000 75.200 C 288.909 74.210,288.729 72.230,288.600 70.800 C 288.471 69.370,288.291 67.390,288.200 66.400 C 288.109 65.410,287.929 63.430,287.800 62.000 C 287.671 60.570,287.491 58.590,287.400 57.600 C 287.309 56.610,287.129 54.630,287.000 53.200 C 286.725 50.144,286.476 47.690,286.188 45.200 C 286.074 44.210,285.917 42.757,285.840 41.972 C 285.763 41.186,285.553 40.106,285.373 39.572 C 285.194 39.037,285.027 38.420,285.002 38.200 C 284.977 37.980,284.734 37.274,284.462 36.631 C 284.190 35.988,284.059 35.223,284.171 34.931 C 284.283 34.639,284.220 34.400,284.031 34.400 C 283.692 34.400,283.006 32.486,283.134 31.900 C 283.170 31.735,283.026 31.600,282.813 31.600 C 282.599 31.600,282.529 31.330,282.655 31.000 C 282.786 30.660,282.665 30.400,282.376 30.400 C 282.096 30.400,281.987 30.280,282.134 30.132 C 282.281 29.985,282.086 29.504,281.701 29.064 C 281.315 28.623,281.234 28.400,281.521 28.568 C 281.807 28.735,281.193 27.551,280.156 25.936 C 279.119 24.321,278.270 22.783,278.269 22.518 C 278.268 22.252,278.117 22.128,277.933 22.241 C 277.750 22.355,277.600 22.182,277.600 21.857 C 277.600 21.532,277.434 21.207,277.230 21.133 C 277.027 21.060,276.802 20.730,276.730 20.400 C 276.659 20.070,276.015 19.227,275.300 18.527 C 274.585 17.827,274.000 17.179,274.000 17.088 C 274.000 16.808,269.496 12.400,269.211 12.400 C 269.064 12.400,268.437 11.764,267.818 10.988 C 267.198 10.211,266.602 9.665,266.492 9.774 C 266.383 9.884,265.843 9.620,265.292 9.187 C 264.742 8.754,264.129 8.400,263.930 8.400 C 263.505 8.400,261.133 6.781,260.706 6.200 C 260.544 5.980,260.409 5.930,260.406 6.090 C 260.403 6.249,259.500 5.849,258.400 5.200 C 257.300 4.551,256.400 4.134,256.400 4.272 C 256.400 4.411,256.040 4.198,255.600 3.800 C 255.160 3.402,254.800 3.199,254.800 3.348 C 254.800 3.498,254.283 3.353,253.651 3.026 C 253.019 2.699,252.393 2.540,252.260 2.673 C 252.128 2.806,251.745 2.686,251.410 2.408 C 251.074 2.130,250.800 2.020,250.800 2.165 C 250.800 2.310,250.415 2.222,249.945 1.970 C 249.474 1.719,248.619 1.457,248.045 1.389 C 246.376 1.192,244.345 0.759,243.395 0.398 C 242.172 -0.067,158.842 -0.035,157.663 0.431 M240.212 33.770 C 242.881 34.344,245.200 35.397,245.200 36.034 C 245.200 36.261,245.341 36.360,245.514 36.253 C 245.686 36.147,246.720 36.856,247.811 37.830 C 248.902 38.803,249.653 39.600,249.479 39.600 C 249.305 39.600,249.802 40.436,250.582 41.458 C 251.362 42.479,252.014 43.424,252.031 43.558 C 252.058 43.778,252.280 44.783,252.526 45.800 C 252.579 46.020,252.712 46.380,252.821 46.600 C 252.931 46.820,253.010 47.585,252.997 48.300 C 252.984 49.015,253.092 49.600,253.238 49.600 C 253.385 49.600,253.471 50.590,253.430 51.800 C 253.390 53.010,253.456 54.000,253.578 54.000 C 253.700 54.000,253.836 55.035,253.879 56.300 C 253.923 57.565,254.071 59.500,254.209 60.600 C 254.347 61.700,254.484 63.635,254.512 64.900 C 254.541 66.165,254.662 67.200,254.782 67.200 C 254.902 67.200,255.038 68.055,255.084 69.100 C 255.203 71.795,255.503 75.800,255.585 75.800 C 255.623 75.800,255.722 76.543,255.805 77.452 C 255.953 79.076,255.939 79.096,254.981 78.652 C 254.445 78.403,254.005 78.065,254.003 77.900 C 254.001 77.735,253.590 77.600,253.089 77.600 C 252.588 77.600,251.795 77.331,251.326 77.003 C 250.857 76.675,250.142 76.351,249.737 76.284 C 249.332 76.216,248.595 75.938,248.100 75.666 C 247.605 75.394,247.197 75.313,247.194 75.486 C 247.191 75.659,247.056 75.611,246.894 75.381 C 246.651 75.034,245.719 74.673,242.800 73.791 C 242.690 73.758,242.299 73.598,241.931 73.435 C 241.563 73.272,240.984 73.097,240.643 73.047 C 240.302 72.997,239.898 72.831,239.745 72.678 C 239.592 72.525,239.040 72.400,238.519 72.400 C 237.998 72.400,237.134 72.113,236.599 71.762 C 236.064 71.412,235.395 71.206,235.113 71.305 C 234.831 71.404,234.150 71.315,233.600 71.107 C 232.185 70.572,230.108 70.103,227.500 69.730 C 226.675 69.612,226.000 69.394,226.000 69.245 C 226.000 69.096,225.505 68.995,224.900 69.022 C 224.295 69.049,223.170 68.920,222.400 68.737 C 221.630 68.553,220.100 68.295,219.000 68.163 C 217.900 68.031,216.833 67.821,216.630 67.695 C 216.426 67.569,215.166 67.401,213.830 67.321 C 212.493 67.241,209.960 67.081,208.200 66.966 C 206.440 66.851,202.750 66.757,200.000 66.757 C 197.250 66.757,193.560 66.851,191.800 66.966 C 190.040 67.081,187.507 67.241,186.170 67.321 C 184.834 67.401,183.574 67.569,183.370 67.695 C 183.167 67.821,182.100 68.031,181.000 68.163 C 179.900 68.295,178.370 68.553,177.600 68.737 C 176.830 68.920,175.705 69.049,175.100 69.022 C 174.495 68.995,174.000 69.096,174.000 69.245 C 174.000 69.394,173.325 69.608,172.500 69.721 C 169.956 70.068,167.934 70.527,166.400 71.107 C 165.850 71.315,165.169 71.404,164.887 71.305 C 164.605 71.206,163.975 71.385,163.487 71.702 C 162.999 72.020,161.906 72.408,161.057 72.566 C 160.209 72.723,159.039 73.050,158.457 73.293 C 157.876 73.535,157.310 73.760,157.200 73.792 C 154.468 74.603,153.346 75.038,153.106 75.381 C 152.944 75.611,152.809 75.659,152.806 75.486 C 152.803 75.313,152.395 75.394,151.900 75.666 C 151.405 75.938,150.668 76.216,150.263 76.284 C 149.858 76.351,149.143 76.675,148.674 77.003 C 148.205 77.331,147.412 77.600,146.911 77.600 C 146.410 77.600,146.000 77.780,146.000 78.000 C 146.000 78.220,145.649 78.400,145.219 78.400 C 144.560 78.400,144.472 78.197,144.654 77.100 C 144.773 76.385,144.899 74.765,144.935 73.500 C 144.971 72.235,145.092 71.200,145.204 71.200 C 145.317 71.200,145.426 70.165,145.447 68.900 C 145.483 66.782,145.803 63.044,146.244 59.600 C 146.343 58.830,146.509 57.210,146.614 56.000 C 147.448 46.358,147.623 45.247,148.670 42.960 C 149.214 41.772,149.825 40.800,150.029 40.800 C 150.233 40.800,150.400 40.582,150.400 40.316 C 150.400 39.702,154.831 35.608,155.500 35.603 C 155.775 35.601,156.000 35.420,156.000 35.200 C 156.000 34.980,156.450 34.800,157.000 34.800 C 157.550 34.800,158.000 34.655,158.000 34.477 C 158.000 33.216,234.575 32.557,240.212 33.770 M211.000 100.538 C 211.660 100.651,213.100 100.861,214.200 101.005 C 217.429 101.428,218.113 101.549,219.800 101.992 C 220.680 102.223,221.940 102.501,222.600 102.609 C 223.662 102.783,225.222 103.084,225.500 103.169 C 225.555 103.186,225.691 103.198,225.802 103.195 C 225.913 103.193,226.618 103.448,227.369 103.761 C 228.120 104.075,228.839 104.227,228.967 104.099 C 229.095 103.971,229.200 104.077,229.200 104.333 C 229.200 104.590,229.335 104.762,229.500 104.717 C 229.665 104.671,230.970 105.009,232.400 105.468 C 233.830 105.928,235.495 106.419,236.100 106.559 C 236.705 106.700,237.200 106.986,237.200 107.195 C 237.200 107.404,237.470 107.471,237.800 107.345 C 238.130 107.218,238.400 107.324,238.400 107.581 C 238.400 107.837,238.580 107.936,238.800 107.800 C 239.020 107.664,239.200 107.743,239.200 107.976 C 239.200 108.209,239.466 108.400,239.791 108.400 C 240.116 108.400,241.358 108.928,242.551 109.573 C 243.744 110.219,244.828 110.639,244.960 110.507 C 245.092 110.375,245.200 110.477,245.200 110.733 C 245.200 110.990,245.335 111.167,245.500 111.126 C 246.017 110.998,248.557 112.261,249.552 113.141 C 250.075 113.604,250.633 113.903,250.791 113.806 C 250.949 113.708,251.466 113.988,251.939 114.429 C 252.413 114.870,252.800 115.125,252.800 114.995 C 252.800 114.719,255.662 116.806,256.094 117.398 C 256.288 117.664,256.392 117.665,256.400 117.400 C 256.407 117.180,256.544 117.207,256.706 117.460 C 257.091 118.061,261.903 121.600,262.337 121.600 C 262.521 121.600,263.221 122.185,263.894 122.900 C 264.566 123.615,265.707 124.650,266.431 125.200 C 268.543 126.807,276.707 135.200,276.157 135.200 C 276.037 135.200,276.492 135.666,277.169 136.236 C 277.846 136.805,278.400 137.435,278.400 137.634 C 278.400 138.089,281.916 142.895,282.540 143.294 C 282.793 143.456,282.820 143.593,282.600 143.600 C 282.335 143.608,282.336 143.712,282.602 143.906 C 283.194 144.338,285.281 147.200,285.005 147.200 C 284.875 147.200,285.130 147.587,285.571 148.061 C 286.012 148.534,286.292 149.051,286.194 149.209 C 286.097 149.367,286.396 149.925,286.859 150.448 C 287.739 151.443,289.002 153.983,288.874 154.500 C 288.833 154.665,289.010 154.800,289.267 154.800 C 289.523 154.800,289.625 154.908,289.493 155.040 C 289.361 155.172,289.781 156.256,290.427 157.449 C 291.072 158.642,291.600 159.884,291.600 160.209 C 291.600 160.534,291.791 160.800,292.024 160.800 C 292.257 160.800,292.336 160.980,292.200 161.200 C 292.064 161.420,292.163 161.600,292.419 161.600 C 292.676 161.600,292.782 161.870,292.655 162.200 C 292.529 162.530,292.596 162.800,292.805 162.800 C 293.014 162.800,293.300 163.295,293.441 163.900 C 293.581 164.505,294.072 166.170,294.532 167.600 C 294.991 169.030,295.329 170.335,295.283 170.500 C 295.238 170.665,295.410 170.800,295.667 170.800 C 295.923 170.800,296.029 170.905,295.901 171.033 C 295.773 171.161,295.925 171.881,296.239 172.633 C 296.554 173.385,296.696 174.000,296.556 174.000 C 296.416 174.000,296.490 174.227,296.720 174.503 C 296.950 174.780,297.241 175.815,297.368 176.803 C 297.495 177.792,297.785 179.320,298.013 180.200 C 298.522 182.164,298.655 182.879,298.960 185.300 C 299.092 186.345,299.326 188.055,299.480 189.100 C 299.634 190.145,299.755 195.050,299.750 200.000 C 299.741 208.142,299.625 210.250,298.934 214.800 C 298.817 215.570,298.655 216.650,298.575 217.200 C 298.494 217.750,298.239 218.920,298.008 219.800 C 297.777 220.680,297.499 221.940,297.391 222.600 C 297.217 223.662,296.916 225.222,296.831 225.500 C 296.814 225.555,296.802 225.691,296.805 225.802 C 296.807 225.913,296.552 226.618,296.239 227.369 C 295.925 228.120,295.773 228.839,295.901 228.967 C 296.029 229.095,295.923 229.200,295.667 229.200 C 295.410 229.200,295.238 229.335,295.283 229.500 C 295.329 229.665,294.991 230.970,294.532 232.400 C 294.072 233.830,293.581 235.495,293.441 236.100 C 293.300 236.705,293.014 237.200,292.805 237.200 C 292.596 237.200,292.529 237.470,292.655 237.800 C 292.782 238.130,292.676 238.400,292.419 238.400 C 292.163 238.400,292.064 238.580,292.200 238.800 C 292.336 239.020,292.257 239.200,292.024 239.200 C 291.791 239.200,291.600 239.466,291.600 239.791 C 291.600 240.116,291.072 241.358,290.427 242.551 C 289.781 243.744,289.361 244.828,289.493 244.960 C 289.625 245.092,289.523 245.200,289.267 245.200 C 289.010 245.200,288.833 245.335,288.874 245.500 C 289.002 246.017,287.739 248.557,286.859 249.552 C 286.396 250.075,286.097 250.633,286.194 250.791 C 286.292 250.949,286.012 251.466,285.571 251.939 C 285.130 252.413,284.875 252.800,285.005 252.800 C 285.281 252.800,283.194 255.662,282.602 256.094 C 282.336 256.288,282.335 256.392,282.600 256.400 C 282.820 256.407,282.793 256.544,282.540 256.706 C 281.916 257.105,278.400 261.911,278.400 262.366 C 278.400 262.565,277.846 263.195,277.169 263.764 C 276.492 264.334,276.037 264.800,276.157 264.800 C 276.747 264.800,268.276 273.455,266.084 275.092 C 265.268 275.701,264.420 276.405,264.200 276.656 C 263.980 276.906,262.270 278.231,260.400 279.601 C 258.530 280.970,256.868 282.295,256.706 282.545 C 256.544 282.796,256.407 282.821,256.400 282.600 C 256.392 282.335,256.288 282.336,256.094 282.602 C 255.662 283.194,252.800 285.281,252.800 285.005 C 252.800 284.875,252.413 285.130,251.939 285.571 C 251.466 286.012,250.949 286.292,250.791 286.194 C 250.633 286.097,250.075 286.396,249.552 286.859 C 248.557 287.739,246.017 289.002,245.500 288.874 C 245.335 288.833,245.200 289.010,245.200 289.267 C 245.200 289.523,245.092 289.625,244.960 289.493 C 244.828 289.361,243.744 289.781,242.551 290.427 C 241.358 291.072,240.116 291.600,239.791 291.600 C 239.466 291.600,239.200 291.791,239.200 292.024 C 239.200 292.257,239.020 292.336,238.800 292.200 C 238.580 292.064,238.400 292.163,238.400 292.419 C 238.400 292.676,238.130 292.782,237.800 292.655 C 237.470 292.529,237.200 292.596,237.200 292.805 C 237.200 293.014,236.705 293.300,236.100 293.441 C 235.495 293.581,233.830 294.072,232.400 294.532 C 230.970 294.991,229.665 295.329,229.500 295.283 C 229.335 295.238,229.200 295.410,229.200 295.667 C 229.200 295.923,229.095 296.029,228.967 295.901 C 228.839 295.773,228.119 295.925,227.367 296.239 C 226.615 296.554,226.000 296.696,226.000 296.556 C 226.000 296.416,225.773 296.490,225.497 296.720 C 225.220 296.950,224.185 297.241,223.197 297.368 C 222.208 297.495,220.680 297.785,219.800 298.013 C 217.836 298.522,217.121 298.655,214.700 298.960 C 213.655 299.092,211.945 299.326,210.900 299.480 C 208.465 299.838,191.600 299.833,189.100 299.473 C 188.055 299.323,186.345 299.092,185.300 298.960 C 182.862 298.653,182.151 298.520,180.200 298.008 C 179.320 297.777,178.060 297.499,177.400 297.391 C 176.338 297.217,174.778 296.916,174.500 296.831 C 174.445 296.814,174.265 296.784,174.100 296.764 C 173.935 296.744,173.230 296.489,172.533 296.198 C 171.836 295.906,171.161 295.773,171.033 295.901 C 170.905 296.029,170.800 295.923,170.800 295.667 C 170.800 295.410,170.665 295.238,170.500 295.283 C 170.335 295.329,169.030 294.991,167.600 294.532 C 166.170 294.072,164.505 293.581,163.900 293.441 C 163.295 293.300,162.800 293.014,162.800 292.805 C 162.800 292.596,162.530 292.529,162.200 292.655 C 161.870 292.782,161.600 292.676,161.600 292.419 C 161.600 292.163,161.420 292.064,161.200 292.200 C 160.980 292.336,160.800 292.257,160.800 292.024 C 160.800 291.791,160.534 291.600,160.209 291.600 C 159.884 291.600,158.642 291.072,157.449 290.427 C 156.256 289.781,155.172 289.361,155.040 289.493 C 154.908 289.625,154.800 289.523,154.800 289.267 C 154.800 289.010,154.665 288.833,154.500 288.874 C 153.983 289.002,151.443 287.739,150.448 286.859 C 149.925 286.396,149.367 286.097,149.209 286.194 C 149.051 286.292,148.534 286.012,148.061 285.571 C 147.587 285.130,147.200 284.875,147.200 285.005 C 147.200 285.281,144.338 283.194,143.906 282.602 C 143.712 282.336,143.608 282.335,143.600 282.600 C 143.593 282.820,143.456 282.793,143.294 282.540 C 142.895 281.916,138.089 278.400,137.634 278.400 C 137.435 278.400,136.817 277.860,136.261 277.200 C 135.706 276.540,135.134 276.000,134.990 276.000 C 134.652 276.000,133.058 274.537,129.260 270.741 C 125.723 267.205,123.530 264.800,123.843 264.800 C 123.963 264.800,123.508 264.334,122.831 263.764 C 122.154 263.195,121.600 262.565,121.600 262.366 C 121.600 261.911,118.084 257.105,117.460 256.706 C 117.207 256.544,117.180 256.407,117.400 256.400 C 117.665 256.392,117.664 256.288,117.398 256.094 C 116.806 255.662,114.719 252.800,114.995 252.800 C 115.125 252.800,114.870 252.413,114.429 251.939 C 113.988 251.466,113.708 250.949,113.806 250.791 C 113.903 250.633,113.604 250.075,113.141 249.552 C 112.261 248.557,110.998 246.017,111.126 245.500 C 111.167 245.335,110.990 245.200,110.733 245.200 C 110.477 245.200,110.375 245.092,110.507 244.960 C 110.639 244.828,110.219 243.744,109.573 242.551 C 108.928 241.358,108.400 240.116,108.400 239.791 C 108.400 239.466,108.209 239.200,107.976 239.200 C 107.743 239.200,107.664 239.020,107.800 238.800 C 107.936 238.580,107.837 238.400,107.581 238.400 C 107.324 238.400,107.218 238.130,107.345 237.800 C 107.471 237.470,107.404 237.200,107.195 237.200 C 106.986 237.200,106.700 236.705,106.559 236.100 C 106.419 235.495,105.928 233.830,105.468 232.400 C 105.009 230.970,104.671 229.665,104.717 229.500 C 104.762 229.335,104.590 229.200,104.333 229.200 C 104.077 229.200,103.971 229.095,104.099 228.967 C 104.227 228.839,104.075 228.119,103.761 227.367 C 103.446 226.615,103.304 226.000,103.444 226.000 C 103.584 226.000,103.510 225.773,103.280 225.497 C 103.050 225.220,102.759 224.185,102.632 223.197 C 102.505 222.208,102.215 220.680,101.987 219.800 C 101.478 217.836,101.345 217.121,101.040 214.700 C 100.908 213.655,100.674 211.945,100.520 210.900 C 100.162 208.465,100.167 191.600,100.527 189.100 C 100.677 188.055,100.908 186.345,101.040 185.300 C 101.347 182.862,101.480 182.151,101.992 180.200 C 102.223 179.320,102.501 178.060,102.609 177.400 C 102.783 176.338,103.084 174.778,103.169 174.500 C 103.186 174.445,103.198 174.309,103.195 174.198 C 103.193 174.087,103.448 173.382,103.761 172.631 C 104.075 171.880,104.227 171.161,104.099 171.033 C 103.971 170.905,104.077 170.800,104.333 170.800 C 104.590 170.800,104.762 170.665,104.717 170.500 C 104.671 170.335,105.009 169.030,105.468 167.600 C 105.928 166.170,106.419 164.505,106.559 163.900 C 106.700 163.295,106.986 162.800,107.195 162.800 C 107.404 162.800,107.471 162.530,107.345 162.200 C 107.218 161.870,107.324 161.600,107.581 161.600 C 107.837 161.600,107.936 161.420,107.800 161.200 C 107.664 160.980,107.743 160.800,107.976 160.800 C 108.209 160.800,108.400 160.534,108.400 160.209 C 108.400 159.884,108.928 158.642,109.573 157.449 C 110.219 156.256,110.639 155.172,110.507 155.040 C 110.375 154.908,110.477 154.800,110.733 154.800 C 110.990 154.800,111.167 154.665,111.126 154.500 C 110.998 153.983,112.261 151.443,113.141 150.448 C 113.604 149.925,113.903 149.367,113.806 149.209 C 113.708 149.051,113.988 148.534,114.429 148.061 C 114.870 147.587,115.125 147.200,114.995 147.200 C 114.719 147.200,116.806 144.338,117.398 143.906 C 117.664 143.712,117.665 143.608,117.400 143.600 C 117.180 143.593,117.207 143.456,117.460 143.294 C 118.084 142.895,121.600 138.089,121.600 137.634 C 121.600 137.435,122.154 136.805,122.831 136.236 C 123.508 135.666,123.963 135.200,123.843 135.200 C 123.253 135.200,131.724 126.545,133.916 124.908 C 134.732 124.299,135.580 123.595,135.800 123.344 C 136.020 123.094,137.730 121.769,139.600 120.399 C 141.470 119.030,143.132 117.705,143.294 117.455 C 143.456 117.204,143.593 117.179,143.600 117.400 C 143.608 117.665,143.712 117.664,143.906 117.398 C 144.338 116.806,147.200 114.719,147.200 114.995 C 147.200 115.125,147.587 114.870,148.061 114.429 C 148.534 113.988,149.051 113.708,149.209 113.806 C 149.367 113.903,149.925 113.604,150.448 113.141 C 151.443 112.261,153.983 110.998,154.500 111.126 C 154.665 111.167,154.800 110.990,154.800 110.733 C 154.800 110.477,154.908 110.375,155.040 110.507 C 155.172 110.639,156.256 110.219,157.449 109.573 C 158.642 108.928,159.884 108.400,160.209 108.400 C 160.534 108.400,160.800 108.209,160.800 107.976 C 160.800 107.743,160.980 107.664,161.200 107.800 C 161.420 107.936,161.600 107.837,161.600 107.581 C 161.600 107.324,161.870 107.218,162.200 107.345 C 162.530 107.471,162.800 107.404,162.800 107.195 C 162.800 106.986,163.295 106.700,163.900 106.559 C 164.505 106.419,166.170 105.928,167.600 105.468 C 169.030 105.009,170.335 104.671,170.500 104.717 C 170.665 104.762,170.800 104.590,170.800 104.333 C 170.800 104.077,170.905 103.971,171.033 104.099 C 171.161 104.227,171.881 104.075,172.633 103.761 C 173.385 103.446,174.000 103.304,174.000 103.444 C 174.000 103.584,174.227 103.510,174.503 103.280 C 174.780 103.050,175.815 102.759,176.803 102.632 C 177.792 102.505,179.320 102.215,180.200 101.987 C 182.548 101.378,183.882 101.169,189.177 100.577 C 190.155 100.468,191.027 100.306,191.116 100.217 C 191.341 99.992,209.524 100.285,211.000 100.538 M197.100 133.783 C 195.835 134.043,194.800 134.203,194.800 134.139 C 194.800 134.020,192.197 135.379,190.422 136.424 C 189.149 137.174,187.596 138.663,187.837 138.903 C 187.940 139.007,187.569 139.390,187.012 139.755 C 186.456 140.120,186.000 140.684,186.000 141.009 C 186.000 141.334,185.820 141.600,185.600 141.600 C 185.380 141.600,185.200 141.966,185.200 142.414 C 185.200 142.862,184.914 143.664,184.566 144.196 C 184.217 144.729,184.038 145.338,184.169 145.550 C 184.300 145.762,184.147 146.196,183.829 146.514 C 183.082 147.261,182.920 202.380,183.663 202.839 C 183.904 202.988,184.123 203.760,184.150 204.554 C 184.178 205.349,184.299 205.999,184.420 205.999 C 184.540 206.000,184.867 206.630,185.146 207.400 C 185.424 208.170,185.831 208.800,186.049 208.800 C 186.268 208.800,186.336 208.980,186.200 209.200 C 186.064 209.420,186.143 209.600,186.376 209.600 C 186.609 209.600,186.755 209.825,186.700 210.100 C 186.645 210.375,186.825 210.555,187.100 210.500 C 187.375 210.445,187.600 210.583,187.600 210.806 C 187.600 211.272,194.414 218.000,194.887 218.000 C 195.059 218.000,195.208 218.225,195.218 218.500 C 195.228 218.775,196.229 219.900,197.442 221.000 C 201.282 224.482,203.370 226.590,203.284 226.900 C 203.238 227.065,203.481 227.200,203.824 227.200 C 204.167 227.200,204.336 227.380,204.200 227.600 C 204.064 227.820,204.156 228.000,204.405 228.000 C 205.008 228.000,206.000 229.019,206.000 229.638 C 206.000 229.910,206.094 230.039,206.210 229.924 C 206.463 229.670,209.600 232.746,209.600 233.247 C 209.600 233.441,209.742 233.555,209.915 233.500 C 210.309 233.375,214.000 237.134,214.000 237.660 C 214.000 237.873,214.161 237.948,214.358 237.826 C 214.555 237.704,214.819 237.874,214.946 238.202 C 215.072 238.531,215.431 238.800,215.745 238.800 C 216.058 238.800,216.428 239.096,216.567 239.457 C 216.705 239.819,216.927 240.006,217.059 239.874 C 217.191 239.742,218.019 240.002,218.899 240.451 C 219.780 240.900,220.837 241.179,221.250 241.071 C 221.662 240.963,222.108 241.050,222.240 241.265 C 222.373 241.479,222.733 241.558,223.040 241.440 C 223.348 241.322,223.600 241.375,223.600 241.558 C 223.600 241.920,224.642 241.889,225.600 241.499 C 225.930 241.365,227.157 241.165,228.326 241.055 C 229.495 240.945,230.702 240.647,231.008 240.393 C 231.314 240.139,231.781 240.064,232.044 240.227 C 232.348 240.415,232.419 240.354,232.238 240.062 C 232.081 239.808,232.143 239.578,232.376 239.550 C 233.292 239.442,233.440 239.383,234.010 238.897 C 234.334 238.620,235.365 237.743,236.300 236.949 C 237.235 236.154,238.000 235.245,238.000 234.928 C 238.000 234.612,238.159 234.451,238.354 234.571 C 238.548 234.691,238.930 234.252,239.202 233.595 C 239.474 232.938,239.885 232.400,240.115 232.400 C 240.345 232.400,240.421 232.287,240.283 232.149 C 240.145 232.011,240.308 231.365,240.645 230.713 C 240.982 230.061,241.168 229.295,241.059 229.010 C 240.950 228.725,241.148 228.081,241.499 227.580 C 241.851 227.078,241.945 226.787,241.709 226.933 C 241.152 227.277,241.241 223.917,241.800 223.506 C 242.035 223.333,241.953 223.207,241.600 223.200 C 241.067 223.189,241.067 223.145,241.600 222.800 C 242.063 222.501,242.076 222.411,241.657 222.406 C 241.332 222.402,241.210 222.151,241.353 221.779 C 241.502 221.390,241.427 221.260,241.153 221.429 C 240.859 221.611,240.805 221.414,240.990 220.831 C 241.148 220.335,241.059 219.712,240.784 219.381 C 240.519 219.061,240.427 218.800,240.580 218.800 C 240.732 218.800,240.573 218.515,240.225 218.168 C 239.877 217.820,239.683 217.389,239.794 217.210 C 239.905 217.030,239.726 216.781,239.398 216.654 C 239.069 216.528,238.800 216.149,238.800 215.813 C 238.800 215.476,238.609 215.200,238.376 215.200 C 238.143 215.200,238.064 215.020,238.200 214.800 C 238.336 214.580,238.156 214.400,237.800 214.400 C 237.444 214.400,237.264 214.220,237.400 214.000 C 237.536 213.780,237.367 213.600,237.024 213.600 C 236.681 213.600,236.436 213.465,236.480 213.300 C 236.524 213.135,232.204 208.618,226.880 203.262 C 221.556 197.905,217.200 193.260,217.200 192.938 C 217.200 192.616,217.020 192.464,216.800 192.600 C 216.535 192.764,216.400 185.604,216.400 171.424 C 216.400 154.555,216.506 149.999,216.900 149.994 C 217.220 149.990,217.252 149.882,216.988 149.694 C 216.762 149.532,216.603 148.991,216.634 148.490 C 216.666 147.990,216.536 147.484,216.346 147.367 C 216.156 147.249,216.000 146.794,216.000 146.354 C 216.000 145.915,215.612 144.711,215.138 143.678 C 214.664 142.645,214.274 141.583,214.272 141.318 C 214.269 141.052,214.130 140.920,213.962 141.023 C 213.795 141.127,213.543 140.849,213.402 140.406 C 213.261 139.963,212.978 139.600,212.773 139.600 C 212.568 139.600,212.400 139.319,212.400 138.976 C 212.400 138.633,212.208 138.472,211.973 138.617 C 211.738 138.762,211.448 138.504,211.328 138.045 C 211.207 137.585,210.950 137.308,210.755 137.428 C 210.560 137.549,210.400 137.457,210.400 137.224 C 210.400 136.991,210.130 136.800,209.800 136.800 C 209.470 136.800,209.245 136.583,209.300 136.318 C 209.355 136.053,209.220 135.804,209.000 135.764 C 207.893 135.565,206.800 135.069,206.800 134.766 C 206.800 134.578,206.530 134.529,206.200 134.655 C 205.870 134.782,205.600 134.676,205.600 134.419 C 205.600 134.163,205.432 134.056,205.228 134.183 C 205.023 134.309,204.766 134.269,204.658 134.094 C 204.549 133.918,203.502 133.795,202.330 133.821 C 201.159 133.847,200.020 133.743,199.800 133.589 C 199.580 133.436,198.365 133.523,197.100 133.783 M146.000 322.047 C 146.000 322.241,146.410 322.400,146.911 322.400 C 147.412 322.400,148.205 322.669,148.674 322.997 C 149.143 323.325,149.858 323.649,150.263 323.716 C 150.668 323.784,151.405 324.062,151.900 324.334 C 152.395 324.606,152.803 324.687,152.806 324.514 C 152.809 324.341,152.944 324.389,153.106 324.619 C 153.349 324.966,154.281 325.327,157.200 326.209 C 157.310 326.242,157.701 326.402,158.069 326.565 C 158.437 326.728,159.016 326.903,159.357 326.953 C 159.698 327.003,160.102 327.169,160.255 327.322 C 160.408 327.475,160.960 327.600,161.481 327.600 C 162.002 327.600,162.866 327.887,163.401 328.238 C 163.936 328.588,164.605 328.794,164.887 328.695 C 165.169 328.596,165.850 328.685,166.400 328.893 C 167.815 329.428,169.892 329.897,172.500 330.270 C 173.325 330.388,174.000 330.606,174.000 330.755 C 174.000 330.904,174.495 331.005,175.100 330.978 C 175.705 330.951,176.830 331.080,177.600 331.263 C 178.370 331.447,179.900 331.705,181.000 331.837 C 182.100 331.969,183.167 332.179,183.370 332.305 C 183.574 332.431,184.834 332.599,186.170 332.679 C 187.507 332.759,190.040 332.919,191.800 333.034 C 195.906 333.303,204.094 333.303,208.200 333.034 C 209.960 332.919,212.493 332.759,213.830 332.679 C 215.166 332.599,216.426 332.431,216.630 332.305 C 216.833 332.179,217.900 331.969,219.000 331.837 C 220.100 331.705,221.630 331.447,222.400 331.263 C 223.170 331.080,224.295 330.951,224.900 330.978 C 225.505 331.005,226.000 330.904,226.000 330.755 C 226.000 330.606,226.675 330.392,227.500 330.279 C 230.044 329.932,232.066 329.473,233.600 328.893 C 234.150 328.685,234.831 328.596,235.113 328.695 C 235.395 328.794,236.025 328.615,236.513 328.298 C 237.001 327.980,238.094 327.592,238.943 327.434 C 239.791 327.277,240.961 326.950,241.543 326.707 C 242.124 326.465,242.690 326.240,242.800 326.208 C 245.532 325.397,246.654 324.962,246.894 324.619 C 247.056 324.389,247.191 324.341,247.194 324.514 C 247.197 324.687,247.605 324.606,248.100 324.334 C 248.595 324.062,249.332 323.784,249.737 323.716 C 250.142 323.649,250.857 323.325,251.326 322.997 C 251.795 322.669,252.588 322.400,253.089 322.400 C 253.590 322.400,254.000 322.220,254.000 322.000 C 254.000 321.780,254.351 321.600,254.781 321.600 C 255.440 321.600,255.528 321.803,255.346 322.900 C 255.227 323.615,255.101 325.235,255.065 326.500 C 255.029 327.765,254.908 328.800,254.796 328.800 C 254.683 328.800,254.574 329.835,254.553 331.100 C 254.517 333.218,254.197 336.956,253.756 340.400 C 253.657 341.170,253.491 342.790,253.386 344.000 C 252.950 349.046,252.540 352.822,252.388 353.200 C 252.344 353.310,252.334 353.681,252.366 354.025 C 252.445 354.865,250.438 359.200,249.971 359.200 C 249.767 359.200,249.600 359.422,249.600 359.692 C 249.600 360.440,245.986 363.647,244.400 364.307 C 243.630 364.628,242.897 365.054,242.771 365.254 C 242.551 365.603,241.394 365.969,239.908 366.161 C 239.528 366.210,239.096 366.371,238.949 366.518 C 238.802 366.665,221.383 366.783,200.241 366.782 C 161.209 366.779,157.727 366.659,156.849 365.294 C 156.712 365.082,156.176 364.776,155.659 364.614 C 154.415 364.225,150.661 360.543,149.834 358.900 C 149.474 358.185,149.010 357.600,148.802 357.600 C 148.595 357.600,148.529 357.330,148.655 357.000 C 148.782 356.670,148.667 356.400,148.400 356.400 C 148.125 356.400,148.018 356.130,148.153 355.779 C 148.289 355.423,148.222 355.263,147.995 355.403 C 147.778 355.537,147.585 355.322,147.567 354.924 C 147.548 354.526,147.469 353.840,147.390 353.400 C 147.167 352.154,146.808 348.855,146.585 346.000 C 146.381 343.399,146.131 340.583,145.801 337.200 C 145.705 336.210,145.545 334.500,145.445 333.400 C 145.346 332.300,145.149 330.230,145.009 328.800 C 144.385 322.460,144.423 321.281,145.244 321.496 C 145.660 321.604,146.000 321.852,146.000 322.047 " stroke="none" fill="#a451bd" fill-rule="evenodd"></path></g></svg>