<svg id="svg" xmlns="http://www.w3.org/2000/svg" xmlns:xlink="http://www.w3.org/1999/xlink" width="400" height="400" viewBox="0, 0, 400,400" version="1.1"><g id="svgg"><path id="path0" d="M292.378 131.500 L 291.000 133.000 292.500 131.622 C 293.896 130.338,294.184 130.000,293.878 130.000 C 293.812 130.000,293.137 130.675,292.378 131.500 M103.613 272.449 C 102.926 273.136,102.462 273.796,102.582 273.915 C 102.702 274.035,102.845 274.057,102.900 273.965 C 102.955 273.872,103.529 273.212,104.175 272.498 C 105.675 270.840,105.258 270.804,103.613 272.449 " stroke="none" fill="#a451bd" fill-rule="evenodd"></path><path id="path1" d="M93.237 70.122 C 93.766 70.629,94.274 70.990,94.364 70.924 C 94.624 70.735,93.120 69.200,92.675 69.200 C 92.454 69.200,92.707 69.615,93.237 70.122 M332.712 75.000 C 332.937 75.440,333.154 75.980,333.194 76.200 C 333.234 76.420,333.336 76.669,333.421 76.754 C 333.506 76.839,333.495 76.492,333.397 75.983 C 333.299 75.475,333.012 74.866,332.760 74.629 C 332.418 74.309,332.406 74.402,332.712 75.000 M299.170 77.063 L 298.200 78.127 299.500 77.188 C 300.852 76.212,301.025 76.000,300.470 76.000 C 300.288 76.000,299.703 76.479,299.170 77.063 M69.599 93.500 C 70.122 94.215,70.613 94.800,70.689 94.800 C 70.993 94.800,70.001 93.300,69.345 92.767 C 68.913 92.416,69.010 92.696,69.599 93.500 M79.600 103.463 C 79.600 103.690,79.960 104.202,80.400 104.600 C 80.840 104.998,81.200 105.199,81.200 105.045 C 81.200 104.892,80.840 104.380,80.400 103.908 C 79.960 103.436,79.600 103.235,79.600 103.463 M85.600 109.600 C 86.572 110.480,87.465 111.199,87.584 111.197 C 87.959 111.192,84.618 108.040,84.216 108.020 C 84.005 108.009,84.628 108.720,85.600 109.600 M314.111 109.300 C 313.430 110.181,313.117 111.030,313.770 110.224 C 314.117 109.797,314.625 109.304,314.900 109.130 C 315.227 108.922,315.244 108.810,314.949 108.806 C 314.701 108.803,314.324 109.025,314.111 109.300 M260.001 116.198 C 259.486 116.748,259.139 117.264,259.232 117.346 C 259.324 117.428,259.819 116.978,260.330 116.347 C 261.476 114.935,261.274 114.844,260.001 116.198 M304.303 119.200 C 303.369 120.080,302.745 120.800,302.918 120.800 C 303.090 120.800,303.958 120.080,304.847 119.200 C 305.736 118.320,306.359 117.600,306.232 117.600 C 306.106 117.600,305.237 118.320,304.303 119.200 M145.708 128.028 C 145.676 128.452,145.819 128.800,146.025 128.800 C 146.480 128.800,146.527 127.725,146.083 127.451 C 145.909 127.344,145.740 127.603,145.708 128.028 M145.283 132.900 C 145.255 133.175,145.134 133.940,145.013 134.600 C 144.806 135.734,144.825 135.723,145.367 134.400 C 146.055 132.716,146.103 132.400,145.667 132.400 C 145.483 132.400,145.311 132.625,145.283 132.900 M289.734 133.833 C 289.038 134.585,288.600 135.200,288.760 135.200 C 289.166 135.200,291.380 132.847,291.171 132.637 C 291.077 132.543,290.430 133.082,289.734 133.833 M272.596 145.607 C 272.458 145.830,272.190 145.917,272.000 145.800 C 271.810 145.683,271.542 145.770,271.404 145.993 C 271.266 146.217,271.504 146.400,271.934 146.400 C 272.363 146.400,272.818 146.130,272.945 145.800 C 273.206 145.120,272.976 144.992,272.596 145.607 M126.800 146.000 C 127.130 146.213,127.670 146.388,128.000 146.388 C 128.533 146.388,128.533 146.345,128.000 146.000 C 127.670 145.787,127.130 145.612,126.800 145.612 C 126.267 145.612,126.267 145.655,126.800 146.000 M127.000 254.000 C 126.864 254.220,127.023 254.400,127.353 254.400 C 127.683 254.400,128.064 254.220,128.200 254.000 C 128.336 253.780,128.177 253.600,127.847 253.600 C 127.517 253.600,127.136 253.780,127.000 254.000 M305.800 282.400 C 318.999 295.600,329.887 306.400,329.997 306.400 C 330.107 306.400,319.399 295.600,306.200 282.400 C 293.001 269.200,282.113 258.400,282.003 258.400 C 281.893 258.400,292.601 269.200,305.800 282.400 M115.200 261.157 C 115.200 261.427,114.992 261.519,114.738 261.362 C 114.469 261.195,114.384 261.251,114.536 261.496 C 114.679 261.727,114.526 262.019,114.198 262.146 C 113.869 262.272,113.600 262.601,113.600 262.878 C 113.600 263.155,114.085 262.896,114.679 262.303 C 115.272 261.710,115.632 261.099,115.479 260.945 C 115.325 260.792,115.200 260.887,115.200 261.157 M143.618 278.766 C 143.373 279.225,143.339 279.600,143.543 279.600 C 143.954 279.600,144.522 278.388,144.242 278.108 C 144.144 278.011,143.864 278.307,143.618 278.766 M282.200 306.000 C 295.399 319.200,306.287 330.000,306.397 330.000 C 306.507 330.000,295.799 319.200,282.600 306.000 C 269.401 292.800,258.513 282.000,258.403 282.000 C 258.293 282.000,269.001 292.800,282.200 306.000 M75.888 300.247 C 74.303 301.742,73.806 302.643,75.273 301.362 C 76.912 299.930,77.667 299.133,77.521 298.988 C 77.441 298.908,76.706 299.474,75.888 300.247 " stroke="none" fill="#a451bd" fill-rule="evenodd"></path><path id="path2" d="M198.134 16.819 C 197.951 17.000,197.076 17.213,196.191 17.294 C 195.306 17.375,194.316 17.607,193.991 17.810 C 193.666 18.013,193.202 18.184,192.961 18.189 C 192.427 18.202,190.690 19.414,189.076 20.900 C 188.419 21.505,187.717 22.000,187.517 22.000 C 187.317 22.000,187.252 22.161,187.374 22.358 C 187.496 22.555,187.334 22.817,187.014 22.939 C 186.405 23.173,184.036 27.879,183.660 29.600 C 183.390 30.841,183.367 101.270,183.636 103.200 C 183.744 103.970,184.230 105.478,184.716 106.551 C 185.202 107.624,185.600 108.669,185.600 108.874 C 185.600 109.079,185.780 109.136,186.000 109.000 C 186.220 108.864,186.400 109.134,186.400 109.600 C 186.400 110.066,186.535 110.386,186.700 110.311 C 187.086 110.137,189.961 113.105,189.679 113.387 C 189.562 113.504,189.867 113.600,190.357 113.600 C 190.849 113.600,191.137 113.779,191.000 114.000 C 190.864 114.220,190.921 114.400,191.126 114.400 C 191.331 114.400,192.376 114.798,193.449 115.284 C 197.191 116.980,202.809 116.980,206.551 115.284 C 207.624 114.798,208.669 114.400,208.874 114.400 C 209.079 114.400,209.136 114.220,209.000 114.000 C 208.864 113.780,209.134 113.600,209.600 113.600 C 210.066 113.600,210.386 113.465,210.311 113.300 C 210.137 112.914,213.105 110.039,213.387 110.321 C 213.504 110.438,213.600 110.133,213.600 109.643 C 213.600 109.151,213.779 108.863,214.000 109.000 C 214.220 109.136,214.400 109.079,214.400 108.874 C 214.400 108.669,214.798 107.624,215.284 106.551 C 215.770 105.478,216.256 103.970,216.364 103.200 C 216.633 101.270,216.610 30.841,216.340 29.600 C 215.964 27.879,213.595 23.173,212.986 22.939 C 212.666 22.817,212.504 22.555,212.626 22.358 C 212.748 22.161,212.683 22.000,212.483 22.000 C 212.283 22.000,211.581 21.505,210.924 20.900 C 209.310 19.414,207.573 18.202,207.039 18.189 C 206.798 18.184,206.337 18.014,206.015 17.813 C 205.693 17.612,204.793 17.387,204.015 17.314 C 203.237 17.241,202.330 17.064,202.000 16.921 C 201.076 16.519,198.509 16.452,198.134 16.819 M80.364 65.628 C 80.054 65.823,79.502 65.889,79.138 65.776 C 78.775 65.663,77.830 65.934,77.038 66.378 C 76.247 66.823,75.600 67.087,75.600 66.965 C 75.600 66.843,75.317 67.026,74.971 67.371 C 74.626 67.717,74.123 68.000,73.854 68.000 C 73.326 68.000,68.618 71.845,68.571 72.315 C 68.514 72.894,67.403 75.009,67.008 75.294 C 66.784 75.456,66.763 75.591,66.962 75.594 C 67.161 75.597,66.981 75.991,66.562 76.469 C 66.086 77.012,66.025 77.208,66.400 76.992 C 66.923 76.691,66.927 76.736,66.435 77.343 C 65.954 77.935,65.602 79.455,65.588 81.000 C 65.566 83.369,65.867 86.399,66.124 86.400 C 66.302 86.400,66.339 86.575,66.207 86.789 C 66.075 87.002,66.265 87.632,66.629 88.189 C 66.994 88.745,67.154 89.200,66.985 89.200 C 66.816 89.200,67.065 89.536,67.539 89.947 C 68.012 90.358,68.400 90.954,68.400 91.272 C 68.400 91.590,68.940 92.368,69.600 93.000 C 70.260 93.632,70.800 94.386,70.800 94.675 C 70.800 94.964,71.070 95.200,71.400 95.200 C 71.730 95.200,72.000 95.459,72.000 95.776 C 72.000 96.093,72.208 96.481,72.462 96.638 C 72.773 96.831,72.816 96.741,72.593 96.362 C 72.411 96.053,72.649 96.139,73.122 96.553 C 73.594 96.968,73.885 97.463,73.767 97.653 C 73.649 97.844,73.833 98.000,74.176 98.000 C 74.519 98.000,74.800 98.249,74.800 98.553 C 74.800 98.858,75.178 99.206,75.640 99.326 C 76.102 99.447,76.374 99.718,76.245 99.928 C 76.115 100.137,76.385 100.407,76.845 100.528 C 77.304 100.648,77.562 100.938,77.417 101.173 C 77.272 101.408,77.433 101.600,77.776 101.600 C 78.119 101.600,78.400 101.870,78.400 102.200 C 78.400 102.530,78.571 102.800,78.779 102.800 C 79.305 102.800,81.200 104.600,81.200 105.099 C 81.200 105.323,81.578 105.606,82.040 105.726 C 82.503 105.847,82.762 106.138,82.617 106.373 C 82.472 106.608,82.633 106.800,82.976 106.800 C 83.319 106.800,83.600 107.070,83.600 107.400 C 83.600 107.730,83.793 108.000,84.029 108.000 C 84.654 108.000,85.610 109.057,85.281 109.386 C 85.126 109.540,85.270 109.607,85.600 109.533 C 85.930 109.460,86.155 109.625,86.100 109.900 C 86.045 110.175,86.218 110.355,86.485 110.300 C 86.752 110.245,87.155 110.605,87.380 111.100 C 87.605 111.595,88.017 112.000,88.295 112.000 C 88.573 112.000,88.800 112.281,88.800 112.624 C 88.800 112.967,88.981 113.135,89.203 112.998 C 89.424 112.861,89.726 113.062,89.872 113.444 C 90.208 114.319,91.472 115.600,92.000 115.600 C 92.220 115.600,92.400 115.887,92.400 116.237 C 92.400 116.588,92.760 116.969,93.200 117.084 C 93.640 117.199,94.000 117.553,94.000 117.870 C 94.000 118.188,94.192 118.328,94.427 118.183 C 94.662 118.038,94.953 118.297,95.074 118.760 C 95.194 119.222,95.430 119.600,95.596 119.600 C 95.884 119.600,109.714 133.294,115.140 138.952 C 116.537 140.408,117.922 141.600,118.217 141.600 C 118.513 141.600,118.990 141.916,119.277 142.302 C 119.565 142.688,120.520 143.363,121.400 143.802 C 122.280 144.241,123.057 144.725,123.126 144.878 C 123.195 145.030,123.510 145.056,123.826 144.935 C 124.142 144.814,124.400 144.903,124.400 145.134 C 124.400 145.365,124.760 145.485,125.200 145.400 C 125.640 145.315,126.000 145.377,126.000 145.536 C 126.000 145.696,126.495 145.800,127.100 145.767 C 127.705 145.734,128.460 145.908,128.777 146.153 C 129.217 146.494,129.282 146.482,129.053 146.100 C 128.888 145.825,128.928 145.600,129.143 145.600 C 129.358 145.600,129.601 145.804,129.684 146.053 C 129.776 146.329,130.184 146.396,130.724 146.224 C 131.212 146.069,131.497 145.757,131.358 145.531 C 131.185 145.251,131.344 145.249,131.857 145.524 C 132.401 145.815,132.999 145.754,134.006 145.304 C 134.773 144.962,135.652 144.630,135.960 144.567 C 136.268 144.504,136.628 144.306,136.760 144.127 C 136.892 143.947,137.225 143.782,137.500 143.760 C 138.662 143.667,138.834 143.579,138.600 143.200 C 138.464 142.980,138.633 142.800,138.976 142.800 C 139.319 142.800,139.600 142.609,139.600 142.376 C 139.600 142.143,139.766 142.056,139.969 142.181 C 140.173 142.307,140.753 141.822,141.259 141.105 C 141.764 140.387,142.498 139.451,142.889 139.025 C 143.280 138.598,143.600 137.945,143.600 137.574 C 143.600 137.202,143.874 136.670,144.210 136.392 C 144.545 136.114,144.732 135.799,144.626 135.692 C 144.519 135.586,144.679 134.906,144.982 134.182 C 145.284 133.458,145.427 132.761,145.299 132.633 C 145.171 132.505,145.241 132.400,145.453 132.400 C 145.666 132.400,145.766 131.770,145.676 131.000 C 145.576 130.143,145.685 129.600,145.956 129.600 C 146.200 129.600,146.400 129.409,146.400 129.176 C 146.400 128.943,146.220 128.864,146.000 129.000 C 145.780 129.136,145.600 128.977,145.600 128.647 C 145.600 128.317,145.792 127.929,146.026 127.784 C 146.313 127.607,146.265 127.305,145.879 126.860 C 145.564 126.497,145.342 125.795,145.386 125.300 C 145.430 124.805,145.316 124.400,145.133 124.400 C 144.950 124.400,144.800 124.135,144.800 123.812 C 144.800 123.489,144.453 122.606,144.028 121.850 C 143.604 121.095,143.364 120.369,143.495 120.238 C 143.626 120.107,143.474 120.000,143.158 120.000 C 142.841 120.000,142.247 119.378,141.838 118.618 C 141.428 117.858,140.892 117.273,140.647 117.318 C 140.401 117.363,140.245 117.175,140.300 116.900 C 140.355 116.625,140.220 116.400,140.000 116.400 C 139.469 116.400,138.207 115.117,137.867 114.231 C 137.718 113.842,137.276 113.440,136.885 113.338 C 136.494 113.236,135.827 112.636,135.403 112.005 C 134.979 111.373,134.488 110.946,134.312 111.054 C 134.137 111.163,133.826 110.835,133.622 110.326 C 133.418 109.817,133.239 109.535,133.225 109.700 C 133.190 110.122,131.600 108.483,131.600 108.024 C 131.600 107.817,131.392 107.519,131.138 107.362 C 130.833 107.173,130.786 107.254,131.000 107.600 C 131.214 107.946,131.167 108.027,130.862 107.838 C 130.608 107.681,130.400 107.283,130.400 106.953 C 130.400 106.623,130.220 106.464,130.000 106.600 C 129.780 106.736,129.600 106.567,129.600 106.224 C 129.600 105.881,129.330 105.600,129.000 105.600 C 128.670 105.600,128.400 105.319,128.400 104.976 C 128.400 104.633,128.220 104.464,128.000 104.600 C 127.780 104.736,127.600 104.558,127.600 104.205 C 127.600 103.852,127.060 103.256,126.399 102.881 C 125.738 102.507,125.095 101.882,124.970 101.494 C 124.845 101.106,124.575 100.892,124.371 101.018 C 124.167 101.144,124.000 101.070,124.000 100.854 C 124.000 100.357,121.663 98.000,121.169 98.000 C 120.966 98.000,120.800 97.726,120.800 97.391 C 120.800 97.057,120.356 96.580,119.813 96.333 C 119.269 96.085,118.920 95.729,119.036 95.542 C 119.152 95.354,118.961 95.200,118.611 95.200 C 118.261 95.200,117.836 94.827,117.667 94.370 C 117.499 93.914,117.189 93.509,116.980 93.470 C 116.771 93.432,116.636 93.291,116.681 93.157 C 116.725 93.024,116.320 92.678,115.781 92.390 C 115.241 92.101,114.800 91.625,114.800 91.332 C 114.800 91.040,114.519 90.800,114.176 90.800 C 113.833 90.800,113.656 90.633,113.782 90.429 C 113.908 90.225,113.646 89.942,113.200 89.800 C 112.754 89.658,112.462 89.420,112.552 89.271 C 112.642 89.122,112.465 88.768,112.158 88.484 C 111.851 88.201,111.600 88.066,111.600 88.184 C 111.600 88.303,111.269 88.085,110.863 87.700 C 110.458 87.315,110.160 86.910,110.200 86.800 C 110.291 86.550,108.907 85.214,108.500 85.160 C 108.335 85.138,108.245 84.958,108.300 84.760 C 108.355 84.562,108.175 84.445,107.900 84.500 C 107.625 84.555,107.460 84.330,107.533 84.000 C 107.607 83.670,107.535 83.532,107.374 83.693 C 107.065 84.002,105.600 82.534,105.600 81.915 C 105.600 81.716,105.420 81.664,105.200 81.800 C 104.980 81.936,104.800 81.767,104.800 81.424 C 104.800 81.081,104.665 80.845,104.500 80.900 C 104.335 80.955,104.148 80.872,104.085 80.715 C 103.855 80.149,101.529 78.000,101.146 78.000 C 100.930 78.000,100.835 77.865,100.934 77.700 C 101.034 77.535,100.865 77.168,100.558 76.884 C 100.251 76.601,100.000 76.478,100.000 76.613 C 100.000 76.747,99.685 76.542,99.300 76.157 C 98.915 75.772,98.600 75.341,98.600 75.200 C 98.600 74.781,97.293 73.600,96.829 73.600 C 96.593 73.600,96.400 73.330,96.400 73.000 C 96.400 72.670,96.175 72.445,95.900 72.500 C 95.625 72.555,95.445 72.375,95.500 72.100 C 95.555 71.825,95.418 71.600,95.195 71.600 C 94.972 71.600,93.884 70.745,92.776 69.700 C 91.669 68.655,90.585 67.800,90.367 67.800 C 90.149 67.800,89.822 67.560,89.641 67.266 C 89.459 66.972,89.196 66.747,89.055 66.766 C 87.992 66.908,87.193 66.734,87.397 66.405 C 87.537 66.178,87.377 66.111,87.021 66.247 C 86.679 66.378,86.400 66.316,86.400 66.109 C 86.400 65.903,85.438 65.733,84.262 65.733 C 83.086 65.733,81.855 65.630,81.526 65.504 C 81.197 65.377,80.674 65.433,80.364 65.628 M317.111 65.422 C 316.983 65.551,315.940 65.710,314.794 65.777 C 313.648 65.843,312.596 66.083,312.455 66.309 C 312.315 66.535,311.844 66.783,311.409 66.860 C 310.974 66.937,310.293 67.270,309.896 67.600 C 309.499 67.930,308.955 68.208,308.687 68.218 C 308.419 68.228,308.245 68.453,308.300 68.718 C 308.355 68.983,308.220 69.223,308.000 69.250 C 307.780 69.278,307.465 69.323,307.300 69.351 C 306.920 69.416,303.423 72.800,303.736 72.800 C 303.864 72.800,303.480 73.315,302.884 73.944 C 302.288 74.572,301.685 75.024,301.545 74.948 C 301.212 74.766,300.346 75.812,300.611 76.077 C 300.723 76.189,300.091 76.782,299.207 77.395 C 298.323 78.008,297.600 78.678,297.600 78.885 C 297.600 79.092,297.060 79.802,296.400 80.462 C 295.740 81.122,295.200 81.558,295.200 81.432 C 295.200 81.306,293.958 82.417,292.439 83.901 C 290.921 85.386,289.732 86.690,289.797 86.800 C 289.863 86.910,289.665 87.232,289.358 87.516 C 289.051 87.799,288.800 87.917,288.800 87.777 C 288.800 87.638,287.560 88.756,286.044 90.262 C 284.528 91.768,283.369 93.135,283.468 93.300 C 283.566 93.465,283.495 93.600,283.310 93.600 C 282.747 93.600,278.400 97.685,278.400 98.214 C 278.400 98.485,278.003 98.811,277.517 98.937 C 277.032 99.064,276.754 99.287,276.900 99.433 C 277.196 99.729,275.068 102.000,274.495 102.000 C 274.293 102.000,273.649 102.673,273.064 103.495 C 272.479 104.318,272.000 104.830,272.000 104.633 C 272.000 104.437,271.644 104.598,271.209 104.991 C 270.775 105.385,270.484 105.818,270.563 105.953 C 270.642 106.089,270.188 106.706,269.554 107.325 C 268.919 107.944,268.400 108.317,268.400 108.155 C 268.400 107.992,267.320 108.973,266.000 110.335 C 264.680 111.697,263.600 112.983,263.600 113.193 C 263.600 113.403,263.164 113.805,262.632 114.087 C 262.100 114.369,261.134 115.269,260.486 116.087 C 259.838 116.905,259.194 117.460,259.054 117.321 C 258.914 117.181,258.800 117.356,258.800 117.711 C 258.800 118.065,258.453 118.598,258.029 118.895 C 257.605 119.192,257.036 119.922,256.765 120.517 C 256.494 121.113,256.138 121.600,255.975 121.600 C 255.530 121.600,254.771 124.029,255.067 124.508 C 255.208 124.736,255.136 124.808,254.907 124.666 C 254.678 124.525,254.397 124.767,254.283 125.205 C 254.143 125.738,254.228 125.909,254.537 125.724 C 254.792 125.571,254.753 125.751,254.451 126.123 C 254.149 126.495,254.050 126.800,254.231 126.800 C 254.412 126.800,254.362 126.998,254.120 127.240 C 253.841 127.519,253.799 128.098,254.005 128.819 C 254.226 129.587,254.180 130.007,253.866 130.113 C 253.528 130.227,253.551 130.453,253.947 130.933 C 254.248 131.297,254.400 131.957,254.285 132.398 C 254.169 132.839,254.222 133.200,254.402 133.200 C 254.582 133.200,254.853 133.933,255.005 134.828 C 255.156 135.723,255.542 136.556,255.863 136.679 C 256.184 136.803,256.351 137.150,256.236 137.452 C 256.120 137.753,256.229 138.000,256.479 138.000 C 256.729 138.000,256.824 138.109,256.691 138.243 C 256.380 138.554,257.305 139.573,257.688 139.342 C 257.847 139.246,258.086 139.605,258.221 140.140 C 258.429 140.972,260.399 143.143,260.704 142.878 C 260.762 142.828,261.212 143.048,261.704 143.366 C 262.197 143.685,262.866 144.003,263.190 144.073 C 263.515 144.143,264.023 144.425,264.319 144.700 C 264.615 144.975,265.258 145.200,265.749 145.200 C 266.239 145.200,266.856 145.416,267.120 145.680 C 267.493 146.053,267.601 146.031,267.606 145.580 C 267.611 145.087,267.670 145.090,268.000 145.600 C 268.345 146.133,268.390 146.133,268.406 145.600 C 268.420 145.128,268.512 145.150,268.834 145.703 C 269.149 146.245,269.415 146.313,269.995 146.003 C 270.955 145.489,271.594 145.487,270.800 146.000 C 270.439 146.233,270.390 146.390,270.676 146.394 C 270.938 146.397,271.266 146.217,271.404 145.993 C 271.542 145.770,271.810 145.683,272.000 145.800 C 272.190 145.917,272.468 145.814,272.618 145.571 C 272.785 145.301,273.421 145.227,274.246 145.382 C 275.039 145.531,275.600 145.473,275.600 145.243 C 275.600 145.027,275.915 144.868,276.300 144.890 C 278.344 145.008,281.988 141.663,306.261 117.389 C 320.004 103.645,331.119 92.400,330.962 92.400 C 330.805 92.400,330.952 92.085,331.290 91.700 C 332.203 90.658,333.204 88.537,332.917 88.251 C 332.779 88.113,332.855 88.000,333.086 88.000 C 333.579 88.000,334.529 84.533,334.187 83.979 C 334.058 83.771,334.188 83.597,334.476 83.594 C 334.796 83.590,334.844 83.473,334.600 83.294 C 334.153 82.965,334.071 81.795,334.469 81.398 C 334.611 81.256,334.569 80.588,334.375 79.913 C 334.182 79.238,334.111 78.544,334.218 78.371 C 334.325 78.197,334.227 77.940,334.000 77.800 C 333.773 77.660,333.679 77.396,333.791 77.214 C 333.904 77.033,333.736 76.784,333.420 76.663 C 333.103 76.541,332.725 75.809,332.580 75.035 C 332.435 74.262,332.065 73.420,331.758 73.165 C 331.451 72.910,331.200 72.544,331.200 72.351 C 331.200 72.158,330.840 71.640,330.400 71.200 C 329.960 70.760,329.600 70.481,329.600 70.581 C 329.600 70.680,328.756 69.964,327.724 68.990 C 326.693 68.015,325.762 67.304,325.657 67.410 C 325.551 67.515,325.104 67.286,324.664 66.901 C 324.223 66.515,323.994 66.425,324.155 66.700 C 324.551 67.377,323.964 67.330,322.924 66.602 C 322.455 66.273,321.420 65.921,320.625 65.819 C 319.829 65.717,319.019 65.535,318.823 65.414 C 318.628 65.294,318.377 65.421,318.265 65.698 C 318.102 66.100,317.990 66.099,317.703 65.694 C 317.506 65.416,317.240 65.293,317.111 65.422 M30.419 183.585 C 30.100 183.784,29.706 183.866,29.545 183.766 C 29.076 183.476,23.185 186.375,22.939 187.015 C 22.816 187.334,22.555 187.496,22.358 187.374 C 22.161 187.252,22.000 187.317,22.000 187.517 C 22.000 187.717,21.505 188.419,20.900 189.076 C 19.414 190.690,18.202 192.427,18.189 192.961 C 18.184 193.202,18.014 193.663,17.813 193.985 C 17.612 194.307,17.387 195.207,17.314 195.985 C 17.241 196.763,17.063 197.670,16.917 198.000 C 16.522 198.899,16.462 201.343,16.824 201.806 C 16.999 202.029,17.209 202.933,17.291 203.815 C 17.373 204.697,17.607 205.684,17.810 206.009 C 18.013 206.334,18.184 206.798,18.189 207.039 C 18.202 207.573,19.414 209.310,20.900 210.924 C 21.505 211.581,22.000 212.283,22.000 212.483 C 22.000 212.683,22.161 212.748,22.358 212.626 C 22.555 212.504,22.817 212.666,22.939 212.986 C 23.173 213.595,27.879 215.964,29.600 216.340 C 30.841 216.610,101.270 216.633,103.200 216.364 C 103.970 216.256,105.478 215.770,106.551 215.284 C 107.624 214.798,108.669 214.400,108.874 214.400 C 109.079 214.400,109.136 214.220,109.000 214.000 C 108.864 213.780,109.134 213.600,109.600 213.600 C 110.066 213.600,110.386 213.465,110.311 213.300 C 110.137 212.914,113.105 210.039,113.387 210.321 C 113.504 210.438,113.600 210.133,113.600 209.643 C 113.600 209.151,113.779 208.863,114.000 209.000 C 114.220 209.136,114.400 209.079,114.400 208.874 C 114.400 208.669,114.798 207.624,115.284 206.551 C 116.980 202.809,116.980 197.191,115.284 193.449 C 114.798 192.376,114.400 191.331,114.400 191.126 C 114.400 190.921,114.220 190.864,114.000 191.000 C 113.779 191.137,113.600 190.849,113.600 190.357 C 113.600 189.867,113.504 189.562,113.387 189.679 C 113.105 189.961,110.137 187.086,110.311 186.700 C 110.386 186.535,110.066 186.400,109.600 186.400 C 109.134 186.400,108.864 186.220,109.000 186.000 C 109.136 185.780,109.079 185.600,108.874 185.600 C 108.669 185.600,107.624 185.200,106.551 184.712 C 105.478 184.223,104.060 183.746,103.400 183.651 C 100.928 183.295,30.986 183.232,30.419 183.585 M297.800 183.563 C 297.360 183.742,296.686 183.839,296.301 183.779 C 295.917 183.720,294.703 184.105,293.603 184.636 C 292.504 185.166,291.412 185.600,291.178 185.600 C 290.944 185.600,290.864 185.780,291.000 186.000 C 291.137 186.221,290.849 186.400,290.357 186.400 C 289.867 186.400,289.562 186.496,289.679 186.613 C 289.961 186.895,287.086 189.863,286.700 189.689 C 286.535 189.614,286.400 189.934,286.400 190.400 C 286.400 190.866,286.220 191.136,286.000 191.000 C 285.780 190.864,285.600 190.921,285.600 191.126 C 285.600 191.331,285.202 192.376,284.716 193.449 C 283.787 195.499,283.505 197.024,283.505 200.000 C 283.505 202.976,283.787 204.501,284.716 206.551 C 285.202 207.624,285.600 208.669,285.600 208.874 C 285.600 209.079,285.780 209.136,286.000 209.000 C 286.220 208.864,286.400 209.134,286.400 209.600 C 286.400 210.066,286.535 210.386,286.700 210.311 C 287.086 210.137,289.961 213.105,289.679 213.387 C 289.562 213.504,289.867 213.600,290.357 213.600 C 290.849 213.600,291.137 213.779,291.000 214.000 C 290.864 214.220,290.921 214.400,291.126 214.400 C 291.331 214.400,292.376 214.798,293.449 215.284 C 294.522 215.770,296.030 216.256,296.800 216.364 C 298.730 216.633,369.159 216.610,370.400 216.340 C 372.121 215.964,376.827 213.595,377.061 212.986 C 377.183 212.666,377.445 212.504,377.642 212.626 C 377.839 212.748,378.000 212.683,378.000 212.483 C 378.000 212.283,378.495 211.581,379.100 210.924 C 380.586 209.310,381.798 207.573,381.811 207.039 C 381.816 206.798,381.986 206.337,382.187 206.015 C 382.388 205.693,382.613 204.793,382.686 204.015 C 382.759 203.237,382.937 202.330,383.083 202.000 C 383.478 201.101,383.538 198.657,383.176 198.194 C 383.001 197.971,382.791 197.067,382.709 196.185 C 382.627 195.303,382.393 194.316,382.190 193.991 C 381.987 193.666,381.816 193.202,381.811 192.961 C 381.798 192.427,380.586 190.690,379.100 189.076 C 378.495 188.419,378.000 187.717,378.000 187.517 C 378.000 187.317,377.839 187.252,377.642 187.374 C 377.445 187.496,377.183 187.334,377.061 187.014 C 376.827 186.404,372.114 184.033,370.400 183.662 C 368.755 183.307,298.667 183.211,297.800 183.563 M128.596 254.002 C 128.154 254.168,127.074 254.407,126.196 254.533 C 125.318 254.660,124.240 254.816,123.800 254.882 C 123.360 254.947,122.730 255.287,122.400 255.637 C 122.070 255.988,121.575 256.198,121.300 256.104 C 121.025 256.010,120.800 256.139,120.800 256.390 C 120.800 256.642,120.659 256.760,120.487 256.653 C 120.314 256.547,119.754 256.986,119.242 257.630 C 118.729 258.273,118.030 258.800,117.688 258.800 C 117.346 258.800,117.189 258.923,117.339 259.072 C 117.741 259.474,115.553 261.614,115.039 261.322 C 114.797 261.184,114.735 261.221,114.901 261.403 C 115.281 261.822,114.064 263.200,113.314 263.200 C 113.006 263.200,112.864 263.380,113.000 263.600 C 113.136 263.820,113.070 264.000,112.854 264.000 C 112.408 264.000,110.553 265.858,109.481 267.380 C 109.086 267.941,108.490 268.400,108.158 268.400 C 107.825 268.400,107.665 268.581,107.802 268.803 C 107.939 269.024,107.724 269.330,107.325 269.483 C 106.926 269.636,106.240 270.196,105.800 270.729 C 104.189 272.680,101.326 275.593,101.165 275.444 C 101.074 275.360,100.494 275.811,99.875 276.446 C 99.256 277.081,98.858 277.600,98.991 277.600 C 99.124 277.600,98.570 278.315,97.761 279.190 C 96.952 280.064,96.107 280.666,95.883 280.528 C 95.660 280.390,95.569 280.439,95.682 280.638 C 95.795 280.837,95.372 281.488,94.744 282.084 C 94.115 282.680,93.600 283.106,93.600 283.031 C 93.600 282.955,90.000 286.482,85.600 290.869 C 81.200 295.256,77.600 298.940,77.600 299.057 C 77.600 299.173,76.941 299.838,76.135 300.534 C 73.284 302.997,71.200 305.068,71.200 305.436 C 71.200 305.641,70.660 306.255,70.000 306.800 C 69.340 307.345,68.800 308.048,68.800 308.362 C 68.800 308.676,68.683 308.816,68.539 308.673 C 68.235 308.369,67.200 310.221,67.200 311.069 C 67.200 311.404,67.006 311.527,66.738 311.362 C 66.446 311.181,66.385 311.252,66.573 311.556 C 66.736 311.819,66.641 312.309,66.363 312.644 C 65.954 313.137,65.635 315.410,65.582 318.200 C 65.562 319.286,65.847 321.051,66.110 321.466 C 66.272 321.722,66.179 322.023,65.902 322.134 C 65.513 322.291,65.518 322.344,65.924 322.368 C 66.212 322.386,66.349 322.560,66.228 322.755 C 66.107 322.950,66.277 323.332,66.604 323.604 C 66.932 323.876,67.200 324.396,67.200 324.760 C 67.200 325.124,67.464 325.798,67.786 326.258 C 68.108 326.719,68.258 327.209,68.119 327.347 C 67.980 327.486,68.177 327.600,68.557 327.600 C 68.937 327.600,69.151 327.755,69.034 327.945 C 68.750 328.405,71.434 330.840,73.092 331.627 C 73.819 331.971,74.319 332.347,74.205 332.462 C 74.090 332.577,74.762 332.912,75.698 333.207 C 76.634 333.503,77.580 333.865,77.800 334.014 C 78.020 334.162,78.830 334.255,79.600 334.220 C 80.370 334.185,81.177 334.247,81.393 334.359 C 82.033 334.690,83.200 334.691,83.200 334.360 C 83.200 334.192,83.938 334.127,84.839 334.217 C 85.885 334.321,86.934 334.137,87.739 333.708 C 88.433 333.338,89.135 333.073,89.300 333.118 C 89.465 333.163,89.600 333.032,89.600 332.827 C 89.600 332.622,89.956 332.341,90.390 332.203 C 90.825 332.065,91.815 331.336,92.590 330.583 C 93.366 329.830,94.000 329.333,94.000 329.477 C 94.000 329.622,95.080 328.627,96.400 327.265 C 97.720 325.903,98.800 324.582,98.800 324.328 C 98.800 324.074,98.907 323.973,99.037 324.104 C 99.420 324.486,101.602 322.331,101.325 321.844 C 101.186 321.600,101.212 321.527,101.384 321.682 C 101.732 321.995,113.459 310.413,113.300 309.914 C 113.245 309.741,113.425 309.645,113.700 309.700 C 113.975 309.755,114.155 309.575,114.100 309.300 C 114.045 309.025,114.145 308.845,114.322 308.900 C 114.769 309.039,127.426 296.358,127.290 295.907 C 127.230 295.705,127.320 295.625,127.490 295.728 C 127.888 295.969,128.831 294.965,128.509 294.643 C 128.376 294.509,128.479 294.400,128.738 294.400 C 129.369 294.400,134.028 289.761,133.713 289.447 C 133.578 289.311,133.695 289.200,133.975 289.200 C 134.573 289.200,142.400 281.461,142.400 280.870 C 142.400 280.648,142.535 280.407,142.700 280.333 C 143.313 280.061,145.236 275.982,144.962 275.538 C 144.796 275.270,144.851 275.184,145.093 275.334 C 145.322 275.475,145.600 275.242,145.712 274.815 C 145.824 274.388,145.730 273.977,145.504 273.901 C 145.270 273.823,145.215 273.383,145.376 272.876 C 145.531 272.388,145.802 272.078,145.979 272.187 C 146.155 272.296,146.300 271.942,146.300 271.400 C 146.300 270.858,146.125 270.523,145.910 270.656 C 145.682 270.796,145.695 270.570,145.941 270.110 C 146.260 269.514,146.205 269.100,145.712 268.395 C 145.354 267.885,145.273 267.598,145.531 267.757 C 146.190 268.165,146.114 267.541,145.377 266.488 C 145.034 265.999,144.856 265.433,144.981 265.232 C 145.105 265.030,144.891 264.548,144.504 264.161 C 144.117 263.774,143.843 263.354,143.895 263.229 C 144.123 262.681,143.404 261.330,142.443 260.500 C 141.869 260.006,141.559 259.601,141.754 259.600 C 141.949 259.600,141.589 259.198,140.954 258.706 C 139.245 257.383,138.823 257.045,138.283 256.568 C 138.013 256.330,137.606 256.198,137.378 256.274 C 137.150 256.350,136.558 256.034,136.061 255.571 C 135.565 255.109,134.910 254.826,134.605 254.943 C 134.301 255.059,133.992 254.977,133.920 254.760 C 133.847 254.542,133.116 254.327,132.294 254.282 C 131.473 254.237,130.797 254.020,130.794 253.800 C 130.791 253.580,130.611 253.670,130.394 254.000 C 130.117 254.422,129.911 254.466,129.700 254.150 C 129.522 253.883,129.074 253.823,128.596 254.002 M267.400 254.299 C 266.960 254.380,266.373 254.521,266.096 254.612 C 265.818 254.704,265.502 254.779,265.392 254.781 C 265.282 254.783,264.655 255.061,264.000 255.400 C 263.345 255.739,262.692 255.997,262.549 255.974 C 262.406 255.951,262.141 256.172,261.959 256.466 C 261.778 256.760,261.488 257.001,261.315 257.001 C 260.881 257.003,256.636 261.199,257.059 261.206 C 257.247 261.209,257.206 261.344,256.968 261.506 C 255.054 262.808,252.750 274.400,254.405 274.400 C 254.648 274.400,254.744 274.568,254.617 274.772 C 254.491 274.977,254.570 275.258,254.793 275.396 C 255.017 275.534,255.200 276.027,255.200 276.492 C 255.200 276.957,255.515 277.697,255.900 278.137 C 256.380 278.685,256.413 278.827,256.007 278.588 C 255.681 278.396,255.824 278.770,256.325 279.419 C 257.949 281.526,308.170 331.600,308.659 331.600 C 308.920 331.600,309.193 331.742,309.267 331.916 C 309.901 333.421,319.109 335.518,319.846 334.326 C 319.964 334.135,320.272 334.020,320.530 334.070 C 321.518 334.260,324.199 333.502,325.133 332.767 C 325.669 332.345,326.359 332.000,326.666 332.000 C 326.974 332.000,327.328 331.731,327.454 331.402 C 327.581 331.074,327.800 330.876,327.942 330.963 C 328.084 331.050,328.893 330.419,329.741 329.561 C 330.588 328.702,331.166 328.000,331.025 328.000 C 330.884 328.000,330.958 327.775,331.190 327.500 C 333.096 325.238,334.326 322.145,334.053 320.300 C 333.996 319.915,334.123 319.600,334.335 319.600 C 334.855 319.600,334.492 313.904,333.950 313.569 C 333.720 313.427,333.556 313.151,333.585 312.955 C 333.672 312.374,332.263 309.200,331.918 309.200 C 331.743 309.200,331.600 308.972,331.600 308.693 C 331.600 308.181,281.616 258.019,279.419 256.325 C 278.770 255.824,278.396 255.681,278.588 256.007 C 278.862 256.472,278.772 256.461,278.169 255.954 C 277.433 255.335,275.331 254.596,274.700 254.734 C 274.535 254.770,274.400 254.627,274.400 254.416 C 274.400 254.056,269.184 253.968,267.400 254.299 M197.800 283.547 C 197.360 283.735,196.686 283.839,196.301 283.779 C 195.917 283.720,194.703 284.105,193.603 284.636 C 192.504 285.166,191.412 285.600,191.178 285.600 C 190.944 285.600,190.864 285.780,191.000 286.000 C 191.137 286.221,190.849 286.400,190.357 286.400 C 189.867 286.400,189.562 286.496,189.679 286.613 C 189.961 286.895,187.086 289.863,186.700 289.689 C 186.535 289.614,186.400 289.934,186.400 290.400 C 186.400 290.866,186.220 291.136,186.000 291.000 C 185.780 290.864,185.600 290.921,185.600 291.126 C 185.600 291.331,185.202 292.376,184.716 293.449 C 184.230 294.522,183.744 296.030,183.636 296.800 C 183.367 298.730,183.390 369.159,183.660 370.400 C 184.036 372.121,186.405 376.827,187.014 377.061 C 187.334 377.183,187.496 377.445,187.374 377.642 C 187.252 377.839,187.317 378.000,187.517 378.000 C 187.717 378.000,188.419 378.495,189.076 379.100 C 190.690 380.586,192.427 381.798,192.961 381.811 C 193.202 381.816,193.666 381.987,193.991 382.190 C 194.316 382.393,195.303 382.627,196.185 382.709 C 197.067 382.791,197.971 383.001,198.194 383.176 C 198.657 383.538,201.101 383.478,202.000 383.083 C 202.330 382.937,203.237 382.759,204.015 382.686 C 204.793 382.613,205.693 382.388,206.015 382.187 C 206.337 381.986,206.798 381.816,207.039 381.811 C 207.573 381.798,209.310 380.586,210.924 379.100 C 211.581 378.495,212.283 378.000,212.483 378.000 C 212.683 378.000,212.748 377.839,212.626 377.642 C 212.504 377.445,212.666 377.183,212.986 377.061 C 213.595 376.827,215.964 372.121,216.340 370.400 C 216.610 369.159,216.633 298.730,216.364 296.800 C 216.256 296.030,215.770 294.522,215.284 293.449 C 214.798 292.376,214.400 291.331,214.400 291.126 C 214.400 290.921,214.220 290.864,214.000 291.000 C 213.779 291.137,213.600 290.849,213.600 290.357 C 213.600 289.867,213.504 289.562,213.387 289.679 C 213.105 289.961,210.137 287.086,210.311 286.700 C 210.386 286.535,210.066 286.400,209.600 286.400 C 209.134 286.400,208.864 286.220,209.000 286.000 C 209.136 285.780,209.079 285.600,208.874 285.600 C 208.669 285.600,207.624 285.200,206.551 284.712 C 205.478 284.223,204.150 283.779,203.600 283.725 C 203.050 283.671,201.700 283.533,200.600 283.417 C 199.500 283.302,198.240 283.360,197.800 283.547 " stroke="none" fill="#a451bd" fill-rule="evenodd"></path><path id="path3" d="M198.134 16.819 C 197.951 17.000,197.076 17.213,196.191 17.294 C 195.306 17.375,194.316 17.607,193.991 17.810 C 193.666 18.013,193.202 18.184,192.961 18.189 C 192.427 18.202,190.690 19.414,189.076 20.900 C 188.419 21.505,187.717 22.000,187.517 22.000 C 187.317 22.000,187.252 22.161,187.374 22.358 C 187.496 22.555,187.334 22.817,187.014 22.939 C 186.405 23.173,184.036 27.879,183.660 29.600 C 183.390 30.841,183.367 101.270,183.636 103.200 C 183.744 103.970,184.230 105.478,184.716 106.551 C 185.202 107.624,185.600 108.669,185.600 108.874 C 185.600 109.079,185.780 109.136,186.000 109.000 C 186.220 108.864,186.400 109.134,186.400 109.600 C 186.400 110.066,186.535 110.386,186.700 110.311 C 187.086 110.137,189.961 113.105,189.679 113.387 C 189.562 113.504,189.867 113.600,190.357 113.600 C 190.849 113.600,191.137 113.779,191.000 114.000 C 190.864 114.220,190.921 114.400,191.126 114.400 C 191.331 114.400,192.376 114.798,193.449 115.284 C 197.191 116.980,202.809 116.980,206.551 115.284 C 207.624 114.798,208.669 114.400,208.874 114.400 C 209.079 114.400,209.136 114.220,209.000 114.000 C 208.864 113.780,209.134 113.600,209.600 113.600 C 210.066 113.600,210.386 113.465,210.311 113.300 C 210.137 112.914,213.105 110.039,213.387 110.321 C 213.504 110.438,213.600 110.133,213.600 109.643 C 213.600 109.151,213.779 108.863,214.000 109.000 C 214.220 109.136,214.400 109.079,214.400 108.874 C 214.400 108.669,214.798 107.624,215.284 106.551 C 215.770 105.478,216.256 103.970,216.364 103.200 C 216.633 101.270,216.610 30.841,216.340 29.600 C 215.964 27.879,213.595 23.173,212.986 22.939 C 212.666 22.817,212.504 22.555,212.626 22.358 C 212.748 22.161,212.683 22.000,212.483 22.000 C 212.283 22.000,211.581 21.505,210.924 20.900 C 209.310 19.414,207.573 18.202,207.039 18.189 C 206.798 18.184,206.337 18.014,206.015 17.813 C 205.693 17.612,204.793 17.387,204.015 17.314 C 203.237 17.241,202.330 17.064,202.000 16.921 C 201.076 16.519,198.509 16.452,198.134 16.819 M80.364 65.628 C 80.054 65.823,79.502 65.889,79.138 65.776 C 78.775 65.663,77.830 65.934,77.038 66.378 C 76.247 66.823,75.600 67.087,75.600 66.965 C 75.600 66.843,75.317 67.026,74.971 67.371 C 74.626 67.717,74.123 68.000,73.854 68.000 C 73.326 68.000,68.618 71.845,68.571 72.315 C 68.514 72.894,67.403 75.009,67.008 75.294 C 66.784 75.456,66.763 75.591,66.962 75.594 C 67.161 75.597,66.981 75.991,66.562 76.469 C 66.086 77.012,66.025 77.208,66.400 76.992 C 66.923 76.691,66.927 76.736,66.435 77.343 C 65.954 77.935,65.602 79.455,65.588 81.000 C 65.566 83.369,65.867 86.399,66.124 86.400 C 66.302 86.400,66.339 86.575,66.207 86.789 C 66.075 87.002,66.265 87.632,66.629 88.189 C 66.994 88.745,67.154 89.200,66.985 89.200 C 66.816 89.200,67.065 89.536,67.539 89.947 C 68.012 90.358,68.400 90.954,68.400 91.272 C 68.400 91.590,68.940 92.368,69.600 93.000 C 70.260 93.632,70.800 94.386,70.800 94.675 C 70.800 94.964,71.070 95.200,71.400 95.200 C 71.730 95.200,72.000 95.459,72.000 95.776 C 72.000 96.093,72.208 96.481,72.462 96.638 C 72.773 96.831,72.816 96.741,72.593 96.362 C 72.411 96.053,72.649 96.139,73.122 96.553 C 73.594 96.968,73.885 97.463,73.767 97.653 C 73.649 97.844,73.833 98.000,74.176 98.000 C 74.519 98.000,74.800 98.249,74.800 98.553 C 74.800 98.858,75.178 99.206,75.640 99.326 C 76.102 99.447,76.374 99.718,76.245 99.928 C 76.115 100.137,76.385 100.407,76.845 100.528 C 77.304 100.648,77.562 100.938,77.417 101.173 C 77.272 101.408,77.433 101.600,77.776 101.600 C 78.119 101.600,78.400 101.870,78.400 102.200 C 78.400 102.530,78.571 102.800,78.779 102.800 C 79.305 102.800,81.200 104.600,81.200 105.099 C 81.200 105.323,81.578 105.606,82.040 105.726 C 82.503 105.847,82.762 106.138,82.617 106.373 C 82.472 106.608,82.633 106.800,82.976 106.800 C 83.319 106.800,83.600 107.070,83.600 107.400 C 83.600 107.730,83.793 108.000,84.029 108.000 C 84.654 108.000,85.610 109.057,85.281 109.386 C 85.126 109.540,85.270 109.607,85.600 109.533 C 85.930 109.460,86.155 109.625,86.100 109.900 C 86.045 110.175,86.218 110.355,86.485 110.300 C 86.752 110.245,87.155 110.605,87.380 111.100 C 87.605 111.595,88.017 112.000,88.295 112.000 C 88.573 112.000,88.800 112.281,88.800 112.624 C 88.800 112.967,88.981 113.135,89.203 112.998 C 89.424 112.861,89.726 113.062,89.872 113.444 C 90.208 114.319,91.472 115.600,92.000 115.600 C 92.220 115.600,92.400 115.887,92.400 116.237 C 92.400 116.588,92.760 116.969,93.200 117.084 C 93.640 117.199,94.000 117.553,94.000 117.870 C 94.000 118.188,94.192 118.328,94.427 118.183 C 94.662 118.038,94.953 118.297,95.074 118.760 C 95.194 119.222,95.430 119.600,95.596 119.600 C 95.884 119.600,109.714 133.294,115.140 138.952 C 116.537 140.408,117.922 141.600,118.217 141.600 C 118.513 141.600,118.990 141.916,119.277 142.302 C 119.565 142.688,120.520 143.363,121.400 143.802 C 122.280 144.241,123.057 144.725,123.126 144.878 C 123.195 145.030,123.510 145.056,123.826 144.935 C 124.142 144.814,124.400 144.903,124.400 145.134 C 124.400 145.365,124.760 145.485,125.200 145.400 C 125.640 145.315,126.000 145.377,126.000 145.536 C 126.000 145.696,126.495 145.800,127.100 145.767 C 127.705 145.734,128.460 145.908,128.777 146.153 C 129.217 146.494,129.282 146.482,129.053 146.100 C 128.888 145.825,128.928 145.600,129.143 145.600 C 129.358 145.600,129.601 145.804,129.684 146.053 C 129.776 146.329,130.184 146.396,130.724 146.224 C 131.212 146.069,131.497 145.757,131.358 145.531 C 131.185 145.251,131.344 145.249,131.857 145.524 C 132.401 145.815,132.999 145.754,134.006 145.304 C 134.773 144.962,135.652 144.630,135.960 144.567 C 136.268 144.504,136.628 144.306,136.760 144.127 C 136.892 143.947,137.225 143.782,137.500 143.760 C 138.662 143.667,138.834 143.579,138.600 143.200 C 138.464 142.980,138.633 142.800,138.976 142.800 C 139.319 142.800,139.600 142.609,139.600 142.376 C 139.600 142.143,139.766 142.056,139.969 142.181 C 140.173 142.307,140.753 141.822,141.259 141.105 C 141.764 140.387,142.498 139.451,142.889 139.025 C 143.280 138.598,143.600 137.945,143.600 137.574 C 143.600 137.202,143.874 136.670,144.210 136.392 C 144.545 136.114,144.732 135.799,144.626 135.692 C 144.519 135.586,144.679 134.906,144.982 134.182 C 145.284 133.458,145.427 132.761,145.299 132.633 C 145.171 132.505,145.241 132.400,145.453 132.400 C 145.666 132.400,145.766 131.770,145.676 131.000 C 145.576 130.143,145.685 129.600,145.956 129.600 C 146.200 129.600,146.400 129.409,146.400 129.176 C 146.400 128.943,146.220 128.864,146.000 129.000 C 145.780 129.136,145.600 128.977,145.600 128.647 C 145.600 128.317,145.792 127.929,146.026 127.784 C 146.313 127.607,146.265 127.305,145.879 126.860 C 145.564 126.497,145.342 125.795,145.386 125.300 C 145.430 124.805,145.316 124.400,145.133 124.400 C 144.950 124.400,144.800 124.135,144.800 123.812 C 144.800 123.489,144.453 122.606,144.028 121.850 C 143.604 121.095,143.364 120.369,143.495 120.238 C 143.626 120.107,143.474 120.000,143.158 120.000 C 142.841 120.000,142.247 119.378,141.838 118.618 C 141.428 117.858,140.892 117.273,140.647 117.318 C 140.401 117.363,140.245 117.175,140.300 116.900 C 140.355 116.625,140.220 116.400,140.000 116.400 C 139.469 116.400,138.207 115.117,137.867 114.231 C 137.718 113.842,137.276 113.440,136.885 113.338 C 136.494 113.236,135.827 112.636,135.403 112.005 C 134.979 111.373,134.488 110.946,134.312 111.054 C 134.137 111.163,133.826 110.835,133.622 110.326 C 133.418 109.817,133.239 109.535,133.225 109.700 C 133.190 110.122,131.600 108.483,131.600 108.024 C 131.600 107.817,131.392 107.519,131.138 107.362 C 130.833 107.173,130.786 107.254,131.000 107.600 C 131.214 107.946,131.167 108.027,130.862 107.838 C 130.608 107.681,130.400 107.283,130.400 106.953 C 130.400 106.623,130.220 106.464,130.000 106.600 C 129.780 106.736,129.600 106.567,129.600 106.224 C 129.600 105.881,129.330 105.600,129.000 105.600 C 128.670 105.600,128.400 105.319,128.400 104.976 C 128.400 104.633,128.220 104.464,128.000 104.600 C 127.780 104.736,127.600 104.558,127.600 104.205 C 127.600 103.852,127.060 103.256,126.399 102.881 C 125.738 102.507,125.095 101.882,124.970 101.494 C 124.845 101.106,124.575 100.892,124.371 101.018 C 124.167 101.144,124.000 101.070,124.000 100.854 C 124.000 100.357,121.663 98.000,121.169 98.000 C 120.966 98.000,120.800 97.726,120.800 97.391 C 120.800 97.057,120.356 96.580,119.813 96.333 C 119.269 96.085,118.920 95.729,119.036 95.542 C 119.152 95.354,118.961 95.200,118.611 95.200 C 118.261 95.200,117.836 94.827,117.667 94.370 C 117.499 93.914,117.189 93.509,116.980 93.470 C 116.771 93.432,116.636 93.291,116.681 93.157 C 116.725 93.024,116.320 92.678,115.781 92.390 C 115.241 92.101,114.800 91.625,114.800 91.332 C 114.800 91.040,114.519 90.800,114.176 90.800 C 113.833 90.800,113.656 90.633,113.782 90.429 C 113.908 90.225,113.646 89.942,113.200 89.800 C 112.754 89.658,112.462 89.420,112.552 89.271 C 112.642 89.122,112.465 88.768,112.158 88.484 C 111.851 88.201,111.600 88.066,111.600 88.184 C 111.600 88.303,111.269 88.085,110.863 87.700 C 110.458 87.315,110.160 86.910,110.200 86.800 C 110.291 86.550,108.907 85.214,108.500 85.160 C 108.335 85.138,108.245 84.958,108.300 84.760 C 108.355 84.562,108.175 84.445,107.900 84.500 C 107.625 84.555,107.460 84.330,107.533 84.000 C 107.607 83.670,107.535 83.532,107.374 83.693 C 107.065 84.002,105.600 82.534,105.600 81.915 C 105.600 81.716,105.420 81.664,105.200 81.800 C 104.980 81.936,104.800 81.767,104.800 81.424 C 104.800 81.081,104.665 80.845,104.500 80.900 C 104.335 80.955,104.148 80.872,104.085 80.715 C 103.855 80.149,101.529 78.000,101.146 78.000 C 100.930 78.000,100.835 77.865,100.934 77.700 C 101.034 77.535,100.865 77.168,100.558 76.884 C 100.251 76.601,100.000 76.478,100.000 76.613 C 100.000 76.747,99.685 76.542,99.300 76.157 C 98.915 75.772,98.600 75.341,98.600 75.200 C 98.600 74.781,97.293 73.600,96.829 73.600 C 96.593 73.600,96.400 73.330,96.400 73.000 C 96.400 72.670,96.175 72.445,95.900 72.500 C 95.625 72.555,95.445 72.375,95.500 72.100 C 95.555 71.825,95.418 71.600,95.195 71.600 C 94.972 71.600,93.884 70.745,92.776 69.700 C 91.669 68.655,90.585 67.800,90.367 67.800 C 90.149 67.800,89.822 67.560,89.641 67.266 C 89.459 66.972,89.196 66.747,89.055 66.766 C 87.992 66.908,87.193 66.734,87.397 66.405 C 87.537 66.178,87.377 66.111,87.021 66.247 C 86.679 66.378,86.400 66.316,86.400 66.109 C 86.400 65.903,85.438 65.733,84.262 65.733 C 83.086 65.733,81.855 65.630,81.526 65.504 C 81.197 65.377,80.674 65.433,80.364 65.628 M317.111 65.422 C 316.983 65.551,315.940 65.710,314.794 65.777 C 313.648 65.843,312.596 66.083,312.455 66.309 C 312.315 66.535,311.844 66.783,311.409 66.860 C 310.974 66.937,310.293 67.270,309.896 67.600 C 309.499 67.930,308.955 68.208,308.687 68.218 C 308.419 68.228,308.245 68.453,308.300 68.718 C 308.355 68.983,308.220 69.223,308.000 69.250 C 307.780 69.278,307.465 69.323,307.300 69.351 C 306.920 69.416,303.423 72.800,303.736 72.800 C 303.864 72.800,303.480 73.315,302.884 73.944 C 302.288 74.572,301.685 75.024,301.545 74.948 C 301.212 74.766,300.346 75.812,300.611 76.077 C 300.723 76.189,300.091 76.782,299.207 77.395 C 298.323 78.008,297.600 78.678,297.600 78.885 C 297.600 79.092,297.060 79.802,296.400 80.462 C 295.740 81.122,295.200 81.558,295.200 81.432 C 295.200 81.306,293.958 82.417,292.439 83.901 C 290.921 85.386,289.732 86.690,289.797 86.800 C 289.863 86.910,289.665 87.232,289.358 87.516 C 289.051 87.799,288.800 87.917,288.800 87.777 C 288.800 87.638,287.560 88.756,286.044 90.262 C 284.528 91.768,283.369 93.135,283.468 93.300 C 283.566 93.465,283.495 93.600,283.310 93.600 C 282.747 93.600,278.400 97.685,278.400 98.214 C 278.400 98.485,278.003 98.811,277.517 98.937 C 277.032 99.064,276.754 99.287,276.900 99.433 C 277.196 99.729,275.068 102.000,274.495 102.000 C 274.293 102.000,273.649 102.673,273.064 103.495 C 272.479 104.318,272.000 104.830,272.000 104.633 C 272.000 104.437,271.644 104.598,271.209 104.991 C 270.775 105.385,270.484 105.818,270.563 105.953 C 270.642 106.089,270.188 106.706,269.554 107.325 C 268.919 107.944,268.400 108.317,268.400 108.155 C 268.400 107.992,267.320 108.973,266.000 110.335 C 264.680 111.697,263.600 112.983,263.600 113.193 C 263.600 113.403,263.164 113.805,262.632 114.087 C 262.100 114.369,261.134 115.269,260.486 116.087 C 259.838 116.905,259.194 117.460,259.054 117.321 C 258.914 117.181,258.800 117.356,258.800 117.711 C 258.800 118.065,258.453 118.598,258.029 118.895 C 257.605 119.192,257.036 119.922,256.765 120.517 C 256.494 121.113,256.138 121.600,255.975 121.600 C 255.530 121.600,254.771 124.029,255.067 124.508 C 255.208 124.736,255.136 124.808,254.907 124.666 C 254.678 124.525,254.397 124.767,254.283 125.205 C 254.143 125.738,254.228 125.909,254.537 125.724 C 254.792 125.571,254.753 125.751,254.451 126.123 C 254.149 126.495,254.050 126.800,254.231 126.800 C 254.412 126.800,254.362 126.998,254.120 127.240 C 253.841 127.519,253.799 128.098,254.005 128.819 C 254.226 129.587,254.180 130.007,253.866 130.113 C 253.528 130.227,253.551 130.453,253.947 130.933 C 254.248 131.297,254.400 131.957,254.285 132.398 C 254.169 132.839,254.222 133.200,254.402 133.200 C 254.582 133.200,254.853 133.933,255.005 134.828 C 255.156 135.723,255.542 136.556,255.863 136.679 C 256.184 136.803,256.351 137.150,256.236 137.452 C 256.120 137.753,256.229 138.000,256.479 138.000 C 256.729 138.000,256.824 138.109,256.691 138.243 C 256.380 138.554,257.305 139.573,257.688 139.342 C 257.847 139.246,258.086 139.605,258.221 140.140 C 258.429 140.972,260.399 143.143,260.704 142.878 C 260.762 142.828,261.212 143.048,261.704 143.366 C 262.197 143.685,262.866 144.003,263.190 144.073 C 263.515 144.143,264.023 144.425,264.319 144.700 C 264.615 144.975,265.258 145.200,265.749 145.200 C 266.239 145.200,266.856 145.416,267.120 145.680 C 267.493 146.053,267.601 146.031,267.606 145.580 C 267.611 145.087,267.670 145.090,268.000 145.600 C 268.345 146.133,268.390 146.133,268.406 145.600 C 268.420 145.128,268.512 145.150,268.834 145.703 C 269.149 146.245,269.415 146.313,269.995 146.003 C 270.955 145.489,271.594 145.487,270.800 146.000 C 270.439 146.233,270.390 146.390,270.676 146.394 C 270.938 146.397,271.266 146.217,271.404 145.993 C 271.542 145.770,271.810 145.683,272.000 145.800 C 272.190 145.917,272.468 145.814,272.618 145.571 C 272.785 145.301,273.421 145.227,274.246 145.382 C 275.039 145.531,275.600 145.473,275.600 145.243 C 275.600 145.027,275.915 144.868,276.300 144.890 C 278.344 145.008,281.988 141.663,306.261 117.389 C 320.004 103.645,331.119 92.400,330.962 92.400 C 330.805 92.400,330.952 92.085,331.290 91.700 C 332.203 90.658,333.204 88.537,332.917 88.251 C 332.779 88.113,332.855 88.000,333.086 88.000 C 333.579 88.000,334.529 84.533,334.187 83.979 C 334.058 83.771,334.188 83.597,334.476 83.594 C 334.796 83.590,334.844 83.473,334.600 83.294 C 334.153 82.965,334.071 81.795,334.469 81.398 C 334.611 81.256,334.569 80.588,334.375 79.913 C 334.182 79.238,334.111 78.544,334.218 78.371 C 334.325 78.197,334.227 77.940,334.000 77.800 C 333.773 77.660,333.679 77.396,333.791 77.214 C 333.904 77.033,333.736 76.784,333.420 76.663 C 333.103 76.541,332.725 75.809,332.580 75.035 C 332.435 74.262,332.065 73.420,331.758 73.165 C 331.451 72.910,331.200 72.544,331.200 72.351 C 331.200 72.158,330.840 71.640,330.400 71.200 C 329.960 70.760,329.600 70.481,329.600 70.581 C 329.600 70.680,328.756 69.964,327.724 68.990 C 326.693 68.015,325.762 67.304,325.657 67.410 C 325.551 67.515,325.104 67.286,324.664 66.901 C 324.223 66.515,323.994 66.425,324.155 66.700 C 324.551 67.377,323.964 67.330,322.924 66.602 C 322.455 66.273,321.420 65.921,320.625 65.819 C 319.829 65.717,319.019 65.535,318.823 65.414 C 318.628 65.294,318.377 65.421,318.265 65.698 C 318.102 66.100,317.990 66.099,317.703 65.694 C 317.506 65.416,317.240 65.293,317.111 65.422 M30.419 183.585 C 30.100 183.784,29.706 183.866,29.545 183.766 C 29.076 183.476,23.185 186.375,22.939 187.015 C 22.816 187.334,22.555 187.496,22.358 187.374 C 22.161 187.252,22.000 187.317,22.000 187.517 C 22.000 187.717,21.505 188.419,20.900 189.076 C 19.414 190.690,18.202 192.427,18.189 192.961 C 18.184 193.202,18.014 193.663,17.813 193.985 C 17.612 194.307,17.387 195.207,17.314 195.985 C 17.241 196.763,17.063 197.670,16.917 198.000 C 16.522 198.899,16.462 201.343,16.824 201.806 C 16.999 202.029,17.209 202.933,17.291 203.815 C 17.373 204.697,17.607 205.684,17.810 206.009 C 18.013 206.334,18.184 206.798,18.189 207.039 C 18.202 207.573,19.414 209.310,20.900 210.924 C 21.505 211.581,22.000 212.283,22.000 212.483 C 22.000 212.683,22.161 212.748,22.358 212.626 C 22.555 212.504,22.817 212.666,22.939 212.986 C 23.173 213.595,27.879 215.964,29.600 216.340 C 30.841 216.610,101.270 216.633,103.200 216.364 C 103.970 216.256,105.478 215.770,106.551 215.284 C 107.624 214.798,108.669 214.400,108.874 214.400 C 109.079 214.400,109.136 214.220,109.000 214.000 C 108.864 213.780,109.134 213.600,109.600 213.600 C 110.066 213.600,110.386 213.465,110.311 213.300 C 110.137 212.914,113.105 210.039,113.387 210.321 C 113.504 210.438,113.600 210.133,113.600 209.643 C 113.600 209.151,113.779 208.863,114.000 209.000 C 114.220 209.136,114.400 209.079,114.400 208.874 C 114.400 208.669,114.798 207.624,115.284 206.551 C 116.980 202.809,116.980 197.191,115.284 193.449 C 114.798 192.376,114.400 191.331,114.400 191.126 C 114.400 190.921,114.220 190.864,114.000 191.000 C 113.779 191.137,113.600 190.849,113.600 190.357 C 113.600 189.867,113.504 189.562,113.387 189.679 C 113.105 189.961,110.137 187.086,110.311 186.700 C 110.386 186.535,110.066 186.400,109.600 186.400 C 109.134 186.400,108.864 186.220,109.000 186.000 C 109.136 185.780,109.079 185.600,108.874 185.600 C 108.669 185.600,107.624 185.200,106.551 184.712 C 105.478 184.223,104.060 183.746,103.400 183.651 C 100.928 183.295,30.986 183.232,30.419 183.585 M297.800 183.563 C 297.360 183.742,296.686 183.839,296.301 183.779 C 295.917 183.720,294.703 184.105,293.603 184.636 C 292.504 185.166,291.412 185.600,291.178 185.600 C 290.944 185.600,290.864 185.780,291.000 186.000 C 291.137 186.221,290.849 186.400,290.357 186.400 C 289.867 186.400,289.562 186.496,289.679 186.613 C 289.961 186.895,287.086 189.863,286.700 189.689 C 286.535 189.614,286.400 189.934,286.400 190.400 C 286.400 190.866,286.220 191.136,286.000 191.000 C 285.780 190.864,285.600 190.921,285.600 191.126 C 285.600 191.331,285.202 192.376,284.716 193.449 C 283.787 195.499,283.505 197.024,283.505 200.000 C 283.505 202.976,283.787 204.501,284.716 206.551 C 285.202 207.624,285.600 208.669,285.600 208.874 C 285.600 209.079,285.780 209.136,286.000 209.000 C 286.220 208.864,286.400 209.134,286.400 209.600 C 286.400 210.066,286.535 210.386,286.700 210.311 C 287.086 210.137,289.961 213.105,289.679 213.387 C 289.562 213.504,289.867 213.600,290.357 213.600 C 290.849 213.600,291.137 213.779,291.000 214.000 C 290.864 214.220,290.921 214.400,291.126 214.400 C 291.331 214.400,292.376 214.798,293.449 215.284 C 294.522 215.770,296.030 216.256,296.800 216.364 C 298.730 216.633,369.159 216.610,370.400 216.340 C 372.121 215.964,376.827 213.595,377.061 212.986 C 377.183 212.666,377.445 212.504,377.642 212.626 C 377.839 212.748,378.000 212.683,378.000 212.483 C 378.000 212.283,378.495 211.581,379.100 210.924 C 380.586 209.310,381.798 207.573,381.811 207.039 C 381.816 206.798,381.986 206.337,382.187 206.015 C 382.388 205.693,382.613 204.793,382.686 204.015 C 382.759 203.237,382.937 202.330,383.083 202.000 C 383.478 201.101,383.538 198.657,383.176 198.194 C 383.001 197.971,382.791 197.067,382.709 196.185 C 382.627 195.303,382.393 194.316,382.190 193.991 C 381.987 193.666,381.816 193.202,381.811 192.961 C 381.798 192.427,380.586 190.690,379.100 189.076 C 378.495 188.419,378.000 187.717,378.000 187.517 C 378.000 187.317,377.839 187.252,377.642 187.374 C 377.445 187.496,377.183 187.334,377.061 187.014 C 376.827 186.404,372.114 184.033,370.400 183.662 C 368.755 183.307,298.667 183.211,297.800 183.563 M128.596 254.002 C 128.154 254.168,127.074 254.407,126.196 254.533 C 125.318 254.660,124.240 254.816,123.800 254.882 C 123.360 254.947,122.730 255.287,122.400 255.637 C 122.070 255.988,121.575 256.198,121.300 256.104 C 121.025 256.010,120.800 256.139,120.800 256.390 C 120.800 256.642,120.659 256.760,120.487 256.653 C 120.314 256.547,119.754 256.986,119.242 257.630 C 118.729 258.273,118.030 258.800,117.688 258.800 C 117.346 258.800,117.189 258.923,117.339 259.072 C 117.741 259.474,115.553 261.614,115.039 261.322 C 114.797 261.184,114.735 261.221,114.901 261.403 C 115.281 261.822,114.064 263.200,113.314 263.200 C 113.006 263.200,112.864 263.380,113.000 263.600 C 113.136 263.820,113.070 264.000,112.854 264.000 C 112.408 264.000,110.553 265.858,109.481 267.380 C 109.086 267.941,108.490 268.400,108.158 268.400 C 107.825 268.400,107.665 268.581,107.802 268.803 C 107.939 269.024,107.724 269.330,107.325 269.483 C 106.926 269.636,106.240 270.196,105.800 270.729 C 104.189 272.680,101.326 275.593,101.165 275.444 C 101.074 275.360,100.494 275.811,99.875 276.446 C 99.256 277.081,98.858 277.600,98.991 277.600 C 99.124 277.600,98.570 278.315,97.761 279.190 C 96.952 280.064,96.107 280.666,95.883 280.528 C 95.660 280.390,95.569 280.439,95.682 280.638 C 95.795 280.837,95.372 281.488,94.744 282.084 C 94.115 282.680,93.600 283.106,93.600 283.031 C 93.600 282.955,90.000 286.482,85.600 290.869 C 81.200 295.256,77.600 298.940,77.600 299.057 C 77.600 299.173,76.941 299.838,76.135 300.534 C 73.284 302.997,71.200 305.068,71.200 305.436 C 71.200 305.641,70.660 306.255,70.000 306.800 C 69.340 307.345,68.800 308.048,68.800 308.362 C 68.800 308.676,68.683 308.816,68.539 308.673 C 68.235 308.369,67.200 310.221,67.200 311.069 C 67.200 311.404,67.006 311.527,66.738 311.362 C 66.446 311.181,66.385 311.252,66.573 311.556 C 66.736 311.819,66.641 312.309,66.363 312.644 C 65.954 313.137,65.635 315.410,65.582 318.200 C 65.562 319.286,65.847 321.051,66.110 321.466 C 66.272 321.722,66.179 322.023,65.902 322.134 C 65.513 322.291,65.518 322.344,65.924 322.368 C 66.212 322.386,66.349 322.560,66.228 322.755 C 66.107 322.950,66.277 323.332,66.604 323.604 C 66.932 323.876,67.200 324.396,67.200 324.760 C 67.200 325.124,67.464 325.798,67.786 326.258 C 68.108 326.719,68.258 327.209,68.119 327.347 C 67.980 327.486,68.177 327.600,68.557 327.600 C 68.937 327.600,69.151 327.755,69.034 327.945 C 68.750 328.405,71.434 330.840,73.092 331.627 C 73.819 331.971,74.319 332.347,74.205 332.462 C 74.090 332.577,74.762 332.912,75.698 333.207 C 76.634 333.503,77.580 333.865,77.800 334.014 C 78.020 334.162,78.830 334.255,79.600 334.220 C 80.370 334.185,81.177 334.247,81.393 334.359 C 82.033 334.690,83.200 334.691,83.200 334.360 C 83.200 334.192,83.938 334.127,84.839 334.217 C 85.885 334.321,86.934 334.137,87.739 333.708 C 88.433 333.338,89.135 333.073,89.300 333.118 C 89.465 333.163,89.600 333.032,89.600 332.827 C 89.600 332.622,89.956 332.341,90.390 332.203 C 90.825 332.065,91.815 331.336,92.590 330.583 C 93.366 329.830,94.000 329.333,94.000 329.477 C 94.000 329.622,95.080 328.627,96.400 327.265 C 97.720 325.903,98.800 324.582,98.800 324.328 C 98.800 324.074,98.907 323.973,99.037 324.104 C 99.420 324.486,101.602 322.331,101.325 321.844 C 101.186 321.600,101.212 321.527,101.384 321.682 C 101.732 321.995,113.459 310.413,113.300 309.914 C 113.245 309.741,113.425 309.645,113.700 309.700 C 113.975 309.755,114.155 309.575,114.100 309.300 C 114.045 309.025,114.145 308.845,114.322 308.900 C 114.769 309.039,127.426 296.358,127.290 295.907 C 127.230 295.705,127.320 295.625,127.490 295.728 C 127.888 295.969,128.831 294.965,128.509 294.643 C 128.376 294.509,128.479 294.400,128.738 294.400 C 129.369 294.400,134.028 289.761,133.713 289.447 C 133.578 289.311,133.695 289.200,133.975 289.200 C 134.573 289.200,142.400 281.461,142.400 280.870 C 142.400 280.648,142.535 280.407,142.700 280.333 C 143.313 280.061,145.236 275.982,144.962 275.538 C 144.796 275.270,144.851 275.184,145.093 275.334 C 145.322 275.475,145.600 275.242,145.712 274.815 C 145.824 274.388,145.730 273.977,145.504 273.901 C 145.270 273.823,145.215 273.383,145.376 272.876 C 145.531 272.388,145.802 272.078,145.979 272.187 C 146.155 272.296,146.300 271.942,146.300 271.400 C 146.300 270.858,146.125 270.523,145.910 270.656 C 145.682 270.796,145.695 270.570,145.941 270.110 C 146.260 269.514,146.205 269.100,145.712 268.395 C 145.354 267.885,145.273 267.598,145.531 267.757 C 146.190 268.165,146.114 267.541,145.377 266.488 C 145.034 265.999,144.856 265.433,144.981 265.232 C 145.105 265.030,144.891 264.548,144.504 264.161 C 144.117 263.774,143.843 263.354,143.895 263.229 C 144.123 262.681,143.404 261.330,142.443 260.500 C 141.869 260.006,141.559 259.601,141.754 259.600 C 141.949 259.600,141.589 259.198,140.954 258.706 C 139.245 257.383,138.823 257.045,138.283 256.568 C 138.013 256.330,137.606 256.198,137.378 256.274 C 137.150 256.350,136.558 256.034,136.061 255.571 C 135.565 255.109,134.910 254.826,134.605 254.943 C 134.301 255.059,133.992 254.977,133.920 254.760 C 133.847 254.542,133.116 254.327,132.294 254.282 C 131.473 254.237,130.797 254.020,130.794 253.800 C 130.791 253.580,130.611 253.670,130.394 254.000 C 130.117 254.422,129.911 254.466,129.700 254.150 C 129.522 253.883,129.074 253.823,128.596 254.002 M267.400 254.299 C 266.960 254.380,266.373 254.521,266.096 254.612 C 265.818 254.704,265.502 254.779,265.392 254.781 C 265.282 254.783,264.655 255.061,264.000 255.400 C 263.345 255.739,262.692 255.997,262.549 255.974 C 262.406 255.951,262.141 256.172,261.959 256.466 C 261.778 256.760,261.488 257.001,261.315 257.001 C 260.881 257.003,256.636 261.199,257.059 261.206 C 257.247 261.209,257.206 261.344,256.968 261.506 C 255.054 262.808,252.750 274.400,254.405 274.400 C 254.648 274.400,254.744 274.568,254.617 274.772 C 254.491 274.977,254.570 275.258,254.793 275.396 C 255.017 275.534,255.200 276.027,255.200 276.492 C 255.200 276.957,255.515 277.697,255.900 278.137 C 256.380 278.685,256.413 278.827,256.007 278.588 C 255.681 278.396,255.824 278.770,256.325 279.419 C 257.949 281.526,308.170 331.600,308.659 331.600 C 308.920 331.600,309.193 331.742,309.267 331.916 C 309.901 333.421,319.109 335.518,319.846 334.326 C 319.964 334.135,320.272 334.020,320.530 334.070 C 321.518 334.260,324.199 333.502,325.133 332.767 C 325.669 332.345,326.359 332.000,326.666 332.000 C 326.974 332.000,327.328 331.731,327.454 331.402 C 327.581 331.074,327.800 330.876,327.942 330.963 C 328.084 331.050,328.893 330.419,329.741 329.561 C 330.588 328.702,331.166 328.000,331.025 328.000 C 330.884 328.000,330.958 327.775,331.190 327.500 C 333.096 325.238,334.326 322.145,334.053 320.300 C 333.996 319.915,334.123 319.600,334.335 319.600 C 334.855 319.600,334.492 313.904,333.950 313.569 C 333.720 313.427,333.556 313.151,333.585 312.955 C 333.672 312.374,332.263 309.200,331.918 309.200 C 331.743 309.200,331.600 308.972,331.600 308.693 C 331.600 308.181,281.616 258.019,279.419 256.325 C 278.770 255.824,278.396 255.681,278.588 256.007 C 278.862 256.472,278.772 256.461,278.169 255.954 C 277.433 255.335,275.331 254.596,274.700 254.734 C 274.535 254.770,274.400 254.627,274.400 254.416 C 274.400 254.056,269.184 253.968,267.400 254.299 M197.800 283.547 C 197.360 283.735,196.686 283.839,196.301 283.779 C 195.917 283.720,194.703 284.105,193.603 284.636 C 192.504 285.166,191.412 285.600,191.178 285.600 C 190.944 285.600,190.864 285.780,191.000 286.000 C 191.137 286.221,190.849 286.400,190.357 286.400 C 189.867 286.400,189.562 286.496,189.679 286.613 C 189.961 286.895,187.086 289.863,186.700 289.689 C 186.535 289.614,186.400 289.934,186.400 290.400 C 186.400 290.866,186.220 291.136,186.000 291.000 C 185.780 290.864,185.600 290.921,185.600 291.126 C 185.600 291.331,185.202 292.376,184.716 293.449 C 184.230 294.522,183.744 296.030,183.636 296.800 C 183.367 298.730,183.390 369.159,183.660 370.400 C 184.036 372.121,186.405 376.827,187.014 377.061 C 187.334 377.183,187.496 377.445,187.374 377.642 C 187.252 377.839,187.317 378.000,187.517 378.000 C 187.717 378.000,188.419 378.495,189.076 379.100 C 190.690 380.586,192.427 381.798,192.961 381.811 C 193.202 381.816,193.666 381.987,193.991 382.190 C 194.316 382.393,195.303 382.627,196.185 382.709 C 197.067 382.791,197.971 383.001,198.194 383.176 C 198.657 383.538,201.101 383.478,202.000 383.083 C 202.330 382.937,203.237 382.759,204.015 382.686 C 204.793 382.613,205.693 382.388,206.015 382.187 C 206.337 381.986,206.798 381.816,207.039 381.811 C 207.573 381.798,209.310 380.586,210.924 379.100 C 211.581 378.495,212.283 378.000,212.483 378.000 C 212.683 378.000,212.748 377.839,212.626 377.642 C 212.504 377.445,212.666 377.183,212.986 377.061 C 213.595 376.827,215.964 372.121,216.340 370.400 C 216.610 369.159,216.633 298.730,216.364 296.800 C 216.256 296.030,215.770 294.522,215.284 293.449 C 214.798 292.376,214.400 291.331,214.400 291.126 C 214.400 290.921,214.220 290.864,214.000 291.000 C 213.779 291.137,213.600 290.849,213.600 290.357 C 213.600 289.867,213.504 289.562,213.387 289.679 C 213.105 289.961,210.137 287.086,210.311 286.700 C 210.386 286.535,210.066 286.400,209.600 286.400 C 209.134 286.400,208.864 286.220,209.000 286.000 C 209.136 285.780,209.079 285.600,208.874 285.600 C 208.669 285.600,207.624 285.200,206.551 284.712 C 205.478 284.223,204.150 283.779,203.600 283.725 C 203.050 283.671,201.700 283.533,200.600 283.417 C 199.500 283.302,198.240 283.360,197.800 283.547 " stroke="none" fill="#a451bd" fill-rule="evenodd"></path><path id="path4" d="M198.134 16.819 C 197.951 17.000,197.076 17.213,196.191 17.294 C 195.306 17.375,194.316 17.607,193.991 17.810 C 193.666 18.013,193.202 18.184,192.961 18.189 C 192.427 18.202,190.690 19.414,189.076 20.900 C 188.419 21.505,187.717 22.000,187.517 22.000 C 187.317 22.000,187.252 22.161,187.374 22.358 C 187.496 22.555,187.334 22.817,187.014 22.939 C 186.405 23.173,184.036 27.879,183.660 29.600 C 183.390 30.841,183.367 101.270,183.636 103.200 C 183.744 103.970,184.230 105.478,184.716 106.551 C 185.202 107.624,185.600 108.669,185.600 108.874 C 185.600 109.079,185.780 109.136,186.000 109.000 C 186.220 108.864,186.400 109.134,186.400 109.600 C 186.400 110.066,186.535 110.386,186.700 110.311 C 187.086 110.137,189.961 113.105,189.679 113.387 C 189.562 113.504,189.867 113.600,190.357 113.600 C 190.849 113.600,191.137 113.779,191.000 114.000 C 190.864 114.220,190.921 114.400,191.126 114.400 C 191.331 114.400,192.376 114.798,193.449 115.284 C 197.191 116.980,202.809 116.980,206.551 115.284 C 207.624 114.798,208.669 114.400,208.874 114.400 C 209.079 114.400,209.136 114.220,209.000 114.000 C 208.864 113.780,209.134 113.600,209.600 113.600 C 210.066 113.600,210.386 113.465,210.311 113.300 C 210.137 112.914,213.105 110.039,213.387 110.321 C 213.504 110.438,213.600 110.133,213.600 109.643 C 213.600 109.151,213.779 108.863,214.000 109.000 C 214.220 109.136,214.400 109.079,214.400 108.874 C 214.400 108.669,214.798 107.624,215.284 106.551 C 215.770 105.478,216.256 103.970,216.364 103.200 C 216.633 101.270,216.610 30.841,216.340 29.600 C 215.964 27.879,213.595 23.173,212.986 22.939 C 212.666 22.817,212.504 22.555,212.626 22.358 C 212.748 22.161,212.683 22.000,212.483 22.000 C 212.283 22.000,211.581 21.505,210.924 20.900 C 209.310 19.414,207.573 18.202,207.039 18.189 C 206.798 18.184,206.337 18.014,206.015 17.813 C 205.693 17.612,204.793 17.387,204.015 17.314 C 203.237 17.241,202.330 17.064,202.000 16.921 C 201.076 16.519,198.509 16.452,198.134 16.819 M80.364 65.628 C 80.054 65.823,79.502 65.889,79.138 65.776 C 78.775 65.663,77.830 65.934,77.038 66.378 C 76.247 66.823,75.600 67.087,75.600 66.965 C 75.600 66.843,75.317 67.026,74.971 67.371 C 74.626 67.717,74.123 68.000,73.854 68.000 C 73.326 68.000,68.618 71.845,68.571 72.315 C 68.514 72.894,67.403 75.009,67.008 75.294 C 66.784 75.456,66.763 75.591,66.962 75.594 C 67.161 75.597,66.981 75.991,66.562 76.469 C 66.086 77.012,66.025 77.208,66.400 76.992 C 66.923 76.691,66.927 76.736,66.435 77.343 C 65.954 77.935,65.602 79.455,65.588 81.000 C 65.566 83.369,65.867 86.399,66.124 86.400 C 66.302 86.400,66.339 86.575,66.207 86.789 C 66.075 87.002,66.265 87.632,66.629 88.189 C 66.994 88.745,67.154 89.200,66.985 89.200 C 66.816 89.200,67.065 89.536,67.539 89.947 C 68.012 90.358,68.400 90.954,68.400 91.272 C 68.400 91.590,68.940 92.368,69.600 93.000 C 70.260 93.632,70.800 94.386,70.800 94.675 C 70.800 94.964,71.070 95.200,71.400 95.200 C 71.730 95.200,72.000 95.459,72.000 95.776 C 72.000 96.093,72.208 96.481,72.462 96.638 C 72.773 96.831,72.816 96.741,72.593 96.362 C 72.411 96.053,72.649 96.139,73.122 96.553 C 73.594 96.968,73.885 97.463,73.767 97.653 C 73.649 97.844,73.833 98.000,74.176 98.000 C 74.519 98.000,74.800 98.249,74.800 98.553 C 74.800 98.858,75.178 99.206,75.640 99.326 C 76.102 99.447,76.374 99.718,76.245 99.928 C 76.115 100.137,76.385 100.407,76.845 100.528 C 77.304 100.648,77.562 100.938,77.417 101.173 C 77.272 101.408,77.433 101.600,77.776 101.600 C 78.119 101.600,78.400 101.870,78.400 102.200 C 78.400 102.530,78.571 102.800,78.779 102.800 C 79.305 102.800,81.200 104.600,81.200 105.099 C 81.200 105.323,81.578 105.606,82.040 105.726 C 82.503 105.847,82.762 106.138,82.617 106.373 C 82.472 106.608,82.633 106.800,82.976 106.800 C 83.319 106.800,83.600 107.070,83.600 107.400 C 83.600 107.730,83.793 108.000,84.029 108.000 C 84.654 108.000,85.610 109.057,85.281 109.386 C 85.126 109.540,85.270 109.607,85.600 109.533 C 85.930 109.460,86.155 109.625,86.100 109.900 C 86.045 110.175,86.218 110.355,86.485 110.300 C 86.752 110.245,87.155 110.605,87.380 111.100 C 87.605 111.595,88.017 112.000,88.295 112.000 C 88.573 112.000,88.800 112.281,88.800 112.624 C 88.800 112.967,88.981 113.135,89.203 112.998 C 89.424 112.861,89.726 113.062,89.872 113.444 C 90.208 114.319,91.472 115.600,92.000 115.600 C 92.220 115.600,92.400 115.887,92.400 116.237 C 92.400 116.588,92.760 116.969,93.200 117.084 C 93.640 117.199,94.000 117.553,94.000 117.870 C 94.000 118.188,94.192 118.328,94.427 118.183 C 94.662 118.038,94.953 118.297,95.074 118.760 C 95.194 119.222,95.430 119.600,95.596 119.600 C 95.884 119.600,109.714 133.294,115.140 138.952 C 116.537 140.408,117.922 141.600,118.217 141.600 C 118.513 141.600,118.990 141.916,119.277 142.302 C 119.565 142.688,120.520 143.363,121.400 143.802 C 122.280 144.241,123.057 144.725,123.126 144.878 C 123.195 145.030,123.510 145.056,123.826 144.935 C 124.142 144.814,124.400 144.903,124.400 145.134 C 124.400 145.365,124.760 145.485,125.200 145.400 C 125.640 145.315,126.000 145.377,126.000 145.536 C 126.000 145.696,126.495 145.800,127.100 145.767 C 127.705 145.734,128.460 145.908,128.777 146.153 C 129.217 146.494,129.282 146.482,129.053 146.100 C 128.888 145.825,128.928 145.600,129.143 145.600 C 129.358 145.600,129.601 145.804,129.684 146.053 C 129.776 146.329,130.184 146.396,130.724 146.224 C 131.212 146.069,131.497 145.757,131.358 145.531 C 131.185 145.251,131.344 145.249,131.857 145.524 C 132.401 145.815,132.999 145.754,134.006 145.304 C 134.773 144.962,135.652 144.630,135.960 144.567 C 136.268 144.504,136.628 144.306,136.760 144.127 C 136.892 143.947,137.225 143.782,137.500 143.760 C 138.662 143.667,138.834 143.579,138.600 143.200 C 138.464 142.980,138.633 142.800,138.976 142.800 C 139.319 142.800,139.600 142.609,139.600 142.376 C 139.600 142.143,139.766 142.056,139.969 142.181 C 140.173 142.307,140.753 141.822,141.259 141.105 C 141.764 140.387,142.498 139.451,142.889 139.025 C 143.280 138.598,143.600 137.945,143.600 137.574 C 143.600 137.202,143.874 136.670,144.210 136.392 C 144.545 136.114,144.732 135.799,144.626 135.692 C 144.519 135.586,144.679 134.906,144.982 134.182 C 145.284 133.458,145.427 132.761,145.299 132.633 C 145.171 132.505,145.241 132.400,145.453 132.400 C 145.666 132.400,145.766 131.770,145.676 131.000 C 145.576 130.143,145.685 129.600,145.956 129.600 C 146.200 129.600,146.400 129.409,146.400 129.176 C 146.400 128.943,146.220 128.864,146.000 129.000 C 145.780 129.136,145.600 128.977,145.600 128.647 C 145.600 128.317,145.792 127.929,146.026 127.784 C 146.313 127.607,146.265 127.305,145.879 126.860 C 145.564 126.497,145.342 125.795,145.386 125.300 C 145.430 124.805,145.316 124.400,145.133 124.400 C 144.950 124.400,144.800 124.135,144.800 123.812 C 144.800 123.489,144.453 122.606,144.028 121.850 C 143.604 121.095,143.364 120.369,143.495 120.238 C 143.626 120.107,143.474 120.000,143.158 120.000 C 142.841 120.000,142.247 119.378,141.838 118.618 C 141.428 117.858,140.892 117.273,140.647 117.318 C 140.401 117.363,140.245 117.175,140.300 116.900 C 140.355 116.625,140.220 116.400,140.000 116.400 C 139.469 116.400,138.207 115.117,137.867 114.231 C 137.718 113.842,137.276 113.440,136.885 113.338 C 136.494 113.236,135.827 112.636,135.403 112.005 C 134.979 111.373,134.488 110.946,134.312 111.054 C 134.137 111.163,133.826 110.835,133.622 110.326 C 133.418 109.817,133.239 109.535,133.225 109.700 C 133.190 110.122,131.600 108.483,131.600 108.024 C 131.600 107.817,131.392 107.519,131.138 107.362 C 130.833 107.173,130.786 107.254,131.000 107.600 C 131.214 107.946,131.167 108.027,130.862 107.838 C 130.608 107.681,130.400 107.283,130.400 106.953 C 130.400 106.623,130.220 106.464,130.000 106.600 C 129.780 106.736,129.600 106.567,129.600 106.224 C 129.600 105.881,129.330 105.600,129.000 105.600 C 128.670 105.600,128.400 105.319,128.400 104.976 C 128.400 104.633,128.220 104.464,128.000 104.600 C 127.780 104.736,127.600 104.558,127.600 104.205 C 127.600 103.852,127.060 103.256,126.399 102.881 C 125.738 102.507,125.095 101.882,124.970 101.494 C 124.845 101.106,124.575 100.892,124.371 101.018 C 124.167 101.144,124.000 101.070,124.000 100.854 C 124.000 100.357,121.663 98.000,121.169 98.000 C 120.966 98.000,120.800 97.726,120.800 97.391 C 120.800 97.057,120.356 96.580,119.813 96.333 C 119.269 96.085,118.920 95.729,119.036 95.542 C 119.152 95.354,118.961 95.200,118.611 95.200 C 118.261 95.200,117.836 94.827,117.667 94.370 C 117.499 93.914,117.189 93.509,116.980 93.470 C 116.771 93.432,116.636 93.291,116.681 93.157 C 116.725 93.024,116.320 92.678,115.781 92.390 C 115.241 92.101,114.800 91.625,114.800 91.332 C 114.800 91.040,114.519 90.800,114.176 90.800 C 113.833 90.800,113.656 90.633,113.782 90.429 C 113.908 90.225,113.646 89.942,113.200 89.800 C 112.754 89.658,112.462 89.420,112.552 89.271 C 112.642 89.122,112.465 88.768,112.158 88.484 C 111.851 88.201,111.600 88.066,111.600 88.184 C 111.600 88.303,111.269 88.085,110.863 87.700 C 110.458 87.315,110.160 86.910,110.200 86.800 C 110.291 86.550,108.907 85.214,108.500 85.160 C 108.335 85.138,108.245 84.958,108.300 84.760 C 108.355 84.562,108.175 84.445,107.900 84.500 C 107.625 84.555,107.460 84.330,107.533 84.000 C 107.607 83.670,107.535 83.532,107.374 83.693 C 107.065 84.002,105.600 82.534,105.600 81.915 C 105.600 81.716,105.420 81.664,105.200 81.800 C 104.980 81.936,104.800 81.767,104.800 81.424 C 104.800 81.081,104.665 80.845,104.500 80.900 C 104.335 80.955,104.148 80.872,104.085 80.715 C 103.855 80.149,101.529 78.000,101.146 78.000 C 100.930 78.000,100.835 77.865,100.934 77.700 C 101.034 77.535,100.865 77.168,100.558 76.884 C 100.251 76.601,100.000 76.478,100.000 76.613 C 100.000 76.747,99.685 76.542,99.300 76.157 C 98.915 75.772,98.600 75.341,98.600 75.200 C 98.600 74.781,97.293 73.600,96.829 73.600 C 96.593 73.600,96.400 73.330,96.400 73.000 C 96.400 72.670,96.175 72.445,95.900 72.500 C 95.625 72.555,95.445 72.375,95.500 72.100 C 95.555 71.825,95.418 71.600,95.195 71.600 C 94.972 71.600,93.884 70.745,92.776 69.700 C 91.669 68.655,90.585 67.800,90.367 67.800 C 90.149 67.800,89.822 67.560,89.641 67.266 C 89.459 66.972,89.196 66.747,89.055 66.766 C 87.992 66.908,87.193 66.734,87.397 66.405 C 87.537 66.178,87.377 66.111,87.021 66.247 C 86.679 66.378,86.400 66.316,86.400 66.109 C 86.400 65.903,85.438 65.733,84.262 65.733 C 83.086 65.733,81.855 65.630,81.526 65.504 C 81.197 65.377,80.674 65.433,80.364 65.628 M317.111 65.422 C 316.983 65.551,315.940 65.710,314.794 65.777 C 313.648 65.843,312.596 66.083,312.455 66.309 C 312.315 66.535,311.844 66.783,311.409 66.860 C 310.974 66.937,310.293 67.270,309.896 67.600 C 309.499 67.930,308.955 68.208,308.687 68.218 C 308.419 68.228,308.245 68.453,308.300 68.718 C 308.355 68.983,308.220 69.223,308.000 69.250 C 307.780 69.278,307.465 69.323,307.300 69.351 C 306.920 69.416,303.423 72.800,303.736 72.800 C 303.864 72.800,303.480 73.315,302.884 73.944 C 302.288 74.572,301.685 75.024,301.545 74.948 C 301.212 74.766,300.346 75.812,300.611 76.077 C 300.723 76.189,300.091 76.782,299.207 77.395 C 298.323 78.008,297.600 78.678,297.600 78.885 C 297.600 79.092,297.060 79.802,296.400 80.462 C 295.740 81.122,295.200 81.558,295.200 81.432 C 295.200 81.306,293.958 82.417,292.439 83.901 C 290.921 85.386,289.732 86.690,289.797 86.800 C 289.863 86.910,289.665 87.232,289.358 87.516 C 289.051 87.799,288.800 87.917,288.800 87.777 C 288.800 87.638,287.560 88.756,286.044 90.262 C 284.528 91.768,283.369 93.135,283.468 93.300 C 283.566 93.465,283.495 93.600,283.310 93.600 C 282.747 93.600,278.400 97.685,278.400 98.214 C 278.400 98.485,278.003 98.811,277.517 98.937 C 277.032 99.064,276.754 99.287,276.900 99.433 C 277.196 99.729,275.068 102.000,274.495 102.000 C 274.293 102.000,273.649 102.673,273.064 103.495 C 272.479 104.318,272.000 104.830,272.000 104.633 C 272.000 104.437,271.644 104.598,271.209 104.991 C 270.775 105.385,270.484 105.818,270.563 105.953 C 270.642 106.089,270.188 106.706,269.554 107.325 C 268.919 107.944,268.400 108.317,268.400 108.155 C 268.400 107.992,267.320 108.973,266.000 110.335 C 264.680 111.697,263.600 112.983,263.600 113.193 C 263.600 113.403,263.164 113.805,262.632 114.087 C 262.100 114.369,261.134 115.269,260.486 116.087 C 259.838 116.905,259.194 117.460,259.054 117.321 C 258.914 117.181,258.800 117.356,258.800 117.711 C 258.800 118.065,258.453 118.598,258.029 118.895 C 257.605 119.192,257.036 119.922,256.765 120.517 C 256.494 121.113,256.138 121.600,255.975 121.600 C 255.530 121.600,254.771 124.029,255.067 124.508 C 255.208 124.736,255.136 124.808,254.907 124.666 C 254.678 124.525,254.397 124.767,254.283 125.205 C 254.143 125.738,254.228 125.909,254.537 125.724 C 254.792 125.571,254.753 125.751,254.451 126.123 C 254.149 126.495,254.050 126.800,254.231 126.800 C 254.412 126.800,254.362 126.998,254.120 127.240 C 253.841 127.519,253.799 128.098,254.005 128.819 C 254.226 129.587,254.180 130.007,253.866 130.113 C 253.528 130.227,253.551 130.453,253.947 130.933 C 254.248 131.297,254.400 131.957,254.285 132.398 C 254.169 132.839,254.222 133.200,254.402 133.200 C 254.582 133.200,254.853 133.933,255.005 134.828 C 255.156 135.723,255.542 136.556,255.863 136.679 C 256.184 136.803,256.351 137.150,256.236 137.452 C 256.120 137.753,256.229 138.000,256.479 138.000 C 256.729 138.000,256.824 138.109,256.691 138.243 C 256.380 138.554,257.305 139.573,257.688 139.342 C 257.847 139.246,258.086 139.605,258.221 140.140 C 258.429 140.972,260.399 143.143,260.704 142.878 C 260.762 142.828,261.212 143.048,261.704 143.366 C 262.197 143.685,262.866 144.003,263.190 144.073 C 263.515 144.143,264.023 144.425,264.319 144.700 C 264.615 144.975,265.258 145.200,265.749 145.200 C 266.239 145.200,266.856 145.416,267.120 145.680 C 267.493 146.053,267.601 146.031,267.606 145.580 C 267.611 145.087,267.670 145.090,268.000 145.600 C 268.345 146.133,268.390 146.133,268.406 145.600 C 268.420 145.128,268.512 145.150,268.834 145.703 C 269.149 146.245,269.415 146.313,269.995 146.003 C 270.955 145.489,271.594 145.487,270.800 146.000 C 270.439 146.233,270.390 146.390,270.676 146.394 C 270.938 146.397,271.266 146.217,271.404 145.993 C 271.542 145.770,271.810 145.683,272.000 145.800 C 272.190 145.917,272.468 145.814,272.618 145.571 C 272.785 145.301,273.421 145.227,274.246 145.382 C 275.039 145.531,275.600 145.473,275.600 145.243 C 275.600 145.027,275.915 144.868,276.300 144.890 C 278.344 145.008,281.988 141.663,306.261 117.389 C 320.004 103.645,331.119 92.400,330.962 92.400 C 330.805 92.400,330.952 92.085,331.290 91.700 C 332.203 90.658,333.204 88.537,332.917 88.251 C 332.779 88.113,332.855 88.000,333.086 88.000 C 333.579 88.000,334.529 84.533,334.187 83.979 C 334.058 83.771,334.188 83.597,334.476 83.594 C 334.796 83.590,334.844 83.473,334.600 83.294 C 334.153 82.965,334.071 81.795,334.469 81.398 C 334.611 81.256,334.569 80.588,334.375 79.913 C 334.182 79.238,334.111 78.544,334.218 78.371 C 334.325 78.197,334.227 77.940,334.000 77.800 C 333.773 77.660,333.679 77.396,333.791 77.214 C 333.904 77.033,333.736 76.784,333.420 76.663 C 333.103 76.541,332.725 75.809,332.580 75.035 C 332.435 74.262,332.065 73.420,331.758 73.165 C 331.451 72.910,331.200 72.544,331.200 72.351 C 331.200 72.158,330.840 71.640,330.400 71.200 C 329.960 70.760,329.600 70.481,329.600 70.581 C 329.600 70.680,328.756 69.964,327.724 68.990 C 326.693 68.015,325.762 67.304,325.657 67.410 C 325.551 67.515,325.104 67.286,324.664 66.901 C 324.223 66.515,323.994 66.425,324.155 66.700 C 324.551 67.377,323.964 67.330,322.924 66.602 C 322.455 66.273,321.420 65.921,320.625 65.819 C 319.829 65.717,319.019 65.535,318.823 65.414 C 318.628 65.294,318.377 65.421,318.265 65.698 C 318.102 66.100,317.990 66.099,317.703 65.694 C 317.506 65.416,317.240 65.293,317.111 65.422 M30.419 183.585 C 30.100 183.784,29.706 183.866,29.545 183.766 C 29.076 183.476,23.185 186.375,22.939 187.015 C 22.816 187.334,22.555 187.496,22.358 187.374 C 22.161 187.252,22.000 187.317,22.000 187.517 C 22.000 187.717,21.505 188.419,20.900 189.076 C 19.414 190.690,18.202 192.427,18.189 192.961 C 18.184 193.202,18.014 193.663,17.813 193.985 C 17.612 194.307,17.387 195.207,17.314 195.985 C 17.241 196.763,17.063 197.670,16.917 198.000 C 16.522 198.899,16.462 201.343,16.824 201.806 C 16.999 202.029,17.209 202.933,17.291 203.815 C 17.373 204.697,17.607 205.684,17.810 206.009 C 18.013 206.334,18.184 206.798,18.189 207.039 C 18.202 207.573,19.414 209.310,20.900 210.924 C 21.505 211.581,22.000 212.283,22.000 212.483 C 22.000 212.683,22.161 212.748,22.358 212.626 C 22.555 212.504,22.817 212.666,22.939 212.986 C 23.173 213.595,27.879 215.964,29.600 216.340 C 30.841 216.610,101.270 216.633,103.200 216.364 C 103.970 216.256,105.478 215.770,106.551 215.284 C 107.624 214.798,108.669 214.400,108.874 214.400 C 109.079 214.400,109.136 214.220,109.000 214.000 C 108.864 213.780,109.134 213.600,109.600 213.600 C 110.066 213.600,110.386 213.465,110.311 213.300 C 110.137 212.914,113.105 210.039,113.387 210.321 C 113.504 210.438,113.600 210.133,113.600 209.643 C 113.600 209.151,113.779 208.863,114.000 209.000 C 114.220 209.136,114.400 209.079,114.400 208.874 C 114.400 208.669,114.798 207.624,115.284 206.551 C 116.980 202.809,116.980 197.191,115.284 193.449 C 114.798 192.376,114.400 191.331,114.400 191.126 C 114.400 190.921,114.220 190.864,114.000 191.000 C 113.779 191.137,113.600 190.849,113.600 190.357 C 113.600 189.867,113.504 189.562,113.387 189.679 C 113.105 189.961,110.137 187.086,110.311 186.700 C 110.386 186.535,110.066 186.400,109.600 186.400 C 109.134 186.400,108.864 186.220,109.000 186.000 C 109.136 185.780,109.079 185.600,108.874 185.600 C 108.669 185.600,107.624 185.200,106.551 184.712 C 105.478 184.223,104.060 183.746,103.400 183.651 C 100.928 183.295,30.986 183.232,30.419 183.585 M297.800 183.563 C 297.360 183.742,296.686 183.839,296.301 183.779 C 295.917 183.720,294.703 184.105,293.603 184.636 C 292.504 185.166,291.412 185.600,291.178 185.600 C 290.944 185.600,290.864 185.780,291.000 186.000 C 291.137 186.221,290.849 186.400,290.357 186.400 C 289.867 186.400,289.562 186.496,289.679 186.613 C 289.961 186.895,287.086 189.863,286.700 189.689 C 286.535 189.614,286.400 189.934,286.400 190.400 C 286.400 190.866,286.220 191.136,286.000 191.000 C 285.780 190.864,285.600 190.921,285.600 191.126 C 285.600 191.331,285.202 192.376,284.716 193.449 C 283.787 195.499,283.505 197.024,283.505 200.000 C 283.505 202.976,283.787 204.501,284.716 206.551 C 285.202 207.624,285.600 208.669,285.600 208.874 C 285.600 209.079,285.780 209.136,286.000 209.000 C 286.220 208.864,286.400 209.134,286.400 209.600 C 286.400 210.066,286.535 210.386,286.700 210.311 C 287.086 210.137,289.961 213.105,289.679 213.387 C 289.562 213.504,289.867 213.600,290.357 213.600 C 290.849 213.600,291.137 213.779,291.000 214.000 C 290.864 214.220,290.921 214.400,291.126 214.400 C 291.331 214.400,292.376 214.798,293.449 215.284 C 294.522 215.770,296.030 216.256,296.800 216.364 C 298.730 216.633,369.159 216.610,370.400 216.340 C 372.121 215.964,376.827 213.595,377.061 212.986 C 377.183 212.666,377.445 212.504,377.642 212.626 C 377.839 212.748,378.000 212.683,378.000 212.483 C 378.000 212.283,378.495 211.581,379.100 210.924 C 380.586 209.310,381.798 207.573,381.811 207.039 C 381.816 206.798,381.986 206.337,382.187 206.015 C 382.388 205.693,382.613 204.793,382.686 204.015 C 382.759 203.237,382.937 202.330,383.083 202.000 C 383.478 201.101,383.538 198.657,383.176 198.194 C 383.001 197.971,382.791 197.067,382.709 196.185 C 382.627 195.303,382.393 194.316,382.190 193.991 C 381.987 193.666,381.816 193.202,381.811 192.961 C 381.798 192.427,380.586 190.690,379.100 189.076 C 378.495 188.419,378.000 187.717,378.000 187.517 C 378.000 187.317,377.839 187.252,377.642 187.374 C 377.445 187.496,377.183 187.334,377.061 187.014 C 376.827 186.404,372.114 184.033,370.400 183.662 C 368.755 183.307,298.667 183.211,297.800 183.563 M128.596 254.002 C 128.154 254.168,127.074 254.407,126.196 254.533 C 125.318 254.660,124.240 254.816,123.800 254.882 C 123.360 254.947,122.730 255.287,122.400 255.637 C 122.070 255.988,121.575 256.198,121.300 256.104 C 121.025 256.010,120.800 256.139,120.800 256.390 C 120.800 256.642,120.659 256.760,120.487 256.653 C 120.314 256.547,119.754 256.986,119.242 257.630 C 118.729 258.273,118.030 258.800,117.688 258.800 C 117.346 258.800,117.189 258.923,117.339 259.072 C 117.741 259.474,115.553 261.614,115.039 261.322 C 114.797 261.184,114.735 261.221,114.901 261.403 C 115.281 261.822,114.064 263.200,113.314 263.200 C 113.006 263.200,112.864 263.380,113.000 263.600 C 113.136 263.820,113.070 264.000,112.854 264.000 C 112.408 264.000,110.553 265.858,109.481 267.380 C 109.086 267.941,108.490 268.400,108.158 268.400 C 107.825 268.400,107.665 268.581,107.802 268.803 C 107.939 269.024,107.724 269.330,107.325 269.483 C 106.926 269.636,106.240 270.196,105.800 270.729 C 104.189 272.680,101.326 275.593,101.165 275.444 C 101.074 275.360,100.494 275.811,99.875 276.446 C 99.256 277.081,98.858 277.600,98.991 277.600 C 99.124 277.600,98.570 278.315,97.761 279.190 C 96.952 280.064,96.107 280.666,95.883 280.528 C 95.660 280.390,95.569 280.439,95.682 280.638 C 95.795 280.837,95.372 281.488,94.744 282.084 C 94.115 282.680,93.600 283.106,93.600 283.031 C 93.600 282.955,90.000 286.482,85.600 290.869 C 81.200 295.256,77.600 298.940,77.600 299.057 C 77.600 299.173,76.941 299.838,76.135 300.534 C 73.284 302.997,71.200 305.068,71.200 305.436 C 71.200 305.641,70.660 306.255,70.000 306.800 C 69.340 307.345,68.800 308.048,68.800 308.362 C 68.800 308.676,68.683 308.816,68.539 308.673 C 68.235 308.369,67.200 310.221,67.200 311.069 C 67.200 311.404,67.006 311.527,66.738 311.362 C 66.446 311.181,66.385 311.252,66.573 311.556 C 66.736 311.819,66.641 312.309,66.363 312.644 C 65.954 313.137,65.635 315.410,65.582 318.200 C 65.562 319.286,65.847 321.051,66.110 321.466 C 66.272 321.722,66.179 322.023,65.902 322.134 C 65.513 322.291,65.518 322.344,65.924 322.368 C 66.212 322.386,66.349 322.560,66.228 322.755 C 66.107 322.950,66.277 323.332,66.604 323.604 C 66.932 323.876,67.200 324.396,67.200 324.760 C 67.200 325.124,67.464 325.798,67.786 326.258 C 68.108 326.719,68.258 327.209,68.119 327.347 C 67.980 327.486,68.177 327.600,68.557 327.600 C 68.937 327.600,69.151 327.755,69.034 327.945 C 68.750 328.405,71.434 330.840,73.092 331.627 C 73.819 331.971,74.319 332.347,74.205 332.462 C 74.090 332.577,74.762 332.912,75.698 333.207 C 76.634 333.503,77.580 333.865,77.800 334.014 C 78.020 334.162,78.830 334.255,79.600 334.220 C 80.370 334.185,81.177 334.247,81.393 334.359 C 82.033 334.690,83.200 334.691,83.200 334.360 C 83.200 334.192,83.938 334.127,84.839 334.217 C 85.885 334.321,86.934 334.137,87.739 333.708 C 88.433 333.338,89.135 333.073,89.300 333.118 C 89.465 333.163,89.600 333.032,89.600 332.827 C 89.600 332.622,89.956 332.341,90.390 332.203 C 90.825 332.065,91.815 331.336,92.590 330.583 C 93.366 329.830,94.000 329.333,94.000 329.477 C 94.000 329.622,95.080 328.627,96.400 327.265 C 97.720 325.903,98.800 324.582,98.800 324.328 C 98.800 324.074,98.907 323.973,99.037 324.104 C 99.420 324.486,101.602 322.331,101.325 321.844 C 101.186 321.600,101.212 321.527,101.384 321.682 C 101.732 321.995,113.459 310.413,113.300 309.914 C 113.245 309.741,113.425 309.645,113.700 309.700 C 113.975 309.755,114.155 309.575,114.100 309.300 C 114.045 309.025,114.145 308.845,114.322 308.900 C 114.769 309.039,127.426 296.358,127.290 295.907 C 127.230 295.705,127.320 295.625,127.490 295.728 C 127.888 295.969,128.831 294.965,128.509 294.643 C 128.376 294.509,128.479 294.400,128.738 294.400 C 129.369 294.400,134.028 289.761,133.713 289.447 C 133.578 289.311,133.695 289.200,133.975 289.200 C 134.573 289.200,142.400 281.461,142.400 280.870 C 142.400 280.648,142.535 280.407,142.700 280.333 C 143.313 280.061,145.236 275.982,144.962 275.538 C 144.796 275.270,144.851 275.184,145.093 275.334 C 145.322 275.475,145.600 275.242,145.712 274.815 C 145.824 274.388,145.730 273.977,145.504 273.901 C 145.270 273.823,145.215 273.383,145.376 272.876 C 145.531 272.388,145.802 272.078,145.979 272.187 C 146.155 272.296,146.300 271.942,146.300 271.400 C 146.300 270.858,146.125 270.523,145.910 270.656 C 145.682 270.796,145.695 270.570,145.941 270.110 C 146.260 269.514,146.205 269.100,145.712 268.395 C 145.354 267.885,145.273 267.598,145.531 267.757 C 146.190 268.165,146.114 267.541,145.377 266.488 C 145.034 265.999,144.856 265.433,144.981 265.232 C 145.105 265.030,144.891 264.548,144.504 264.161 C 144.117 263.774,143.843 263.354,143.895 263.229 C 144.123 262.681,143.404 261.330,142.443 260.500 C 141.869 260.006,141.559 259.601,141.754 259.600 C 141.949 259.600,141.589 259.198,140.954 258.706 C 139.245 257.383,138.823 257.045,138.283 256.568 C 138.013 256.330,137.606 256.198,137.378 256.274 C 137.150 256.350,136.558 256.034,136.061 255.571 C 135.565 255.109,134.910 254.826,134.605 254.943 C 134.301 255.059,133.992 254.977,133.920 254.760 C 133.847 254.542,133.116 254.327,132.294 254.282 C 131.473 254.237,130.797 254.020,130.794 253.800 C 130.791 253.580,130.611 253.670,130.394 254.000 C 130.117 254.422,129.911 254.466,129.700 254.150 C 129.522 253.883,129.074 253.823,128.596 254.002 M267.400 254.299 C 266.960 254.380,266.373 254.521,266.096 254.612 C 265.818 254.704,265.502 254.779,265.392 254.781 C 265.282 254.783,264.655 255.061,264.000 255.400 C 263.345 255.739,262.692 255.997,262.549 255.974 C 262.406 255.951,262.141 256.172,261.959 256.466 C 261.778 256.760,261.488 257.001,261.315 257.001 C 260.881 257.003,256.636 261.199,257.059 261.206 C 257.247 261.209,257.206 261.344,256.968 261.506 C 255.054 262.808,252.750 274.400,254.405 274.400 C 254.648 274.400,254.744 274.568,254.617 274.772 C 254.491 274.977,254.570 275.258,254.793 275.396 C 255.017 275.534,255.200 276.027,255.200 276.492 C 255.200 276.957,255.515 277.697,255.900 278.137 C 256.380 278.685,256.413 278.827,256.007 278.588 C 255.681 278.396,255.824 278.770,256.325 279.419 C 257.949 281.526,308.170 331.600,308.659 331.600 C 308.920 331.600,309.193 331.742,309.267 331.916 C 309.901 333.421,319.109 335.518,319.846 334.326 C 319.964 334.135,320.272 334.020,320.530 334.070 C 321.518 334.260,324.199 333.502,325.133 332.767 C 325.669 332.345,326.359 332.000,326.666 332.000 C 326.974 332.000,327.328 331.731,327.454 331.402 C 327.581 331.074,327.800 330.876,327.942 330.963 C 328.084 331.050,328.893 330.419,329.741 329.561 C 330.588 328.702,331.166 328.000,331.025 328.000 C 330.884 328.000,330.958 327.775,331.190 327.500 C 333.096 325.238,334.326 322.145,334.053 320.300 C 333.996 319.915,334.123 319.600,334.335 319.600 C 334.855 319.600,334.492 313.904,333.950 313.569 C 333.720 313.427,333.556 313.151,333.585 312.955 C 333.672 312.374,332.263 309.200,331.918 309.200 C 331.743 309.200,331.600 308.972,331.600 308.693 C 331.600 308.181,281.616 258.019,279.419 256.325 C 278.770 255.824,278.396 255.681,278.588 256.007 C 278.862 256.472,278.772 256.461,278.169 255.954 C 277.433 255.335,275.331 254.596,274.700 254.734 C 274.535 254.770,274.400 254.627,274.400 254.416 C 274.400 254.056,269.184 253.968,267.400 254.299 M197.800 283.547 C 197.360 283.735,196.686 283.839,196.301 283.779 C 195.917 283.720,194.703 284.105,193.603 284.636 C 192.504 285.166,191.412 285.600,191.178 285.600 C 190.944 285.600,190.864 285.780,191.000 286.000 C 191.137 286.221,190.849 286.400,190.357 286.400 C 189.867 286.400,189.562 286.496,189.679 286.613 C 189.961 286.895,187.086 289.863,186.700 289.689 C 186.535 289.614,186.400 289.934,186.400 290.400 C 186.400 290.866,186.220 291.136,186.000 291.000 C 185.780 290.864,185.600 290.921,185.600 291.126 C 185.600 291.331,185.202 292.376,184.716 293.449 C 184.230 294.522,183.744 296.030,183.636 296.800 C 183.367 298.730,183.390 369.159,183.660 370.400 C 184.036 372.121,186.405 376.827,187.014 377.061 C 187.334 377.183,187.496 377.445,187.374 377.642 C 187.252 377.839,187.317 378.000,187.517 378.000 C 187.717 378.000,188.419 378.495,189.076 379.100 C 190.690 380.586,192.427 381.798,192.961 381.811 C 193.202 381.816,193.666 381.987,193.991 382.190 C 194.316 382.393,195.303 382.627,196.185 382.709 C 197.067 382.791,197.971 383.001,198.194 383.176 C 198.657 383.538,201.101 383.478,202.000 383.083 C 202.330 382.937,203.237 382.759,204.015 382.686 C 204.793 382.613,205.693 382.388,206.015 382.187 C 206.337 381.986,206.798 381.816,207.039 381.811 C 207.573 381.798,209.310 380.586,210.924 379.100 C 211.581 378.495,212.283 378.000,212.483 378.000 C 212.683 378.000,212.748 377.839,212.626 377.642 C 212.504 377.445,212.666 377.183,212.986 377.061 C 213.595 376.827,215.964 372.121,216.340 370.400 C 216.610 369.159,216.633 298.730,216.364 296.800 C 216.256 296.030,215.770 294.522,215.284 293.449 C 214.798 292.376,214.400 291.331,214.400 291.126 C 214.400 290.921,214.220 290.864,214.000 291.000 C 213.779 291.137,213.600 290.849,213.600 290.357 C 213.600 289.867,213.504 289.562,213.387 289.679 C 213.105 289.961,210.137 287.086,210.311 286.700 C 210.386 286.535,210.066 286.400,209.600 286.400 C 209.134 286.400,208.864 286.220,209.000 286.000 C 209.136 285.780,209.079 285.600,208.874 285.600 C 208.669 285.600,207.624 285.200,206.551 284.712 C 205.478 284.223,204.150 283.779,203.600 283.725 C 203.050 283.671,201.700 283.533,200.600 283.417 C 199.500 283.302,198.240 283.360,197.800 283.547 " stroke="none" fill="#a451bd" fill-rule="evenodd"></path></g></svg>