<svg id="svg" xmlns="http://www.w3.org/2000/svg" xmlns:xlink="http://www.w3.org/1999/xlink" width="400" height="400" viewBox="0, 0, 400,400" version="1.1"><g id="svgg"><path id="path0" d="M161.600 33.447 C 153.740 34.616,149.055 36.039,143.400 38.975 C 129.882 45.994,119.978 59.481,117.434 74.335 C 116.647 78.927,116.412 83.033,116.405 92.281 L 116.400 99.961 87.300 100.105 C 54.906 100.264,57.266 100.077,48.853 103.154 C 32.980 108.960,20.832 123.419,17.315 140.690 C 16.184 146.244,16.210 320.825,17.342 325.979 C 22.165 347.928,38.109 363.066,59.877 366.364 C 63.943 366.980,336.057 366.980,340.123 366.364 C 361.891 363.066,377.835 347.928,382.658 325.979 C 383.790 320.825,383.816 146.244,382.685 140.690 C 379.168 123.419,367.020 108.960,351.147 103.154 C 342.734 100.077,345.094 100.264,312.700 100.105 L 283.600 99.961 283.595 92.281 C 283.585 79.350,282.967 73.810,280.824 67.470 C 275.056 50.407,261.787 38.589,243.400 34.138 C 240.799 33.508,165.466 32.872,161.600 33.447 M236.205 67.235 C 246.366 69.113,249.560 74.450,249.889 90.100 L 250.097 100.000 200.000 100.000 L 149.903 100.000 150.111 90.100 C 150.436 74.644,153.383 69.523,163.200 67.353 C 166.162 66.699,232.721 66.591,236.205 67.235 M116.400 233.413 L 116.400 333.227 89.700 333.113 L 63.000 333.000 60.699 332.071 C 56.193 330.251,53.136 327.050,51.099 322.020 L 50.200 319.800 50.085 235.000 C 49.953 137.833,49.668 144.481,54.186 139.295 C 59.162 133.582,58.864 133.629,90.100 133.613 L 116.400 133.600 116.400 233.413 M250.000 233.400 L 250.000 333.200 200.000 333.200 L 150.000 333.200 150.000 233.400 L 150.000 133.600 200.000 133.600 L 250.000 133.600 250.000 233.400 M338.479 134.427 C 344.507 136.457,348.513 141.207,349.592 147.600 C 349.903 149.445,349.997 174.839,349.915 235.000 L 349.800 319.800 348.901 322.020 C 346.864 327.050,343.807 330.251,339.301 332.071 L 337.000 333.000 310.300 333.113 L 283.600 333.227 283.600 233.413 L 283.600 133.600 309.813 133.600 C 335.250 133.600,336.098 133.624,338.479 134.427 " stroke="none" fill="#0fc8e0" fill-rule="evenodd"></path><path id="path1" d="" stroke="none" fill="#0fc8e0" fill-rule="evenodd"></path><path id="path2" d="" stroke="none" fill="#0fc8e0" fill-rule="evenodd"></path><path id="path3" d="" stroke="none" fill="#0fc8e0" fill-rule="evenodd"></path><path id="path4" d="" stroke="none" fill="#0fc8e0" fill-rule="evenodd"></path></g></svg>