<svg id="svg" xmlns="http://www.w3.org/2000/svg" xmlns:xlink="http://www.w3.org/1999/xlink" width="400" height="400" viewBox="0, 0, 400,400" version="1.1"><g id="svgg"><path id="path0" d="M193.592 16.523 C 193.487 16.618,191.060 16.808,188.200 16.945 C 169.096 17.858,137.655 25.567,125.323 32.363 C 124.925 32.582,122.455 33.764,119.833 34.989 C 46.440 69.286,4.098 153.740,19.804 234.510 C 22.426 247.998,28.676 267.987,32.363 274.677 C 32.582 275.075,33.764 277.545,34.989 280.167 C 72.010 359.390,166.166 401.205,251.200 376.186 C 259.017 373.886,271.753 369.249,274.677 367.637 C 275.075 367.418,277.545 366.236,280.167 365.011 C 349.685 332.525,392.035 254.303,382.016 176.890 C 379.789 159.687,372.840 134.765,367.637 125.323 C 367.418 124.925,366.236 122.455,365.011 119.833 C 339.604 65.465,284.179 25.673,223.200 18.023 C 214.132 16.885,194.302 15.880,193.592 16.523 M159.595 58.408 C 158.489 60.173,156.812 62.828,155.868 64.308 C 137.111 93.724,121.589 139.386,118.172 175.200 C 118.014 176.850,117.776 179.280,117.643 180.600 L 117.400 183.000 84.271 183.102 L 51.142 183.205 51.412 180.902 C 53.502 163.092,60.998 140.756,69.943 125.682 C 70.635 124.518,71.200 123.493,71.200 123.404 C 71.200 121.147,85.887 102.460,94.173 94.173 C 102.397 85.950,121.155 71.200,123.390 71.200 C 123.486 71.200,124.518 70.635,125.682 69.943 C 132.953 65.629,146.277 59.796,154.800 57.196 C 157.110 56.491,159.450 55.768,160.000 55.589 C 160.550 55.410,161.136 55.249,161.303 55.232 C 161.469 55.214,160.701 56.644,159.595 58.408 M244.600 57.000 C 253.762 59.813,266.858 65.517,274.318 69.943 C 275.482 70.635,276.507 71.200,276.596 71.200 C 278.853 71.200,297.540 85.887,305.827 94.173 C 314.050 102.397,328.800 121.155,328.800 123.390 C 328.800 123.486,329.365 124.518,330.056 125.682 C 339.002 140.767,346.499 163.107,348.588 180.902 L 348.858 183.205 315.729 183.102 L 282.600 183.000 282.357 180.600 C 282.224 179.280,281.986 176.850,281.828 175.200 C 279.534 151.148,271.288 120.357,260.674 96.200 C 255.797 85.102,248.848 71.704,244.132 64.308 C 238.911 56.120,238.354 55.131,239.075 55.329 C 239.474 55.437,241.960 56.190,244.600 57.000 M202.064 62.300 C 205.586 66.845,214.129 79.533,216.602 83.892 C 234.642 115.688,243.938 143.315,248.200 177.800 C 248.527 180.440,248.795 182.735,248.797 182.900 C 248.799 183.065,226.840 183.200,200.000 183.200 C 173.160 183.200,151.201 183.065,151.203 182.900 C 151.205 182.735,151.473 180.440,151.800 177.800 C 156.062 143.315,165.358 115.688,183.398 83.892 C 187.102 77.365,199.168 60.000,200.000 60.000 C 200.155 60.000,201.084 61.035,202.064 62.300 M117.643 219.400 C 117.776 220.720,118.014 223.150,118.172 224.800 C 120.466 248.852,128.712 279.642,139.326 303.800 C 144.203 314.898,151.152 328.296,155.868 335.692 C 161.089 343.880,161.646 344.869,160.925 344.671 C 149.587 341.573,134.651 335.379,125.682 330.057 C 124.518 329.365,123.493 328.800,123.404 328.800 C 121.147 328.800,102.460 314.113,94.173 305.827 C 85.950 297.603,71.200 278.845,71.200 276.610 C 71.200 276.514,70.635 275.482,69.944 274.318 C 60.998 259.233,53.501 236.893,51.412 219.098 L 51.142 216.795 84.271 216.898 L 117.400 217.000 117.643 219.400 M248.797 217.100 C 248.795 217.265,248.527 219.560,248.200 222.200 C 243.936 256.704,234.651 284.295,216.602 316.108 C 213.976 320.736,203.546 336.109,201.184 338.835 L 200.000 340.200 198.816 338.835 C 196.454 336.109,186.024 320.736,183.398 316.108 C 165.349 284.295,156.064 256.704,151.800 222.200 C 151.473 219.560,151.205 217.265,151.203 217.100 C 151.201 216.935,173.160 216.800,200.000 216.800 C 226.840 216.800,248.799 216.935,248.797 217.100 M348.588 219.100 C 346.498 236.907,339.001 259.245,330.057 274.318 C 329.365 275.482,328.800 276.507,328.800 276.596 C 328.800 278.853,314.113 297.540,305.827 305.827 C 297.603 314.050,278.845 328.800,276.610 328.800 C 276.514 328.800,275.482 329.365,274.318 330.056 C 268.427 333.549,258.298 338.219,250.400 341.082 C 246.710 342.419,238.709 344.855,238.563 344.684 C 238.524 344.638,240.091 342.080,242.047 339.000 C 261.377 308.558,275.461 270.380,280.560 234.600 C 281.505 227.971,281.692 226.385,282.213 220.600 C 282.352 219.060,282.535 217.575,282.620 217.300 C 282.742 216.905,289.732 216.800,315.816 216.800 L 348.858 216.800 348.588 219.100 " stroke="none" fill="#0fc8e0" fill-rule="evenodd"></path><path id="path1" d="" stroke="none" fill="#a854bc" fill-rule="evenodd"></path><path id="path2" d="" stroke="none" fill="#a854bc" fill-rule="evenodd"></path><path id="path3" d="" stroke="none" fill="#a854bc" fill-rule="evenodd"></path><path id="path4" d="" stroke="none" fill="#a854bc" fill-rule="evenodd"></path></g></svg>