<svg id="svg" xmlns="http://www.w3.org/2000/svg" xmlns:xlink="http://www.w3.org/1999/xlink" width="400" height="400" viewBox="0, 0, 400,400" version="1.1"><g id="svgg"><path id="path0" d="M143.179 33.338 C 143.081 33.428,141.955 33.612,140.679 33.746 C 84.152 39.713,50.131 100.747,74.539 152.400 C 84.969 174.472,106.066 191.887,129.200 197.523 C 146.025 201.621,163.514 200.699,179.000 194.896 C 233.152 174.603,250.976 107.307,213.934 63.000 C 201.363 47.964,182.453 37.129,164.000 34.389 C 162.350 34.144,160.550 33.847,160.000 33.729 C 158.776 33.466,143.430 33.110,143.179 33.338 M263.600 35.748 C 250.354 38.265,245.319 54.674,254.954 63.926 C 257.858 66.715,259.308 67.508,264.409 69.101 C 296.471 79.113,309.883 115.923,291.700 144.000 C 290.489 145.870,289.383 147.490,289.243 147.600 C 289.103 147.710,288.214 148.740,287.267 149.889 C 282.118 156.133,273.425 161.522,263.200 164.810 C 254.264 167.684,250.213 172.793,250.204 181.200 C 250.192 194.164,261.288 201.014,274.967 196.487 C 279.024 195.144,279.738 194.862,284.600 192.677 C 338.073 168.653,350.308 98.209,308.171 56.969 C 294.807 43.890,273.681 33.832,263.600 35.748 M160.400 67.962 C 198.767 76.664,212.857 122.991,185.723 151.224 C 166.258 171.478,133.742 171.478,114.277 151.224 C 85.509 121.291,103.260 72.341,144.800 67.049 C 147.819 66.665,157.066 67.205,160.400 67.962 M72.600 233.995 C 34.704 239.221,6.341 267.291,0.791 305.062 C -0.278 312.335,-0.422 351.890,0.610 354.850 C 5.463 368.775,23.294 371.007,31.085 358.666 C 33.290 355.173,33.296 355.107,33.617 331.200 C 33.935 307.463,33.920 307.648,36.171 300.887 C 41.937 283.574,56.797 270.878,75.200 267.544 C 80.494 266.584,220.992 266.756,225.800 267.728 C 243.829 271.371,258.161 283.869,263.829 300.887 C 266.082 307.652,266.065 307.455,266.374 331.200 C 266.690 355.525,266.669 355.322,269.172 358.959 C 277.466 371.014,294.567 368.688,299.390 354.850 C 300.424 351.882,300.278 312.308,299.206 305.122 C 293.485 266.762,264.466 238.430,226.184 233.827 C 217.735 232.811,80.092 232.962,72.600 233.995 M331.021 235.664 C 319.732 237.086,313.244 249.386,318.397 259.595 C 320.906 264.564,323.308 266.383,330.816 268.997 C 345.675 274.170,355.492 282.548,361.522 295.200 C 365.904 304.396,366.062 305.574,366.385 331.400 C 366.686 355.513,366.667 355.318,369.172 358.959 C 377.474 371.026,394.562 368.702,399.390 354.850 C 400.263 352.346,400.288 312.734,399.421 306.163 C 395.112 273.490,372.258 246.421,340.932 236.885 C 336.078 235.407,334.550 235.219,331.021 235.664 " stroke="none" fill="#0fc8e0" fill-rule="evenodd"></path><path id="path1" d="" stroke="none" fill="#a854bc" fill-rule="evenodd"></path><path id="path2" d="" stroke="none" fill="#a854bc" fill-rule="evenodd"></path><path id="path3" d="" stroke="none" fill="#a854bc" fill-rule="evenodd"></path><path id="path4" d="" stroke="none" fill="#a854bc" fill-rule="evenodd"></path></g></svg>