<svg id="svg" xmlns="http://www.w3.org/2000/svg" xmlns:xlink="http://www.w3.org/1999/xlink" width="400" height="400" viewBox="0, 0, 400,400" version="1.1"><g id="svgg"><path id="path0" d="M199.100 33.482 C 199.595 33.578,200.405 33.578,200.900 33.482 C 201.395 33.387,200.990 33.309,200.000 33.309 C 199.010 33.309,198.605 33.387,199.100 33.482 M170.865 50.217 C 170.195 51.688,170.323 52.002,171.047 50.665 C 171.386 50.040,171.588 49.454,171.496 49.363 C 171.405 49.271,171.121 49.656,170.865 50.217 M228.428 49.400 C 228.428 49.620,228.686 50.250,229.000 50.800 C 229.314 51.350,229.572 51.620,229.572 51.400 C 229.572 51.180,229.314 50.550,229.000 50.000 C 228.686 49.450,228.428 49.180,228.428 49.400 M145.729 366.700 C 152.730 366.761,164.070 366.761,170.929 366.700 C 177.788 366.638,172.060 366.588,158.200 366.588 C 144.340 366.588,138.728 366.639,145.729 366.700 M229.329 366.700 C 236.330 366.761,247.670 366.761,254.529 366.700 C 261.388 366.638,255.660 366.588,241.800 366.588 C 227.940 366.588,222.328 366.639,229.329 366.700 " stroke="none" fill="#a451bd" fill-rule="evenodd"></path><path id="path1" d="" stroke="none" fill="#a451bd" fill-rule="evenodd"></path><path id="path2" d="M191.600 0.457 C 190.610 0.633,189.121 0.867,188.290 0.976 C 187.090 1.134,184.650 1.726,183.200 2.211 C 183.090 2.248,182.235 2.419,181.300 2.590 C 180.365 2.762,179.600 3.059,179.600 3.251 C 179.600 3.443,179.465 3.579,179.300 3.553 C 179.135 3.527,178.910 3.540,178.800 3.582 C 178.690 3.625,178.234 3.729,177.787 3.814 C 175.324 4.282,164.400 9.700,164.400 10.453 C 164.400 10.670,164.220 10.736,164.000 10.600 C 163.780 10.464,163.600 10.573,163.600 10.843 C 163.600 11.113,163.489 11.222,163.352 11.086 C 163.216 10.950,162.886 11.055,162.618 11.319 C 162.351 11.584,161.632 12.160,161.022 12.600 C 160.411 13.040,159.661 13.638,159.356 13.929 C 159.050 14.219,158.800 14.347,158.800 14.212 C 158.800 13.870,156.016 16.421,152.265 20.200 C 148.897 23.593,144.400 29.311,144.400 30.201 C 144.400 30.494,144.198 30.801,143.951 30.883 C 143.081 31.173,138.108 40.744,138.330 41.700 C 138.369 41.865,138.220 42.000,138.000 42.000 C 137.780 42.000,137.621 42.135,137.647 42.300 C 137.673 42.465,137.651 42.735,137.597 42.900 C 137.544 43.065,137.455 43.380,137.400 43.600 C 137.345 43.820,137.255 44.090,137.200 44.200 C 137.145 44.310,137.055 44.580,137.000 44.800 C 136.945 45.020,136.855 45.290,136.800 45.400 C 136.745 45.510,136.655 45.780,136.600 46.000 C 136.545 46.220,136.464 46.445,136.419 46.500 C 136.375 46.555,136.280 46.870,136.209 47.200 C 136.138 47.530,135.698 49.206,135.231 50.924 C 134.765 52.643,134.480 54.205,134.598 54.397 C 134.716 54.588,134.648 54.847,134.447 54.971 C 134.245 55.096,134.077 55.783,134.072 56.499 C 134.068 57.214,133.877 58.610,133.647 59.600 C 133.363 60.824,133.261 84.491,133.329 133.600 C 133.419 199.521,133.519 208.082,134.229 211.200 C 134.354 211.750,134.511 212.560,134.577 213.000 C 134.644 213.440,134.735 213.800,134.780 213.800 C 134.892 213.800,135.183 215.134,135.419 216.731 C 135.527 217.463,135.964 218.746,136.391 219.581 C 136.817 220.417,137.073 221.194,136.959 221.307 C 136.846 221.421,137.060 222.208,137.435 223.057 C 137.810 223.906,138.185 224.954,138.269 225.387 C 138.353 225.819,138.724 226.629,139.095 227.187 C 139.465 227.744,139.825 228.551,139.894 228.980 C 139.963 229.408,140.365 230.308,140.788 230.980 C 141.210 231.651,141.856 232.785,142.224 233.500 C 142.591 234.215,143.051 234.800,143.246 234.800 C 143.441 234.800,143.600 235.041,143.600 235.335 C 143.600 237.101,156.537 251.730,157.365 250.901 C 157.494 250.772,157.609 250.922,157.620 251.233 C 157.640 251.796,162.856 255.749,164.265 256.270 C 164.669 256.419,165.090 256.669,165.200 256.826 C 165.389 257.095,166.875 258.028,169.279 259.388 C 169.872 259.724,170.682 260.051,171.079 260.115 C 171.475 260.179,172.256 260.535,172.813 260.905 C 173.371 261.276,174.181 261.647,174.613 261.731 C 175.046 261.815,176.094 262.190,176.943 262.565 C 177.792 262.940,178.580 263.153,178.694 263.039 C 178.808 262.925,179.436 263.108,180.090 263.446 C 180.743 263.784,181.666 264.148,182.139 264.254 C 182.613 264.360,183.180 264.498,183.400 264.561 C 184.501 264.875,185.902 265.210,186.800 265.375 C 187.350 265.476,188.250 265.659,188.800 265.780 C 193.269 266.770,206.731 266.770,211.200 265.780 C 211.750 265.659,212.650 265.476,213.200 265.375 C 214.098 265.210,215.499 264.875,216.600 264.561 C 216.820 264.498,217.387 264.360,217.861 264.254 C 218.334 264.148,219.257 263.784,219.910 263.446 C 220.564 263.108,221.192 262.925,221.306 263.039 C 221.420 263.153,222.208 262.940,223.057 262.565 C 223.906 262.190,224.954 261.815,225.387 261.731 C 225.819 261.647,226.629 261.276,227.187 260.905 C 227.744 260.535,228.525 260.179,228.921 260.115 C 229.318 260.051,230.128 259.724,230.721 259.388 C 233.125 258.028,234.611 257.095,234.800 256.826 C 234.910 256.669,235.331 256.419,235.735 256.270 C 237.144 255.749,242.360 251.796,242.380 251.233 C 242.391 250.922,242.506 250.772,242.635 250.901 C 243.463 251.730,256.400 237.101,256.400 235.335 C 256.400 235.041,256.559 234.800,256.754 234.800 C 256.949 234.800,257.409 234.215,257.776 233.500 C 258.144 232.785,258.790 231.651,259.212 230.980 C 259.635 230.308,260.037 229.408,260.106 228.980 C 260.175 228.551,260.535 227.744,260.905 227.187 C 261.276 226.629,261.647 225.819,261.731 225.387 C 261.815 224.954,262.190 223.906,262.565 223.057 C 262.940 222.208,263.154 221.421,263.041 221.307 C 262.927 221.194,263.183 220.417,263.609 219.581 C 264.036 218.746,264.473 217.463,264.581 216.731 C 264.817 215.134,265.108 213.800,265.220 213.800 C 265.265 213.800,265.356 213.440,265.423 213.000 C 265.489 212.560,265.646 211.750,265.771 211.200 C 266.481 208.082,266.581 199.521,266.671 133.600 C 266.739 84.491,266.637 60.824,266.353 59.600 C 266.123 58.610,265.932 57.214,265.928 56.499 C 265.923 55.783,265.755 55.096,265.553 54.971 C 265.352 54.847,265.284 54.588,265.402 54.397 C 265.520 54.205,265.235 52.643,264.769 50.924 C 264.302 49.206,263.862 47.530,263.791 47.200 C 263.720 46.870,263.625 46.555,263.581 46.500 C 263.536 46.445,263.455 46.220,263.400 46.000 C 263.345 45.780,263.255 45.510,263.200 45.400 C 263.145 45.290,263.055 45.020,263.000 44.800 C 262.945 44.580,262.855 44.310,262.800 44.200 C 262.745 44.090,262.655 43.820,262.600 43.600 C 262.545 43.380,262.456 43.065,262.403 42.900 C 262.349 42.735,262.327 42.465,262.353 42.300 C 262.379 42.135,262.220 42.000,262.000 42.000 C 261.780 42.000,261.637 41.865,261.682 41.700 C 261.727 41.535,261.454 40.817,261.074 40.104 C 260.694 39.391,260.386 38.717,260.388 38.606 C 260.406 37.668,256.720 31.107,256.049 30.883 C 255.802 30.801,255.600 30.494,255.600 30.201 C 255.600 29.311,251.103 23.593,247.735 20.200 C 243.984 16.421,241.200 13.870,241.200 14.212 C 241.200 14.347,240.950 14.219,240.644 13.929 C 240.339 13.638,239.589 13.040,238.978 12.600 C 238.368 12.160,237.649 11.584,237.382 11.319 C 237.114 11.055,236.784 10.950,236.648 11.086 C 236.511 11.222,236.400 11.113,236.400 10.843 C 236.400 10.573,236.220 10.464,236.000 10.600 C 235.780 10.736,235.600 10.670,235.600 10.453 C 235.600 9.700,224.676 4.282,222.213 3.814 C 221.766 3.729,221.310 3.625,221.200 3.582 C 221.090 3.540,220.865 3.527,220.700 3.553 C 220.535 3.579,220.400 3.443,220.400 3.251 C 220.400 3.059,219.635 2.762,218.700 2.590 C 217.765 2.419,216.910 2.248,216.800 2.211 C 215.187 1.671,212.893 1.142,211.616 1.015 C 210.735 0.927,209.793 0.719,209.524 0.553 C 208.855 0.139,193.836 0.059,191.600 0.457 M203.200 33.602 C 207.382 34.223,210.870 35.134,212.516 36.035 C 212.910 36.251,213.405 36.320,213.616 36.190 C 213.827 36.060,214.000 36.131,214.000 36.349 C 214.000 36.568,214.379 36.866,214.841 37.013 C 215.655 37.271,218.078 38.749,219.100 39.610 C 219.375 39.842,219.600 39.943,219.600 39.834 C 219.600 39.725,220.024 40.033,220.543 40.518 C 224.777 44.477,225.600 45.280,225.600 45.454 C 225.600 45.737,227.635 48.465,228.470 49.302 C 228.855 49.688,229.358 50.702,229.588 51.555 C 229.818 52.409,230.274 53.330,230.603 53.602 C 230.931 53.875,231.200 54.515,231.200 55.025 C 231.200 55.535,231.383 56.066,231.607 56.204 C 231.830 56.342,231.909 56.623,231.783 56.828 C 231.656 57.032,231.693 57.425,231.865 57.700 C 232.036 57.975,232.222 58.470,232.276 58.800 C 232.331 59.130,232.553 60.300,232.769 61.400 C 233.017 62.658,233.184 88.787,233.219 131.800 C 233.250 169.420,233.277 200.650,233.280 201.200 C 233.284 202.065,233.066 204.037,232.639 207.000 C 232.575 207.440,232.232 208.482,231.876 209.315 C 231.519 210.149,231.177 211.139,231.114 211.515 C 230.967 212.401,228.503 217.120,227.548 218.347 C 227.143 218.868,226.926 219.481,227.067 219.709 C 227.208 219.937,227.161 220.024,226.962 219.902 C 226.763 219.780,225.790 220.718,224.800 221.987 C 223.810 223.256,222.252 224.812,221.338 225.446 C 220.423 226.080,219.776 226.762,219.899 226.961 C 220.023 227.160,219.937 227.208,219.709 227.067 C 219.481 226.926,218.868 227.143,218.347 227.548 C 217.208 228.435,212.000 231.268,212.000 231.000 C 212.000 230.897,211.086 231.172,209.969 231.612 C 208.852 232.053,207.323 232.492,206.572 232.588 C 205.821 232.684,204.530 232.891,203.703 233.049 C 201.627 233.444,198.480 233.477,196.768 233.123 C 195.980 232.960,194.601 232.734,193.703 232.621 C 192.805 232.509,191.155 232.055,190.035 231.614 C 188.916 231.173,188.000 230.897,188.000 231.000 C 188.000 231.268,182.792 228.435,181.653 227.548 C 181.132 227.143,180.519 226.926,180.291 227.067 C 180.063 227.208,179.977 227.160,180.101 226.961 C 180.224 226.762,179.577 226.080,178.662 225.446 C 177.748 224.812,176.190 223.256,175.200 221.987 C 174.210 220.718,173.237 219.780,173.038 219.902 C 172.839 220.024,172.792 219.937,172.933 219.709 C 173.074 219.481,172.857 218.868,172.452 218.347 C 171.497 217.120,169.033 212.401,168.886 211.515 C 168.823 211.139,168.481 210.149,168.124 209.315 C 167.768 208.482,167.425 207.440,167.361 207.000 C 166.934 204.037,166.716 202.065,166.720 201.200 C 166.723 200.650,166.750 169.420,166.781 131.800 C 166.816 88.787,166.983 62.658,167.231 61.400 C 167.447 60.300,167.669 59.130,167.724 58.800 C 167.778 58.470,167.964 57.975,168.135 57.700 C 168.307 57.425,168.344 57.032,168.217 56.828 C 168.091 56.623,168.170 56.342,168.393 56.204 C 168.617 56.066,168.800 55.535,168.800 55.025 C 168.800 54.515,169.069 53.875,169.397 53.602 C 169.726 53.330,170.182 52.409,170.412 51.555 C 170.642 50.702,171.145 49.688,171.530 49.302 C 172.365 48.465,174.400 45.737,174.400 45.454 C 174.400 45.280,175.223 44.477,179.457 40.518 C 179.976 40.033,180.400 39.725,180.400 39.834 C 180.400 39.943,180.625 39.842,180.900 39.610 C 181.922 38.749,184.345 37.271,185.159 37.013 C 185.621 36.866,186.000 36.568,186.000 36.349 C 186.000 36.131,186.173 36.060,186.384 36.190 C 186.595 36.320,187.090 36.251,187.484 36.035 C 189.050 35.177,192.650 34.219,196.600 33.609 C 199.449 33.169,200.276 33.168,203.200 33.602 M78.933 150.569 C 78.237 150.879,77.562 151.028,77.433 150.900 C 77.305 150.772,77.200 150.877,77.200 151.133 C 77.200 151.390,76.862 151.600,76.449 151.600 C 76.036 151.600,75.474 151.870,75.200 152.200 C 74.926 152.530,74.464 152.800,74.173 152.800 C 73.493 152.800,69.701 156.644,68.952 158.092 C 68.637 158.702,68.487 159.200,68.618 159.200 C 68.750 159.200,68.574 159.483,68.229 159.829 C 67.883 160.174,67.577 160.669,67.549 160.929 C 67.450 161.842,67.238 163.015,66.921 164.400 C 66.206 167.522,66.598 207.284,67.414 214.400 C 67.553 215.610,67.667 216.870,67.667 217.200 C 67.667 217.530,67.761 218.070,67.875 218.400 C 67.989 218.730,68.146 219.630,68.223 220.400 C 68.300 221.170,68.478 222.250,68.619 222.800 C 68.760 223.350,68.867 224.152,68.856 224.582 C 68.846 225.011,68.986 225.551,69.167 225.782 C 69.349 226.012,69.446 226.515,69.384 226.900 C 69.322 227.285,69.445 227.600,69.659 227.600 C 69.873 227.600,69.940 227.773,69.809 227.985 C 69.555 228.396,71.359 235.602,72.029 236.854 C 72.249 237.264,72.310 237.600,72.165 237.600 C 72.020 237.600,72.070 237.825,72.276 238.100 C 72.481 238.375,72.634 238.870,72.615 239.200 C 72.596 239.530,72.812 240.040,73.094 240.332 C 73.376 240.625,73.521 241.004,73.416 241.174 C 73.011 241.830,78.480 256.038,79.251 256.333 C 79.443 256.407,79.600 256.712,79.600 257.012 C 79.600 257.501,80.825 260.045,81.812 261.607 C 82.019 261.933,82.199 262.290,82.214 262.400 C 82.318 263.212,82.920 264.400,83.227 264.400 C 83.432 264.400,83.600 264.648,83.600 264.952 C 83.600 265.596,86.186 270.014,86.907 270.601 C 87.178 270.822,87.451 271.247,87.514 271.544 C 87.577 271.842,87.892 272.349,88.214 272.671 C 88.536 272.994,88.800 273.514,88.800 273.829 C 88.800 274.143,88.972 274.400,89.181 274.400 C 89.391 274.400,89.869 275.047,90.244 275.837 C 90.619 276.627,91.168 277.366,91.463 277.480 C 91.758 277.593,92.000 277.896,92.000 278.154 C 92.000 278.613,93.802 280.938,95.423 282.571 C 95.876 283.027,96.629 284.032,97.097 284.805 C 97.565 285.578,98.410 286.612,98.974 287.103 C 99.538 287.593,100.000 288.176,100.000 288.397 C 100.000 288.619,100.217 288.755,100.482 288.700 C 100.747 288.645,100.972 288.819,100.982 289.087 C 100.997 289.501,103.030 291.542,113.000 301.152 C 113.660 301.788,114.740 302.639,115.400 303.041 C 116.060 303.444,116.973 304.140,117.429 304.587 C 119.113 306.239,121.392 308.000,121.846 308.000 C 122.104 308.000,122.407 308.242,122.520 308.537 C 122.634 308.832,123.373 309.381,124.163 309.756 C 124.953 310.131,125.600 310.609,125.600 310.819 C 125.600 311.028,125.857 311.200,126.171 311.200 C 126.486 311.200,127.006 311.464,127.329 311.786 C 127.651 312.108,128.158 312.423,128.456 312.486 C 128.753 312.549,129.178 312.822,129.399 313.093 C 129.986 313.814,134.404 316.400,135.048 316.400 C 135.352 316.400,135.600 316.568,135.600 316.773 C 135.600 317.148,136.792 317.673,137.239 317.495 C 137.370 317.443,137.749 317.625,138.081 317.901 C 139.035 318.693,142.387 320.400,142.988 320.400 C 143.288 320.400,143.593 320.557,143.667 320.749 C 143.962 321.520,158.170 326.989,158.826 326.584 C 158.996 326.479,159.420 326.677,159.768 327.025 C 160.115 327.373,160.400 327.572,160.400 327.468 C 160.400 327.364,161.194 327.517,162.163 327.809 C 163.133 328.101,164.033 328.233,164.163 328.103 C 164.294 327.973,164.400 328.077,164.400 328.333 C 164.400 328.595,164.981 328.800,165.720 328.800 C 166.446 328.800,167.256 329.016,167.520 329.280 C 167.784 329.544,168.000 329.612,168.000 329.431 C 168.000 329.250,168.246 329.306,168.547 329.556 C 168.848 329.806,169.837 330.053,170.745 330.105 C 171.653 330.157,172.397 330.319,172.398 330.465 C 172.399 330.610,172.715 330.678,173.100 330.616 C 173.485 330.554,173.988 330.651,174.218 330.833 C 174.449 331.014,174.989 331.154,175.418 331.144 C 175.848 331.133,176.650 331.240,177.200 331.381 C 177.750 331.522,178.830 331.700,179.600 331.777 C 180.370 331.854,181.306 332.042,181.681 332.194 C 182.055 332.346,182.550 332.354,182.781 332.212 C 183.071 332.033,183.200 337.334,183.200 349.385 L 183.200 366.818 156.565 366.789 C 136.496 366.767,129.788 366.878,129.355 367.237 C 129.039 367.499,128.673 367.607,128.542 367.476 C 128.061 366.995,123.445 369.717,121.581 371.581 C 119.717 373.445,116.995 378.061,117.476 378.542 C 117.607 378.673,117.482 379.060,117.199 379.401 C 116.513 380.227,116.522 386.216,117.211 387.800 C 117.498 388.460,117.748 389.120,117.766 389.267 C 117.785 389.413,117.935 389.668,118.100 389.833 C 118.265 389.998,118.400 390.364,118.400 390.647 C 118.400 392.818,124.902 398.791,127.277 398.802 C 127.565 398.804,128.314 399.073,128.941 399.400 C 130.670 400.302,269.330 400.302,271.059 399.400 C 271.686 399.073,272.435 398.804,272.723 398.802 C 275.098 398.791,281.600 392.818,281.600 390.647 C 281.600 390.364,281.735 389.998,281.900 389.833 C 282.065 389.668,282.215 389.413,282.234 389.267 C 282.252 389.120,282.502 388.460,282.789 387.800 C 283.478 386.216,283.487 380.227,282.801 379.401 C 282.518 379.060,282.393 378.673,282.524 378.542 C 283.005 378.061,280.283 373.445,278.419 371.581 C 276.555 369.717,271.939 366.995,271.458 367.476 C 271.327 367.607,270.961 367.499,270.645 367.237 C 270.212 366.878,263.504 366.767,243.435 366.789 L 216.800 366.818 216.800 349.422 C 216.800 334.377,216.879 332.055,217.381 332.248 C 217.700 332.371,218.170 332.342,218.425 332.184 C 218.680 332.027,219.544 331.839,220.345 331.768 C 221.145 331.696,222.250 331.522,222.800 331.381 C 223.350 331.240,224.152 331.133,224.582 331.144 C 225.011 331.154,225.551 331.014,225.782 330.833 C 226.012 330.651,226.515 330.554,226.900 330.616 C 227.285 330.678,227.600 330.555,227.600 330.341 C 227.600 330.127,227.773 330.060,227.985 330.191 C 228.396 330.445,235.602 328.641,236.854 327.971 C 237.264 327.751,237.600 327.690,237.600 327.835 C 237.600 327.980,237.825 327.930,238.100 327.724 C 238.375 327.519,238.870 327.366,239.200 327.385 C 239.530 327.404,240.040 327.188,240.332 326.906 C 240.625 326.624,241.004 326.479,241.174 326.584 C 241.830 326.989,256.038 321.520,256.333 320.749 C 256.407 320.557,256.712 320.400,257.012 320.400 C 257.613 320.400,260.965 318.693,261.919 317.901 C 262.251 317.625,262.540 317.471,262.561 317.559 C 262.640 317.884,264.400 317.132,264.400 316.773 C 264.400 316.568,264.648 316.400,264.952 316.400 C 265.596 316.400,270.014 313.814,270.601 313.093 C 270.822 312.822,271.247 312.549,271.544 312.486 C 271.842 312.423,272.349 312.108,272.671 311.786 C 272.994 311.464,273.514 311.200,273.829 311.200 C 274.143 311.200,274.400 311.028,274.400 310.819 C 274.400 310.609,275.047 310.131,275.837 309.756 C 276.627 309.381,277.366 308.832,277.480 308.537 C 277.593 308.242,277.896 308.000,278.154 308.000 C 278.613 308.000,280.938 306.198,282.571 304.577 C 283.027 304.124,284.032 303.371,284.805 302.903 C 285.578 302.435,286.612 301.590,287.103 301.026 C 287.593 300.462,288.176 300.000,288.397 300.000 C 288.619 300.000,288.755 299.783,288.700 299.518 C 288.645 299.253,288.819 299.028,289.087 299.018 C 289.501 299.003,291.542 296.970,301.152 287.000 C 301.788 286.340,302.639 285.260,303.041 284.600 C 303.444 283.940,304.140 283.027,304.587 282.571 C 306.239 280.887,308.000 278.608,308.000 278.154 C 308.000 277.896,308.242 277.593,308.537 277.480 C 308.832 277.366,309.381 276.627,309.756 275.837 C 310.131 275.047,310.609 274.400,310.819 274.400 C 311.028 274.400,311.200 274.143,311.200 273.829 C 311.200 273.514,311.464 272.994,311.786 272.671 C 312.108 272.349,312.423 271.842,312.486 271.544 C 312.549 271.247,312.822 270.822,313.093 270.601 C 313.814 270.014,316.400 265.596,316.400 264.952 C 316.400 264.648,316.568 264.400,316.773 264.400 C 317.080 264.400,317.682 263.212,317.786 262.400 C 317.801 262.290,317.981 261.933,318.188 261.607 C 319.175 260.045,320.400 257.501,320.400 257.012 C 320.400 256.712,320.557 256.407,320.749 256.333 C 321.520 256.038,326.989 241.830,326.584 241.174 C 326.479 241.004,326.677 240.580,327.025 240.232 C 327.373 239.885,327.572 239.600,327.468 239.600 C 327.364 239.600,327.517 238.806,327.809 237.837 C 328.101 236.867,328.233 235.967,328.103 235.837 C 327.973 235.706,328.077 235.600,328.333 235.600 C 328.595 235.600,328.800 235.019,328.800 234.280 C 328.800 233.554,329.016 232.744,329.280 232.480 C 329.544 232.216,329.612 232.000,329.431 232.000 C 329.250 232.000,329.306 231.754,329.556 231.453 C 329.806 231.152,330.053 230.163,330.105 229.255 C 330.157 228.347,330.319 227.603,330.465 227.602 C 330.610 227.601,330.678 227.285,330.616 226.900 C 330.554 226.515,330.651 226.012,330.833 225.782 C 331.014 225.551,331.154 225.011,331.144 224.582 C 331.133 224.152,331.240 223.350,331.381 222.800 C 331.522 222.250,331.700 221.170,331.777 220.400 C 331.854 219.630,332.011 218.730,332.125 218.400 C 332.239 218.070,332.333 217.530,332.333 217.200 C 332.333 216.870,332.447 215.610,332.586 214.400 C 333.403 207.271,333.789 167.999,333.081 164.000 C 332.605 161.310,331.991 159.600,331.502 159.600 C 331.263 159.600,331.179 159.487,331.317 159.349 C 332.259 158.408,326.912 152.868,324.000 151.768 C 323.670 151.644,323.065 151.360,322.655 151.139 C 322.245 150.918,321.525 150.625,321.055 150.488 C 319.980 150.176,313.538 150.077,313.000 150.364 C 312.620 150.567,312.352 150.642,311.037 150.918 C 308.387 151.474,303.172 156.027,301.781 159.000 C 300.116 162.560,300.095 162.838,299.988 182.021 C 299.864 204.439,299.687 210.001,298.982 213.600 C 298.831 214.370,298.666 215.540,298.614 216.200 C 298.563 216.860,298.419 217.670,298.294 218.000 C 298.169 218.330,298.049 218.870,298.026 219.200 C 297.950 220.300,297.705 221.793,297.501 222.400 C 297.390 222.730,296.893 224.440,296.396 226.200 C 295.899 227.960,294.977 230.810,294.346 232.534 C 293.716 234.258,293.200 236.013,293.200 236.434 C 293.200 236.855,293.040 237.200,292.843 237.200 C 292.495 237.200,291.804 239.103,291.934 239.700 C 291.970 239.865,291.834 240.000,291.631 240.000 C 291.284 240.000,290.158 242.819,290.370 243.155 C 290.424 243.241,290.298 243.421,290.091 243.555 C 289.549 243.907,286.753 249.199,287.105 249.206 C 287.267 249.209,287.220 249.344,286.999 249.506 C 286.779 249.668,286.330 250.340,286.001 251.000 C 285.672 251.660,284.817 253.031,284.101 254.048 C 283.386 255.064,282.800 256.025,282.800 256.184 C 282.800 256.342,282.395 256.829,281.900 257.266 C 281.405 257.703,281.270 257.936,281.600 257.783 C 281.930 257.631,281.677 257.977,281.038 258.553 C 280.399 259.129,279.984 259.600,280.117 259.600 C 280.250 259.600,279.736 260.275,278.975 261.100 C 278.214 261.925,277.375 263.082,277.111 263.671 C 276.846 264.260,276.488 264.655,276.315 264.548 C 276.142 264.440,276.000 264.543,276.000 264.776 C 276.000 265.287,266.882 274.466,265.430 275.417 C 264.867 275.786,264.482 276.210,264.575 276.359 C 264.667 276.508,264.260 276.846,263.671 277.111 C 263.082 277.375,261.925 278.214,261.100 278.975 C 260.275 279.736,259.600 280.250,259.600 280.117 C 259.600 279.984,259.129 280.399,258.553 281.038 C 257.977 281.677,257.631 281.930,257.783 281.600 C 257.936 281.270,257.703 281.405,257.266 281.900 C 256.829 282.395,256.342 282.800,256.184 282.800 C 256.025 282.800,255.064 283.386,254.048 284.101 C 253.031 284.817,251.660 285.672,251.000 286.001 C 250.340 286.330,249.668 286.779,249.506 286.999 C 249.344 287.220,249.209 287.267,249.206 287.105 C 249.199 286.753,243.907 289.549,243.555 290.091 C 243.421 290.298,243.151 290.454,242.955 290.436 C 242.234 290.371,240.000 291.274,240.000 291.631 C 240.000 291.834,239.865 291.970,239.700 291.934 C 239.103 291.804,237.200 292.495,237.200 292.843 C 237.200 293.040,236.851 293.200,236.425 293.200 C 235.999 293.200,234.249 293.740,232.535 294.400 C 230.821 295.060,229.099 295.600,228.709 295.600 C 228.319 295.600,228.000 295.791,228.000 296.024 C 228.000 296.257,227.827 296.341,227.616 296.210 C 227.295 296.012,224.904 296.598,222.400 297.489 C 221.802 297.702,220.340 297.947,219.200 298.026 C 218.870 298.049,218.330 298.169,218.000 298.294 C 217.670 298.419,216.860 298.563,216.200 298.614 C 215.540 298.666,214.370 298.831,213.600 298.982 C 208.799 299.922,191.201 299.922,186.400 298.982 C 185.630 298.831,184.460 298.666,183.800 298.614 C 183.140 298.563,182.330 298.419,182.000 298.294 C 181.670 298.169,181.130 298.049,180.800 298.026 C 179.633 297.945,178.193 297.700,177.600 297.481 C 177.270 297.359,175.560 296.865,173.800 296.383 C 172.040 295.901,169.190 294.988,167.466 294.353 C 165.742 293.719,163.987 293.200,163.566 293.200 C 163.145 293.200,162.800 293.040,162.800 292.843 C 162.800 292.495,160.897 291.804,160.300 291.934 C 160.135 291.970,160.000 291.834,160.000 291.631 C 160.000 291.284,157.181 290.158,156.845 290.370 C 156.759 290.424,156.579 290.298,156.445 290.091 C 156.093 289.549,150.801 286.753,150.794 287.105 C 150.791 287.267,150.656 287.220,150.494 286.999 C 150.332 286.779,149.660 286.330,149.000 286.001 C 148.340 285.672,146.969 284.817,145.952 284.101 C 144.936 283.386,143.975 282.800,143.816 282.800 C 143.658 282.800,143.171 282.395,142.734 281.900 C 142.297 281.405,142.064 281.270,142.217 281.600 C 142.369 281.930,142.023 281.677,141.447 281.038 C 140.871 280.399,140.400 279.984,140.400 280.117 C 140.400 280.250,139.725 279.736,138.900 278.975 C 138.075 278.214,136.918 277.375,136.329 277.111 C 135.740 276.846,135.345 276.488,135.452 276.315 C 135.560 276.142,135.457 276.000,135.224 276.000 C 134.713 276.000,125.534 266.882,124.583 265.430 C 124.214 264.867,123.790 264.482,123.641 264.575 C 123.492 264.667,123.154 264.260,122.889 263.671 C 122.625 263.082,121.786 261.925,121.025 261.100 C 120.264 260.275,119.750 259.600,119.883 259.600 C 120.016 259.600,119.601 259.129,118.962 258.553 C 118.323 257.977,118.070 257.631,118.400 257.783 C 118.730 257.936,118.595 257.703,118.100 257.266 C 117.605 256.829,117.200 256.342,117.200 256.184 C 117.200 256.025,116.614 255.064,115.899 254.048 C 115.183 253.031,114.328 251.660,113.999 251.000 C 113.670 250.340,113.221 249.668,113.001 249.506 C 112.780 249.344,112.733 249.209,112.895 249.206 C 113.247 249.199,110.451 243.907,109.909 243.555 C 109.702 243.421,109.546 243.151,109.564 242.955 C 109.629 242.234,108.726 240.000,108.369 240.000 C 108.166 240.000,108.030 239.865,108.066 239.700 C 108.196 239.103,107.505 237.200,107.157 237.200 C 106.960 237.200,106.800 236.851,106.800 236.425 C 106.800 235.999,106.260 234.249,105.600 232.535 C 104.940 230.821,104.400 229.099,104.400 228.709 C 104.400 228.319,104.209 228.000,103.976 228.000 C 103.743 228.000,103.659 227.827,103.790 227.616 C 103.988 227.295,103.402 224.904,102.511 222.400 C 102.298 221.802,102.053 220.340,101.974 219.200 C 101.951 218.870,101.831 218.330,101.706 218.000 C 101.581 217.670,101.437 216.860,101.386 216.200 C 101.334 215.540,101.169 214.370,101.018 213.600 C 100.312 209.996,100.135 204.423,100.015 182.000 C 99.960 171.770,99.804 163.220,99.669 163.000 C 99.436 162.621,99.364 162.380,99.082 161.037 C 98.298 157.298,93.279 152.495,88.200 150.623 C 86.560 150.019,80.250 149.982,78.933 150.569 " stroke="none" fill="#a451bd" fill-rule="evenodd"></path><path id="path3" d="M191.600 0.457 C 190.610 0.633,189.121 0.867,188.290 0.976 C 187.090 1.134,184.650 1.726,183.200 2.211 C 183.090 2.248,182.235 2.419,181.300 2.590 C 180.365 2.762,179.600 3.059,179.600 3.251 C 179.600 3.443,179.465 3.579,179.300 3.553 C 179.135 3.527,178.910 3.540,178.800 3.582 C 178.690 3.625,178.234 3.729,177.787 3.814 C 175.324 4.282,164.400 9.700,164.400 10.453 C 164.400 10.670,164.220 10.736,164.000 10.600 C 163.780 10.464,163.600 10.573,163.600 10.843 C 163.600 11.113,163.489 11.222,163.352 11.086 C 163.216 10.950,162.886 11.055,162.618 11.319 C 162.351 11.584,161.632 12.160,161.022 12.600 C 160.411 13.040,159.661 13.638,159.356 13.929 C 159.050 14.219,158.800 14.347,158.800 14.212 C 158.800 13.870,156.016 16.421,152.265 20.200 C 148.897 23.593,144.400 29.311,144.400 30.201 C 144.400 30.494,144.198 30.801,143.951 30.883 C 143.081 31.173,138.108 40.744,138.330 41.700 C 138.369 41.865,138.220 42.000,138.000 42.000 C 137.780 42.000,137.621 42.135,137.647 42.300 C 137.673 42.465,137.651 42.735,137.597 42.900 C 137.544 43.065,137.455 43.380,137.400 43.600 C 137.345 43.820,137.255 44.090,137.200 44.200 C 137.145 44.310,137.055 44.580,137.000 44.800 C 136.945 45.020,136.855 45.290,136.800 45.400 C 136.745 45.510,136.655 45.780,136.600 46.000 C 136.545 46.220,136.464 46.445,136.419 46.500 C 136.375 46.555,136.280 46.870,136.209 47.200 C 136.138 47.530,135.698 49.206,135.231 50.924 C 134.765 52.643,134.480 54.205,134.598 54.397 C 134.716 54.588,134.648 54.847,134.447 54.971 C 134.245 55.096,134.077 55.783,134.072 56.499 C 134.068 57.214,133.877 58.610,133.647 59.600 C 133.363 60.824,133.261 84.491,133.329 133.600 C 133.419 199.521,133.519 208.082,134.229 211.200 C 134.354 211.750,134.511 212.560,134.577 213.000 C 134.644 213.440,134.735 213.800,134.780 213.800 C 134.892 213.800,135.183 215.134,135.419 216.731 C 135.527 217.463,135.964 218.746,136.391 219.581 C 136.817 220.417,137.073 221.194,136.959 221.307 C 136.846 221.421,137.060 222.208,137.435 223.057 C 137.810 223.906,138.185 224.954,138.269 225.387 C 138.353 225.819,138.724 226.629,139.095 227.187 C 139.465 227.744,139.825 228.551,139.894 228.980 C 139.963 229.408,140.365 230.308,140.788 230.980 C 141.210 231.651,141.856 232.785,142.224 233.500 C 142.591 234.215,143.051 234.800,143.246 234.800 C 143.441 234.800,143.600 235.041,143.600 235.335 C 143.600 237.101,156.537 251.730,157.365 250.901 C 157.494 250.772,157.609 250.922,157.620 251.233 C 157.640 251.796,162.856 255.749,164.265 256.270 C 164.669 256.419,165.090 256.669,165.200 256.826 C 165.389 257.095,166.875 258.028,169.279 259.388 C 169.872 259.724,170.682 260.051,171.079 260.115 C 171.475 260.179,172.256 260.535,172.813 260.905 C 173.371 261.276,174.181 261.647,174.613 261.731 C 175.046 261.815,176.094 262.190,176.943 262.565 C 177.792 262.940,178.580 263.153,178.694 263.039 C 178.808 262.925,179.436 263.108,180.090 263.446 C 180.743 263.784,181.666 264.148,182.139 264.254 C 182.613 264.360,183.180 264.498,183.400 264.561 C 184.501 264.875,185.902 265.210,186.800 265.375 C 187.350 265.476,188.250 265.659,188.800 265.780 C 193.269 266.770,206.731 266.770,211.200 265.780 C 211.750 265.659,212.650 265.476,213.200 265.375 C 214.098 265.210,215.499 264.875,216.600 264.561 C 216.820 264.498,217.387 264.360,217.861 264.254 C 218.334 264.148,219.257 263.784,219.910 263.446 C 220.564 263.108,221.192 262.925,221.306 263.039 C 221.420 263.153,222.208 262.940,223.057 262.565 C 223.906 262.190,224.954 261.815,225.387 261.731 C 225.819 261.647,226.629 261.276,227.187 260.905 C 227.744 260.535,228.525 260.179,228.921 260.115 C 229.318 260.051,230.128 259.724,230.721 259.388 C 233.125 258.028,234.611 257.095,234.800 256.826 C 234.910 256.669,235.331 256.419,235.735 256.270 C 237.144 255.749,242.360 251.796,242.380 251.233 C 242.391 250.922,242.506 250.772,242.635 250.901 C 243.463 251.730,256.400 237.101,256.400 235.335 C 256.400 235.041,256.559 234.800,256.754 234.800 C 256.949 234.800,257.409 234.215,257.776 233.500 C 258.144 232.785,258.790 231.651,259.212 230.980 C 259.635 230.308,260.037 229.408,260.106 228.980 C 260.175 228.551,260.535 227.744,260.905 227.187 C 261.276 226.629,261.647 225.819,261.731 225.387 C 261.815 224.954,262.190 223.906,262.565 223.057 C 262.940 222.208,263.154 221.421,263.041 221.307 C 262.927 221.194,263.183 220.417,263.609 219.581 C 264.036 218.746,264.473 217.463,264.581 216.731 C 264.817 215.134,265.108 213.800,265.220 213.800 C 265.265 213.800,265.356 213.440,265.423 213.000 C 265.489 212.560,265.646 211.750,265.771 211.200 C 266.481 208.082,266.581 199.521,266.671 133.600 C 266.739 84.491,266.637 60.824,266.353 59.600 C 266.123 58.610,265.932 57.214,265.928 56.499 C 265.923 55.783,265.755 55.096,265.553 54.971 C 265.352 54.847,265.284 54.588,265.402 54.397 C 265.520 54.205,265.235 52.643,264.769 50.924 C 264.302 49.206,263.862 47.530,263.791 47.200 C 263.720 46.870,263.625 46.555,263.581 46.500 C 263.536 46.445,263.455 46.220,263.400 46.000 C 263.345 45.780,263.255 45.510,263.200 45.400 C 263.145 45.290,263.055 45.020,263.000 44.800 C 262.945 44.580,262.855 44.310,262.800 44.200 C 262.745 44.090,262.655 43.820,262.600 43.600 C 262.545 43.380,262.456 43.065,262.403 42.900 C 262.349 42.735,262.327 42.465,262.353 42.300 C 262.379 42.135,262.220 42.000,262.000 42.000 C 261.780 42.000,261.637 41.865,261.682 41.700 C 261.727 41.535,261.454 40.817,261.074 40.104 C 260.694 39.391,260.386 38.717,260.388 38.606 C 260.406 37.668,256.720 31.107,256.049 30.883 C 255.802 30.801,255.600 30.494,255.600 30.201 C 255.600 29.311,251.103 23.593,247.735 20.200 C 243.984 16.421,241.200 13.870,241.200 14.212 C 241.200 14.347,240.950 14.219,240.644 13.929 C 240.339 13.638,239.589 13.040,238.978 12.600 C 238.368 12.160,237.649 11.584,237.382 11.319 C 237.114 11.055,236.784 10.950,236.648 11.086 C 236.511 11.222,236.400 11.113,236.400 10.843 C 236.400 10.573,236.220 10.464,236.000 10.600 C 235.780 10.736,235.600 10.670,235.600 10.453 C 235.600 9.700,224.676 4.282,222.213 3.814 C 221.766 3.729,221.310 3.625,221.200 3.582 C 221.090 3.540,220.865 3.527,220.700 3.553 C 220.535 3.579,220.400 3.443,220.400 3.251 C 220.400 3.059,219.635 2.762,218.700 2.590 C 217.765 2.419,216.910 2.248,216.800 2.211 C 215.187 1.671,212.893 1.142,211.616 1.015 C 210.735 0.927,209.793 0.719,209.524 0.553 C 208.855 0.139,193.836 0.059,191.600 0.457 M203.200 33.602 C 207.382 34.223,210.870 35.134,212.516 36.035 C 212.910 36.251,213.405 36.320,213.616 36.190 C 213.827 36.060,214.000 36.131,214.000 36.349 C 214.000 36.568,214.379 36.866,214.841 37.013 C 215.655 37.271,218.078 38.749,219.100 39.610 C 219.375 39.842,219.600 39.943,219.600 39.834 C 219.600 39.725,220.024 40.033,220.543 40.518 C 224.777 44.477,225.600 45.280,225.600 45.454 C 225.600 45.737,227.635 48.465,228.470 49.302 C 228.855 49.688,229.358 50.702,229.588 51.555 C 229.818 52.409,230.274 53.330,230.603 53.602 C 230.931 53.875,231.200 54.515,231.200 55.025 C 231.200 55.535,231.383 56.066,231.607 56.204 C 231.830 56.342,231.909 56.623,231.783 56.828 C 231.656 57.032,231.693 57.425,231.865 57.700 C 232.036 57.975,232.222 58.470,232.276 58.800 C 232.331 59.130,232.553 60.300,232.769 61.400 C 233.017 62.658,233.184 88.787,233.219 131.800 C 233.250 169.420,233.277 200.650,233.280 201.200 C 233.284 202.065,233.066 204.037,232.639 207.000 C 232.575 207.440,232.232 208.482,231.876 209.315 C 231.519 210.149,231.177 211.139,231.114 211.515 C 230.967 212.401,228.503 217.120,227.548 218.347 C 227.143 218.868,226.926 219.481,227.067 219.709 C 227.208 219.937,227.161 220.024,226.962 219.902 C 226.763 219.780,225.790 220.718,224.800 221.987 C 223.810 223.256,222.252 224.812,221.338 225.446 C 220.423 226.080,219.776 226.762,219.899 226.961 C 220.023 227.160,219.937 227.208,219.709 227.067 C 219.481 226.926,218.868 227.143,218.347 227.548 C 217.208 228.435,212.000 231.268,212.000 231.000 C 212.000 230.897,211.086 231.172,209.969 231.612 C 208.852 232.053,207.323 232.492,206.572 232.588 C 205.821 232.684,204.530 232.891,203.703 233.049 C 201.627 233.444,198.480 233.477,196.768 233.123 C 195.980 232.960,194.601 232.734,193.703 232.621 C 192.805 232.509,191.155 232.055,190.035 231.614 C 188.916 231.173,188.000 230.897,188.000 231.000 C 188.000 231.268,182.792 228.435,181.653 227.548 C 181.132 227.143,180.519 226.926,180.291 227.067 C 180.063 227.208,179.977 227.160,180.101 226.961 C 180.224 226.762,179.577 226.080,178.662 225.446 C 177.748 224.812,176.190 223.256,175.200 221.987 C 174.210 220.718,173.237 219.780,173.038 219.902 C 172.839 220.024,172.792 219.937,172.933 219.709 C 173.074 219.481,172.857 218.868,172.452 218.347 C 171.497 217.120,169.033 212.401,168.886 211.515 C 168.823 211.139,168.481 210.149,168.124 209.315 C 167.768 208.482,167.425 207.440,167.361 207.000 C 166.934 204.037,166.716 202.065,166.720 201.200 C 166.723 200.650,166.750 169.420,166.781 131.800 C 166.816 88.787,166.983 62.658,167.231 61.400 C 167.447 60.300,167.669 59.130,167.724 58.800 C 167.778 58.470,167.964 57.975,168.135 57.700 C 168.307 57.425,168.344 57.032,168.217 56.828 C 168.091 56.623,168.170 56.342,168.393 56.204 C 168.617 56.066,168.800 55.535,168.800 55.025 C 168.800 54.515,169.069 53.875,169.397 53.602 C 169.726 53.330,170.182 52.409,170.412 51.555 C 170.642 50.702,171.145 49.688,171.530 49.302 C 172.365 48.465,174.400 45.737,174.400 45.454 C 174.400 45.280,175.223 44.477,179.457 40.518 C 179.976 40.033,180.400 39.725,180.400 39.834 C 180.400 39.943,180.625 39.842,180.900 39.610 C 181.922 38.749,184.345 37.271,185.159 37.013 C 185.621 36.866,186.000 36.568,186.000 36.349 C 186.000 36.131,186.173 36.060,186.384 36.190 C 186.595 36.320,187.090 36.251,187.484 36.035 C 189.050 35.177,192.650 34.219,196.600 33.609 C 199.449 33.169,200.276 33.168,203.200 33.602 M78.933 150.569 C 78.237 150.879,77.562 151.028,77.433 150.900 C 77.305 150.772,77.200 150.877,77.200 151.133 C 77.200 151.390,76.862 151.600,76.449 151.600 C 76.036 151.600,75.474 151.870,75.200 152.200 C 74.926 152.530,74.464 152.800,74.173 152.800 C 73.493 152.800,69.701 156.644,68.952 158.092 C 68.637 158.702,68.487 159.200,68.618 159.200 C 68.750 159.200,68.574 159.483,68.229 159.829 C 67.883 160.174,67.577 160.669,67.549 160.929 C 67.450 161.842,67.238 163.015,66.921 164.400 C 66.206 167.522,66.598 207.284,67.414 214.400 C 67.553 215.610,67.667 216.870,67.667 217.200 C 67.667 217.530,67.761 218.070,67.875 218.400 C 67.989 218.730,68.146 219.630,68.223 220.400 C 68.300 221.170,68.478 222.250,68.619 222.800 C 68.760 223.350,68.867 224.152,68.856 224.582 C 68.846 225.011,68.986 225.551,69.167 225.782 C 69.349 226.012,69.446 226.515,69.384 226.900 C 69.322 227.285,69.445 227.600,69.659 227.600 C 69.873 227.600,69.940 227.773,69.809 227.985 C 69.555 228.396,71.359 235.602,72.029 236.854 C 72.249 237.264,72.310 237.600,72.165 237.600 C 72.020 237.600,72.070 237.825,72.276 238.100 C 72.481 238.375,72.634 238.870,72.615 239.200 C 72.596 239.530,72.812 240.040,73.094 240.332 C 73.376 240.625,73.521 241.004,73.416 241.174 C 73.011 241.830,78.480 256.038,79.251 256.333 C 79.443 256.407,79.600 256.712,79.600 257.012 C 79.600 257.501,80.825 260.045,81.812 261.607 C 82.019 261.933,82.199 262.290,82.214 262.400 C 82.318 263.212,82.920 264.400,83.227 264.400 C 83.432 264.400,83.600 264.648,83.600 264.952 C 83.600 265.596,86.186 270.014,86.907 270.601 C 87.178 270.822,87.451 271.247,87.514 271.544 C 87.577 271.842,87.892 272.349,88.214 272.671 C 88.536 272.994,88.800 273.514,88.800 273.829 C 88.800 274.143,88.972 274.400,89.181 274.400 C 89.391 274.400,89.869 275.047,90.244 275.837 C 90.619 276.627,91.168 277.366,91.463 277.480 C 91.758 277.593,92.000 277.896,92.000 278.154 C 92.000 278.613,93.802 280.938,95.423 282.571 C 95.876 283.027,96.629 284.032,97.097 284.805 C 97.565 285.578,98.410 286.612,98.974 287.103 C 99.538 287.593,100.000 288.176,100.000 288.397 C 100.000 288.619,100.217 288.755,100.482 288.700 C 100.747 288.645,100.972 288.819,100.982 289.087 C 100.997 289.501,103.030 291.542,113.000 301.152 C 113.660 301.788,114.740 302.639,115.400 303.041 C 116.060 303.444,116.973 304.140,117.429 304.587 C 119.113 306.239,121.392 308.000,121.846 308.000 C 122.104 308.000,122.407 308.242,122.520 308.537 C 122.634 308.832,123.373 309.381,124.163 309.756 C 124.953 310.131,125.600 310.609,125.600 310.819 C 125.600 311.028,125.857 311.200,126.171 311.200 C 126.486 311.200,127.006 311.464,127.329 311.786 C 127.651 312.108,128.158 312.423,128.456 312.486 C 128.753 312.549,129.178 312.822,129.399 313.093 C 129.986 313.814,134.404 316.400,135.048 316.400 C 135.352 316.400,135.600 316.568,135.600 316.773 C 135.600 317.148,136.792 317.673,137.239 317.495 C 137.370 317.443,137.749 317.625,138.081 317.901 C 139.035 318.693,142.387 320.400,142.988 320.400 C 143.288 320.400,143.593 320.557,143.667 320.749 C 143.962 321.520,158.170 326.989,158.826 326.584 C 158.996 326.479,159.420 326.677,159.768 327.025 C 160.115 327.373,160.400 327.572,160.400 327.468 C 160.400 327.364,161.194 327.517,162.163 327.809 C 163.133 328.101,164.033 328.233,164.163 328.103 C 164.294 327.973,164.400 328.077,164.400 328.333 C 164.400 328.595,164.981 328.800,165.720 328.800 C 166.446 328.800,167.256 329.016,167.520 329.280 C 167.784 329.544,168.000 329.612,168.000 329.431 C 168.000 329.250,168.246 329.306,168.547 329.556 C 168.848 329.806,169.837 330.053,170.745 330.105 C 171.653 330.157,172.397 330.319,172.398 330.465 C 172.399 330.610,172.715 330.678,173.100 330.616 C 173.485 330.554,173.988 330.651,174.218 330.833 C 174.449 331.014,174.989 331.154,175.418 331.144 C 175.848 331.133,176.650 331.240,177.200 331.381 C 177.750 331.522,178.830 331.700,179.600 331.777 C 180.370 331.854,181.306 332.042,181.681 332.194 C 182.055 332.346,182.550 332.354,182.781 332.212 C 183.071 332.033,183.200 337.334,183.200 349.385 L 183.200 366.818 156.565 366.789 C 136.496 366.767,129.788 366.878,129.355 367.237 C 129.039 367.499,128.673 367.607,128.542 367.476 C 128.061 366.995,123.445 369.717,121.581 371.581 C 119.717 373.445,116.995 378.061,117.476 378.542 C 117.607 378.673,117.482 379.060,117.199 379.401 C 116.513 380.227,116.522 386.216,117.211 387.800 C 117.498 388.460,117.748 389.120,117.766 389.267 C 117.785 389.413,117.935 389.668,118.100 389.833 C 118.265 389.998,118.400 390.364,118.400 390.647 C 118.400 392.818,124.902 398.791,127.277 398.802 C 127.565 398.804,128.314 399.073,128.941 399.400 C 130.670 400.302,269.330 400.302,271.059 399.400 C 271.686 399.073,272.435 398.804,272.723 398.802 C 275.098 398.791,281.600 392.818,281.600 390.647 C 281.600 390.364,281.735 389.998,281.900 389.833 C 282.065 389.668,282.215 389.413,282.234 389.267 C 282.252 389.120,282.502 388.460,282.789 387.800 C 283.478 386.216,283.487 380.227,282.801 379.401 C 282.518 379.060,282.393 378.673,282.524 378.542 C 283.005 378.061,280.283 373.445,278.419 371.581 C 276.555 369.717,271.939 366.995,271.458 367.476 C 271.327 367.607,270.961 367.499,270.645 367.237 C 270.212 366.878,263.504 366.767,243.435 366.789 L 216.800 366.818 216.800 349.422 C 216.800 334.377,216.879 332.055,217.381 332.248 C 217.700 332.371,218.170 332.342,218.425 332.184 C 218.680 332.027,219.544 331.839,220.345 331.768 C 221.145 331.696,222.250 331.522,222.800 331.381 C 223.350 331.240,224.152 331.133,224.582 331.144 C 225.011 331.154,225.551 331.014,225.782 330.833 C 226.012 330.651,226.515 330.554,226.900 330.616 C 227.285 330.678,227.600 330.555,227.600 330.341 C 227.600 330.127,227.773 330.060,227.985 330.191 C 228.396 330.445,235.602 328.641,236.854 327.971 C 237.264 327.751,237.600 327.690,237.600 327.835 C 237.600 327.980,237.825 327.930,238.100 327.724 C 238.375 327.519,238.870 327.366,239.200 327.385 C 239.530 327.404,240.040 327.188,240.332 326.906 C 240.625 326.624,241.004 326.479,241.174 326.584 C 241.830 326.989,256.038 321.520,256.333 320.749 C 256.407 320.557,256.712 320.400,257.012 320.400 C 257.613 320.400,260.965 318.693,261.919 317.901 C 262.251 317.625,262.540 317.471,262.561 317.559 C 262.640 317.884,264.400 317.132,264.400 316.773 C 264.400 316.568,264.648 316.400,264.952 316.400 C 265.596 316.400,270.014 313.814,270.601 313.093 C 270.822 312.822,271.247 312.549,271.544 312.486 C 271.842 312.423,272.349 312.108,272.671 311.786 C 272.994 311.464,273.514 311.200,273.829 311.200 C 274.143 311.200,274.400 311.028,274.400 310.819 C 274.400 310.609,275.047 310.131,275.837 309.756 C 276.627 309.381,277.366 308.832,277.480 308.537 C 277.593 308.242,277.896 308.000,278.154 308.000 C 278.613 308.000,280.938 306.198,282.571 304.577 C 283.027 304.124,284.032 303.371,284.805 302.903 C 285.578 302.435,286.612 301.590,287.103 301.026 C 287.593 300.462,288.176 300.000,288.397 300.000 C 288.619 300.000,288.755 299.783,288.700 299.518 C 288.645 299.253,288.819 299.028,289.087 299.018 C 289.501 299.003,291.542 296.970,301.152 287.000 C 301.788 286.340,302.639 285.260,303.041 284.600 C 303.444 283.940,304.140 283.027,304.587 282.571 C 306.239 280.887,308.000 278.608,308.000 278.154 C 308.000 277.896,308.242 277.593,308.537 277.480 C 308.832 277.366,309.381 276.627,309.756 275.837 C 310.131 275.047,310.609 274.400,310.819 274.400 C 311.028 274.400,311.200 274.143,311.200 273.829 C 311.200 273.514,311.464 272.994,311.786 272.671 C 312.108 272.349,312.423 271.842,312.486 271.544 C 312.549 271.247,312.822 270.822,313.093 270.601 C 313.814 270.014,316.400 265.596,316.400 264.952 C 316.400 264.648,316.568 264.400,316.773 264.400 C 317.080 264.400,317.682 263.212,317.786 262.400 C 317.801 262.290,317.981 261.933,318.188 261.607 C 319.175 260.045,320.400 257.501,320.400 257.012 C 320.400 256.712,320.557 256.407,320.749 256.333 C 321.520 256.038,326.989 241.830,326.584 241.174 C 326.479 241.004,326.677 240.580,327.025 240.232 C 327.373 239.885,327.572 239.600,327.468 239.600 C 327.364 239.600,327.517 238.806,327.809 237.837 C 328.101 236.867,328.233 235.967,328.103 235.837 C 327.973 235.706,328.077 235.600,328.333 235.600 C 328.595 235.600,328.800 235.019,328.800 234.280 C 328.800 233.554,329.016 232.744,329.280 232.480 C 329.544 232.216,329.612 232.000,329.431 232.000 C 329.250 232.000,329.306 231.754,329.556 231.453 C 329.806 231.152,330.053 230.163,330.105 229.255 C 330.157 228.347,330.319 227.603,330.465 227.602 C 330.610 227.601,330.678 227.285,330.616 226.900 C 330.554 226.515,330.651 226.012,330.833 225.782 C 331.014 225.551,331.154 225.011,331.144 224.582 C 331.133 224.152,331.240 223.350,331.381 222.800 C 331.522 222.250,331.700 221.170,331.777 220.400 C 331.854 219.630,332.011 218.730,332.125 218.400 C 332.239 218.070,332.333 217.530,332.333 217.200 C 332.333 216.870,332.447 215.610,332.586 214.400 C 333.403 207.271,333.789 167.999,333.081 164.000 C 332.605 161.310,331.991 159.600,331.502 159.600 C 331.263 159.600,331.179 159.487,331.317 159.349 C 332.259 158.408,326.912 152.868,324.000 151.768 C 323.670 151.644,323.065 151.360,322.655 151.139 C 322.245 150.918,321.525 150.625,321.055 150.488 C 319.980 150.176,313.538 150.077,313.000 150.364 C 312.620 150.567,312.352 150.642,311.037 150.918 C 308.387 151.474,303.172 156.027,301.781 159.000 C 300.116 162.560,300.095 162.838,299.988 182.021 C 299.864 204.439,299.687 210.001,298.982 213.600 C 298.831 214.370,298.666 215.540,298.614 216.200 C 298.563 216.860,298.419 217.670,298.294 218.000 C 298.169 218.330,298.049 218.870,298.026 219.200 C 297.950 220.300,297.705 221.793,297.501 222.400 C 297.390 222.730,296.893 224.440,296.396 226.200 C 295.899 227.960,294.977 230.810,294.346 232.534 C 293.716 234.258,293.200 236.013,293.200 236.434 C 293.200 236.855,293.040 237.200,292.843 237.200 C 292.495 237.200,291.804 239.103,291.934 239.700 C 291.970 239.865,291.834 240.000,291.631 240.000 C 291.284 240.000,290.158 242.819,290.370 243.155 C 290.424 243.241,290.298 243.421,290.091 243.555 C 289.549 243.907,286.753 249.199,287.105 249.206 C 287.267 249.209,287.220 249.344,286.999 249.506 C 286.779 249.668,286.330 250.340,286.001 251.000 C 285.672 251.660,284.817 253.031,284.101 254.048 C 283.386 255.064,282.800 256.025,282.800 256.184 C 282.800 256.342,282.395 256.829,281.900 257.266 C 281.405 257.703,281.270 257.936,281.600 257.783 C 281.930 257.631,281.677 257.977,281.038 258.553 C 280.399 259.129,279.984 259.600,280.117 259.600 C 280.250 259.600,279.736 260.275,278.975 261.100 C 278.214 261.925,277.375 263.082,277.111 263.671 C 276.846 264.260,276.488 264.655,276.315 264.548 C 276.142 264.440,276.000 264.543,276.000 264.776 C 276.000 265.287,266.882 274.466,265.430 275.417 C 264.867 275.786,264.482 276.210,264.575 276.359 C 264.667 276.508,264.260 276.846,263.671 277.111 C 263.082 277.375,261.925 278.214,261.100 278.975 C 260.275 279.736,259.600 280.250,259.600 280.117 C 259.600 279.984,259.129 280.399,258.553 281.038 C 257.977 281.677,257.631 281.930,257.783 281.600 C 257.936 281.270,257.703 281.405,257.266 281.900 C 256.829 282.395,256.342 282.800,256.184 282.800 C 256.025 282.800,255.064 283.386,254.048 284.101 C 253.031 284.817,251.660 285.672,251.000 286.001 C 250.340 286.330,249.668 286.779,249.506 286.999 C 249.344 287.220,249.209 287.267,249.206 287.105 C 249.199 286.753,243.907 289.549,243.555 290.091 C 243.421 290.298,243.151 290.454,242.955 290.436 C 242.234 290.371,240.000 291.274,240.000 291.631 C 240.000 291.834,239.865 291.970,239.700 291.934 C 239.103 291.804,237.200 292.495,237.200 292.843 C 237.200 293.040,236.851 293.200,236.425 293.200 C 235.999 293.200,234.249 293.740,232.535 294.400 C 230.821 295.060,229.099 295.600,228.709 295.600 C 228.319 295.600,228.000 295.791,228.000 296.024 C 228.000 296.257,227.827 296.341,227.616 296.210 C 227.295 296.012,224.904 296.598,222.400 297.489 C 221.802 297.702,220.340 297.947,219.200 298.026 C 218.870 298.049,218.330 298.169,218.000 298.294 C 217.670 298.419,216.860 298.563,216.200 298.614 C 215.540 298.666,214.370 298.831,213.600 298.982 C 208.799 299.922,191.201 299.922,186.400 298.982 C 185.630 298.831,184.460 298.666,183.800 298.614 C 183.140 298.563,182.330 298.419,182.000 298.294 C 181.670 298.169,181.130 298.049,180.800 298.026 C 179.633 297.945,178.193 297.700,177.600 297.481 C 177.270 297.359,175.560 296.865,173.800 296.383 C 172.040 295.901,169.190 294.988,167.466 294.353 C 165.742 293.719,163.987 293.200,163.566 293.200 C 163.145 293.200,162.800 293.040,162.800 292.843 C 162.800 292.495,160.897 291.804,160.300 291.934 C 160.135 291.970,160.000 291.834,160.000 291.631 C 160.000 291.284,157.181 290.158,156.845 290.370 C 156.759 290.424,156.579 290.298,156.445 290.091 C 156.093 289.549,150.801 286.753,150.794 287.105 C 150.791 287.267,150.656 287.220,150.494 286.999 C 150.332 286.779,149.660 286.330,149.000 286.001 C 148.340 285.672,146.969 284.817,145.952 284.101 C 144.936 283.386,143.975 282.800,143.816 282.800 C 143.658 282.800,143.171 282.395,142.734 281.900 C 142.297 281.405,142.064 281.270,142.217 281.600 C 142.369 281.930,142.023 281.677,141.447 281.038 C 140.871 280.399,140.400 279.984,140.400 280.117 C 140.400 280.250,139.725 279.736,138.900 278.975 C 138.075 278.214,136.918 277.375,136.329 277.111 C 135.740 276.846,135.345 276.488,135.452 276.315 C 135.560 276.142,135.457 276.000,135.224 276.000 C 134.713 276.000,125.534 266.882,124.583 265.430 C 124.214 264.867,123.790 264.482,123.641 264.575 C 123.492 264.667,123.154 264.260,122.889 263.671 C 122.625 263.082,121.786 261.925,121.025 261.100 C 120.264 260.275,119.750 259.600,119.883 259.600 C 120.016 259.600,119.601 259.129,118.962 258.553 C 118.323 257.977,118.070 257.631,118.400 257.783 C 118.730 257.936,118.595 257.703,118.100 257.266 C 117.605 256.829,117.200 256.342,117.200 256.184 C 117.200 256.025,116.614 255.064,115.899 254.048 C 115.183 253.031,114.328 251.660,113.999 251.000 C 113.670 250.340,113.221 249.668,113.001 249.506 C 112.780 249.344,112.733 249.209,112.895 249.206 C 113.247 249.199,110.451 243.907,109.909 243.555 C 109.702 243.421,109.546 243.151,109.564 242.955 C 109.629 242.234,108.726 240.000,108.369 240.000 C 108.166 240.000,108.030 239.865,108.066 239.700 C 108.196 239.103,107.505 237.200,107.157 237.200 C 106.960 237.200,106.800 236.851,106.800 236.425 C 106.800 235.999,106.260 234.249,105.600 232.535 C 104.940 230.821,104.400 229.099,104.400 228.709 C 104.400 228.319,104.209 228.000,103.976 228.000 C 103.743 228.000,103.659 227.827,103.790 227.616 C 103.988 227.295,103.402 224.904,102.511 222.400 C 102.298 221.802,102.053 220.340,101.974 219.200 C 101.951 218.870,101.831 218.330,101.706 218.000 C 101.581 217.670,101.437 216.860,101.386 216.200 C 101.334 215.540,101.169 214.370,101.018 213.600 C 100.312 209.996,100.135 204.423,100.015 182.000 C 99.960 171.770,99.804 163.220,99.669 163.000 C 99.436 162.621,99.364 162.380,99.082 161.037 C 98.298 157.298,93.279 152.495,88.200 150.623 C 86.560 150.019,80.250 149.982,78.933 150.569 " stroke="none" fill="#a451bd" fill-rule="evenodd"></path><path id="path4" d="M191.600 0.457 C 190.610 0.633,189.121 0.867,188.290 0.976 C 187.090 1.134,184.650 1.726,183.200 2.211 C 183.090 2.248,182.235 2.419,181.300 2.590 C 180.365 2.762,179.600 3.059,179.600 3.251 C 179.600 3.443,179.465 3.579,179.300 3.553 C 179.135 3.527,178.910 3.540,178.800 3.582 C 178.690 3.625,178.234 3.729,177.787 3.814 C 175.324 4.282,164.400 9.700,164.400 10.453 C 164.400 10.670,164.220 10.736,164.000 10.600 C 163.780 10.464,163.600 10.573,163.600 10.843 C 163.600 11.113,163.489 11.222,163.352 11.086 C 163.216 10.950,162.886 11.055,162.618 11.319 C 162.351 11.584,161.632 12.160,161.022 12.600 C 160.411 13.040,159.661 13.638,159.356 13.929 C 159.050 14.219,158.800 14.347,158.800 14.212 C 158.800 13.870,156.016 16.421,152.265 20.200 C 148.897 23.593,144.400 29.311,144.400 30.201 C 144.400 30.494,144.198 30.801,143.951 30.883 C 143.081 31.173,138.108 40.744,138.330 41.700 C 138.369 41.865,138.220 42.000,138.000 42.000 C 137.780 42.000,137.621 42.135,137.647 42.300 C 137.673 42.465,137.651 42.735,137.597 42.900 C 137.544 43.065,137.455 43.380,137.400 43.600 C 137.345 43.820,137.255 44.090,137.200 44.200 C 137.145 44.310,137.055 44.580,137.000 44.800 C 136.945 45.020,136.855 45.290,136.800 45.400 C 136.745 45.510,136.655 45.780,136.600 46.000 C 136.545 46.220,136.464 46.445,136.419 46.500 C 136.375 46.555,136.280 46.870,136.209 47.200 C 136.138 47.530,135.698 49.206,135.231 50.924 C 134.765 52.643,134.480 54.205,134.598 54.397 C 134.716 54.588,134.648 54.847,134.447 54.971 C 134.245 55.096,134.077 55.783,134.072 56.499 C 134.068 57.214,133.877 58.610,133.647 59.600 C 133.363 60.824,133.261 84.491,133.329 133.600 C 133.419 199.521,133.519 208.082,134.229 211.200 C 134.354 211.750,134.511 212.560,134.577 213.000 C 134.644 213.440,134.735 213.800,134.780 213.800 C 134.892 213.800,135.183 215.134,135.419 216.731 C 135.527 217.463,135.964 218.746,136.391 219.581 C 136.817 220.417,137.073 221.194,136.959 221.307 C 136.846 221.421,137.060 222.208,137.435 223.057 C 137.810 223.906,138.185 224.954,138.269 225.387 C 138.353 225.819,138.724 226.629,139.095 227.187 C 139.465 227.744,139.825 228.551,139.894 228.980 C 139.963 229.408,140.365 230.308,140.788 230.980 C 141.210 231.651,141.856 232.785,142.224 233.500 C 142.591 234.215,143.051 234.800,143.246 234.800 C 143.441 234.800,143.600 235.041,143.600 235.335 C 143.600 237.101,156.537 251.730,157.365 250.901 C 157.494 250.772,157.609 250.922,157.620 251.233 C 157.640 251.796,162.856 255.749,164.265 256.270 C 164.669 256.419,165.090 256.669,165.200 256.826 C 165.389 257.095,166.875 258.028,169.279 259.388 C 169.872 259.724,170.682 260.051,171.079 260.115 C 171.475 260.179,172.256 260.535,172.813 260.905 C 173.371 261.276,174.181 261.647,174.613 261.731 C 175.046 261.815,176.094 262.190,176.943 262.565 C 177.792 262.940,178.580 263.153,178.694 263.039 C 178.808 262.925,179.436 263.108,180.090 263.446 C 180.743 263.784,181.666 264.148,182.139 264.254 C 182.613 264.360,183.180 264.498,183.400 264.561 C 184.501 264.875,185.902 265.210,186.800 265.375 C 187.350 265.476,188.250 265.659,188.800 265.780 C 193.269 266.770,206.731 266.770,211.200 265.780 C 211.750 265.659,212.650 265.476,213.200 265.375 C 214.098 265.210,215.499 264.875,216.600 264.561 C 216.820 264.498,217.387 264.360,217.861 264.254 C 218.334 264.148,219.257 263.784,219.910 263.446 C 220.564 263.108,221.192 262.925,221.306 263.039 C 221.420 263.153,222.208 262.940,223.057 262.565 C 223.906 262.190,224.954 261.815,225.387 261.731 C 225.819 261.647,226.629 261.276,227.187 260.905 C 227.744 260.535,228.525 260.179,228.921 260.115 C 229.318 260.051,230.128 259.724,230.721 259.388 C 233.125 258.028,234.611 257.095,234.800 256.826 C 234.910 256.669,235.331 256.419,235.735 256.270 C 237.144 255.749,242.360 251.796,242.380 251.233 C 242.391 250.922,242.506 250.772,242.635 250.901 C 243.463 251.730,256.400 237.101,256.400 235.335 C 256.400 235.041,256.559 234.800,256.754 234.800 C 256.949 234.800,257.409 234.215,257.776 233.500 C 258.144 232.785,258.790 231.651,259.212 230.980 C 259.635 230.308,260.037 229.408,260.106 228.980 C 260.175 228.551,260.535 227.744,260.905 227.187 C 261.276 226.629,261.647 225.819,261.731 225.387 C 261.815 224.954,262.190 223.906,262.565 223.057 C 262.940 222.208,263.154 221.421,263.041 221.307 C 262.927 221.194,263.183 220.417,263.609 219.581 C 264.036 218.746,264.473 217.463,264.581 216.731 C 264.817 215.134,265.108 213.800,265.220 213.800 C 265.265 213.800,265.356 213.440,265.423 213.000 C 265.489 212.560,265.646 211.750,265.771 211.200 C 266.481 208.082,266.581 199.521,266.671 133.600 C 266.739 84.491,266.637 60.824,266.353 59.600 C 266.123 58.610,265.932 57.214,265.928 56.499 C 265.923 55.783,265.755 55.096,265.553 54.971 C 265.352 54.847,265.284 54.588,265.402 54.397 C 265.520 54.205,265.235 52.643,264.769 50.924 C 264.302 49.206,263.862 47.530,263.791 47.200 C 263.720 46.870,263.625 46.555,263.581 46.500 C 263.536 46.445,263.455 46.220,263.400 46.000 C 263.345 45.780,263.255 45.510,263.200 45.400 C 263.145 45.290,263.055 45.020,263.000 44.800 C 262.945 44.580,262.855 44.310,262.800 44.200 C 262.745 44.090,262.655 43.820,262.600 43.600 C 262.545 43.380,262.456 43.065,262.403 42.900 C 262.349 42.735,262.327 42.465,262.353 42.300 C 262.379 42.135,262.220 42.000,262.000 42.000 C 261.780 42.000,261.637 41.865,261.682 41.700 C 261.727 41.535,261.454 40.817,261.074 40.104 C 260.694 39.391,260.386 38.717,260.388 38.606 C 260.406 37.668,256.720 31.107,256.049 30.883 C 255.802 30.801,255.600 30.494,255.600 30.201 C 255.600 29.311,251.103 23.593,247.735 20.200 C 243.984 16.421,241.200 13.870,241.200 14.212 C 241.200 14.347,240.950 14.219,240.644 13.929 C 240.339 13.638,239.589 13.040,238.978 12.600 C 238.368 12.160,237.649 11.584,237.382 11.319 C 237.114 11.055,236.784 10.950,236.648 11.086 C 236.511 11.222,236.400 11.113,236.400 10.843 C 236.400 10.573,236.220 10.464,236.000 10.600 C 235.780 10.736,235.600 10.670,235.600 10.453 C 235.600 9.700,224.676 4.282,222.213 3.814 C 221.766 3.729,221.310 3.625,221.200 3.582 C 221.090 3.540,220.865 3.527,220.700 3.553 C 220.535 3.579,220.400 3.443,220.400 3.251 C 220.400 3.059,219.635 2.762,218.700 2.590 C 217.765 2.419,216.910 2.248,216.800 2.211 C 215.187 1.671,212.893 1.142,211.616 1.015 C 210.735 0.927,209.793 0.719,209.524 0.553 C 208.855 0.139,193.836 0.059,191.600 0.457 M203.200 33.602 C 207.382 34.223,210.870 35.134,212.516 36.035 C 212.910 36.251,213.405 36.320,213.616 36.190 C 213.827 36.060,214.000 36.131,214.000 36.349 C 214.000 36.568,214.379 36.866,214.841 37.013 C 215.655 37.271,218.078 38.749,219.100 39.610 C 219.375 39.842,219.600 39.943,219.600 39.834 C 219.600 39.725,220.024 40.033,220.543 40.518 C 224.777 44.477,225.600 45.280,225.600 45.454 C 225.600 45.737,227.635 48.465,228.470 49.302 C 228.855 49.688,229.358 50.702,229.588 51.555 C 229.818 52.409,230.274 53.330,230.603 53.602 C 230.931 53.875,231.200 54.515,231.200 55.025 C 231.200 55.535,231.383 56.066,231.607 56.204 C 231.830 56.342,231.909 56.623,231.783 56.828 C 231.656 57.032,231.693 57.425,231.865 57.700 C 232.036 57.975,232.222 58.470,232.276 58.800 C 232.331 59.130,232.553 60.300,232.769 61.400 C 233.017 62.658,233.184 88.787,233.219 131.800 C 233.250 169.420,233.277 200.650,233.280 201.200 C 233.284 202.065,233.066 204.037,232.639 207.000 C 232.575 207.440,232.232 208.482,231.876 209.315 C 231.519 210.149,231.177 211.139,231.114 211.515 C 230.967 212.401,228.503 217.120,227.548 218.347 C 227.143 218.868,226.926 219.481,227.067 219.709 C 227.208 219.937,227.161 220.024,226.962 219.902 C 226.763 219.780,225.790 220.718,224.800 221.987 C 223.810 223.256,222.252 224.812,221.338 225.446 C 220.423 226.080,219.776 226.762,219.899 226.961 C 220.023 227.160,219.937 227.208,219.709 227.067 C 219.481 226.926,218.868 227.143,218.347 227.548 C 217.208 228.435,212.000 231.268,212.000 231.000 C 212.000 230.897,211.086 231.172,209.969 231.612 C 208.852 232.053,207.323 232.492,206.572 232.588 C 205.821 232.684,204.530 232.891,203.703 233.049 C 201.627 233.444,198.480 233.477,196.768 233.123 C 195.980 232.960,194.601 232.734,193.703 232.621 C 192.805 232.509,191.155 232.055,190.035 231.614 C 188.916 231.173,188.000 230.897,188.000 231.000 C 188.000 231.268,182.792 228.435,181.653 227.548 C 181.132 227.143,180.519 226.926,180.291 227.067 C 180.063 227.208,179.977 227.160,180.101 226.961 C 180.224 226.762,179.577 226.080,178.662 225.446 C 177.748 224.812,176.190 223.256,175.200 221.987 C 174.210 220.718,173.237 219.780,173.038 219.902 C 172.839 220.024,172.792 219.937,172.933 219.709 C 173.074 219.481,172.857 218.868,172.452 218.347 C 171.497 217.120,169.033 212.401,168.886 211.515 C 168.823 211.139,168.481 210.149,168.124 209.315 C 167.768 208.482,167.425 207.440,167.361 207.000 C 166.934 204.037,166.716 202.065,166.720 201.200 C 166.723 200.650,166.750 169.420,166.781 131.800 C 166.816 88.787,166.983 62.658,167.231 61.400 C 167.447 60.300,167.669 59.130,167.724 58.800 C 167.778 58.470,167.964 57.975,168.135 57.700 C 168.307 57.425,168.344 57.032,168.217 56.828 C 168.091 56.623,168.170 56.342,168.393 56.204 C 168.617 56.066,168.800 55.535,168.800 55.025 C 168.800 54.515,169.069 53.875,169.397 53.602 C 169.726 53.330,170.182 52.409,170.412 51.555 C 170.642 50.702,171.145 49.688,171.530 49.302 C 172.365 48.465,174.400 45.737,174.400 45.454 C 174.400 45.280,175.223 44.477,179.457 40.518 C 179.976 40.033,180.400 39.725,180.400 39.834 C 180.400 39.943,180.625 39.842,180.900 39.610 C 181.922 38.749,184.345 37.271,185.159 37.013 C 185.621 36.866,186.000 36.568,186.000 36.349 C 186.000 36.131,186.173 36.060,186.384 36.190 C 186.595 36.320,187.090 36.251,187.484 36.035 C 189.050 35.177,192.650 34.219,196.600 33.609 C 199.449 33.169,200.276 33.168,203.200 33.602 M78.933 150.569 C 78.237 150.879,77.562 151.028,77.433 150.900 C 77.305 150.772,77.200 150.877,77.200 151.133 C 77.200 151.390,76.862 151.600,76.449 151.600 C 76.036 151.600,75.474 151.870,75.200 152.200 C 74.926 152.530,74.464 152.800,74.173 152.800 C 73.493 152.800,69.701 156.644,68.952 158.092 C 68.637 158.702,68.487 159.200,68.618 159.200 C 68.750 159.200,68.574 159.483,68.229 159.829 C 67.883 160.174,67.577 160.669,67.549 160.929 C 67.450 161.842,67.238 163.015,66.921 164.400 C 66.206 167.522,66.598 207.284,67.414 214.400 C 67.553 215.610,67.667 216.870,67.667 217.200 C 67.667 217.530,67.761 218.070,67.875 218.400 C 67.989 218.730,68.146 219.630,68.223 220.400 C 68.300 221.170,68.478 222.250,68.619 222.800 C 68.760 223.350,68.867 224.152,68.856 224.582 C 68.846 225.011,68.986 225.551,69.167 225.782 C 69.349 226.012,69.446 226.515,69.384 226.900 C 69.322 227.285,69.445 227.600,69.659 227.600 C 69.873 227.600,69.940 227.773,69.809 227.985 C 69.555 228.396,71.359 235.602,72.029 236.854 C 72.249 237.264,72.310 237.600,72.165 237.600 C 72.020 237.600,72.070 237.825,72.276 238.100 C 72.481 238.375,72.634 238.870,72.615 239.200 C 72.596 239.530,72.812 240.040,73.094 240.332 C 73.376 240.625,73.521 241.004,73.416 241.174 C 73.011 241.830,78.480 256.038,79.251 256.333 C 79.443 256.407,79.600 256.712,79.600 257.012 C 79.600 257.501,80.825 260.045,81.812 261.607 C 82.019 261.933,82.199 262.290,82.214 262.400 C 82.318 263.212,82.920 264.400,83.227 264.400 C 83.432 264.400,83.600 264.648,83.600 264.952 C 83.600 265.596,86.186 270.014,86.907 270.601 C 87.178 270.822,87.451 271.247,87.514 271.544 C 87.577 271.842,87.892 272.349,88.214 272.671 C 88.536 272.994,88.800 273.514,88.800 273.829 C 88.800 274.143,88.972 274.400,89.181 274.400 C 89.391 274.400,89.869 275.047,90.244 275.837 C 90.619 276.627,91.168 277.366,91.463 277.480 C 91.758 277.593,92.000 277.896,92.000 278.154 C 92.000 278.613,93.802 280.938,95.423 282.571 C 95.876 283.027,96.629 284.032,97.097 284.805 C 97.565 285.578,98.410 286.612,98.974 287.103 C 99.538 287.593,100.000 288.176,100.000 288.397 C 100.000 288.619,100.217 288.755,100.482 288.700 C 100.747 288.645,100.972 288.819,100.982 289.087 C 100.997 289.501,103.030 291.542,113.000 301.152 C 113.660 301.788,114.740 302.639,115.400 303.041 C 116.060 303.444,116.973 304.140,117.429 304.587 C 119.113 306.239,121.392 308.000,121.846 308.000 C 122.104 308.000,122.407 308.242,122.520 308.537 C 122.634 308.832,123.373 309.381,124.163 309.756 C 124.953 310.131,125.600 310.609,125.600 310.819 C 125.600 311.028,125.857 311.200,126.171 311.200 C 126.486 311.200,127.006 311.464,127.329 311.786 C 127.651 312.108,128.158 312.423,128.456 312.486 C 128.753 312.549,129.178 312.822,129.399 313.093 C 129.986 313.814,134.404 316.400,135.048 316.400 C 135.352 316.400,135.600 316.568,135.600 316.773 C 135.600 317.148,136.792 317.673,137.239 317.495 C 137.370 317.443,137.749 317.625,138.081 317.901 C 139.035 318.693,142.387 320.400,142.988 320.400 C 143.288 320.400,143.593 320.557,143.667 320.749 C 143.962 321.520,158.170 326.989,158.826 326.584 C 158.996 326.479,159.420 326.677,159.768 327.025 C 160.115 327.373,160.400 327.572,160.400 327.468 C 160.400 327.364,161.194 327.517,162.163 327.809 C 163.133 328.101,164.033 328.233,164.163 328.103 C 164.294 327.973,164.400 328.077,164.400 328.333 C 164.400 328.595,164.981 328.800,165.720 328.800 C 166.446 328.800,167.256 329.016,167.520 329.280 C 167.784 329.544,168.000 329.612,168.000 329.431 C 168.000 329.250,168.246 329.306,168.547 329.556 C 168.848 329.806,169.837 330.053,170.745 330.105 C 171.653 330.157,172.397 330.319,172.398 330.465 C 172.399 330.610,172.715 330.678,173.100 330.616 C 173.485 330.554,173.988 330.651,174.218 330.833 C 174.449 331.014,174.989 331.154,175.418 331.144 C 175.848 331.133,176.650 331.240,177.200 331.381 C 177.750 331.522,178.830 331.700,179.600 331.777 C 180.370 331.854,181.306 332.042,181.681 332.194 C 182.055 332.346,182.550 332.354,182.781 332.212 C 183.071 332.033,183.200 337.334,183.200 349.385 L 183.200 366.818 156.565 366.789 C 136.496 366.767,129.788 366.878,129.355 367.237 C 129.039 367.499,128.673 367.607,128.542 367.476 C 128.061 366.995,123.445 369.717,121.581 371.581 C 119.717 373.445,116.995 378.061,117.476 378.542 C 117.607 378.673,117.482 379.060,117.199 379.401 C 116.513 380.227,116.522 386.216,117.211 387.800 C 117.498 388.460,117.748 389.120,117.766 389.267 C 117.785 389.413,117.935 389.668,118.100 389.833 C 118.265 389.998,118.400 390.364,118.400 390.647 C 118.400 392.818,124.902 398.791,127.277 398.802 C 127.565 398.804,128.314 399.073,128.941 399.400 C 130.670 400.302,269.330 400.302,271.059 399.400 C 271.686 399.073,272.435 398.804,272.723 398.802 C 275.098 398.791,281.600 392.818,281.600 390.647 C 281.600 390.364,281.735 389.998,281.900 389.833 C 282.065 389.668,282.215 389.413,282.234 389.267 C 282.252 389.120,282.502 388.460,282.789 387.800 C 283.478 386.216,283.487 380.227,282.801 379.401 C 282.518 379.060,282.393 378.673,282.524 378.542 C 283.005 378.061,280.283 373.445,278.419 371.581 C 276.555 369.717,271.939 366.995,271.458 367.476 C 271.327 367.607,270.961 367.499,270.645 367.237 C 270.212 366.878,263.504 366.767,243.435 366.789 L 216.800 366.818 216.800 349.422 C 216.800 334.377,216.879 332.055,217.381 332.248 C 217.700 332.371,218.170 332.342,218.425 332.184 C 218.680 332.027,219.544 331.839,220.345 331.768 C 221.145 331.696,222.250 331.522,222.800 331.381 C 223.350 331.240,224.152 331.133,224.582 331.144 C 225.011 331.154,225.551 331.014,225.782 330.833 C 226.012 330.651,226.515 330.554,226.900 330.616 C 227.285 330.678,227.600 330.555,227.600 330.341 C 227.600 330.127,227.773 330.060,227.985 330.191 C 228.396 330.445,235.602 328.641,236.854 327.971 C 237.264 327.751,237.600 327.690,237.600 327.835 C 237.600 327.980,237.825 327.930,238.100 327.724 C 238.375 327.519,238.870 327.366,239.200 327.385 C 239.530 327.404,240.040 327.188,240.332 326.906 C 240.625 326.624,241.004 326.479,241.174 326.584 C 241.830 326.989,256.038 321.520,256.333 320.749 C 256.407 320.557,256.712 320.400,257.012 320.400 C 257.613 320.400,260.965 318.693,261.919 317.901 C 262.251 317.625,262.540 317.471,262.561 317.559 C 262.640 317.884,264.400 317.132,264.400 316.773 C 264.400 316.568,264.648 316.400,264.952 316.400 C 265.596 316.400,270.014 313.814,270.601 313.093 C 270.822 312.822,271.247 312.549,271.544 312.486 C 271.842 312.423,272.349 312.108,272.671 311.786 C 272.994 311.464,273.514 311.200,273.829 311.200 C 274.143 311.200,274.400 311.028,274.400 310.819 C 274.400 310.609,275.047 310.131,275.837 309.756 C 276.627 309.381,277.366 308.832,277.480 308.537 C 277.593 308.242,277.896 308.000,278.154 308.000 C 278.613 308.000,280.938 306.198,282.571 304.577 C 283.027 304.124,284.032 303.371,284.805 302.903 C 285.578 302.435,286.612 301.590,287.103 301.026 C 287.593 300.462,288.176 300.000,288.397 300.000 C 288.619 300.000,288.755 299.783,288.700 299.518 C 288.645 299.253,288.819 299.028,289.087 299.018 C 289.501 299.003,291.542 296.970,301.152 287.000 C 301.788 286.340,302.639 285.260,303.041 284.600 C 303.444 283.940,304.140 283.027,304.587 282.571 C 306.239 280.887,308.000 278.608,308.000 278.154 C 308.000 277.896,308.242 277.593,308.537 277.480 C 308.832 277.366,309.381 276.627,309.756 275.837 C 310.131 275.047,310.609 274.400,310.819 274.400 C 311.028 274.400,311.200 274.143,311.200 273.829 C 311.200 273.514,311.464 272.994,311.786 272.671 C 312.108 272.349,312.423 271.842,312.486 271.544 C 312.549 271.247,312.822 270.822,313.093 270.601 C 313.814 270.014,316.400 265.596,316.400 264.952 C 316.400 264.648,316.568 264.400,316.773 264.400 C 317.080 264.400,317.682 263.212,317.786 262.400 C 317.801 262.290,317.981 261.933,318.188 261.607 C 319.175 260.045,320.400 257.501,320.400 257.012 C 320.400 256.712,320.557 256.407,320.749 256.333 C 321.520 256.038,326.989 241.830,326.584 241.174 C 326.479 241.004,326.677 240.580,327.025 240.232 C 327.373 239.885,327.572 239.600,327.468 239.600 C 327.364 239.600,327.517 238.806,327.809 237.837 C 328.101 236.867,328.233 235.967,328.103 235.837 C 327.973 235.706,328.077 235.600,328.333 235.600 C 328.595 235.600,328.800 235.019,328.800 234.280 C 328.800 233.554,329.016 232.744,329.280 232.480 C 329.544 232.216,329.612 232.000,329.431 232.000 C 329.250 232.000,329.306 231.754,329.556 231.453 C 329.806 231.152,330.053 230.163,330.105 229.255 C 330.157 228.347,330.319 227.603,330.465 227.602 C 330.610 227.601,330.678 227.285,330.616 226.900 C 330.554 226.515,330.651 226.012,330.833 225.782 C 331.014 225.551,331.154 225.011,331.144 224.582 C 331.133 224.152,331.240 223.350,331.381 222.800 C 331.522 222.250,331.700 221.170,331.777 220.400 C 331.854 219.630,332.011 218.730,332.125 218.400 C 332.239 218.070,332.333 217.530,332.333 217.200 C 332.333 216.870,332.447 215.610,332.586 214.400 C 333.403 207.271,333.789 167.999,333.081 164.000 C 332.605 161.310,331.991 159.600,331.502 159.600 C 331.263 159.600,331.179 159.487,331.317 159.349 C 332.259 158.408,326.912 152.868,324.000 151.768 C 323.670 151.644,323.065 151.360,322.655 151.139 C 322.245 150.918,321.525 150.625,321.055 150.488 C 319.980 150.176,313.538 150.077,313.000 150.364 C 312.620 150.567,312.352 150.642,311.037 150.918 C 308.387 151.474,303.172 156.027,301.781 159.000 C 300.116 162.560,300.095 162.838,299.988 182.021 C 299.864 204.439,299.687 210.001,298.982 213.600 C 298.831 214.370,298.666 215.540,298.614 216.200 C 298.563 216.860,298.419 217.670,298.294 218.000 C 298.169 218.330,298.049 218.870,298.026 219.200 C 297.950 220.300,297.705 221.793,297.501 222.400 C 297.390 222.730,296.893 224.440,296.396 226.200 C 295.899 227.960,294.977 230.810,294.346 232.534 C 293.716 234.258,293.200 236.013,293.200 236.434 C 293.200 236.855,293.040 237.200,292.843 237.200 C 292.495 237.200,291.804 239.103,291.934 239.700 C 291.970 239.865,291.834 240.000,291.631 240.000 C 291.284 240.000,290.158 242.819,290.370 243.155 C 290.424 243.241,290.298 243.421,290.091 243.555 C 289.549 243.907,286.753 249.199,287.105 249.206 C 287.267 249.209,287.220 249.344,286.999 249.506 C 286.779 249.668,286.330 250.340,286.001 251.000 C 285.672 251.660,284.817 253.031,284.101 254.048 C 283.386 255.064,282.800 256.025,282.800 256.184 C 282.800 256.342,282.395 256.829,281.900 257.266 C 281.405 257.703,281.270 257.936,281.600 257.783 C 281.930 257.631,281.677 257.977,281.038 258.553 C 280.399 259.129,279.984 259.600,280.117 259.600 C 280.250 259.600,279.736 260.275,278.975 261.100 C 278.214 261.925,277.375 263.082,277.111 263.671 C 276.846 264.260,276.488 264.655,276.315 264.548 C 276.142 264.440,276.000 264.543,276.000 264.776 C 276.000 265.287,266.882 274.466,265.430 275.417 C 264.867 275.786,264.482 276.210,264.575 276.359 C 264.667 276.508,264.260 276.846,263.671 277.111 C 263.082 277.375,261.925 278.214,261.100 278.975 C 260.275 279.736,259.600 280.250,259.600 280.117 C 259.600 279.984,259.129 280.399,258.553 281.038 C 257.977 281.677,257.631 281.930,257.783 281.600 C 257.936 281.270,257.703 281.405,257.266 281.900 C 256.829 282.395,256.342 282.800,256.184 282.800 C 256.025 282.800,255.064 283.386,254.048 284.101 C 253.031 284.817,251.660 285.672,251.000 286.001 C 250.340 286.330,249.668 286.779,249.506 286.999 C 249.344 287.220,249.209 287.267,249.206 287.105 C 249.199 286.753,243.907 289.549,243.555 290.091 C 243.421 290.298,243.151 290.454,242.955 290.436 C 242.234 290.371,240.000 291.274,240.000 291.631 C 240.000 291.834,239.865 291.970,239.700 291.934 C 239.103 291.804,237.200 292.495,237.200 292.843 C 237.200 293.040,236.851 293.200,236.425 293.200 C 235.999 293.200,234.249 293.740,232.535 294.400 C 230.821 295.060,229.099 295.600,228.709 295.600 C 228.319 295.600,228.000 295.791,228.000 296.024 C 228.000 296.257,227.827 296.341,227.616 296.210 C 227.295 296.012,224.904 296.598,222.400 297.489 C 221.802 297.702,220.340 297.947,219.200 298.026 C 218.870 298.049,218.330 298.169,218.000 298.294 C 217.670 298.419,216.860 298.563,216.200 298.614 C 215.540 298.666,214.370 298.831,213.600 298.982 C 208.799 299.922,191.201 299.922,186.400 298.982 C 185.630 298.831,184.460 298.666,183.800 298.614 C 183.140 298.563,182.330 298.419,182.000 298.294 C 181.670 298.169,181.130 298.049,180.800 298.026 C 179.633 297.945,178.193 297.700,177.600 297.481 C 177.270 297.359,175.560 296.865,173.800 296.383 C 172.040 295.901,169.190 294.988,167.466 294.353 C 165.742 293.719,163.987 293.200,163.566 293.200 C 163.145 293.200,162.800 293.040,162.800 292.843 C 162.800 292.495,160.897 291.804,160.300 291.934 C 160.135 291.970,160.000 291.834,160.000 291.631 C 160.000 291.284,157.181 290.158,156.845 290.370 C 156.759 290.424,156.579 290.298,156.445 290.091 C 156.093 289.549,150.801 286.753,150.794 287.105 C 150.791 287.267,150.656 287.220,150.494 286.999 C 150.332 286.779,149.660 286.330,149.000 286.001 C 148.340 285.672,146.969 284.817,145.952 284.101 C 144.936 283.386,143.975 282.800,143.816 282.800 C 143.658 282.800,143.171 282.395,142.734 281.900 C 142.297 281.405,142.064 281.270,142.217 281.600 C 142.369 281.930,142.023 281.677,141.447 281.038 C 140.871 280.399,140.400 279.984,140.400 280.117 C 140.400 280.250,139.725 279.736,138.900 278.975 C 138.075 278.214,136.918 277.375,136.329 277.111 C 135.740 276.846,135.345 276.488,135.452 276.315 C 135.560 276.142,135.457 276.000,135.224 276.000 C 134.713 276.000,125.534 266.882,124.583 265.430 C 124.214 264.867,123.790 264.482,123.641 264.575 C 123.492 264.667,123.154 264.260,122.889 263.671 C 122.625 263.082,121.786 261.925,121.025 261.100 C 120.264 260.275,119.750 259.600,119.883 259.600 C 120.016 259.600,119.601 259.129,118.962 258.553 C 118.323 257.977,118.070 257.631,118.400 257.783 C 118.730 257.936,118.595 257.703,118.100 257.266 C 117.605 256.829,117.200 256.342,117.200 256.184 C 117.200 256.025,116.614 255.064,115.899 254.048 C 115.183 253.031,114.328 251.660,113.999 251.000 C 113.670 250.340,113.221 249.668,113.001 249.506 C 112.780 249.344,112.733 249.209,112.895 249.206 C 113.247 249.199,110.451 243.907,109.909 243.555 C 109.702 243.421,109.546 243.151,109.564 242.955 C 109.629 242.234,108.726 240.000,108.369 240.000 C 108.166 240.000,108.030 239.865,108.066 239.700 C 108.196 239.103,107.505 237.200,107.157 237.200 C 106.960 237.200,106.800 236.851,106.800 236.425 C 106.800 235.999,106.260 234.249,105.600 232.535 C 104.940 230.821,104.400 229.099,104.400 228.709 C 104.400 228.319,104.209 228.000,103.976 228.000 C 103.743 228.000,103.659 227.827,103.790 227.616 C 103.988 227.295,103.402 224.904,102.511 222.400 C 102.298 221.802,102.053 220.340,101.974 219.200 C 101.951 218.870,101.831 218.330,101.706 218.000 C 101.581 217.670,101.437 216.860,101.386 216.200 C 101.334 215.540,101.169 214.370,101.018 213.600 C 100.312 209.996,100.135 204.423,100.015 182.000 C 99.960 171.770,99.804 163.220,99.669 163.000 C 99.436 162.621,99.364 162.380,99.082 161.037 C 98.298 157.298,93.279 152.495,88.200 150.623 C 86.560 150.019,80.250 149.982,78.933 150.569 " stroke="none" fill="#a451bd" fill-rule="evenodd"></path></g></svg>