<svg id="svg" xmlns="http://www.w3.org/2000/svg" xmlns:xlink="http://www.w3.org/1999/xlink" width="400" height="400" viewBox="0, 0, 400,400" version="1.1"><g id="svgg"><path id="path0" d="M270.175 103.300 L 269.000 104.600 270.300 103.425 C 271.015 102.779,271.600 102.194,271.600 102.125 C 271.600 101.816,271.270 102.088,270.175 103.300 M347.178 126.300 L 345.800 127.800 347.300 126.422 C 348.696 125.138,348.984 124.800,348.678 124.800 C 348.612 124.800,347.937 125.475,347.178 126.300 M296.575 129.700 L 295.400 131.000 296.700 129.825 C 297.415 129.179,298.000 128.594,298.000 128.525 C 298.000 128.216,297.670 128.488,296.575 129.700 M341.775 131.700 L 340.600 133.000 341.900 131.825 C 342.615 131.179,343.200 130.594,343.200 130.525 C 343.200 130.216,342.870 130.488,341.775 131.700 M306.975 166.500 L 305.800 167.800 307.100 166.625 C 307.815 165.979,308.400 165.394,308.400 165.325 C 308.400 165.016,308.070 165.288,306.975 166.500 M262.575 210.900 L 261.400 212.200 262.700 211.025 C 263.415 210.379,264.000 209.794,264.000 209.725 C 264.000 209.416,263.670 209.688,262.575 210.900 " stroke="none" fill="#a451bd" fill-rule="evenodd"></path><path id="path1" d="" stroke="none" fill="#0cc4e4" fill-rule="evenodd"></path><path id="path2" d="M356.000 19.784 C 356.000 19.894,356.720 20.351,357.600 20.800 C 358.480 21.249,359.200 21.526,359.200 21.416 C 359.200 21.306,358.480 20.849,357.600 20.400 C 356.720 19.951,356.000 19.674,356.000 19.784 M291.178 35.100 L 289.800 36.600 291.300 35.222 C 292.696 33.938,292.984 33.600,292.678 33.600 C 292.612 33.600,291.937 34.275,291.178 35.100 M287.381 38.900 L 285.800 40.600 287.500 39.019 C 289.081 37.548,289.384 37.200,289.081 37.200 C 289.016 37.200,288.251 37.965,287.381 38.900 M380.028 43.800 C 380.028 44.020,380.286 44.650,380.600 45.200 C 380.914 45.750,381.172 46.020,381.172 45.800 C 381.172 45.580,380.914 44.950,380.600 44.400 C 380.286 43.850,380.028 43.580,380.028 43.800 M253.600 72.600 C 252.628 73.590,251.923 74.400,252.033 74.400 C 252.143 74.400,253.028 73.590,254.000 72.600 C 254.972 71.610,255.677 70.800,255.567 70.800 C 255.457 70.800,254.572 71.610,253.600 72.600 M288.388 85.100 L 285.800 87.800 288.500 85.212 C 291.008 82.807,291.383 82.400,291.088 82.400 C 291.027 82.400,289.812 83.615,288.388 85.100 M95.900 83.500 C 112.015 83.558,138.385 83.558,154.500 83.500 C 170.615 83.442,157.430 83.395,125.200 83.395 C 92.970 83.395,79.785 83.442,95.900 83.500 M231.775 94.500 L 230.600 95.800 231.900 94.625 C 232.615 93.979,233.200 93.394,233.200 93.325 C 233.200 93.016,232.870 93.288,231.775 94.500 M16.597 216.800 C 16.597 281.370,16.644 307.785,16.700 275.500 C 16.756 243.215,16.756 190.385,16.700 158.100 C 16.644 125.815,16.597 152.230,16.597 216.800 M267.375 106.100 L 266.200 107.400 267.500 106.225 C 268.215 105.579,268.800 104.994,268.800 104.925 C 268.800 104.616,268.470 104.888,267.375 106.100 M366.975 106.500 L 365.800 107.800 367.100 106.625 C 367.815 105.979,368.400 105.394,368.400 105.325 C 368.400 105.016,368.070 105.288,366.975 106.500 M314.788 111.500 L 312.200 114.200 314.900 111.612 C 316.385 110.188,317.600 108.973,317.600 108.912 C 317.600 108.617,317.193 108.992,314.788 111.500 M344.378 129.100 L 343.000 130.600 344.500 129.222 C 345.896 127.938,346.184 127.600,345.878 127.600 C 345.812 127.600,345.137 128.275,344.378 129.100 M293.775 132.500 L 292.600 133.800 293.900 132.625 C 294.615 131.979,295.200 131.394,295.200 131.325 C 295.200 131.016,294.870 131.288,293.775 132.500 M166.575 159.700 L 165.400 161.000 166.700 159.825 C 167.415 159.179,168.000 158.594,168.000 158.525 C 168.000 158.216,167.670 158.488,166.575 159.700 M301.978 171.500 L 300.600 173.000 302.100 171.622 C 303.496 170.338,303.784 170.000,303.478 170.000 C 303.412 170.000,302.737 170.675,301.978 171.500 M137.978 188.300 L 136.600 189.800 138.100 188.422 C 138.925 187.663,139.600 186.988,139.600 186.922 C 139.600 186.616,139.262 186.904,137.978 188.300 M280.989 192.500 L 278.200 195.400 281.100 192.611 C 282.695 191.077,284.000 189.772,284.000 189.711 C 284.000 189.417,283.580 189.806,280.989 192.500 M264.975 208.500 L 263.800 209.800 265.100 208.625 C 265.815 207.979,266.400 207.394,266.400 207.325 C 266.400 207.016,266.070 207.288,264.975 208.500 M316.595 273.600 C 316.595 305.170,316.642 318.085,316.700 302.300 C 316.758 286.515,316.758 260.685,316.700 244.900 C 316.642 229.115,316.595 242.030,316.595 273.600 M242.575 230.900 L 241.400 232.200 242.700 231.025 C 243.415 230.379,244.000 229.794,244.000 229.725 C 244.000 229.416,243.670 229.688,242.575 230.900 M225.375 248.100 L 224.200 249.400 225.500 248.225 C 226.215 247.579,226.800 246.994,226.800 246.925 C 226.800 246.616,226.470 246.888,225.375 248.100 M116.432 266.676 C 116.414 267.598,116.542 268.441,116.716 268.548 C 116.890 268.656,116.967 268.082,116.887 267.272 C 116.669 265.058,116.467 264.795,116.432 266.676 M124.500 383.500 C 156.785 383.556,209.615 383.556,241.900 383.500 C 274.185 383.444,247.770 383.397,183.200 383.397 C 118.630 383.397,92.215 383.444,124.500 383.500 " stroke="none" fill="#0cccdc" fill-rule="evenodd"></path><path id="path3" d="M331.875 14.659 C 331.799 14.734,330.311 14.896,328.569 15.018 C 324.392 15.311,323.876 15.382,323.293 15.743 C 323.022 15.910,322.625 15.939,322.412 15.807 C 322.198 15.675,321.484 15.846,320.824 16.188 C 320.164 16.529,319.484 16.769,319.312 16.722 C 318.875 16.602,315.880 17.622,315.420 18.048 C 315.211 18.242,314.775 18.400,314.452 18.400 C 313.547 18.400,308.400 20.868,308.400 21.302 C 308.400 21.513,308.142 21.586,307.826 21.465 C 307.510 21.344,307.195 21.370,307.126 21.522 C 306.977 21.850,304.529 23.600,304.219 23.600 C 304.013 23.600,302.442 24.871,301.375 25.900 C 301.090 26.175,300.684 26.400,300.471 26.400 C 300.259 26.400,299.982 26.670,299.855 27.000 C 299.729 27.330,299.388 27.600,299.099 27.600 C 298.809 27.600,298.246 28.152,297.847 28.828 C 297.448 29.503,297.029 29.962,296.915 29.848 C 296.679 29.612,140.394 185.838,137.503 189.200 C 136.463 190.410,135.609 191.625,135.606 191.900 C 135.603 192.175,135.440 192.400,135.243 192.400 C 134.943 192.400,134.563 193.331,134.392 194.493 C 134.368 194.654,134.168 195.374,133.948 196.093 C 133.727 196.812,133.452 197.940,133.336 198.600 C 133.220 199.260,132.963 199.997,132.766 200.237 C 132.568 200.477,132.521 200.788,132.660 200.927 C 132.800 201.067,132.693 201.447,132.423 201.773 C 132.152 202.098,132.040 202.540,132.172 202.755 C 132.305 202.969,132.238 203.253,132.024 203.385 C 131.810 203.517,131.729 203.872,131.845 204.172 C 131.960 204.473,131.859 204.840,131.621 204.987 C 131.382 205.135,131.295 205.431,131.428 205.645 C 131.560 205.860,131.458 206.289,131.200 206.600 C 130.942 206.911,130.840 207.340,130.972 207.555 C 131.105 207.769,131.042 208.051,130.832 208.180 C 130.622 208.310,130.456 208.727,130.463 209.108 C 130.470 209.489,130.358 210.250,130.214 210.800 C 130.071 211.350,129.914 211.980,129.865 212.200 C 129.817 212.420,129.637 212.825,129.465 213.100 C 129.293 213.375,129.264 213.780,129.400 214.000 C 129.536 214.220,129.457 214.400,129.224 214.400 C 128.991 214.400,128.800 214.838,128.800 215.374 C 128.800 215.910,128.607 216.855,128.370 217.474 C 128.134 218.093,127.867 219.140,127.776 219.800 C 127.686 220.460,127.510 221.450,127.385 222.000 C 127.261 222.550,127.069 223.437,126.959 223.972 C 126.848 224.507,126.638 225.137,126.491 225.372 C 126.344 225.607,126.188 226.160,126.144 226.600 C 126.062 227.428,126.021 227.598,125.050 231.109 C 124.356 233.622,124.337 233.689,124.159 234.200 C 124.083 234.420,123.656 236.220,123.210 238.200 C 122.765 240.180,122.301 242.160,122.180 242.600 C 122.058 243.040,121.873 243.850,121.768 244.400 C 121.663 244.950,121.465 245.670,121.328 246.000 C 120.925 246.972,120.743 247.742,120.690 248.700 C 120.662 249.195,120.466 249.600,120.253 249.600 C 120.041 249.600,119.975 249.709,120.108 249.841 C 120.240 249.974,120.181 250.524,119.975 251.065 C 119.770 251.605,119.521 252.622,119.423 253.324 C 119.325 254.026,119.067 255.185,118.850 255.900 C 118.633 256.615,118.524 257.200,118.608 257.200 C 118.691 257.200,118.488 257.849,118.156 258.643 C 117.824 259.437,117.647 260.181,117.762 260.296 C 117.878 260.411,117.780 260.863,117.546 261.301 C 117.312 261.739,117.120 262.705,117.120 263.448 C 117.120 264.192,116.964 264.800,116.773 264.800 C 116.581 264.800,116.499 265.025,116.590 265.300 C 116.680 265.575,116.848 266.790,116.962 268.000 C 117.223 270.765,117.318 271.180,117.959 272.348 C 118.393 273.139,118.390 273.242,117.940 272.971 C 117.388 272.639,117.991 273.551,119.100 274.727 C 119.375 275.019,119.600 275.514,119.600 275.829 C 119.600 276.521,124.011 280.840,124.445 280.572 C 124.613 280.468,124.929 280.702,125.147 281.092 C 125.365 281.481,125.601 281.760,125.672 281.711 C 125.925 281.536,127.600 282.099,127.600 282.359 C 127.600 282.506,128.005 282.667,128.500 282.717 C 129.875 282.856,130.561 283.001,131.000 283.245 C 131.781 283.679,137.578 283.054,138.791 282.405 C 139.178 282.198,139.589 282.122,139.704 282.238 C 139.819 282.353,140.563 282.176,141.357 281.844 C 142.151 281.512,142.800 281.309,142.800 281.392 C 142.800 281.476,143.385 281.367,144.100 281.150 C 144.815 280.933,145.974 280.675,146.676 280.577 C 147.378 280.479,148.395 280.230,148.935 280.025 C 149.476 279.819,150.026 279.760,150.159 279.892 C 150.291 280.025,150.400 279.959,150.400 279.747 C 150.400 279.534,150.805 279.338,151.300 279.310 C 152.258 279.257,153.028 279.075,154.000 278.672 C 154.330 278.535,155.050 278.337,155.600 278.232 C 156.150 278.127,156.960 277.942,157.400 277.820 C 157.840 277.699,159.820 277.235,161.800 276.790 C 163.780 276.344,165.627 275.899,165.904 275.801 C 166.182 275.702,166.492 275.602,166.595 275.577 C 166.698 275.552,167.731 275.270,168.891 274.950 C 172.402 273.979,172.572 273.938,173.400 273.856 C 173.840 273.812,174.393 273.656,174.628 273.509 C 174.863 273.362,175.493 273.152,176.028 273.041 C 176.563 272.931,177.450 272.739,178.000 272.615 C 178.550 272.490,179.540 272.314,180.200 272.224 C 180.860 272.133,181.907 271.866,182.526 271.630 C 183.145 271.393,184.090 271.200,184.626 271.200 C 185.162 271.200,185.600 271.009,185.600 270.776 C 185.600 270.543,185.780 270.464,186.000 270.600 C 186.220 270.736,186.625 270.707,186.900 270.535 C 187.175 270.363,187.580 270.183,187.800 270.135 C 188.020 270.086,188.650 269.929,189.200 269.786 C 189.750 269.642,190.511 269.530,190.892 269.537 C 191.273 269.544,191.690 269.378,191.820 269.168 C 191.949 268.958,192.231 268.895,192.445 269.028 C 192.660 269.160,193.089 269.058,193.400 268.800 C 193.711 268.542,194.140 268.440,194.355 268.572 C 194.569 268.705,194.865 268.618,195.013 268.379 C 195.160 268.141,195.527 268.040,195.828 268.155 C 196.128 268.271,196.483 268.190,196.615 267.976 C 196.747 267.762,197.031 267.695,197.245 267.828 C 197.460 267.960,197.902 267.848,198.227 267.577 C 198.553 267.307,198.933 267.200,199.073 267.340 C 199.212 267.479,199.523 267.432,199.763 267.234 C 200.003 267.037,200.740 266.780,201.400 266.664 C 202.060 266.548,203.188 266.273,203.907 266.052 C 204.626 265.832,205.256 265.655,205.307 265.659 C 205.888 265.702,207.600 265.029,207.600 264.757 C 207.600 264.560,207.825 264.396,208.100 264.390 C 208.375 264.385,209.197 263.890,209.927 263.290 C 211.721 261.816,370.800 102.768,370.800 102.448 C 370.800 102.309,371.430 101.670,372.200 101.028 C 372.970 100.386,373.600 99.714,373.600 99.533 C 373.600 99.232,374.692 97.827,375.900 96.575 C 376.175 96.290,376.400 95.947,376.400 95.812 C 376.400 95.480,378.131 93.031,378.478 92.874 C 378.630 92.805,378.656 92.490,378.535 92.174 C 378.414 91.858,378.487 91.600,378.698 91.600 C 379.132 91.600,381.600 86.453,381.600 85.548 C 381.600 85.225,381.758 84.789,381.952 84.580 C 382.378 84.120,383.398 81.125,383.278 80.688 C 383.231 80.516,383.471 79.836,383.812 79.176 C 384.154 78.516,384.325 77.802,384.193 77.588 C 384.061 77.375,384.090 76.978,384.257 76.707 C 384.608 76.140,384.664 75.750,385.024 71.400 C 385.510 65.519,384.857 55.592,383.963 55.266 C 383.761 55.192,383.702 54.959,383.832 54.748 C 383.962 54.537,383.867 54.122,383.620 53.825 C 383.374 53.527,383.200 53.130,383.233 52.942 C 383.267 52.754,383.251 52.465,383.197 52.300 C 383.144 52.135,383.055 51.820,383.000 51.600 C 382.945 51.380,382.864 51.155,382.819 51.100 C 382.775 51.045,382.674 50.653,382.594 50.230 C 382.456 49.490,381.912 48.264,380.343 45.159 C 379.943 44.367,379.732 43.602,379.874 43.459 C 380.017 43.317,379.913 43.200,379.643 43.200 C 379.373 43.200,379.264 43.020,379.400 42.800 C 379.536 42.580,379.446 42.400,379.200 42.400 C 378.954 42.400,378.851 42.240,378.972 42.045 C 379.093 41.850,378.925 41.470,378.600 41.200 C 378.275 40.930,378.096 40.569,378.202 40.397 C 378.308 40.225,378.126 39.981,377.798 39.854 C 377.469 39.728,377.200 39.349,377.200 39.013 C 377.200 38.676,377.009 38.400,376.776 38.400 C 376.543 38.400,376.464 38.220,376.600 38.000 C 376.736 37.780,376.657 37.600,376.424 37.600 C 376.191 37.600,376.000 37.332,376.000 37.003 C 376.000 36.675,375.640 36.182,375.200 35.907 C 374.760 35.632,374.400 35.187,374.400 34.917 C 374.400 34.271,365.738 25.600,365.092 25.600 C 364.817 25.600,364.368 25.240,364.093 24.800 C 363.818 24.360,363.325 24.000,362.997 24.000 C 362.668 24.000,362.400 23.809,362.400 23.576 C 362.400 23.343,362.220 23.264,362.000 23.400 C 361.780 23.536,361.600 23.457,361.600 23.224 C 361.600 22.991,361.339 22.800,361.020 22.800 C 360.701 22.800,360.280 22.514,360.084 22.164 C 359.888 21.814,359.654 21.561,359.564 21.601 C 359.183 21.770,356.000 20.280,356.000 19.933 C 356.000 19.724,355.820 19.664,355.600 19.800 C 355.380 19.936,355.200 19.846,355.200 19.600 C 355.200 19.354,355.020 19.264,354.800 19.400 C 354.580 19.536,354.400 19.457,354.400 19.224 C 354.400 18.991,353.990 18.800,353.489 18.800 C 352.988 18.800,352.216 18.547,351.774 18.237 C 351.332 17.928,350.617 17.613,350.185 17.537 C 349.753 17.462,349.306 17.276,349.191 17.124 C 349.007 16.881,347.840 16.559,346.000 16.246 C 345.670 16.189,345.130 16.027,344.800 15.885 C 343.997 15.540,341.217 15.175,337.800 14.966 C 336.260 14.872,334.328 14.733,333.506 14.658 C 332.684 14.583,331.950 14.583,331.875 14.659 M339.000 48.833 C 339.880 49.143,340.732 49.577,340.894 49.798 C 341.056 50.019,341.191 50.053,341.194 49.873 C 341.197 49.693,341.715 49.912,342.345 50.361 C 342.975 50.809,343.560 51.114,343.645 51.037 C 343.730 50.961,345.060 52.168,346.600 53.720 C 348.140 55.272,349.142 56.389,348.827 56.202 C 348.513 56.016,348.759 56.524,349.375 57.332 C 349.991 58.139,350.339 58.803,350.147 58.806 C 349.956 58.809,350.034 58.960,350.319 59.142 C 351.499 59.890,352.368 68.500,351.536 71.200 C 350.926 73.178,350.585 73.955,349.737 75.300 C 349.216 76.125,348.909 76.800,349.053 76.800 C 349.198 76.800,348.831 77.250,348.238 77.800 C 347.644 78.350,347.246 78.800,347.352 78.800 C 347.582 78.800,307.956 118.477,240.186 186.106 C 212.834 213.400,190.583 235.298,190.089 235.406 C 189.600 235.513,188.840 235.690,188.400 235.800 C 187.960 235.910,187.240 236.090,186.800 236.200 C 186.360 236.310,185.640 236.490,185.200 236.600 C 184.760 236.710,184.040 236.890,183.600 237.000 C 183.160 237.110,182.440 237.290,182.000 237.400 C 181.560 237.510,180.840 237.690,180.400 237.800 C 179.960 237.910,179.240 238.090,178.800 238.200 C 178.360 238.310,177.640 238.490,177.200 238.600 C 176.760 238.710,175.995 238.908,175.500 239.039 C 175.005 239.170,174.195 239.296,173.700 239.319 C 173.205 239.342,172.800 239.487,172.800 239.643 C 172.800 239.798,172.440 239.831,172.000 239.716 C 171.535 239.594,171.200 239.704,171.200 239.977 C 171.200 240.236,171.012 240.331,170.782 240.189 C 170.553 240.047,170.148 240.104,169.882 240.314 C 169.617 240.525,169.085 240.646,168.700 240.584 C 168.315 240.522,168.000 240.625,168.000 240.812 C 168.000 241.000,167.640 241.085,167.200 241.000 C 166.760 240.915,166.400 240.986,166.400 241.156 C 166.400 241.327,166.175 241.482,165.900 241.501 C 165.625 241.520,164.950 241.658,164.400 241.807 C 163.850 241.956,162.995 242.096,162.500 242.119 C 162.005 242.142,161.600 242.277,161.600 242.419 C 161.600 242.562,161.062 242.694,160.405 242.712 C 159.748 242.731,158.991 242.882,158.722 243.048 C 156.996 244.115,155.885 243.004,156.952 241.278 C 157.118 241.009,157.269 240.252,157.288 239.595 C 157.306 238.938,157.438 238.400,157.581 238.400 C 157.723 238.400,157.858 237.995,157.881 237.500 C 157.904 237.005,158.044 236.150,158.193 235.600 C 158.342 235.050,158.480 234.375,158.499 234.100 C 158.518 233.825,158.673 233.600,158.844 233.600 C 159.014 233.600,159.085 233.240,159.000 232.800 C 158.915 232.360,159.000 232.000,159.188 232.000 C 159.375 232.000,159.478 231.685,159.416 231.300 C 159.354 230.915,159.475 230.383,159.686 230.118 C 159.896 229.852,159.953 229.447,159.811 229.218 C 159.669 228.988,159.764 228.800,160.023 228.800 C 160.296 228.800,160.406 228.465,160.284 228.000 C 160.169 227.560,160.202 227.200,160.357 227.200 C 160.513 227.200,160.658 226.795,160.681 226.300 C 160.704 225.805,160.830 224.995,160.961 224.500 C 161.092 224.005,161.290 223.240,161.400 222.800 C 161.510 222.360,161.690 221.640,161.800 221.200 C 161.910 220.760,162.090 220.040,162.200 219.600 C 162.310 219.160,162.490 218.440,162.600 218.000 C 162.710 217.560,162.890 216.840,163.000 216.400 C 163.110 215.960,163.290 215.240,163.400 214.800 C 163.510 214.360,163.690 213.640,163.800 213.200 C 163.910 212.760,164.090 212.040,164.200 211.600 C 164.310 211.160,164.487 210.400,164.594 209.911 C 164.702 209.417,186.600 187.166,213.894 159.814 C 281.523 92.044,321.200 52.418,321.200 52.648 C 321.200 52.754,321.650 52.356,322.200 51.762 C 322.750 51.169,323.200 50.802,323.200 50.947 C 323.200 51.091,323.875 50.784,324.700 50.263 C 326.122 49.366,327.543 48.764,328.737 48.554 C 329.032 48.503,329.376 48.358,329.501 48.233 C 329.933 47.800,337.406 48.273,339.000 48.833 M63.156 50.173 C 63.070 50.256,62.010 50.413,60.800 50.522 C 59.590 50.630,58.150 50.830,57.600 50.967 C 56.757 51.176,55.474 51.411,53.400 51.737 C 53.180 51.772,52.902 51.930,52.783 52.090 C 52.663 52.249,52.213 52.435,51.783 52.501 C 51.352 52.568,50.775 52.764,50.500 52.935 C 50.225 53.107,49.847 53.152,49.659 53.036 C 49.471 52.920,48.976 53.084,48.559 53.400 C 48.142 53.716,47.485 53.980,47.100 53.987 C 46.715 53.994,46.400 54.180,46.400 54.400 C 46.400 54.620,46.202 54.800,45.960 54.800 C 45.355 54.800,42.654 56.079,42.360 56.506 C 42.228 56.697,41.826 56.896,41.466 56.949 C 41.106 57.002,40.404 57.398,39.906 57.828 C 38.425 59.108,36.400 60.474,36.400 60.193 C 36.400 60.049,35.770 60.580,35.000 61.373 C 34.230 62.166,33.600 62.736,33.600 62.640 C 33.600 62.544,32.397 63.666,30.926 65.133 C 29.455 66.600,28.285 67.935,28.326 68.100 C 28.367 68.265,28.220 68.400,28.000 68.400 C 27.780 68.400,27.600 68.589,27.600 68.819 C 27.600 69.050,27.175 69.635,26.656 70.119 C 26.136 70.604,25.583 71.408,25.427 71.906 C 25.270 72.404,24.975 72.708,24.771 72.582 C 24.567 72.456,24.400 72.711,24.400 73.148 C 24.400 73.585,24.137 74.206,23.816 74.527 C 23.495 74.848,22.752 76.125,22.165 77.363 C 21.579 78.602,20.942 79.712,20.750 79.831 C 20.557 79.950,20.400 80.369,20.400 80.762 C 20.400 81.155,20.118 82.042,19.773 82.733 C 19.429 83.424,19.276 84.200,19.435 84.457 C 19.625 84.765,19.549 84.816,19.210 84.606 C 18.866 84.393,18.762 84.472,18.896 84.844 C 19.006 85.150,18.850 86.005,18.549 86.745 C 16.763 91.142,16.894 80.939,16.872 217.000 C 16.851 345.970,16.790 337.514,17.788 342.600 C 18.176 344.580,18.548 346.560,18.614 347.000 C 18.680 347.440,18.770 347.890,18.814 348.000 C 18.858 348.110,18.873 348.335,18.847 348.500 C 18.821 348.665,18.999 348.800,19.243 348.800 C 19.486 348.800,19.589 349.052,19.470 349.361 C 19.352 349.669,19.367 350.034,19.505 350.171 C 19.642 350.308,19.813 350.807,19.885 351.279 C 19.957 351.751,20.171 352.331,20.361 352.569 C 21.076 353.464,23.200 357.736,23.200 358.280 C 23.200 358.592,23.380 358.736,23.600 358.600 C 23.820 358.464,24.000 358.617,24.000 358.940 C 24.000 359.264,24.689 360.399,25.530 361.464 C 26.372 362.529,27.097 363.533,27.141 363.696 C 27.430 364.756,27.756 365.200,28.243 365.200 C 28.549 365.200,28.800 365.381,28.800 365.602 C 28.800 366.092,36.063 373.271,36.309 373.024 C 36.406 372.927,37.382 373.558,38.478 374.424 C 39.575 375.291,40.736 376.000,41.060 376.000 C 41.383 376.000,41.536 376.180,41.400 376.400 C 41.264 376.620,41.407 376.800,41.717 376.800 C 42.214 376.800,43.851 377.585,47.200 379.429 C 49.291 380.580,58.955 382.780,63.000 383.026 C 65.532 383.179,299.949 383.149,304.000 382.994 C 307.522 382.860,311.362 382.219,313.255 381.451 C 313.995 381.150,314.850 380.994,315.156 381.104 C 315.528 381.238,315.607 381.134,315.394 380.790 C 315.184 380.451,315.235 380.375,315.543 380.565 C 315.800 380.724,316.576 380.571,317.267 380.227 C 317.958 379.882,318.845 379.600,319.238 379.600 C 319.631 379.600,320.050 379.443,320.169 379.250 C 320.288 379.058,321.398 378.421,322.637 377.835 C 323.875 377.248,325.152 376.505,325.473 376.184 C 325.794 375.863,326.415 375.600,326.852 375.600 C 327.289 375.600,327.544 375.433,327.418 375.229 C 327.292 375.025,327.596 374.730,328.094 374.573 C 328.592 374.417,329.396 373.864,329.881 373.344 C 330.365 372.825,330.950 372.400,331.181 372.400 C 331.411 372.400,331.600 372.220,331.600 372.000 C 331.600 371.780,331.735 371.633,331.900 371.674 C 332.065 371.715,333.400 370.545,334.867 369.074 C 336.334 367.603,337.456 366.400,337.360 366.400 C 337.264 366.400,337.834 365.770,338.627 365.000 C 339.420 364.230,339.951 363.600,339.807 363.600 C 339.526 363.600,340.892 361.575,342.172 360.094 C 342.602 359.596,342.998 358.894,343.051 358.534 C 343.104 358.174,343.303 357.772,343.494 357.640 C 343.921 357.346,345.200 354.645,345.200 354.040 C 345.200 353.798,345.380 353.600,345.600 353.600 C 345.820 353.600,346.006 353.285,346.013 352.900 C 346.020 352.515,346.284 351.858,346.600 351.441 C 346.916 351.024,347.080 350.529,346.964 350.341 C 346.848 350.153,346.893 349.775,347.065 349.500 C 347.236 349.225,347.432 348.648,347.499 348.217 C 347.565 347.787,347.751 347.337,347.910 347.217 C 348.070 347.098,348.228 346.820,348.263 346.600 C 348.712 343.743,348.798 343.317,349.506 340.400 C 350.183 337.612,350.010 215.025,349.325 212.600 C 348.953 211.280,348.502 210.140,348.324 210.067 C 348.146 209.993,348.000 209.588,348.000 209.167 C 348.000 208.745,347.809 208.400,347.576 208.400 C 347.343 208.400,347.277 208.200,347.428 207.955 C 347.714 207.492,343.507 203.200,342.767 203.200 C 342.539 203.200,342.483 202.989,342.642 202.732 C 342.836 202.417,342.713 202.348,342.266 202.519 C 341.900 202.660,341.600 202.601,341.600 202.387 C 341.600 202.174,341.255 202.000,340.833 202.000 C 340.412 202.000,340.002 201.806,339.923 201.568 C 339.498 200.295,328.400 199.679,328.400 200.929 C 328.400 201.125,328.130 201.182,327.800 201.055 C 327.470 200.929,327.200 200.999,327.200 201.213 C 327.200 201.426,326.840 201.600,326.400 201.600 C 325.960 201.600,325.600 201.768,325.600 201.973 C 325.600 202.178,325.195 202.465,324.700 202.611 C 323.273 203.032,318.381 208.284,318.682 209.071 C 318.851 209.511,318.781 209.636,318.473 209.445 C 318.177 209.262,318.090 209.368,318.232 209.739 C 318.354 210.058,318.273 210.431,318.050 210.569 C 317.828 210.706,317.532 211.669,317.393 212.709 C 317.254 213.749,317.065 214.836,316.973 215.125 C 316.881 215.414,316.797 242.684,316.787 275.725 C 316.769 334.493,316.677 339.200,315.551 339.200 C 315.358 339.200,315.243 339.335,315.295 339.500 C 315.450 339.989,314.333 342.400,313.951 342.400 C 313.758 342.400,313.600 342.615,313.600 342.877 C 313.600 343.608,309.275 347.566,308.174 347.842 C 307.638 347.977,307.200 348.214,307.200 348.370 C 307.200 350.033,309.809 349.999,183.066 349.993 L 63.197 349.987 61.099 349.164 C 59.944 348.710,58.940 348.173,58.867 347.970 C 58.793 347.766,58.431 347.600,58.061 347.600 C 57.236 347.600,52.400 342.703,52.400 341.868 C 52.400 341.537,52.221 341.207,52.002 341.133 C 49.125 340.169,48.754 92.800,51.630 92.800 C 51.786 92.800,52.023 92.362,52.158 91.826 C 52.434 90.725,56.392 86.400,57.123 86.400 C 57.385 86.400,57.600 86.242,57.600 86.049 C 57.600 85.667,60.011 84.550,60.500 84.705 C 60.665 84.757,60.800 84.642,60.800 84.449 C 60.800 83.317,65.437 83.227,124.270 83.213 C 157.308 83.205,184.578 83.122,184.870 83.029 C 185.161 82.936,186.251 82.746,187.291 82.607 C 188.331 82.468,189.294 82.172,189.431 81.950 C 189.569 81.727,189.942 81.646,190.261 81.768 C 190.632 81.910,190.738 81.823,190.555 81.527 C 190.364 81.219,190.489 81.149,190.929 81.318 C 191.716 81.619,196.968 76.727,197.389 75.300 C 197.535 74.805,197.822 74.400,198.027 74.400 C 198.232 74.400,198.400 74.040,198.400 73.600 C 198.400 73.160,198.574 72.800,198.787 72.800 C 199.001 72.800,199.071 72.530,198.945 72.200 C 198.818 71.870,198.875 71.600,199.071 71.600 C 200.345 71.600,199.632 60.605,198.324 60.067 C 198.146 59.993,198.000 59.588,198.000 59.167 C 198.000 58.745,197.809 58.400,197.576 58.400 C 197.343 58.400,197.277 58.200,197.428 57.955 C 197.714 57.492,193.507 53.200,192.767 53.200 C 192.539 53.200,192.483 52.989,192.642 52.732 C 192.836 52.417,192.713 52.348,192.266 52.519 C 191.900 52.660,191.600 52.601,191.600 52.387 C 191.600 52.174,191.255 52.000,190.833 52.000 C 190.412 52.000,190.002 51.806,189.923 51.568 C 189.425 50.075,186.978 50.017,124.156 50.019 C 90.692 50.020,63.242 50.090,63.156 50.173 " stroke="none" fill="#a451bd" fill-rule="evenodd"></path><path id="path4" d="M331.875 14.659 C 331.799 14.734,330.311 14.896,328.569 15.018 C 324.392 15.311,323.876 15.382,323.293 15.743 C 323.022 15.910,322.625 15.939,322.412 15.807 C 322.198 15.675,321.484 15.846,320.824 16.188 C 320.164 16.529,319.484 16.769,319.312 16.722 C 318.875 16.602,315.880 17.622,315.420 18.048 C 315.211 18.242,314.775 18.400,314.452 18.400 C 313.547 18.400,308.400 20.868,308.400 21.302 C 308.400 21.513,308.142 21.586,307.826 21.465 C 307.510 21.344,307.195 21.370,307.126 21.522 C 306.977 21.850,304.529 23.600,304.219 23.600 C 304.013 23.600,302.442 24.871,301.375 25.900 C 301.090 26.175,300.684 26.400,300.471 26.400 C 300.259 26.400,299.982 26.670,299.855 27.000 C 299.729 27.330,299.388 27.600,299.099 27.600 C 298.809 27.600,298.246 28.152,297.847 28.828 C 297.448 29.503,297.029 29.962,296.915 29.848 C 296.679 29.612,140.394 185.838,137.503 189.200 C 136.463 190.410,135.609 191.625,135.606 191.900 C 135.603 192.175,135.440 192.400,135.243 192.400 C 134.943 192.400,134.563 193.331,134.392 194.493 C 134.368 194.654,134.168 195.374,133.948 196.093 C 133.727 196.812,133.452 197.940,133.336 198.600 C 133.220 199.260,132.963 199.997,132.766 200.237 C 132.568 200.477,132.521 200.788,132.660 200.927 C 132.800 201.067,132.693 201.447,132.423 201.773 C 132.152 202.098,132.040 202.540,132.172 202.755 C 132.305 202.969,132.238 203.253,132.024 203.385 C 131.810 203.517,131.729 203.872,131.845 204.172 C 131.960 204.473,131.859 204.840,131.621 204.987 C 131.382 205.135,131.295 205.431,131.428 205.645 C 131.560 205.860,131.458 206.289,131.200 206.600 C 130.942 206.911,130.840 207.340,130.972 207.555 C 131.105 207.769,131.042 208.051,130.832 208.180 C 130.622 208.310,130.456 208.727,130.463 209.108 C 130.470 209.489,130.358 210.250,130.214 210.800 C 130.071 211.350,129.914 211.980,129.865 212.200 C 129.817 212.420,129.637 212.825,129.465 213.100 C 129.293 213.375,129.264 213.780,129.400 214.000 C 129.536 214.220,129.457 214.400,129.224 214.400 C 128.991 214.400,128.800 214.838,128.800 215.374 C 128.800 215.910,128.607 216.855,128.370 217.474 C 128.134 218.093,127.867 219.140,127.776 219.800 C 127.686 220.460,127.510 221.450,127.385 222.000 C 127.261 222.550,127.069 223.437,126.959 223.972 C 126.848 224.507,126.638 225.137,126.491 225.372 C 126.344 225.607,126.188 226.160,126.144 226.600 C 126.062 227.428,126.021 227.598,125.050 231.109 C 124.356 233.622,124.337 233.689,124.159 234.200 C 124.083 234.420,123.656 236.220,123.210 238.200 C 122.765 240.180,122.301 242.160,122.180 242.600 C 122.058 243.040,121.873 243.850,121.768 244.400 C 121.663 244.950,121.465 245.670,121.328 246.000 C 120.925 246.972,120.743 247.742,120.690 248.700 C 120.662 249.195,120.466 249.600,120.253 249.600 C 120.041 249.600,119.975 249.709,120.108 249.841 C 120.240 249.974,120.181 250.524,119.975 251.065 C 119.770 251.605,119.521 252.622,119.423 253.324 C 119.325 254.026,119.067 255.185,118.850 255.900 C 118.633 256.615,118.524 257.200,118.608 257.200 C 118.691 257.200,118.488 257.849,118.156 258.643 C 117.824 259.437,117.647 260.181,117.762 260.296 C 117.878 260.411,117.780 260.863,117.546 261.301 C 117.312 261.739,117.120 262.705,117.120 263.448 C 117.120 264.192,116.964 264.800,116.773 264.800 C 116.581 264.800,116.499 265.025,116.590 265.300 C 116.680 265.575,116.848 266.790,116.962 268.000 C 117.223 270.765,117.318 271.180,117.959 272.348 C 118.393 273.139,118.390 273.242,117.940 272.971 C 117.388 272.639,117.991 273.551,119.100 274.727 C 119.375 275.019,119.600 275.514,119.600 275.829 C 119.600 276.521,124.011 280.840,124.445 280.572 C 124.613 280.468,124.929 280.702,125.147 281.092 C 125.365 281.481,125.601 281.760,125.672 281.711 C 125.925 281.536,127.600 282.099,127.600 282.359 C 127.600 282.506,128.005 282.667,128.500 282.717 C 129.875 282.856,130.561 283.001,131.000 283.245 C 131.781 283.679,137.578 283.054,138.791 282.405 C 139.178 282.198,139.589 282.122,139.704 282.238 C 139.819 282.353,140.563 282.176,141.357 281.844 C 142.151 281.512,142.800 281.309,142.800 281.392 C 142.800 281.476,143.385 281.367,144.100 281.150 C 144.815 280.933,145.974 280.675,146.676 280.577 C 147.378 280.479,148.395 280.230,148.935 280.025 C 149.476 279.819,150.026 279.760,150.159 279.892 C 150.291 280.025,150.400 279.959,150.400 279.747 C 150.400 279.534,150.805 279.338,151.300 279.310 C 152.258 279.257,153.028 279.075,154.000 278.672 C 154.330 278.535,155.050 278.337,155.600 278.232 C 156.150 278.127,156.960 277.942,157.400 277.820 C 157.840 277.699,159.820 277.235,161.800 276.790 C 163.780 276.344,165.627 275.899,165.904 275.801 C 166.182 275.702,166.492 275.602,166.595 275.577 C 166.698 275.552,167.731 275.270,168.891 274.950 C 172.402 273.979,172.572 273.938,173.400 273.856 C 173.840 273.812,174.393 273.656,174.628 273.509 C 174.863 273.362,175.493 273.152,176.028 273.041 C 176.563 272.931,177.450 272.739,178.000 272.615 C 178.550 272.490,179.540 272.314,180.200 272.224 C 180.860 272.133,181.907 271.866,182.526 271.630 C 183.145 271.393,184.090 271.200,184.626 271.200 C 185.162 271.200,185.600 271.009,185.600 270.776 C 185.600 270.543,185.780 270.464,186.000 270.600 C 186.220 270.736,186.625 270.707,186.900 270.535 C 187.175 270.363,187.580 270.183,187.800 270.135 C 188.020 270.086,188.650 269.929,189.200 269.786 C 189.750 269.642,190.511 269.530,190.892 269.537 C 191.273 269.544,191.690 269.378,191.820 269.168 C 191.949 268.958,192.231 268.895,192.445 269.028 C 192.660 269.160,193.089 269.058,193.400 268.800 C 193.711 268.542,194.140 268.440,194.355 268.572 C 194.569 268.705,194.865 268.618,195.013 268.379 C 195.160 268.141,195.527 268.040,195.828 268.155 C 196.128 268.271,196.483 268.190,196.615 267.976 C 196.747 267.762,197.031 267.695,197.245 267.828 C 197.460 267.960,197.902 267.848,198.227 267.577 C 198.553 267.307,198.933 267.200,199.073 267.340 C 199.212 267.479,199.523 267.432,199.763 267.234 C 200.003 267.037,200.740 266.780,201.400 266.664 C 202.060 266.548,203.188 266.273,203.907 266.052 C 204.626 265.832,205.256 265.655,205.307 265.659 C 205.888 265.702,207.600 265.029,207.600 264.757 C 207.600 264.560,207.825 264.396,208.100 264.390 C 208.375 264.385,209.197 263.890,209.927 263.290 C 211.721 261.816,370.800 102.768,370.800 102.448 C 370.800 102.309,371.430 101.670,372.200 101.028 C 372.970 100.386,373.600 99.714,373.600 99.533 C 373.600 99.232,374.692 97.827,375.900 96.575 C 376.175 96.290,376.400 95.947,376.400 95.812 C 376.400 95.480,378.131 93.031,378.478 92.874 C 378.630 92.805,378.656 92.490,378.535 92.174 C 378.414 91.858,378.487 91.600,378.698 91.600 C 379.132 91.600,381.600 86.453,381.600 85.548 C 381.600 85.225,381.758 84.789,381.952 84.580 C 382.378 84.120,383.398 81.125,383.278 80.688 C 383.231 80.516,383.471 79.836,383.812 79.176 C 384.154 78.516,384.325 77.802,384.193 77.588 C 384.061 77.375,384.090 76.978,384.257 76.707 C 384.608 76.140,384.664 75.750,385.024 71.400 C 385.510 65.519,384.857 55.592,383.963 55.266 C 383.761 55.192,383.702 54.959,383.832 54.748 C 383.962 54.537,383.867 54.122,383.620 53.825 C 383.374 53.527,383.200 53.130,383.233 52.942 C 383.267 52.754,383.251 52.465,383.197 52.300 C 383.144 52.135,383.055 51.820,383.000 51.600 C 382.945 51.380,382.864 51.155,382.819 51.100 C 382.775 51.045,382.674 50.653,382.594 50.230 C 382.456 49.490,381.912 48.264,380.343 45.159 C 379.943 44.367,379.732 43.602,379.874 43.459 C 380.017 43.317,379.913 43.200,379.643 43.200 C 379.373 43.200,379.264 43.020,379.400 42.800 C 379.536 42.580,379.446 42.400,379.200 42.400 C 378.954 42.400,378.851 42.240,378.972 42.045 C 379.093 41.850,378.925 41.470,378.600 41.200 C 378.275 40.930,378.096 40.569,378.202 40.397 C 378.308 40.225,378.126 39.981,377.798 39.854 C 377.469 39.728,377.200 39.349,377.200 39.013 C 377.200 38.676,377.009 38.400,376.776 38.400 C 376.543 38.400,376.464 38.220,376.600 38.000 C 376.736 37.780,376.657 37.600,376.424 37.600 C 376.191 37.600,376.000 37.332,376.000 37.003 C 376.000 36.675,375.640 36.182,375.200 35.907 C 374.760 35.632,374.400 35.187,374.400 34.917 C 374.400 34.271,365.738 25.600,365.092 25.600 C 364.817 25.600,364.368 25.240,364.093 24.800 C 363.818 24.360,363.325 24.000,362.997 24.000 C 362.668 24.000,362.400 23.809,362.400 23.576 C 362.400 23.343,362.220 23.264,362.000 23.400 C 361.780 23.536,361.600 23.457,361.600 23.224 C 361.600 22.991,361.339 22.800,361.020 22.800 C 360.701 22.800,360.280 22.514,360.084 22.164 C 359.888 21.814,359.654 21.561,359.564 21.601 C 359.183 21.770,356.000 20.280,356.000 19.933 C 356.000 19.724,355.820 19.664,355.600 19.800 C 355.380 19.936,355.200 19.846,355.200 19.600 C 355.200 19.354,355.020 19.264,354.800 19.400 C 354.580 19.536,354.400 19.457,354.400 19.224 C 354.400 18.991,353.990 18.800,353.489 18.800 C 352.988 18.800,352.216 18.547,351.774 18.237 C 351.332 17.928,350.617 17.613,350.185 17.537 C 349.753 17.462,349.306 17.276,349.191 17.124 C 349.007 16.881,347.840 16.559,346.000 16.246 C 345.670 16.189,345.130 16.027,344.800 15.885 C 343.997 15.540,341.217 15.175,337.800 14.966 C 336.260 14.872,334.328 14.733,333.506 14.658 C 332.684 14.583,331.950 14.583,331.875 14.659 M339.000 48.833 C 339.880 49.143,340.732 49.577,340.894 49.798 C 341.056 50.019,341.191 50.053,341.194 49.873 C 341.197 49.693,341.715 49.912,342.345 50.361 C 342.975 50.809,343.560 51.114,343.645 51.037 C 343.730 50.961,345.060 52.168,346.600 53.720 C 348.140 55.272,349.142 56.389,348.827 56.202 C 348.513 56.016,348.759 56.524,349.375 57.332 C 349.991 58.139,350.339 58.803,350.147 58.806 C 349.956 58.809,350.034 58.960,350.319 59.142 C 351.499 59.890,352.368 68.500,351.536 71.200 C 350.926 73.178,350.585 73.955,349.737 75.300 C 349.216 76.125,348.909 76.800,349.053 76.800 C 349.198 76.800,348.831 77.250,348.238 77.800 C 347.644 78.350,347.246 78.800,347.352 78.800 C 347.582 78.800,307.956 118.477,240.186 186.106 C 212.834 213.400,190.583 235.298,190.089 235.406 C 189.600 235.513,188.840 235.690,188.400 235.800 C 187.960 235.910,187.240 236.090,186.800 236.200 C 186.360 236.310,185.640 236.490,185.200 236.600 C 184.760 236.710,184.040 236.890,183.600 237.000 C 183.160 237.110,182.440 237.290,182.000 237.400 C 181.560 237.510,180.840 237.690,180.400 237.800 C 179.960 237.910,179.240 238.090,178.800 238.200 C 178.360 238.310,177.640 238.490,177.200 238.600 C 176.760 238.710,175.995 238.908,175.500 239.039 C 175.005 239.170,174.195 239.296,173.700 239.319 C 173.205 239.342,172.800 239.487,172.800 239.643 C 172.800 239.798,172.440 239.831,172.000 239.716 C 171.535 239.594,171.200 239.704,171.200 239.977 C 171.200 240.236,171.012 240.331,170.782 240.189 C 170.553 240.047,170.148 240.104,169.882 240.314 C 169.617 240.525,169.085 240.646,168.700 240.584 C 168.315 240.522,168.000 240.625,168.000 240.812 C 168.000 241.000,167.640 241.085,167.200 241.000 C 166.760 240.915,166.400 240.986,166.400 241.156 C 166.400 241.327,166.175 241.482,165.900 241.501 C 165.625 241.520,164.950 241.658,164.400 241.807 C 163.850 241.956,162.995 242.096,162.500 242.119 C 162.005 242.142,161.600 242.277,161.600 242.419 C 161.600 242.562,161.062 242.694,160.405 242.712 C 159.748 242.731,158.991 242.882,158.722 243.048 C 156.996 244.115,155.885 243.004,156.952 241.278 C 157.118 241.009,157.269 240.252,157.288 239.595 C 157.306 238.938,157.438 238.400,157.581 238.400 C 157.723 238.400,157.858 237.995,157.881 237.500 C 157.904 237.005,158.044 236.150,158.193 235.600 C 158.342 235.050,158.480 234.375,158.499 234.100 C 158.518 233.825,158.673 233.600,158.844 233.600 C 159.014 233.600,159.085 233.240,159.000 232.800 C 158.915 232.360,159.000 232.000,159.188 232.000 C 159.375 232.000,159.478 231.685,159.416 231.300 C 159.354 230.915,159.475 230.383,159.686 230.118 C 159.896 229.852,159.953 229.447,159.811 229.218 C 159.669 228.988,159.764 228.800,160.023 228.800 C 160.296 228.800,160.406 228.465,160.284 228.000 C 160.169 227.560,160.202 227.200,160.357 227.200 C 160.513 227.200,160.658 226.795,160.681 226.300 C 160.704 225.805,160.830 224.995,160.961 224.500 C 161.092 224.005,161.290 223.240,161.400 222.800 C 161.510 222.360,161.690 221.640,161.800 221.200 C 161.910 220.760,162.090 220.040,162.200 219.600 C 162.310 219.160,162.490 218.440,162.600 218.000 C 162.710 217.560,162.890 216.840,163.000 216.400 C 163.110 215.960,163.290 215.240,163.400 214.800 C 163.510 214.360,163.690 213.640,163.800 213.200 C 163.910 212.760,164.090 212.040,164.200 211.600 C 164.310 211.160,164.487 210.400,164.594 209.911 C 164.702 209.417,186.600 187.166,213.894 159.814 C 281.523 92.044,321.200 52.418,321.200 52.648 C 321.200 52.754,321.650 52.356,322.200 51.762 C 322.750 51.169,323.200 50.802,323.200 50.947 C 323.200 51.091,323.875 50.784,324.700 50.263 C 326.122 49.366,327.543 48.764,328.737 48.554 C 329.032 48.503,329.376 48.358,329.501 48.233 C 329.933 47.800,337.406 48.273,339.000 48.833 M63.156 50.173 C 63.070 50.256,62.010 50.413,60.800 50.522 C 59.590 50.630,58.150 50.830,57.600 50.967 C 56.757 51.176,55.474 51.411,53.400 51.737 C 53.180 51.772,52.902 51.930,52.783 52.090 C 52.663 52.249,52.213 52.435,51.783 52.501 C 51.352 52.568,50.775 52.764,50.500 52.935 C 50.225 53.107,49.847 53.152,49.659 53.036 C 49.471 52.920,48.976 53.084,48.559 53.400 C 48.142 53.716,47.485 53.980,47.100 53.987 C 46.715 53.994,46.400 54.180,46.400 54.400 C 46.400 54.620,46.202 54.800,45.960 54.800 C 45.355 54.800,42.654 56.079,42.360 56.506 C 42.228 56.697,41.826 56.896,41.466 56.949 C 41.106 57.002,40.404 57.398,39.906 57.828 C 38.425 59.108,36.400 60.474,36.400 60.193 C 36.400 60.049,35.770 60.580,35.000 61.373 C 34.230 62.166,33.600 62.736,33.600 62.640 C 33.600 62.544,32.397 63.666,30.926 65.133 C 29.455 66.600,28.285 67.935,28.326 68.100 C 28.367 68.265,28.220 68.400,28.000 68.400 C 27.780 68.400,27.600 68.589,27.600 68.819 C 27.600 69.050,27.175 69.635,26.656 70.119 C 26.136 70.604,25.583 71.408,25.427 71.906 C 25.270 72.404,24.975 72.708,24.771 72.582 C 24.567 72.456,24.400 72.711,24.400 73.148 C 24.400 73.585,24.137 74.206,23.816 74.527 C 23.495 74.848,22.752 76.125,22.165 77.363 C 21.579 78.602,20.942 79.712,20.750 79.831 C 20.557 79.950,20.400 80.369,20.400 80.762 C 20.400 81.155,20.118 82.042,19.773 82.733 C 19.429 83.424,19.276 84.200,19.435 84.457 C 19.625 84.765,19.549 84.816,19.210 84.606 C 18.866 84.393,18.762 84.472,18.896 84.844 C 19.006 85.150,18.850 86.005,18.549 86.745 C 16.763 91.142,16.894 80.939,16.872 217.000 C 16.851 345.970,16.790 337.514,17.788 342.600 C 18.176 344.580,18.548 346.560,18.614 347.000 C 18.680 347.440,18.770 347.890,18.814 348.000 C 18.858 348.110,18.873 348.335,18.847 348.500 C 18.821 348.665,18.999 348.800,19.243 348.800 C 19.486 348.800,19.589 349.052,19.470 349.361 C 19.352 349.669,19.367 350.034,19.505 350.171 C 19.642 350.308,19.813 350.807,19.885 351.279 C 19.957 351.751,20.171 352.331,20.361 352.569 C 21.076 353.464,23.200 357.736,23.200 358.280 C 23.200 358.592,23.380 358.736,23.600 358.600 C 23.820 358.464,24.000 358.617,24.000 358.940 C 24.000 359.264,24.689 360.399,25.530 361.464 C 26.372 362.529,27.097 363.533,27.141 363.696 C 27.430 364.756,27.756 365.200,28.243 365.200 C 28.549 365.200,28.800 365.381,28.800 365.602 C 28.800 366.092,36.063 373.271,36.309 373.024 C 36.406 372.927,37.382 373.558,38.478 374.424 C 39.575 375.291,40.736 376.000,41.060 376.000 C 41.383 376.000,41.536 376.180,41.400 376.400 C 41.264 376.620,41.407 376.800,41.717 376.800 C 42.214 376.800,43.851 377.585,47.200 379.429 C 49.291 380.580,58.955 382.780,63.000 383.026 C 65.532 383.179,299.949 383.149,304.000 382.994 C 307.522 382.860,311.362 382.219,313.255 381.451 C 313.995 381.150,314.850 380.994,315.156 381.104 C 315.528 381.238,315.607 381.134,315.394 380.790 C 315.184 380.451,315.235 380.375,315.543 380.565 C 315.800 380.724,316.576 380.571,317.267 380.227 C 317.958 379.882,318.845 379.600,319.238 379.600 C 319.631 379.600,320.050 379.443,320.169 379.250 C 320.288 379.058,321.398 378.421,322.637 377.835 C 323.875 377.248,325.152 376.505,325.473 376.184 C 325.794 375.863,326.415 375.600,326.852 375.600 C 327.289 375.600,327.544 375.433,327.418 375.229 C 327.292 375.025,327.596 374.730,328.094 374.573 C 328.592 374.417,329.396 373.864,329.881 373.344 C 330.365 372.825,330.950 372.400,331.181 372.400 C 331.411 372.400,331.600 372.220,331.600 372.000 C 331.600 371.780,331.735 371.633,331.900 371.674 C 332.065 371.715,333.400 370.545,334.867 369.074 C 336.334 367.603,337.456 366.400,337.360 366.400 C 337.264 366.400,337.834 365.770,338.627 365.000 C 339.420 364.230,339.951 363.600,339.807 363.600 C 339.526 363.600,340.892 361.575,342.172 360.094 C 342.602 359.596,342.998 358.894,343.051 358.534 C 343.104 358.174,343.303 357.772,343.494 357.640 C 343.921 357.346,345.200 354.645,345.200 354.040 C 345.200 353.798,345.380 353.600,345.600 353.600 C 345.820 353.600,346.006 353.285,346.013 352.900 C 346.020 352.515,346.284 351.858,346.600 351.441 C 346.916 351.024,347.080 350.529,346.964 350.341 C 346.848 350.153,346.893 349.775,347.065 349.500 C 347.236 349.225,347.432 348.648,347.499 348.217 C 347.565 347.787,347.751 347.337,347.910 347.217 C 348.070 347.098,348.228 346.820,348.263 346.600 C 348.712 343.743,348.798 343.317,349.506 340.400 C 350.183 337.612,350.010 215.025,349.325 212.600 C 348.953 211.280,348.502 210.140,348.324 210.067 C 348.146 209.993,348.000 209.588,348.000 209.167 C 348.000 208.745,347.809 208.400,347.576 208.400 C 347.343 208.400,347.277 208.200,347.428 207.955 C 347.714 207.492,343.507 203.200,342.767 203.200 C 342.539 203.200,342.483 202.989,342.642 202.732 C 342.836 202.417,342.713 202.348,342.266 202.519 C 341.900 202.660,341.600 202.601,341.600 202.387 C 341.600 202.174,341.255 202.000,340.833 202.000 C 340.412 202.000,340.002 201.806,339.923 201.568 C 339.498 200.295,328.400 199.679,328.400 200.929 C 328.400 201.125,328.130 201.182,327.800 201.055 C 327.470 200.929,327.200 200.999,327.200 201.213 C 327.200 201.426,326.840 201.600,326.400 201.600 C 325.960 201.600,325.600 201.768,325.600 201.973 C 325.600 202.178,325.195 202.465,324.700 202.611 C 323.273 203.032,318.381 208.284,318.682 209.071 C 318.851 209.511,318.781 209.636,318.473 209.445 C 318.177 209.262,318.090 209.368,318.232 209.739 C 318.354 210.058,318.273 210.431,318.050 210.569 C 317.828 210.706,317.532 211.669,317.393 212.709 C 317.254 213.749,317.065 214.836,316.973 215.125 C 316.881 215.414,316.797 242.684,316.787 275.725 C 316.769 334.493,316.677 339.200,315.551 339.200 C 315.358 339.200,315.243 339.335,315.295 339.500 C 315.450 339.989,314.333 342.400,313.951 342.400 C 313.758 342.400,313.600 342.615,313.600 342.877 C 313.600 343.608,309.275 347.566,308.174 347.842 C 307.638 347.977,307.200 348.214,307.200 348.370 C 307.200 350.033,309.809 349.999,183.066 349.993 L 63.197 349.987 61.099 349.164 C 59.944 348.710,58.940 348.173,58.867 347.970 C 58.793 347.766,58.431 347.600,58.061 347.600 C 57.236 347.600,52.400 342.703,52.400 341.868 C 52.400 341.537,52.221 341.207,52.002 341.133 C 49.125 340.169,48.754 92.800,51.630 92.800 C 51.786 92.800,52.023 92.362,52.158 91.826 C 52.434 90.725,56.392 86.400,57.123 86.400 C 57.385 86.400,57.600 86.242,57.600 86.049 C 57.600 85.667,60.011 84.550,60.500 84.705 C 60.665 84.757,60.800 84.642,60.800 84.449 C 60.800 83.317,65.437 83.227,124.270 83.213 C 157.308 83.205,184.578 83.122,184.870 83.029 C 185.161 82.936,186.251 82.746,187.291 82.607 C 188.331 82.468,189.294 82.172,189.431 81.950 C 189.569 81.727,189.942 81.646,190.261 81.768 C 190.632 81.910,190.738 81.823,190.555 81.527 C 190.364 81.219,190.489 81.149,190.929 81.318 C 191.716 81.619,196.968 76.727,197.389 75.300 C 197.535 74.805,197.822 74.400,198.027 74.400 C 198.232 74.400,198.400 74.040,198.400 73.600 C 198.400 73.160,198.574 72.800,198.787 72.800 C 199.001 72.800,199.071 72.530,198.945 72.200 C 198.818 71.870,198.875 71.600,199.071 71.600 C 200.345 71.600,199.632 60.605,198.324 60.067 C 198.146 59.993,198.000 59.588,198.000 59.167 C 198.000 58.745,197.809 58.400,197.576 58.400 C 197.343 58.400,197.277 58.200,197.428 57.955 C 197.714 57.492,193.507 53.200,192.767 53.200 C 192.539 53.200,192.483 52.989,192.642 52.732 C 192.836 52.417,192.713 52.348,192.266 52.519 C 191.900 52.660,191.600 52.601,191.600 52.387 C 191.600 52.174,191.255 52.000,190.833 52.000 C 190.412 52.000,190.002 51.806,189.923 51.568 C 189.425 50.075,186.978 50.017,124.156 50.019 C 90.692 50.020,63.242 50.090,63.156 50.173 " stroke="none" fill="#a451bd" fill-rule="evenodd"></path></g></svg>