<svg id="svg" xmlns="http://www.w3.org/2000/svg" xmlns:xlink="http://www.w3.org/1999/xlink" width="400" height="400" viewBox="0, 0, 400,400" version="1.1"><g id="svgg"><path id="path0" d="M29.200 33.766 C 23.389 35.415,19.027 39.502,17.264 44.949 C 16.215 48.191,16.244 301.871,17.294 305.200 C 18.818 310.032,23.053 314.147,28.549 316.137 C 29.451 316.463,47.271 316.648,92.400 316.800 L 155.000 317.011 158.400 317.955 C 172.938 321.993,181.770 333.213,183.173 349.426 C 184.130 360.491,190.084 366.550,200.000 366.550 C 209.916 366.550,215.870 360.491,216.827 349.426 C 218.230 333.213,227.062 321.993,241.600 317.955 L 245.000 317.011 307.600 316.800 C 352.729 316.648,370.549 316.463,371.451 316.137 C 376.947 314.147,381.182 310.032,382.706 305.200 C 383.756 301.871,383.785 48.191,382.736 44.949 C 380.881 39.217,376.080 34.948,370.000 33.623 C 366.362 32.830,258.542 33.273,254.000 34.099 C 232.399 38.030,215.077 48.026,201.493 64.400 L 200.000 66.200 198.507 64.400 C 184.922 48.026,167.604 38.032,146.000 34.099 C 141.328 33.249,32.121 32.937,29.200 33.766 M142.600 67.726 C 162.935 72.092,177.489 86.394,182.117 106.562 C 182.948 110.184,182.952 110.604,183.087 201.153 L 183.223 292.107 182.311 291.512 C 179.296 289.542,171.118 286.429,165.400 285.074 C 157.571 283.220,156.897 283.200,102.110 283.200 L 50.000 283.200 50.000 174.980 L 50.000 66.760 94.700 66.900 C 135.106 67.026,139.707 67.105,142.600 67.726 M350.000 174.997 L 350.000 283.200 297.890 283.200 C 243.103 283.200,242.429 283.220,234.600 285.074 C 228.882 286.429,220.704 289.542,217.689 291.512 L 216.777 292.107 216.913 201.153 C 217.048 110.604,217.052 110.184,217.883 106.562 C 222.521 86.350,237.956 71.268,257.535 67.816 C 262.597 66.924,261.062 66.953,307.300 66.870 L 350.000 66.793 350.000 174.997 " stroke="none" fill="#0fc8e0" fill-rule="evenodd"></path><path id="path1" d="" stroke="none" fill="#a854bc" fill-rule="evenodd"></path><path id="path2" d="" stroke="none" fill="#a854bc" fill-rule="evenodd"></path><path id="path3" d="" stroke="none" fill="#a854bc" fill-rule="evenodd"></path><path id="path4" d="" stroke="none" fill="#a854bc" fill-rule="evenodd"></path></g></svg>