<svg id="svg" xmlns="http://www.w3.org/2000/svg" xmlns:xlink="http://www.w3.org/1999/xlink" width="400" height="400" viewBox="0, 0, 400,400" version="1.1"><g id="svgg"><path id="path0" d="M111.300 83.500 C 118.065 83.561,129.135 83.561,135.900 83.500 C 142.665 83.438,137.130 83.388,123.600 83.388 C 110.070 83.388,104.535 83.438,111.300 83.500 M175.900 83.500 C 189.155 83.558,210.845 83.558,224.100 83.500 C 237.355 83.441,226.510 83.394,200.000 83.394 C 173.490 83.394,162.645 83.441,175.900 83.500 M264.100 83.500 C 270.865 83.561,281.935 83.561,288.700 83.500 C 295.465 83.438,289.930 83.388,276.400 83.388 C 262.870 83.388,257.335 83.438,264.100 83.500 M83.388 123.600 C 83.388 137.130,83.438 142.665,83.500 135.900 C 83.561 129.135,83.561 118.065,83.500 111.300 C 83.438 104.535,83.388 110.070,83.388 123.600 M316.588 123.600 C 316.588 137.130,316.638 142.665,316.700 135.900 C 316.761 129.135,316.761 118.065,316.700 111.300 C 316.638 104.535,316.588 110.070,316.588 123.600 M83.392 191.600 C 83.392 213.490,83.441 222.445,83.500 211.500 C 83.559 200.555,83.559 182.645,83.500 171.700 C 83.441 160.755,83.392 169.710,83.392 191.600 M316.592 191.600 C 316.592 213.490,316.641 222.445,316.700 211.500 C 316.759 200.555,316.759 182.645,316.700 171.700 C 316.641 160.755,316.592 169.710,316.592 191.600 M24.700 216.700 C 29.375 216.764,37.025 216.764,41.700 216.700 C 46.375 216.636,42.550 216.583,33.200 216.583 C 23.850 216.583,20.025 216.636,24.700 216.700 M358.300 216.700 C 362.975 216.764,370.625 216.764,375.300 216.700 C 379.975 216.636,376.150 216.583,366.800 216.583 C 357.450 216.583,353.625 216.636,358.300 216.700 M83.391 268.000 C 83.391 286.150,83.440 293.575,83.500 284.500 C 83.560 275.425,83.560 260.575,83.500 251.500 C 83.440 242.425,83.391 249.850,83.391 268.000 M316.591 268.000 C 316.591 286.150,316.640 293.575,316.700 284.500 C 316.760 275.425,316.760 260.575,316.700 251.500 C 316.640 242.425,316.591 249.850,316.591 268.000 M4.000 244.296 C 4.000 244.758,5.536 246.197,5.775 245.958 C 5.869 245.865,5.507 245.367,4.973 244.852 C 4.438 244.337,4.000 244.087,4.000 244.296 M394.852 245.027 C 394.337 245.562,394.087 246.000,394.296 246.000 C 394.758 246.000,396.197 244.464,395.958 244.225 C 395.865 244.131,395.367 244.493,394.852 245.027 M111.300 316.700 C 118.065 316.761,129.135 316.761,135.900 316.700 C 142.665 316.638,137.130 316.588,123.600 316.588 C 110.070 316.588,104.535 316.638,111.300 316.700 M175.900 316.700 C 189.155 316.758,210.845 316.758,224.100 316.700 C 237.355 316.641,226.510 316.594,200.000 316.594 C 173.490 316.594,162.645 316.641,175.900 316.700 M264.100 316.700 C 270.865 316.761,281.935 316.761,288.700 316.700 C 295.465 316.638,289.930 316.588,276.400 316.588 C 262.870 316.588,257.335 316.638,264.100 316.700 " stroke="none" fill="#a451bd" fill-rule="evenodd"></path><path id="path1" d="M146.399 0.300 C 146.399 0.465,145.830 0.640,145.136 0.689 C 144.441 0.738,143.137 1.273,142.236 1.877 C 141.336 2.482,140.482 2.982,140.339 2.988 C 139.963 3.005,136.006 6.939,136.185 7.118 C 136.267 7.200,136.034 7.618,135.667 8.046 C 133.486 10.592,133.276 12.625,133.219 31.854 C 133.190 41.707,133.121 49.812,133.067 49.866 C 133.013 49.921,124.065 50.030,113.184 50.109 C 92.955 50.257,91.460 50.331,88.377 51.337 C 87.400 51.656,85.925 52.034,85.100 52.177 C 84.275 52.319,83.600 52.578,83.600 52.751 C 83.600 52.925,83.330 53.097,83.000 53.133 C 82.670 53.170,82.130 53.230,81.800 53.267 C 81.470 53.303,81.200 53.455,81.200 53.603 C 81.200 53.752,80.435 54.096,79.500 54.368 C 78.565 54.641,77.129 55.299,76.309 55.832 C 75.488 56.364,74.660 56.800,74.467 56.800 C 74.274 56.800,73.636 57.245,73.049 57.790 C 72.462 58.334,71.911 58.739,71.824 58.690 C 71.490 58.498,66.455 62.565,66.645 62.873 C 66.756 63.053,66.651 63.200,66.410 63.200 C 65.842 63.200,63.200 65.842,63.200 66.410 C 63.200 66.651,63.053 66.756,62.873 66.645 C 62.562 66.453,58.815 71.084,58.791 71.690 C 58.785 71.850,58.334 72.462,57.790 73.049 C 57.245 73.636,56.800 74.274,56.800 74.467 C 56.800 74.660,56.364 75.488,55.832 76.309 C 55.299 77.129,54.641 78.565,54.368 79.500 C 54.096 80.435,53.752 81.200,53.603 81.200 C 53.455 81.200,53.303 81.470,53.267 81.800 C 53.230 82.130,53.170 82.670,53.133 83.000 C 53.097 83.330,52.925 83.600,52.751 83.600 C 52.578 83.600,52.319 84.275,52.177 85.100 C 52.034 85.925,51.656 87.400,51.337 88.377 C 50.331 91.460,50.257 92.955,50.109 113.184 C 50.030 124.065,49.921 133.013,49.866 133.067 C 49.812 133.121,41.707 133.190,31.854 133.219 C 12.625 133.276,10.592 133.486,8.046 135.667 C 7.618 136.034,7.200 136.267,7.118 136.185 C 6.939 136.006,3.005 139.963,2.988 140.339 C 2.982 140.482,2.482 141.336,1.877 142.236 C 1.273 143.137,0.738 144.441,0.689 145.136 C 0.640 145.830,0.465 146.399,0.300 146.399 C 0.135 146.400,0.000 148.020,0.000 150.000 C 0.000 151.980,0.135 153.600,0.300 153.601 C 0.465 153.601,0.640 154.170,0.689 154.864 C 0.738 155.559,1.273 156.863,1.877 157.764 C 2.482 158.664,2.982 159.518,2.988 159.661 C 3.006 160.049,6.942 163.991,7.127 163.806 C 7.214 163.719,7.624 163.964,8.038 164.350 C 10.390 166.541,12.214 166.717,33.100 166.763 L 50.000 166.800 50.000 191.815 L 50.000 216.829 31.700 216.784 C 17.983 216.750,13.100 216.862,12.200 217.233 C 11.540 217.506,10.775 217.692,10.500 217.647 C 10.225 217.602,10.000 217.753,10.000 217.982 C 10.000 218.212,9.739 218.400,9.420 218.400 C 8.009 218.400,2.400 223.274,2.400 224.501 C 2.400 224.697,2.130 225.127,1.800 225.457 C 1.470 225.787,1.199 226.449,1.198 226.929 C 1.196 227.408,0.936 228.296,0.620 228.902 C -0.037 230.163,-0.110 235.357,0.499 237.591 C 1.224 240.251,4.000 245.475,4.000 244.179 C 4.000 243.789,5.419 245.251,5.502 245.726 C 5.661 246.637,9.480 248.703,12.560 249.543 C 13.547 249.812,20.661 249.977,31.934 249.992 C 41.732 250.005,49.799 250.066,49.861 250.128 C 49.923 250.189,50.034 262.921,50.109 278.420 C 50.246 306.959,50.301 308.449,51.337 311.623 C 51.656 312.600,52.034 314.075,52.177 314.900 C 52.319 315.725,52.578 316.400,52.751 316.400 C 52.925 316.400,53.097 316.670,53.133 317.000 C 53.170 317.330,53.230 317.870,53.267 318.200 C 53.303 318.530,53.455 318.800,53.603 318.800 C 53.752 318.800,54.096 319.565,54.368 320.500 C 54.641 321.435,55.299 322.871,55.832 323.691 C 56.364 324.512,56.800 325.340,56.800 325.533 C 56.800 325.726,57.245 326.364,57.790 326.951 C 58.334 327.538,58.785 328.150,58.791 328.310 C 58.815 328.916,62.562 333.547,62.873 333.355 C 63.053 333.244,63.200 333.349,63.200 333.590 C 63.200 334.158,65.842 336.800,66.410 336.800 C 66.651 336.800,66.756 336.947,66.645 337.127 C 66.457 337.432,71.144 341.232,71.852 341.347 C 72.029 341.376,72.612 341.805,73.146 342.300 C 73.680 342.795,74.274 343.200,74.467 343.200 C 74.660 343.200,75.488 343.636,76.309 344.168 C 77.129 344.701,78.565 345.359,79.500 345.632 C 80.435 345.904,81.200 346.248,81.200 346.397 C 81.200 346.545,81.470 346.697,81.800 346.733 C 82.130 346.770,82.670 346.830,83.000 346.867 C 83.330 346.903,83.600 347.075,83.600 347.249 C 83.600 347.422,84.275 347.681,85.100 347.823 C 85.925 347.966,87.400 348.344,88.377 348.663 C 91.460 349.669,92.955 349.743,113.184 349.891 C 124.065 349.970,133.013 350.079,133.067 350.134 C 133.121 350.188,133.190 358.293,133.219 368.146 C 133.276 387.375,133.486 389.408,135.667 391.954 C 136.034 392.382,136.267 392.800,136.185 392.882 C 136.006 393.061,139.963 396.995,140.339 397.012 C 140.482 397.018,141.336 397.518,142.236 398.123 C 143.137 398.727,144.441 399.262,145.136 399.311 C 145.830 399.360,146.399 399.535,146.399 399.700 C 146.400 399.865,148.020 400.000,150.000 400.000 C 151.980 400.000,153.600 399.865,153.601 399.700 C 153.601 399.535,154.170 399.360,154.864 399.311 C 155.559 399.262,156.863 398.727,157.764 398.123 C 158.664 397.518,159.518 397.018,159.661 397.012 C 160.049 396.994,163.991 393.058,163.806 392.873 C 163.719 392.786,163.964 392.376,164.350 391.962 C 166.541 389.610,166.717 387.786,166.763 366.900 L 166.800 350.000 200.000 350.000 L 233.200 350.000 233.237 366.900 C 233.283 387.786,233.459 389.610,235.650 391.962 C 236.036 392.376,236.281 392.786,236.194 392.873 C 236.009 393.058,239.951 396.994,240.339 397.012 C 240.482 397.018,241.336 397.518,242.236 398.123 C 243.137 398.727,244.441 399.262,245.136 399.311 C 245.830 399.360,246.399 399.535,246.399 399.700 C 246.400 399.865,248.020 400.000,250.000 400.000 C 251.980 400.000,253.600 399.865,253.601 399.700 C 253.601 399.535,254.170 399.360,254.864 399.311 C 255.559 399.262,256.863 398.727,257.764 398.123 C 258.664 397.518,259.518 397.018,259.661 397.012 C 260.037 396.995,263.994 393.061,263.815 392.882 C 263.733 392.800,263.966 392.382,264.333 391.954 C 266.514 389.408,266.724 387.375,266.781 368.146 C 266.810 358.293,266.879 350.188,266.933 350.134 C 266.987 350.079,275.935 349.970,286.816 349.891 C 307.045 349.743,308.540 349.669,311.623 348.663 C 312.600 348.344,314.075 347.966,314.900 347.823 C 315.725 347.681,316.400 347.422,316.400 347.249 C 316.400 347.075,316.670 346.903,317.000 346.867 C 317.330 346.830,317.870 346.770,318.200 346.733 C 318.530 346.697,318.800 346.545,318.800 346.397 C 318.800 346.248,319.565 345.904,320.500 345.632 C 321.435 345.359,322.871 344.701,323.691 344.168 C 324.512 343.636,325.340 343.200,325.533 343.200 C 325.726 343.200,326.404 342.717,327.042 342.126 C 327.679 341.536,328.230 341.131,328.266 341.226 C 328.302 341.322,329.508 340.512,330.944 339.427 C 332.381 338.341,333.466 337.306,333.355 337.127 C 333.244 336.947,333.349 336.800,333.590 336.800 C 334.158 336.800,336.800 334.158,336.800 333.590 C 336.800 333.349,336.947 333.244,337.127 333.355 C 337.435 333.545,341.502 328.510,341.310 328.176 C 341.261 328.089,341.666 327.538,342.210 326.951 C 342.755 326.364,343.200 325.726,343.200 325.533 C 343.200 325.340,343.636 324.512,344.168 323.691 C 344.701 322.871,345.359 321.435,345.632 320.500 C 345.904 319.565,346.248 318.800,346.397 318.800 C 346.545 318.800,346.697 318.530,346.733 318.200 C 346.770 317.870,346.830 317.330,346.867 317.000 C 346.903 316.670,347.075 316.400,347.249 316.400 C 347.422 316.400,347.681 315.725,347.823 314.900 C 347.966 314.075,348.344 312.600,348.663 311.623 C 349.699 308.449,349.754 306.959,349.891 278.420 C 349.966 262.921,350.077 250.189,350.139 250.128 C 350.201 250.066,358.268 250.005,368.066 249.992 C 379.339 249.977,386.453 249.812,387.440 249.543 C 390.310 248.760,394.762 246.414,394.321 245.917 C 394.254 245.842,394.605 245.347,395.100 244.815 C 395.595 244.284,396.000 243.997,396.000 244.179 C 396.000 245.475,398.776 240.251,399.501 237.591 C 400.110 235.357,400.037 230.163,399.380 228.902 C 399.064 228.296,398.804 227.408,398.802 226.929 C 398.801 226.449,398.530 225.787,398.200 225.457 C 397.870 225.127,397.600 224.697,397.600 224.501 C 397.600 223.274,391.991 218.400,390.580 218.400 C 390.261 218.400,390.000 218.212,390.000 217.982 C 390.000 217.753,389.775 217.602,389.500 217.647 C 389.225 217.692,388.460 217.506,387.800 217.233 C 386.900 216.862,382.017 216.750,368.300 216.784 L 350.000 216.829 350.000 191.815 L 350.000 166.800 366.900 166.763 C 387.786 166.717,389.610 166.541,391.962 164.350 C 392.376 163.964,392.786 163.719,392.873 163.806 C 393.058 163.991,396.994 160.049,397.012 159.661 C 397.018 159.518,397.518 158.664,398.123 157.764 C 398.727 156.863,399.262 155.559,399.311 154.864 C 399.360 154.170,399.535 153.601,399.700 153.601 C 399.865 153.600,400.000 151.980,400.000 150.000 C 400.000 148.020,399.865 146.400,399.700 146.399 C 399.535 146.399,399.360 145.830,399.311 145.136 C 399.262 144.441,398.727 143.137,398.123 142.236 C 397.518 141.336,397.018 140.482,397.012 140.339 C 396.995 139.963,393.061 136.006,392.882 136.185 C 392.800 136.267,392.382 136.034,391.954 135.667 C 389.408 133.486,387.375 133.276,368.146 133.219 C 358.293 133.190,350.188 133.121,350.134 133.067 C 350.079 133.013,349.970 124.065,349.891 113.184 C 349.743 92.955,349.669 91.460,348.663 88.377 C 348.344 87.400,347.966 85.925,347.823 85.100 C 347.681 84.275,347.422 83.600,347.249 83.600 C 347.075 83.600,346.903 83.330,346.867 83.000 C 346.830 82.670,346.770 82.130,346.733 81.800 C 346.697 81.470,346.545 81.200,346.397 81.200 C 346.248 81.200,345.904 80.435,345.632 79.500 C 345.359 78.565,344.701 77.129,344.168 76.309 C 343.636 75.488,343.200 74.660,343.200 74.467 C 343.200 74.274,342.755 73.636,342.210 73.049 C 341.666 72.462,341.261 71.911,341.310 71.824 C 341.502 71.490,337.435 66.455,337.127 66.645 C 336.947 66.756,336.800 66.651,336.800 66.410 C 336.800 65.842,334.158 63.200,333.590 63.200 C 333.349 63.200,333.244 63.053,333.355 62.873 C 333.549 62.559,328.613 58.579,328.336 58.826 C 328.261 58.893,327.679 58.464,327.042 57.874 C 326.404 57.283,325.726 56.800,325.533 56.800 C 325.340 56.800,324.512 56.364,323.691 55.832 C 322.871 55.299,321.435 54.641,320.500 54.368 C 319.565 54.096,318.800 53.752,318.800 53.603 C 318.800 53.455,318.530 53.303,318.200 53.267 C 317.870 53.230,317.330 53.170,317.000 53.133 C 316.670 53.097,316.400 52.925,316.400 52.751 C 316.400 52.578,315.725 52.319,314.900 52.177 C 314.075 52.034,312.600 51.656,311.623 51.337 C 308.540 50.331,307.045 50.257,286.816 50.109 C 275.935 50.030,266.987 49.921,266.933 49.866 C 266.879 49.812,266.810 41.707,266.781 31.854 C 266.724 12.625,266.514 10.592,264.333 8.046 C 263.966 7.618,263.733 7.200,263.815 7.118 C 263.994 6.939,260.037 3.005,259.661 2.988 C 259.518 2.982,258.664 2.482,257.764 1.877 C 256.863 1.273,255.559 0.738,254.864 0.689 C 254.170 0.640,253.601 0.465,253.601 0.300 C 253.600 0.135,251.980 0.000,250.000 0.000 C 248.020 0.000,246.400 0.135,246.399 0.300 C 246.399 0.465,245.830 0.640,245.136 0.689 C 244.441 0.738,243.137 1.273,242.236 1.877 C 241.336 2.482,240.482 2.982,240.339 2.988 C 239.951 3.006,236.009 6.942,236.194 7.127 C 236.281 7.214,236.036 7.624,235.650 8.038 C 233.459 10.390,233.283 12.214,233.237 33.100 L 233.200 50.000 200.000 50.000 L 166.800 50.000 166.763 33.100 C 166.717 12.214,166.541 10.390,164.350 8.038 C 163.964 7.624,163.719 7.214,163.806 7.127 C 163.991 6.942,160.049 3.006,159.661 2.988 C 159.518 2.982,158.664 2.482,157.764 1.877 C 156.863 1.273,155.559 0.738,154.864 0.689 C 154.170 0.640,153.601 0.465,153.601 0.300 C 153.600 0.135,151.980 0.000,150.000 0.000 C 148.020 0.000,146.400 0.135,146.399 0.300 M305.393 84.320 C 310.076 85.884,314.117 89.925,315.679 94.607 L 316.744 97.800 316.746 200.000 L 316.748 302.200 315.681 305.393 C 314.116 310.076,310.074 314.117,305.393 315.680 L 302.200 316.746 200.000 316.746 L 97.800 316.746 94.607 315.680 C 89.926 314.117,85.884 310.076,84.319 305.393 L 83.252 302.200 83.254 200.000 L 83.256 97.800 84.321 94.607 C 85.883 89.925,89.924 85.884,94.607 84.320 L 97.800 83.254 200.000 83.254 L 302.200 83.254 305.393 84.320 M146.677 133.614 C 145.619 133.793,144.513 134.141,144.218 134.385 C 143.923 134.630,143.259 134.912,142.742 135.011 C 142.225 135.111,141.742 135.374,141.668 135.596 C 141.594 135.818,141.352 136.000,141.131 136.000 C 140.909 136.000,140.371 136.405,139.934 136.900 C 139.497 137.395,139.256 137.530,139.399 137.200 C 139.541 136.870,138.839 137.500,137.837 138.600 C 136.836 139.700,136.013 140.810,136.008 141.067 C 136.004 141.323,135.816 141.595,135.591 141.670 C 135.366 141.745,135.085 142.341,134.967 142.994 C 134.848 143.648,134.576 144.291,134.361 144.424 C 133.053 145.233,132.830 252.710,134.132 255.200 C 134.534 255.970,134.937 256.959,135.028 257.399 C 135.118 257.838,135.374 258.258,135.596 258.332 C 135.818 258.406,136.000 258.648,136.000 258.869 C 136.000 259.091,136.405 259.629,136.900 260.066 C 137.395 260.503,137.530 260.738,137.200 260.587 C 136.870 260.436,137.500 261.138,138.600 262.146 C 139.700 263.154,140.810 263.983,141.067 263.989 C 141.323 263.995,141.595 264.184,141.670 264.409 C 141.745 264.634,142.341 264.915,142.994 265.033 C 143.648 265.152,144.291 265.424,144.424 265.639 C 144.961 266.508,150.278 266.600,200.000 266.600 C 249.722 266.600,255.039 266.508,255.576 265.639 C 255.709 265.424,256.352 265.152,257.006 265.033 C 257.659 264.915,258.255 264.634,258.330 264.409 C 258.405 264.184,258.677 263.996,258.933 263.992 C 259.190 263.987,260.300 263.164,261.400 262.163 C 262.500 261.161,263.130 260.459,262.800 260.601 C 262.470 260.744,262.605 260.503,263.100 260.066 C 263.595 259.629,264.000 259.091,264.000 258.869 C 264.000 258.648,264.182 258.406,264.404 258.332 C 264.626 258.258,264.882 257.838,264.972 257.399 C 265.063 256.959,265.466 255.970,265.868 255.200 C 267.170 252.710,266.947 145.233,265.639 144.424 C 265.424 144.291,265.152 143.648,265.033 142.994 C 264.915 142.341,264.634 141.745,264.409 141.670 C 264.184 141.595,263.995 141.323,263.989 141.067 C 263.983 140.810,263.154 139.700,262.146 138.600 C 261.138 137.500,260.436 136.870,260.587 137.200 C 260.738 137.530,260.503 137.395,260.066 136.900 C 259.629 136.405,259.091 136.000,258.869 136.000 C 258.648 136.000,258.406 135.818,258.332 135.596 C 258.258 135.374,257.838 135.118,257.399 135.028 C 256.959 134.937,255.970 134.534,255.200 134.132 C 253.684 133.339,151.179 132.850,146.677 133.614 M233.200 200.000 L 233.200 233.200 200.000 233.200 L 166.800 233.200 166.800 200.000 L 166.800 166.800 200.000 166.800 L 233.200 166.800 233.200 200.000 " stroke="none" fill="#a451bd" fill-rule="evenodd"></path><path id="path2" d="M146.399 0.300 C 146.399 0.465,145.830 0.640,145.136 0.689 C 144.441 0.738,143.137 1.273,142.236 1.877 C 141.336 2.482,140.482 2.982,140.339 2.988 C 139.963 3.005,136.006 6.939,136.185 7.118 C 136.267 7.200,136.034 7.618,135.667 8.046 C 133.486 10.592,133.276 12.625,133.219 31.854 C 133.190 41.707,133.121 49.812,133.067 49.866 C 133.013 49.921,124.065 50.030,113.184 50.109 C 92.955 50.257,91.460 50.331,88.377 51.337 C 87.400 51.656,85.925 52.034,85.100 52.177 C 84.275 52.319,83.600 52.578,83.600 52.751 C 83.600 52.925,83.330 53.097,83.000 53.133 C 82.670 53.170,82.130 53.230,81.800 53.267 C 81.470 53.303,81.200 53.455,81.200 53.603 C 81.200 53.752,80.435 54.096,79.500 54.368 C 78.565 54.641,77.129 55.299,76.309 55.832 C 75.488 56.364,74.660 56.800,74.467 56.800 C 74.274 56.800,73.636 57.245,73.049 57.790 C 72.462 58.334,71.911 58.739,71.824 58.690 C 71.490 58.498,66.455 62.565,66.645 62.873 C 66.756 63.053,66.651 63.200,66.410 63.200 C 65.842 63.200,63.200 65.842,63.200 66.410 C 63.200 66.651,63.053 66.756,62.873 66.645 C 62.562 66.453,58.815 71.084,58.791 71.690 C 58.785 71.850,58.334 72.462,57.790 73.049 C 57.245 73.636,56.800 74.274,56.800 74.467 C 56.800 74.660,56.364 75.488,55.832 76.309 C 55.299 77.129,54.641 78.565,54.368 79.500 C 54.096 80.435,53.752 81.200,53.603 81.200 C 53.455 81.200,53.303 81.470,53.267 81.800 C 53.230 82.130,53.170 82.670,53.133 83.000 C 53.097 83.330,52.925 83.600,52.751 83.600 C 52.578 83.600,52.319 84.275,52.177 85.100 C 52.034 85.925,51.656 87.400,51.337 88.377 C 50.331 91.460,50.257 92.955,50.109 113.184 C 50.030 124.065,49.921 133.013,49.866 133.067 C 49.812 133.121,41.707 133.190,31.854 133.219 C 12.625 133.276,10.592 133.486,8.046 135.667 C 7.618 136.034,7.200 136.267,7.118 136.185 C 6.939 136.006,3.005 139.963,2.988 140.339 C 2.982 140.482,2.482 141.336,1.877 142.236 C 1.273 143.137,0.738 144.441,0.689 145.136 C 0.640 145.830,0.465 146.399,0.300 146.399 C 0.135 146.400,0.000 148.020,0.000 150.000 C 0.000 151.980,0.135 153.600,0.300 153.601 C 0.465 153.601,0.640 154.170,0.689 154.864 C 0.738 155.559,1.273 156.863,1.877 157.764 C 2.482 158.664,2.982 159.518,2.988 159.661 C 3.006 160.049,6.942 163.991,7.127 163.806 C 7.214 163.719,7.624 163.964,8.038 164.350 C 10.390 166.541,12.214 166.717,33.100 166.763 L 50.000 166.800 50.000 191.815 L 50.000 216.829 31.700 216.784 C 17.983 216.750,13.100 216.862,12.200 217.233 C 11.540 217.506,10.775 217.692,10.500 217.647 C 10.225 217.602,10.000 217.753,10.000 217.982 C 10.000 218.212,9.739 218.400,9.420 218.400 C 8.009 218.400,2.400 223.274,2.400 224.501 C 2.400 224.697,2.130 225.127,1.800 225.457 C 1.470 225.787,1.199 226.449,1.198 226.929 C 1.196 227.408,0.936 228.296,0.620 228.902 C -0.037 230.163,-0.110 235.357,0.499 237.591 C 1.224 240.251,4.000 245.475,4.000 244.179 C 4.000 243.789,5.419 245.251,5.502 245.726 C 5.661 246.637,9.480 248.703,12.560 249.543 C 13.547 249.812,20.661 249.977,31.934 249.992 C 41.732 250.005,49.799 250.066,49.861 250.128 C 49.923 250.189,50.034 262.921,50.109 278.420 C 50.246 306.959,50.301 308.449,51.337 311.623 C 51.656 312.600,52.034 314.075,52.177 314.900 C 52.319 315.725,52.578 316.400,52.751 316.400 C 52.925 316.400,53.097 316.670,53.133 317.000 C 53.170 317.330,53.230 317.870,53.267 318.200 C 53.303 318.530,53.455 318.800,53.603 318.800 C 53.752 318.800,54.096 319.565,54.368 320.500 C 54.641 321.435,55.299 322.871,55.832 323.691 C 56.364 324.512,56.800 325.340,56.800 325.533 C 56.800 325.726,57.245 326.364,57.790 326.951 C 58.334 327.538,58.785 328.150,58.791 328.310 C 58.815 328.916,62.562 333.547,62.873 333.355 C 63.053 333.244,63.200 333.349,63.200 333.590 C 63.200 334.158,65.842 336.800,66.410 336.800 C 66.651 336.800,66.756 336.947,66.645 337.127 C 66.457 337.432,71.144 341.232,71.852 341.347 C 72.029 341.376,72.612 341.805,73.146 342.300 C 73.680 342.795,74.274 343.200,74.467 343.200 C 74.660 343.200,75.488 343.636,76.309 344.168 C 77.129 344.701,78.565 345.359,79.500 345.632 C 80.435 345.904,81.200 346.248,81.200 346.397 C 81.200 346.545,81.470 346.697,81.800 346.733 C 82.130 346.770,82.670 346.830,83.000 346.867 C 83.330 346.903,83.600 347.075,83.600 347.249 C 83.600 347.422,84.275 347.681,85.100 347.823 C 85.925 347.966,87.400 348.344,88.377 348.663 C 91.460 349.669,92.955 349.743,113.184 349.891 C 124.065 349.970,133.013 350.079,133.067 350.134 C 133.121 350.188,133.190 358.293,133.219 368.146 C 133.276 387.375,133.486 389.408,135.667 391.954 C 136.034 392.382,136.267 392.800,136.185 392.882 C 136.006 393.061,139.963 396.995,140.339 397.012 C 140.482 397.018,141.336 397.518,142.236 398.123 C 143.137 398.727,144.441 399.262,145.136 399.311 C 145.830 399.360,146.399 399.535,146.399 399.700 C 146.400 399.865,148.020 400.000,150.000 400.000 C 151.980 400.000,153.600 399.865,153.601 399.700 C 153.601 399.535,154.170 399.360,154.864 399.311 C 155.559 399.262,156.863 398.727,157.764 398.123 C 158.664 397.518,159.518 397.018,159.661 397.012 C 160.049 396.994,163.991 393.058,163.806 392.873 C 163.719 392.786,163.964 392.376,164.350 391.962 C 166.541 389.610,166.717 387.786,166.763 366.900 L 166.800 350.000 200.000 350.000 L 233.200 350.000 233.237 366.900 C 233.283 387.786,233.459 389.610,235.650 391.962 C 236.036 392.376,236.281 392.786,236.194 392.873 C 236.009 393.058,239.951 396.994,240.339 397.012 C 240.482 397.018,241.336 397.518,242.236 398.123 C 243.137 398.727,244.441 399.262,245.136 399.311 C 245.830 399.360,246.399 399.535,246.399 399.700 C 246.400 399.865,248.020 400.000,250.000 400.000 C 251.980 400.000,253.600 399.865,253.601 399.700 C 253.601 399.535,254.170 399.360,254.864 399.311 C 255.559 399.262,256.863 398.727,257.764 398.123 C 258.664 397.518,259.518 397.018,259.661 397.012 C 260.037 396.995,263.994 393.061,263.815 392.882 C 263.733 392.800,263.966 392.382,264.333 391.954 C 266.514 389.408,266.724 387.375,266.781 368.146 C 266.810 358.293,266.879 350.188,266.933 350.134 C 266.987 350.079,275.935 349.970,286.816 349.891 C 307.045 349.743,308.540 349.669,311.623 348.663 C 312.600 348.344,314.075 347.966,314.900 347.823 C 315.725 347.681,316.400 347.422,316.400 347.249 C 316.400 347.075,316.670 346.903,317.000 346.867 C 317.330 346.830,317.870 346.770,318.200 346.733 C 318.530 346.697,318.800 346.545,318.800 346.397 C 318.800 346.248,319.565 345.904,320.500 345.632 C 321.435 345.359,322.871 344.701,323.691 344.168 C 324.512 343.636,325.340 343.200,325.533 343.200 C 325.726 343.200,326.404 342.717,327.042 342.126 C 327.679 341.536,328.230 341.131,328.266 341.226 C 328.302 341.322,329.508 340.512,330.944 339.427 C 332.381 338.341,333.466 337.306,333.355 337.127 C 333.244 336.947,333.349 336.800,333.590 336.800 C 334.158 336.800,336.800 334.158,336.800 333.590 C 336.800 333.349,336.947 333.244,337.127 333.355 C 337.435 333.545,341.502 328.510,341.310 328.176 C 341.261 328.089,341.666 327.538,342.210 326.951 C 342.755 326.364,343.200 325.726,343.200 325.533 C 343.200 325.340,343.636 324.512,344.168 323.691 C 344.701 322.871,345.359 321.435,345.632 320.500 C 345.904 319.565,346.248 318.800,346.397 318.800 C 346.545 318.800,346.697 318.530,346.733 318.200 C 346.770 317.870,346.830 317.330,346.867 317.000 C 346.903 316.670,347.075 316.400,347.249 316.400 C 347.422 316.400,347.681 315.725,347.823 314.900 C 347.966 314.075,348.344 312.600,348.663 311.623 C 349.699 308.449,349.754 306.959,349.891 278.420 C 349.966 262.921,350.077 250.189,350.139 250.128 C 350.201 250.066,358.268 250.005,368.066 249.992 C 379.339 249.977,386.453 249.812,387.440 249.543 C 390.310 248.760,394.762 246.414,394.321 245.917 C 394.254 245.842,394.605 245.347,395.100 244.815 C 395.595 244.284,396.000 243.997,396.000 244.179 C 396.000 245.475,398.776 240.251,399.501 237.591 C 400.110 235.357,400.037 230.163,399.380 228.902 C 399.064 228.296,398.804 227.408,398.802 226.929 C 398.801 226.449,398.530 225.787,398.200 225.457 C 397.870 225.127,397.600 224.697,397.600 224.501 C 397.600 223.274,391.991 218.400,390.580 218.400 C 390.261 218.400,390.000 218.212,390.000 217.982 C 390.000 217.753,389.775 217.602,389.500 217.647 C 389.225 217.692,388.460 217.506,387.800 217.233 C 386.900 216.862,382.017 216.750,368.300 216.784 L 350.000 216.829 350.000 191.815 L 350.000 166.800 366.900 166.763 C 387.786 166.717,389.610 166.541,391.962 164.350 C 392.376 163.964,392.786 163.719,392.873 163.806 C 393.058 163.991,396.994 160.049,397.012 159.661 C 397.018 159.518,397.518 158.664,398.123 157.764 C 398.727 156.863,399.262 155.559,399.311 154.864 C 399.360 154.170,399.535 153.601,399.700 153.601 C 399.865 153.600,400.000 151.980,400.000 150.000 C 400.000 148.020,399.865 146.400,399.700 146.399 C 399.535 146.399,399.360 145.830,399.311 145.136 C 399.262 144.441,398.727 143.137,398.123 142.236 C 397.518 141.336,397.018 140.482,397.012 140.339 C 396.995 139.963,393.061 136.006,392.882 136.185 C 392.800 136.267,392.382 136.034,391.954 135.667 C 389.408 133.486,387.375 133.276,368.146 133.219 C 358.293 133.190,350.188 133.121,350.134 133.067 C 350.079 133.013,349.970 124.065,349.891 113.184 C 349.743 92.955,349.669 91.460,348.663 88.377 C 348.344 87.400,347.966 85.925,347.823 85.100 C 347.681 84.275,347.422 83.600,347.249 83.600 C 347.075 83.600,346.903 83.330,346.867 83.000 C 346.830 82.670,346.770 82.130,346.733 81.800 C 346.697 81.470,346.545 81.200,346.397 81.200 C 346.248 81.200,345.904 80.435,345.632 79.500 C 345.359 78.565,344.701 77.129,344.168 76.309 C 343.636 75.488,343.200 74.660,343.200 74.467 C 343.200 74.274,342.755 73.636,342.210 73.049 C 341.666 72.462,341.261 71.911,341.310 71.824 C 341.502 71.490,337.435 66.455,337.127 66.645 C 336.947 66.756,336.800 66.651,336.800 66.410 C 336.800 65.842,334.158 63.200,333.590 63.200 C 333.349 63.200,333.244 63.053,333.355 62.873 C 333.549 62.559,328.613 58.579,328.336 58.826 C 328.261 58.893,327.679 58.464,327.042 57.874 C 326.404 57.283,325.726 56.800,325.533 56.800 C 325.340 56.800,324.512 56.364,323.691 55.832 C 322.871 55.299,321.435 54.641,320.500 54.368 C 319.565 54.096,318.800 53.752,318.800 53.603 C 318.800 53.455,318.530 53.303,318.200 53.267 C 317.870 53.230,317.330 53.170,317.000 53.133 C 316.670 53.097,316.400 52.925,316.400 52.751 C 316.400 52.578,315.725 52.319,314.900 52.177 C 314.075 52.034,312.600 51.656,311.623 51.337 C 308.540 50.331,307.045 50.257,286.816 50.109 C 275.935 50.030,266.987 49.921,266.933 49.866 C 266.879 49.812,266.810 41.707,266.781 31.854 C 266.724 12.625,266.514 10.592,264.333 8.046 C 263.966 7.618,263.733 7.200,263.815 7.118 C 263.994 6.939,260.037 3.005,259.661 2.988 C 259.518 2.982,258.664 2.482,257.764 1.877 C 256.863 1.273,255.559 0.738,254.864 0.689 C 254.170 0.640,253.601 0.465,253.601 0.300 C 253.600 0.135,251.980 0.000,250.000 0.000 C 248.020 0.000,246.400 0.135,246.399 0.300 C 246.399 0.465,245.830 0.640,245.136 0.689 C 244.441 0.738,243.137 1.273,242.236 1.877 C 241.336 2.482,240.482 2.982,240.339 2.988 C 239.951 3.006,236.009 6.942,236.194 7.127 C 236.281 7.214,236.036 7.624,235.650 8.038 C 233.459 10.390,233.283 12.214,233.237 33.100 L 233.200 50.000 200.000 50.000 L 166.800 50.000 166.763 33.100 C 166.717 12.214,166.541 10.390,164.350 8.038 C 163.964 7.624,163.719 7.214,163.806 7.127 C 163.991 6.942,160.049 3.006,159.661 2.988 C 159.518 2.982,158.664 2.482,157.764 1.877 C 156.863 1.273,155.559 0.738,154.864 0.689 C 154.170 0.640,153.601 0.465,153.601 0.300 C 153.600 0.135,151.980 0.000,150.000 0.000 C 148.020 0.000,146.400 0.135,146.399 0.300 M305.393 84.320 C 310.076 85.884,314.117 89.925,315.679 94.607 L 316.744 97.800 316.746 200.000 L 316.748 302.200 315.681 305.393 C 314.116 310.076,310.074 314.117,305.393 315.680 L 302.200 316.746 200.000 316.746 L 97.800 316.746 94.607 315.680 C 89.926 314.117,85.884 310.076,84.319 305.393 L 83.252 302.200 83.254 200.000 L 83.256 97.800 84.321 94.607 C 85.883 89.925,89.924 85.884,94.607 84.320 L 97.800 83.254 200.000 83.254 L 302.200 83.254 305.393 84.320 M146.677 133.614 C 145.619 133.793,144.513 134.141,144.218 134.385 C 143.923 134.630,143.259 134.912,142.742 135.011 C 142.225 135.111,141.742 135.374,141.668 135.596 C 141.594 135.818,141.352 136.000,141.131 136.000 C 140.909 136.000,140.371 136.405,139.934 136.900 C 139.497 137.395,139.256 137.530,139.399 137.200 C 139.541 136.870,138.839 137.500,137.837 138.600 C 136.836 139.700,136.013 140.810,136.008 141.067 C 136.004 141.323,135.816 141.595,135.591 141.670 C 135.366 141.745,135.085 142.341,134.967 142.994 C 134.848 143.648,134.576 144.291,134.361 144.424 C 133.053 145.233,132.830 252.710,134.132 255.200 C 134.534 255.970,134.937 256.959,135.028 257.399 C 135.118 257.838,135.374 258.258,135.596 258.332 C 135.818 258.406,136.000 258.648,136.000 258.869 C 136.000 259.091,136.405 259.629,136.900 260.066 C 137.395 260.503,137.530 260.738,137.200 260.587 C 136.870 260.436,137.500 261.138,138.600 262.146 C 139.700 263.154,140.810 263.983,141.067 263.989 C 141.323 263.995,141.595 264.184,141.670 264.409 C 141.745 264.634,142.341 264.915,142.994 265.033 C 143.648 265.152,144.291 265.424,144.424 265.639 C 144.961 266.508,150.278 266.600,200.000 266.600 C 249.722 266.600,255.039 266.508,255.576 265.639 C 255.709 265.424,256.352 265.152,257.006 265.033 C 257.659 264.915,258.255 264.634,258.330 264.409 C 258.405 264.184,258.677 263.996,258.933 263.992 C 259.190 263.987,260.300 263.164,261.400 262.163 C 262.500 261.161,263.130 260.459,262.800 260.601 C 262.470 260.744,262.605 260.503,263.100 260.066 C 263.595 259.629,264.000 259.091,264.000 258.869 C 264.000 258.648,264.182 258.406,264.404 258.332 C 264.626 258.258,264.882 257.838,264.972 257.399 C 265.063 256.959,265.466 255.970,265.868 255.200 C 267.170 252.710,266.947 145.233,265.639 144.424 C 265.424 144.291,265.152 143.648,265.033 142.994 C 264.915 142.341,264.634 141.745,264.409 141.670 C 264.184 141.595,263.995 141.323,263.989 141.067 C 263.983 140.810,263.154 139.700,262.146 138.600 C 261.138 137.500,260.436 136.870,260.587 137.200 C 260.738 137.530,260.503 137.395,260.066 136.900 C 259.629 136.405,259.091 136.000,258.869 136.000 C 258.648 136.000,258.406 135.818,258.332 135.596 C 258.258 135.374,257.838 135.118,257.399 135.028 C 256.959 134.937,255.970 134.534,255.200 134.132 C 253.684 133.339,151.179 132.850,146.677 133.614 M233.200 200.000 L 233.200 233.200 200.000 233.200 L 166.800 233.200 166.800 200.000 L 166.800 166.800 200.000 166.800 L 233.200 166.800 233.200 200.000 " stroke="none" fill="#a451bd" fill-rule="evenodd"></path><path id="path3" d="M146.399 0.300 C 146.399 0.465,145.830 0.640,145.136 0.689 C 144.441 0.738,143.137 1.273,142.236 1.877 C 141.336 2.482,140.482 2.982,140.339 2.988 C 139.963 3.005,136.006 6.939,136.185 7.118 C 136.267 7.200,136.034 7.618,135.667 8.046 C 133.486 10.592,133.276 12.625,133.219 31.854 C 133.190 41.707,133.121 49.812,133.067 49.866 C 133.013 49.921,124.065 50.030,113.184 50.109 C 92.955 50.257,91.460 50.331,88.377 51.337 C 87.400 51.656,85.925 52.034,85.100 52.177 C 84.275 52.319,83.600 52.578,83.600 52.751 C 83.600 52.925,83.330 53.097,83.000 53.133 C 82.670 53.170,82.130 53.230,81.800 53.267 C 81.470 53.303,81.200 53.455,81.200 53.603 C 81.200 53.752,80.435 54.096,79.500 54.368 C 78.565 54.641,77.129 55.299,76.309 55.832 C 75.488 56.364,74.660 56.800,74.467 56.800 C 74.274 56.800,73.636 57.245,73.049 57.790 C 72.462 58.334,71.911 58.739,71.824 58.690 C 71.490 58.498,66.455 62.565,66.645 62.873 C 66.756 63.053,66.651 63.200,66.410 63.200 C 65.842 63.200,63.200 65.842,63.200 66.410 C 63.200 66.651,63.053 66.756,62.873 66.645 C 62.562 66.453,58.815 71.084,58.791 71.690 C 58.785 71.850,58.334 72.462,57.790 73.049 C 57.245 73.636,56.800 74.274,56.800 74.467 C 56.800 74.660,56.364 75.488,55.832 76.309 C 55.299 77.129,54.641 78.565,54.368 79.500 C 54.096 80.435,53.752 81.200,53.603 81.200 C 53.455 81.200,53.303 81.470,53.267 81.800 C 53.230 82.130,53.170 82.670,53.133 83.000 C 53.097 83.330,52.925 83.600,52.751 83.600 C 52.578 83.600,52.319 84.275,52.177 85.100 C 52.034 85.925,51.656 87.400,51.337 88.377 C 50.331 91.460,50.257 92.955,50.109 113.184 C 50.030 124.065,49.921 133.013,49.866 133.067 C 49.812 133.121,41.707 133.190,31.854 133.219 C 12.625 133.276,10.592 133.486,8.046 135.667 C 7.618 136.034,7.200 136.267,7.118 136.185 C 6.939 136.006,3.005 139.963,2.988 140.339 C 2.982 140.482,2.482 141.336,1.877 142.236 C 1.273 143.137,0.738 144.441,0.689 145.136 C 0.640 145.830,0.465 146.399,0.300 146.399 C 0.135 146.400,0.000 148.020,0.000 150.000 C 0.000 151.980,0.135 153.600,0.300 153.601 C 0.465 153.601,0.640 154.170,0.689 154.864 C 0.738 155.559,1.273 156.863,1.877 157.764 C 2.482 158.664,2.982 159.518,2.988 159.661 C 3.006 160.049,6.942 163.991,7.127 163.806 C 7.214 163.719,7.624 163.964,8.038 164.350 C 10.390 166.541,12.214 166.717,33.100 166.763 L 50.000 166.800 50.000 191.815 L 50.000 216.829 31.700 216.784 C 17.983 216.750,13.100 216.862,12.200 217.233 C 11.540 217.506,10.775 217.692,10.500 217.647 C 10.225 217.602,10.000 217.753,10.000 217.982 C 10.000 218.212,9.739 218.400,9.420 218.400 C 8.009 218.400,2.400 223.274,2.400 224.501 C 2.400 224.697,2.130 225.127,1.800 225.457 C 1.470 225.787,1.199 226.449,1.198 226.929 C 1.196 227.408,0.936 228.296,0.620 228.902 C -0.037 230.163,-0.110 235.357,0.499 237.591 C 1.224 240.251,4.000 245.475,4.000 244.179 C 4.000 243.789,5.419 245.251,5.502 245.726 C 5.661 246.637,9.480 248.703,12.560 249.543 C 13.547 249.812,20.661 249.977,31.934 249.992 C 41.732 250.005,49.799 250.066,49.861 250.128 C 49.923 250.189,50.034 262.921,50.109 278.420 C 50.246 306.959,50.301 308.449,51.337 311.623 C 51.656 312.600,52.034 314.075,52.177 314.900 C 52.319 315.725,52.578 316.400,52.751 316.400 C 52.925 316.400,53.097 316.670,53.133 317.000 C 53.170 317.330,53.230 317.870,53.267 318.200 C 53.303 318.530,53.455 318.800,53.603 318.800 C 53.752 318.800,54.096 319.565,54.368 320.500 C 54.641 321.435,55.299 322.871,55.832 323.691 C 56.364 324.512,56.800 325.340,56.800 325.533 C 56.800 325.726,57.245 326.364,57.790 326.951 C 58.334 327.538,58.785 328.150,58.791 328.310 C 58.815 328.916,62.562 333.547,62.873 333.355 C 63.053 333.244,63.200 333.349,63.200 333.590 C 63.200 334.158,65.842 336.800,66.410 336.800 C 66.651 336.800,66.756 336.947,66.645 337.127 C 66.457 337.432,71.144 341.232,71.852 341.347 C 72.029 341.376,72.612 341.805,73.146 342.300 C 73.680 342.795,74.274 343.200,74.467 343.200 C 74.660 343.200,75.488 343.636,76.309 344.168 C 77.129 344.701,78.565 345.359,79.500 345.632 C 80.435 345.904,81.200 346.248,81.200 346.397 C 81.200 346.545,81.470 346.697,81.800 346.733 C 82.130 346.770,82.670 346.830,83.000 346.867 C 83.330 346.903,83.600 347.075,83.600 347.249 C 83.600 347.422,84.275 347.681,85.100 347.823 C 85.925 347.966,87.400 348.344,88.377 348.663 C 91.460 349.669,92.955 349.743,113.184 349.891 C 124.065 349.970,133.013 350.079,133.067 350.134 C 133.121 350.188,133.190 358.293,133.219 368.146 C 133.276 387.375,133.486 389.408,135.667 391.954 C 136.034 392.382,136.267 392.800,136.185 392.882 C 136.006 393.061,139.963 396.995,140.339 397.012 C 140.482 397.018,141.336 397.518,142.236 398.123 C 143.137 398.727,144.441 399.262,145.136 399.311 C 145.830 399.360,146.399 399.535,146.399 399.700 C 146.400 399.865,148.020 400.000,150.000 400.000 C 151.980 400.000,153.600 399.865,153.601 399.700 C 153.601 399.535,154.170 399.360,154.864 399.311 C 155.559 399.262,156.863 398.727,157.764 398.123 C 158.664 397.518,159.518 397.018,159.661 397.012 C 160.049 396.994,163.991 393.058,163.806 392.873 C 163.719 392.786,163.964 392.376,164.350 391.962 C 166.541 389.610,166.717 387.786,166.763 366.900 L 166.800 350.000 200.000 350.000 L 233.200 350.000 233.237 366.900 C 233.283 387.786,233.459 389.610,235.650 391.962 C 236.036 392.376,236.281 392.786,236.194 392.873 C 236.009 393.058,239.951 396.994,240.339 397.012 C 240.482 397.018,241.336 397.518,242.236 398.123 C 243.137 398.727,244.441 399.262,245.136 399.311 C 245.830 399.360,246.399 399.535,246.399 399.700 C 246.400 399.865,248.020 400.000,250.000 400.000 C 251.980 400.000,253.600 399.865,253.601 399.700 C 253.601 399.535,254.170 399.360,254.864 399.311 C 255.559 399.262,256.863 398.727,257.764 398.123 C 258.664 397.518,259.518 397.018,259.661 397.012 C 260.037 396.995,263.994 393.061,263.815 392.882 C 263.733 392.800,263.966 392.382,264.333 391.954 C 266.514 389.408,266.724 387.375,266.781 368.146 C 266.810 358.293,266.879 350.188,266.933 350.134 C 266.987 350.079,275.935 349.970,286.816 349.891 C 307.045 349.743,308.540 349.669,311.623 348.663 C 312.600 348.344,314.075 347.966,314.900 347.823 C 315.725 347.681,316.400 347.422,316.400 347.249 C 316.400 347.075,316.670 346.903,317.000 346.867 C 317.330 346.830,317.870 346.770,318.200 346.733 C 318.530 346.697,318.800 346.545,318.800 346.397 C 318.800 346.248,319.565 345.904,320.500 345.632 C 321.435 345.359,322.871 344.701,323.691 344.168 C 324.512 343.636,325.340 343.200,325.533 343.200 C 325.726 343.200,326.404 342.717,327.042 342.126 C 327.679 341.536,328.230 341.131,328.266 341.226 C 328.302 341.322,329.508 340.512,330.944 339.427 C 332.381 338.341,333.466 337.306,333.355 337.127 C 333.244 336.947,333.349 336.800,333.590 336.800 C 334.158 336.800,336.800 334.158,336.800 333.590 C 336.800 333.349,336.947 333.244,337.127 333.355 C 337.435 333.545,341.502 328.510,341.310 328.176 C 341.261 328.089,341.666 327.538,342.210 326.951 C 342.755 326.364,343.200 325.726,343.200 325.533 C 343.200 325.340,343.636 324.512,344.168 323.691 C 344.701 322.871,345.359 321.435,345.632 320.500 C 345.904 319.565,346.248 318.800,346.397 318.800 C 346.545 318.800,346.697 318.530,346.733 318.200 C 346.770 317.870,346.830 317.330,346.867 317.000 C 346.903 316.670,347.075 316.400,347.249 316.400 C 347.422 316.400,347.681 315.725,347.823 314.900 C 347.966 314.075,348.344 312.600,348.663 311.623 C 349.699 308.449,349.754 306.959,349.891 278.420 C 349.966 262.921,350.077 250.189,350.139 250.128 C 350.201 250.066,358.268 250.005,368.066 249.992 C 379.339 249.977,386.453 249.812,387.440 249.543 C 390.310 248.760,394.762 246.414,394.321 245.917 C 394.254 245.842,394.605 245.347,395.100 244.815 C 395.595 244.284,396.000 243.997,396.000 244.179 C 396.000 245.475,398.776 240.251,399.501 237.591 C 400.110 235.357,400.037 230.163,399.380 228.902 C 399.064 228.296,398.804 227.408,398.802 226.929 C 398.801 226.449,398.530 225.787,398.200 225.457 C 397.870 225.127,397.600 224.697,397.600 224.501 C 397.600 223.274,391.991 218.400,390.580 218.400 C 390.261 218.400,390.000 218.212,390.000 217.982 C 390.000 217.753,389.775 217.602,389.500 217.647 C 389.225 217.692,388.460 217.506,387.800 217.233 C 386.900 216.862,382.017 216.750,368.300 216.784 L 350.000 216.829 350.000 191.815 L 350.000 166.800 366.900 166.763 C 387.786 166.717,389.610 166.541,391.962 164.350 C 392.376 163.964,392.786 163.719,392.873 163.806 C 393.058 163.991,396.994 160.049,397.012 159.661 C 397.018 159.518,397.518 158.664,398.123 157.764 C 398.727 156.863,399.262 155.559,399.311 154.864 C 399.360 154.170,399.535 153.601,399.700 153.601 C 399.865 153.600,400.000 151.980,400.000 150.000 C 400.000 148.020,399.865 146.400,399.700 146.399 C 399.535 146.399,399.360 145.830,399.311 145.136 C 399.262 144.441,398.727 143.137,398.123 142.236 C 397.518 141.336,397.018 140.482,397.012 140.339 C 396.995 139.963,393.061 136.006,392.882 136.185 C 392.800 136.267,392.382 136.034,391.954 135.667 C 389.408 133.486,387.375 133.276,368.146 133.219 C 358.293 133.190,350.188 133.121,350.134 133.067 C 350.079 133.013,349.970 124.065,349.891 113.184 C 349.743 92.955,349.669 91.460,348.663 88.377 C 348.344 87.400,347.966 85.925,347.823 85.100 C 347.681 84.275,347.422 83.600,347.249 83.600 C 347.075 83.600,346.903 83.330,346.867 83.000 C 346.830 82.670,346.770 82.130,346.733 81.800 C 346.697 81.470,346.545 81.200,346.397 81.200 C 346.248 81.200,345.904 80.435,345.632 79.500 C 345.359 78.565,344.701 77.129,344.168 76.309 C 343.636 75.488,343.200 74.660,343.200 74.467 C 343.200 74.274,342.755 73.636,342.210 73.049 C 341.666 72.462,341.261 71.911,341.310 71.824 C 341.502 71.490,337.435 66.455,337.127 66.645 C 336.947 66.756,336.800 66.651,336.800 66.410 C 336.800 65.842,334.158 63.200,333.590 63.200 C 333.349 63.200,333.244 63.053,333.355 62.873 C 333.549 62.559,328.613 58.579,328.336 58.826 C 328.261 58.893,327.679 58.464,327.042 57.874 C 326.404 57.283,325.726 56.800,325.533 56.800 C 325.340 56.800,324.512 56.364,323.691 55.832 C 322.871 55.299,321.435 54.641,320.500 54.368 C 319.565 54.096,318.800 53.752,318.800 53.603 C 318.800 53.455,318.530 53.303,318.200 53.267 C 317.870 53.230,317.330 53.170,317.000 53.133 C 316.670 53.097,316.400 52.925,316.400 52.751 C 316.400 52.578,315.725 52.319,314.900 52.177 C 314.075 52.034,312.600 51.656,311.623 51.337 C 308.540 50.331,307.045 50.257,286.816 50.109 C 275.935 50.030,266.987 49.921,266.933 49.866 C 266.879 49.812,266.810 41.707,266.781 31.854 C 266.724 12.625,266.514 10.592,264.333 8.046 C 263.966 7.618,263.733 7.200,263.815 7.118 C 263.994 6.939,260.037 3.005,259.661 2.988 C 259.518 2.982,258.664 2.482,257.764 1.877 C 256.863 1.273,255.559 0.738,254.864 0.689 C 254.170 0.640,253.601 0.465,253.601 0.300 C 253.600 0.135,251.980 0.000,250.000 0.000 C 248.020 0.000,246.400 0.135,246.399 0.300 C 246.399 0.465,245.830 0.640,245.136 0.689 C 244.441 0.738,243.137 1.273,242.236 1.877 C 241.336 2.482,240.482 2.982,240.339 2.988 C 239.951 3.006,236.009 6.942,236.194 7.127 C 236.281 7.214,236.036 7.624,235.650 8.038 C 233.459 10.390,233.283 12.214,233.237 33.100 L 233.200 50.000 200.000 50.000 L 166.800 50.000 166.763 33.100 C 166.717 12.214,166.541 10.390,164.350 8.038 C 163.964 7.624,163.719 7.214,163.806 7.127 C 163.991 6.942,160.049 3.006,159.661 2.988 C 159.518 2.982,158.664 2.482,157.764 1.877 C 156.863 1.273,155.559 0.738,154.864 0.689 C 154.170 0.640,153.601 0.465,153.601 0.300 C 153.600 0.135,151.980 0.000,150.000 0.000 C 148.020 0.000,146.400 0.135,146.399 0.300 M305.393 84.320 C 310.076 85.884,314.117 89.925,315.679 94.607 L 316.744 97.800 316.746 200.000 L 316.748 302.200 315.681 305.393 C 314.116 310.076,310.074 314.117,305.393 315.680 L 302.200 316.746 200.000 316.746 L 97.800 316.746 94.607 315.680 C 89.926 314.117,85.884 310.076,84.319 305.393 L 83.252 302.200 83.254 200.000 L 83.256 97.800 84.321 94.607 C 85.883 89.925,89.924 85.884,94.607 84.320 L 97.800 83.254 200.000 83.254 L 302.200 83.254 305.393 84.320 M146.677 133.614 C 145.619 133.793,144.513 134.141,144.218 134.385 C 143.923 134.630,143.259 134.912,142.742 135.011 C 142.225 135.111,141.742 135.374,141.668 135.596 C 141.594 135.818,141.352 136.000,141.131 136.000 C 140.909 136.000,140.371 136.405,139.934 136.900 C 139.497 137.395,139.256 137.530,139.399 137.200 C 139.541 136.870,138.839 137.500,137.837 138.600 C 136.836 139.700,136.013 140.810,136.008 141.067 C 136.004 141.323,135.816 141.595,135.591 141.670 C 135.366 141.745,135.085 142.341,134.967 142.994 C 134.848 143.648,134.576 144.291,134.361 144.424 C 133.053 145.233,132.830 252.710,134.132 255.200 C 134.534 255.970,134.937 256.959,135.028 257.399 C 135.118 257.838,135.374 258.258,135.596 258.332 C 135.818 258.406,136.000 258.648,136.000 258.869 C 136.000 259.091,136.405 259.629,136.900 260.066 C 137.395 260.503,137.530 260.738,137.200 260.587 C 136.870 260.436,137.500 261.138,138.600 262.146 C 139.700 263.154,140.810 263.983,141.067 263.989 C 141.323 263.995,141.595 264.184,141.670 264.409 C 141.745 264.634,142.341 264.915,142.994 265.033 C 143.648 265.152,144.291 265.424,144.424 265.639 C 144.961 266.508,150.278 266.600,200.000 266.600 C 249.722 266.600,255.039 266.508,255.576 265.639 C 255.709 265.424,256.352 265.152,257.006 265.033 C 257.659 264.915,258.255 264.634,258.330 264.409 C 258.405 264.184,258.677 263.996,258.933 263.992 C 259.190 263.987,260.300 263.164,261.400 262.163 C 262.500 261.161,263.130 260.459,262.800 260.601 C 262.470 260.744,262.605 260.503,263.100 260.066 C 263.595 259.629,264.000 259.091,264.000 258.869 C 264.000 258.648,264.182 258.406,264.404 258.332 C 264.626 258.258,264.882 257.838,264.972 257.399 C 265.063 256.959,265.466 255.970,265.868 255.200 C 267.170 252.710,266.947 145.233,265.639 144.424 C 265.424 144.291,265.152 143.648,265.033 142.994 C 264.915 142.341,264.634 141.745,264.409 141.670 C 264.184 141.595,263.995 141.323,263.989 141.067 C 263.983 140.810,263.154 139.700,262.146 138.600 C 261.138 137.500,260.436 136.870,260.587 137.200 C 260.738 137.530,260.503 137.395,260.066 136.900 C 259.629 136.405,259.091 136.000,258.869 136.000 C 258.648 136.000,258.406 135.818,258.332 135.596 C 258.258 135.374,257.838 135.118,257.399 135.028 C 256.959 134.937,255.970 134.534,255.200 134.132 C 253.684 133.339,151.179 132.850,146.677 133.614 M233.200 200.000 L 233.200 233.200 200.000 233.200 L 166.800 233.200 166.800 200.000 L 166.800 166.800 200.000 166.800 L 233.200 166.800 233.200 200.000 " stroke="none" fill="#a451bd" fill-rule="evenodd"></path><path id="path4" d="M146.399 0.300 C 146.399 0.465,145.830 0.640,145.136 0.689 C 144.441 0.738,143.137 1.273,142.236 1.877 C 141.336 2.482,140.482 2.982,140.339 2.988 C 139.963 3.005,136.006 6.939,136.185 7.118 C 136.267 7.200,136.034 7.618,135.667 8.046 C 133.486 10.592,133.276 12.625,133.219 31.854 C 133.190 41.707,133.121 49.812,133.067 49.866 C 133.013 49.921,124.065 50.030,113.184 50.109 C 92.955 50.257,91.460 50.331,88.377 51.337 C 87.400 51.656,85.925 52.034,85.100 52.177 C 84.275 52.319,83.600 52.578,83.600 52.751 C 83.600 52.925,83.330 53.097,83.000 53.133 C 82.670 53.170,82.130 53.230,81.800 53.267 C 81.470 53.303,81.200 53.455,81.200 53.603 C 81.200 53.752,80.435 54.096,79.500 54.368 C 78.565 54.641,77.129 55.299,76.309 55.832 C 75.488 56.364,74.660 56.800,74.467 56.800 C 74.274 56.800,73.636 57.245,73.049 57.790 C 72.462 58.334,71.911 58.739,71.824 58.690 C 71.490 58.498,66.455 62.565,66.645 62.873 C 66.756 63.053,66.651 63.200,66.410 63.200 C 65.842 63.200,63.200 65.842,63.200 66.410 C 63.200 66.651,63.053 66.756,62.873 66.645 C 62.562 66.453,58.815 71.084,58.791 71.690 C 58.785 71.850,58.334 72.462,57.790 73.049 C 57.245 73.636,56.800 74.274,56.800 74.467 C 56.800 74.660,56.364 75.488,55.832 76.309 C 55.299 77.129,54.641 78.565,54.368 79.500 C 54.096 80.435,53.752 81.200,53.603 81.200 C 53.455 81.200,53.303 81.470,53.267 81.800 C 53.230 82.130,53.170 82.670,53.133 83.000 C 53.097 83.330,52.925 83.600,52.751 83.600 C 52.578 83.600,52.319 84.275,52.177 85.100 C 52.034 85.925,51.656 87.400,51.337 88.377 C 50.331 91.460,50.257 92.955,50.109 113.184 C 50.030 124.065,49.921 133.013,49.866 133.067 C 49.812 133.121,41.707 133.190,31.854 133.219 C 12.625 133.276,10.592 133.486,8.046 135.667 C 7.618 136.034,7.200 136.267,7.118 136.185 C 6.939 136.006,3.005 139.963,2.988 140.339 C 2.982 140.482,2.482 141.336,1.877 142.236 C 1.273 143.137,0.738 144.441,0.689 145.136 C 0.640 145.830,0.465 146.399,0.300 146.399 C 0.135 146.400,0.000 148.020,0.000 150.000 C 0.000 151.980,0.135 153.600,0.300 153.601 C 0.465 153.601,0.640 154.170,0.689 154.864 C 0.738 155.559,1.273 156.863,1.877 157.764 C 2.482 158.664,2.982 159.518,2.988 159.661 C 3.006 160.049,6.942 163.991,7.127 163.806 C 7.214 163.719,7.624 163.964,8.038 164.350 C 10.390 166.541,12.214 166.717,33.100 166.763 L 50.000 166.800 50.000 191.815 L 50.000 216.829 31.700 216.784 C 17.983 216.750,13.100 216.862,12.200 217.233 C 11.540 217.506,10.775 217.692,10.500 217.647 C 10.225 217.602,10.000 217.753,10.000 217.982 C 10.000 218.212,9.739 218.400,9.420 218.400 C 8.009 218.400,2.400 223.274,2.400 224.501 C 2.400 224.697,2.130 225.127,1.800 225.457 C 1.470 225.787,1.199 226.449,1.198 226.929 C 1.196 227.408,0.936 228.296,0.620 228.902 C -0.037 230.163,-0.110 235.357,0.499 237.591 C 1.224 240.251,4.000 245.475,4.000 244.179 C 4.000 243.789,5.419 245.251,5.502 245.726 C 5.661 246.637,9.480 248.703,12.560 249.543 C 13.547 249.812,20.661 249.977,31.934 249.992 C 41.732 250.005,49.799 250.066,49.861 250.128 C 49.923 250.189,50.034 262.921,50.109 278.420 C 50.246 306.959,50.301 308.449,51.337 311.623 C 51.656 312.600,52.034 314.075,52.177 314.900 C 52.319 315.725,52.578 316.400,52.751 316.400 C 52.925 316.400,53.097 316.670,53.133 317.000 C 53.170 317.330,53.230 317.870,53.267 318.200 C 53.303 318.530,53.455 318.800,53.603 318.800 C 53.752 318.800,54.096 319.565,54.368 320.500 C 54.641 321.435,55.299 322.871,55.832 323.691 C 56.364 324.512,56.800 325.340,56.800 325.533 C 56.800 325.726,57.245 326.364,57.790 326.951 C 58.334 327.538,58.785 328.150,58.791 328.310 C 58.815 328.916,62.562 333.547,62.873 333.355 C 63.053 333.244,63.200 333.349,63.200 333.590 C 63.200 334.158,65.842 336.800,66.410 336.800 C 66.651 336.800,66.756 336.947,66.645 337.127 C 66.457 337.432,71.144 341.232,71.852 341.347 C 72.029 341.376,72.612 341.805,73.146 342.300 C 73.680 342.795,74.274 343.200,74.467 343.200 C 74.660 343.200,75.488 343.636,76.309 344.168 C 77.129 344.701,78.565 345.359,79.500 345.632 C 80.435 345.904,81.200 346.248,81.200 346.397 C 81.200 346.545,81.470 346.697,81.800 346.733 C 82.130 346.770,82.670 346.830,83.000 346.867 C 83.330 346.903,83.600 347.075,83.600 347.249 C 83.600 347.422,84.275 347.681,85.100 347.823 C 85.925 347.966,87.400 348.344,88.377 348.663 C 91.460 349.669,92.955 349.743,113.184 349.891 C 124.065 349.970,133.013 350.079,133.067 350.134 C 133.121 350.188,133.190 358.293,133.219 368.146 C 133.276 387.375,133.486 389.408,135.667 391.954 C 136.034 392.382,136.267 392.800,136.185 392.882 C 136.006 393.061,139.963 396.995,140.339 397.012 C 140.482 397.018,141.336 397.518,142.236 398.123 C 143.137 398.727,144.441 399.262,145.136 399.311 C 145.830 399.360,146.399 399.535,146.399 399.700 C 146.400 399.865,148.020 400.000,150.000 400.000 C 151.980 400.000,153.600 399.865,153.601 399.700 C 153.601 399.535,154.170 399.360,154.864 399.311 C 155.559 399.262,156.863 398.727,157.764 398.123 C 158.664 397.518,159.518 397.018,159.661 397.012 C 160.049 396.994,163.991 393.058,163.806 392.873 C 163.719 392.786,163.964 392.376,164.350 391.962 C 166.541 389.610,166.717 387.786,166.763 366.900 L 166.800 350.000 200.000 350.000 L 233.200 350.000 233.237 366.900 C 233.283 387.786,233.459 389.610,235.650 391.962 C 236.036 392.376,236.281 392.786,236.194 392.873 C 236.009 393.058,239.951 396.994,240.339 397.012 C 240.482 397.018,241.336 397.518,242.236 398.123 C 243.137 398.727,244.441 399.262,245.136 399.311 C 245.830 399.360,246.399 399.535,246.399 399.700 C 246.400 399.865,248.020 400.000,250.000 400.000 C 251.980 400.000,253.600 399.865,253.601 399.700 C 253.601 399.535,254.170 399.360,254.864 399.311 C 255.559 399.262,256.863 398.727,257.764 398.123 C 258.664 397.518,259.518 397.018,259.661 397.012 C 260.037 396.995,263.994 393.061,263.815 392.882 C 263.733 392.800,263.966 392.382,264.333 391.954 C 266.514 389.408,266.724 387.375,266.781 368.146 C 266.810 358.293,266.879 350.188,266.933 350.134 C 266.987 350.079,275.935 349.970,286.816 349.891 C 307.045 349.743,308.540 349.669,311.623 348.663 C 312.600 348.344,314.075 347.966,314.900 347.823 C 315.725 347.681,316.400 347.422,316.400 347.249 C 316.400 347.075,316.670 346.903,317.000 346.867 C 317.330 346.830,317.870 346.770,318.200 346.733 C 318.530 346.697,318.800 346.545,318.800 346.397 C 318.800 346.248,319.565 345.904,320.500 345.632 C 321.435 345.359,322.871 344.701,323.691 344.168 C 324.512 343.636,325.340 343.200,325.533 343.200 C 325.726 343.200,326.404 342.717,327.042 342.126 C 327.679 341.536,328.230 341.131,328.266 341.226 C 328.302 341.322,329.508 340.512,330.944 339.427 C 332.381 338.341,333.466 337.306,333.355 337.127 C 333.244 336.947,333.349 336.800,333.590 336.800 C 334.158 336.800,336.800 334.158,336.800 333.590 C 336.800 333.349,336.947 333.244,337.127 333.355 C 337.435 333.545,341.502 328.510,341.310 328.176 C 341.261 328.089,341.666 327.538,342.210 326.951 C 342.755 326.364,343.200 325.726,343.200 325.533 C 343.200 325.340,343.636 324.512,344.168 323.691 C 344.701 322.871,345.359 321.435,345.632 320.500 C 345.904 319.565,346.248 318.800,346.397 318.800 C 346.545 318.800,346.697 318.530,346.733 318.200 C 346.770 317.870,346.830 317.330,346.867 317.000 C 346.903 316.670,347.075 316.400,347.249 316.400 C 347.422 316.400,347.681 315.725,347.823 314.900 C 347.966 314.075,348.344 312.600,348.663 311.623 C 349.699 308.449,349.754 306.959,349.891 278.420 C 349.966 262.921,350.077 250.189,350.139 250.128 C 350.201 250.066,358.268 250.005,368.066 249.992 C 379.339 249.977,386.453 249.812,387.440 249.543 C 390.310 248.760,394.762 246.414,394.321 245.917 C 394.254 245.842,394.605 245.347,395.100 244.815 C 395.595 244.284,396.000 243.997,396.000 244.179 C 396.000 245.475,398.776 240.251,399.501 237.591 C 400.110 235.357,400.037 230.163,399.380 228.902 C 399.064 228.296,398.804 227.408,398.802 226.929 C 398.801 226.449,398.530 225.787,398.200 225.457 C 397.870 225.127,397.600 224.697,397.600 224.501 C 397.600 223.274,391.991 218.400,390.580 218.400 C 390.261 218.400,390.000 218.212,390.000 217.982 C 390.000 217.753,389.775 217.602,389.500 217.647 C 389.225 217.692,388.460 217.506,387.800 217.233 C 386.900 216.862,382.017 216.750,368.300 216.784 L 350.000 216.829 350.000 191.815 L 350.000 166.800 366.900 166.763 C 387.786 166.717,389.610 166.541,391.962 164.350 C 392.376 163.964,392.786 163.719,392.873 163.806 C 393.058 163.991,396.994 160.049,397.012 159.661 C 397.018 159.518,397.518 158.664,398.123 157.764 C 398.727 156.863,399.262 155.559,399.311 154.864 C 399.360 154.170,399.535 153.601,399.700 153.601 C 399.865 153.600,400.000 151.980,400.000 150.000 C 400.000 148.020,399.865 146.400,399.700 146.399 C 399.535 146.399,399.360 145.830,399.311 145.136 C 399.262 144.441,398.727 143.137,398.123 142.236 C 397.518 141.336,397.018 140.482,397.012 140.339 C 396.995 139.963,393.061 136.006,392.882 136.185 C 392.800 136.267,392.382 136.034,391.954 135.667 C 389.408 133.486,387.375 133.276,368.146 133.219 C 358.293 133.190,350.188 133.121,350.134 133.067 C 350.079 133.013,349.970 124.065,349.891 113.184 C 349.743 92.955,349.669 91.460,348.663 88.377 C 348.344 87.400,347.966 85.925,347.823 85.100 C 347.681 84.275,347.422 83.600,347.249 83.600 C 347.075 83.600,346.903 83.330,346.867 83.000 C 346.830 82.670,346.770 82.130,346.733 81.800 C 346.697 81.470,346.545 81.200,346.397 81.200 C 346.248 81.200,345.904 80.435,345.632 79.500 C 345.359 78.565,344.701 77.129,344.168 76.309 C 343.636 75.488,343.200 74.660,343.200 74.467 C 343.200 74.274,342.755 73.636,342.210 73.049 C 341.666 72.462,341.261 71.911,341.310 71.824 C 341.502 71.490,337.435 66.455,337.127 66.645 C 336.947 66.756,336.800 66.651,336.800 66.410 C 336.800 65.842,334.158 63.200,333.590 63.200 C 333.349 63.200,333.244 63.053,333.355 62.873 C 333.549 62.559,328.613 58.579,328.336 58.826 C 328.261 58.893,327.679 58.464,327.042 57.874 C 326.404 57.283,325.726 56.800,325.533 56.800 C 325.340 56.800,324.512 56.364,323.691 55.832 C 322.871 55.299,321.435 54.641,320.500 54.368 C 319.565 54.096,318.800 53.752,318.800 53.603 C 318.800 53.455,318.530 53.303,318.200 53.267 C 317.870 53.230,317.330 53.170,317.000 53.133 C 316.670 53.097,316.400 52.925,316.400 52.751 C 316.400 52.578,315.725 52.319,314.900 52.177 C 314.075 52.034,312.600 51.656,311.623 51.337 C 308.540 50.331,307.045 50.257,286.816 50.109 C 275.935 50.030,266.987 49.921,266.933 49.866 C 266.879 49.812,266.810 41.707,266.781 31.854 C 266.724 12.625,266.514 10.592,264.333 8.046 C 263.966 7.618,263.733 7.200,263.815 7.118 C 263.994 6.939,260.037 3.005,259.661 2.988 C 259.518 2.982,258.664 2.482,257.764 1.877 C 256.863 1.273,255.559 0.738,254.864 0.689 C 254.170 0.640,253.601 0.465,253.601 0.300 C 253.600 0.135,251.980 0.000,250.000 0.000 C 248.020 0.000,246.400 0.135,246.399 0.300 C 246.399 0.465,245.830 0.640,245.136 0.689 C 244.441 0.738,243.137 1.273,242.236 1.877 C 241.336 2.482,240.482 2.982,240.339 2.988 C 239.951 3.006,236.009 6.942,236.194 7.127 C 236.281 7.214,236.036 7.624,235.650 8.038 C 233.459 10.390,233.283 12.214,233.237 33.100 L 233.200 50.000 200.000 50.000 L 166.800 50.000 166.763 33.100 C 166.717 12.214,166.541 10.390,164.350 8.038 C 163.964 7.624,163.719 7.214,163.806 7.127 C 163.991 6.942,160.049 3.006,159.661 2.988 C 159.518 2.982,158.664 2.482,157.764 1.877 C 156.863 1.273,155.559 0.738,154.864 0.689 C 154.170 0.640,153.601 0.465,153.601 0.300 C 153.600 0.135,151.980 0.000,150.000 0.000 C 148.020 0.000,146.400 0.135,146.399 0.300 M305.393 84.320 C 310.076 85.884,314.117 89.925,315.679 94.607 L 316.744 97.800 316.746 200.000 L 316.748 302.200 315.681 305.393 C 314.116 310.076,310.074 314.117,305.393 315.680 L 302.200 316.746 200.000 316.746 L 97.800 316.746 94.607 315.680 C 89.926 314.117,85.884 310.076,84.319 305.393 L 83.252 302.200 83.254 200.000 L 83.256 97.800 84.321 94.607 C 85.883 89.925,89.924 85.884,94.607 84.320 L 97.800 83.254 200.000 83.254 L 302.200 83.254 305.393 84.320 M146.677 133.614 C 145.619 133.793,144.513 134.141,144.218 134.385 C 143.923 134.630,143.259 134.912,142.742 135.011 C 142.225 135.111,141.742 135.374,141.668 135.596 C 141.594 135.818,141.352 136.000,141.131 136.000 C 140.909 136.000,140.371 136.405,139.934 136.900 C 139.497 137.395,139.256 137.530,139.399 137.200 C 139.541 136.870,138.839 137.500,137.837 138.600 C 136.836 139.700,136.013 140.810,136.008 141.067 C 136.004 141.323,135.816 141.595,135.591 141.670 C 135.366 141.745,135.085 142.341,134.967 142.994 C 134.848 143.648,134.576 144.291,134.361 144.424 C 133.053 145.233,132.830 252.710,134.132 255.200 C 134.534 255.970,134.937 256.959,135.028 257.399 C 135.118 257.838,135.374 258.258,135.596 258.332 C 135.818 258.406,136.000 258.648,136.000 258.869 C 136.000 259.091,136.405 259.629,136.900 260.066 C 137.395 260.503,137.530 260.738,137.200 260.587 C 136.870 260.436,137.500 261.138,138.600 262.146 C 139.700 263.154,140.810 263.983,141.067 263.989 C 141.323 263.995,141.595 264.184,141.670 264.409 C 141.745 264.634,142.341 264.915,142.994 265.033 C 143.648 265.152,144.291 265.424,144.424 265.639 C 144.961 266.508,150.278 266.600,200.000 266.600 C 249.722 266.600,255.039 266.508,255.576 265.639 C 255.709 265.424,256.352 265.152,257.006 265.033 C 257.659 264.915,258.255 264.634,258.330 264.409 C 258.405 264.184,258.677 263.996,258.933 263.992 C 259.190 263.987,260.300 263.164,261.400 262.163 C 262.500 261.161,263.130 260.459,262.800 260.601 C 262.470 260.744,262.605 260.503,263.100 260.066 C 263.595 259.629,264.000 259.091,264.000 258.869 C 264.000 258.648,264.182 258.406,264.404 258.332 C 264.626 258.258,264.882 257.838,264.972 257.399 C 265.063 256.959,265.466 255.970,265.868 255.200 C 267.170 252.710,266.947 145.233,265.639 144.424 C 265.424 144.291,265.152 143.648,265.033 142.994 C 264.915 142.341,264.634 141.745,264.409 141.670 C 264.184 141.595,263.995 141.323,263.989 141.067 C 263.983 140.810,263.154 139.700,262.146 138.600 C 261.138 137.500,260.436 136.870,260.587 137.200 C 260.738 137.530,260.503 137.395,260.066 136.900 C 259.629 136.405,259.091 136.000,258.869 136.000 C 258.648 136.000,258.406 135.818,258.332 135.596 C 258.258 135.374,257.838 135.118,257.399 135.028 C 256.959 134.937,255.970 134.534,255.200 134.132 C 253.684 133.339,151.179 132.850,146.677 133.614 M233.200 200.000 L 233.200 233.200 200.000 233.200 L 166.800 233.200 166.800 200.000 L 166.800 166.800 200.000 166.800 L 233.200 166.800 233.200 200.000 " stroke="none" fill="#a451bd" fill-rule="evenodd"></path></g></svg>