<svg id="svg" xmlns="http://www.w3.org/2000/svg" xmlns:xlink="http://www.w3.org/1999/xlink" width="400" height="400" viewBox="0, 0, 400,400" version="1.1"><g id="svgg"><path id="path0" d="M110.785 33.331 C 110.683 33.423,108.980 33.619,107.000 33.766 C 66.303 36.782,26.349 68.538,14.607 107.200 C 3.205 144.740,9.687 180.404,33.321 210.175 C 39.552 218.024,189.534 367.424,192.643 368.879 C 197.287 371.052,202.713 371.052,207.359 368.878 C 210.483 367.416,360.521 217.961,366.647 210.210 C 419.311 143.565,381.722 47.209,298.000 34.242 C 265.165 29.156,231.504 40.362,206.024 64.862 C 202.846 67.916,200.125 70.367,199.977 70.308 C 199.828 70.249,197.118 67.745,193.953 64.746 C 175.338 47.097,155.552 37.327,132.000 34.153 C 127.774 33.583,111.215 32.942,110.785 33.331 M129.260 67.820 C 148.406 71.064,158.546 77.027,178.607 96.838 C 192.442 110.500,193.456 111.180,200.000 111.180 C 206.559 111.180,207.574 110.500,221.400 96.835 C 228.000 90.312,234.840 83.892,236.600 82.568 C 274.836 53.796,328.121 66.031,349.439 108.478 C 363.045 135.570,358.484 168.934,338.048 191.793 C 335.318 194.848,200.305 329.600,199.975 329.600 C 199.663 329.600,64.868 195.025,61.950 191.800 C 41.596 169.312,36.978 135.523,50.561 108.478 C 62.637 84.434,84.628 69.646,112.200 67.029 C 115.386 66.727,125.605 67.201,129.260 67.820 " stroke="none" fill="#0fc8e0" fill-rule="evenodd"></path><path id="path1" d="M158.800 336.525 C 158.800 336.594,159.385 337.179,160.100 337.825 L 161.400 339.000 160.225 337.700 C 159.130 336.488,158.800 336.216,158.800 336.525 M239.775 337.700 L 238.600 339.000 239.900 337.825 C 240.615 337.179,241.200 336.594,241.200 336.525 C 241.200 336.216,240.870 336.488,239.775 337.700 M180.800 358.525 C 180.800 358.594,181.385 359.179,182.100 359.825 L 183.400 361.000 182.225 359.700 C 181.130 358.488,180.800 358.216,180.800 358.525 M217.775 359.700 L 216.600 361.000 217.900 359.825 C 218.615 359.179,219.200 358.594,219.200 358.525 C 219.200 358.216,218.870 358.488,217.775 359.700 " stroke="none" fill="#a854bc" fill-rule="evenodd"></path><path id="path2" d="M158.800 336.525 C 158.800 336.594,159.385 337.179,160.100 337.825 L 161.400 339.000 160.225 337.700 C 159.130 336.488,158.800 336.216,158.800 336.525 M239.775 337.700 L 238.600 339.000 239.900 337.825 C 240.615 337.179,241.200 336.594,241.200 336.525 C 241.200 336.216,240.870 336.488,239.775 337.700 M180.800 358.525 C 180.800 358.594,181.385 359.179,182.100 359.825 L 183.400 361.000 182.225 359.700 C 181.130 358.488,180.800 358.216,180.800 358.525 M217.775 359.700 L 216.600 361.000 217.900 359.825 C 218.615 359.179,219.200 358.594,219.200 358.525 C 219.200 358.216,218.870 358.488,217.775 359.700 " stroke="none" fill="#a854bc" fill-rule="evenodd"></path><path id="path3" d="M158.800 336.525 C 158.800 336.594,159.385 337.179,160.100 337.825 L 161.400 339.000 160.225 337.700 C 159.130 336.488,158.800 336.216,158.800 336.525 M239.775 337.700 L 238.600 339.000 239.900 337.825 C 240.615 337.179,241.200 336.594,241.200 336.525 C 241.200 336.216,240.870 336.488,239.775 337.700 M180.800 358.525 C 180.800 358.594,181.385 359.179,182.100 359.825 L 183.400 361.000 182.225 359.700 C 181.130 358.488,180.800 358.216,180.800 358.525 M217.775 359.700 L 216.600 361.000 217.900 359.825 C 218.615 359.179,219.200 358.594,219.200 358.525 C 219.200 358.216,218.870 358.488,217.775 359.700 " stroke="none" fill="#a854bc" fill-rule="evenodd"></path><path id="path4" d="M158.800 336.525 C 158.800 336.594,159.385 337.179,160.100 337.825 L 161.400 339.000 160.225 337.700 C 159.130 336.488,158.800 336.216,158.800 336.525 M239.775 337.700 L 238.600 339.000 239.900 337.825 C 240.615 337.179,241.200 336.594,241.200 336.525 C 241.200 336.216,240.870 336.488,239.775 337.700 M180.800 358.525 C 180.800 358.594,181.385 359.179,182.100 359.825 L 183.400 361.000 182.225 359.700 C 181.130 358.488,180.800 358.216,180.800 358.525 M217.775 359.700 L 216.600 361.000 217.900 359.825 C 218.615 359.179,219.200 358.594,219.200 358.525 C 219.200 358.216,218.870 358.488,217.775 359.700 " stroke="none" fill="#a854bc" fill-rule="evenodd"></path></g></svg>