<svg id="svg" xmlns="http://www.w3.org/2000/svg" xmlns:xlink="http://www.w3.org/1999/xlink" width="400" height="400" viewBox="0, 0, 400,400" version="1.1"><g id="svgg"><path id="path0" d="M16.400 295.775 C 16.400 347.062,16.549 383.245,16.760 383.375 C 17.593 383.890,190.939 383.621,191.268 383.104 C 191.445 382.827,191.546 343.450,191.494 295.600 L 191.400 208.600 103.900 208.499 L 16.400 208.398 16.400 295.775 " stroke="none" fill="#a451bd" fill-rule="evenodd"></path><path id="path1" d="M14.935 14.870 C 12.892 17.078,13.668 24.313,15.955 24.383 C 16.406 24.397,16.448 24.908,16.181 27.100 C 15.999 28.585,15.899 30.430,15.959 31.200 C 16.018 31.970,16.143 68.547,16.236 112.482 L 16.406 192.365 17.703 192.596 C 19.756 192.963,191.896 192.638,192.267 192.267 C 192.638 191.896,192.963 19.756,192.596 17.703 L 192.365 16.406 111.482 16.255 C 31.592 16.106,26.272 16.018,22.200 14.779 C 18.958 13.793,15.896 13.832,14.935 14.870 M207.404 17.700 C 207.037 19.755,207.362 191.895,207.733 192.267 C 208.105 192.638,380.245 192.963,382.300 192.596 L 383.600 192.364 383.600 104.382 L 383.600 16.400 295.618 16.400 L 207.636 16.400 207.404 17.700 M17.025 207.810 C 16.342 208.328,26.675 208.410,103.825 208.499 L 191.400 208.600 191.400 296.100 C 191.400 344.225,191.529 383.600,191.686 383.600 C 191.843 383.600,192.159 383.250,192.389 382.821 C 192.898 381.869,192.777 208.244,192.267 207.733 C 191.603 207.070,17.900 207.146,17.025 207.810 M208.341 207.468 C 207.979 207.564,207.576 208.038,207.447 208.521 C 207.060 209.963,207.165 383.131,207.553 383.371 C 208.051 383.679,383.236 383.697,383.544 383.389 C 383.684 383.250,383.863 374.060,383.943 362.968 C 384.038 349.727,384.227 342.800,384.493 342.800 C 384.752 342.800,384.742 342.612,384.465 342.278 C 384.159 341.910,383.998 322.135,383.916 274.978 C 383.852 238.250,383.654 207.975,383.476 207.700 C 383.164 207.217,210.149 206.988,208.341 207.468 M16.140 248.800 C 16.140 250.670,16.209 251.435,16.293 250.500 C 16.377 249.565,16.377 248.035,16.293 247.100 C 16.209 246.165,16.140 246.930,16.140 248.800 M16.194 309.400 C 16.194 335.360,16.241 345.921,16.300 332.869 C 16.358 319.817,16.358 298.577,16.300 285.669 C 16.241 272.761,16.193 283.440,16.194 309.400 M66.500 383.900 C 83.825 383.958,112.175 383.958,129.500 383.900 C 146.825 383.842,132.650 383.795,98.000 383.795 C 63.350 383.795,49.175 383.842,66.500 383.900 " stroke="none" fill="#a451bd" fill-rule="evenodd"></path></g></svg>