<svg id="svg" version="1.1" xmlns="http://www.w3.org/2000/svg" xmlns:xlink="http://www.w3.org/1999/xlink" width="400" height="400" viewBox="0, 0, 400,400"><g id="svgg"><path id="path0" d="M59.064 14.222 C 59.276 14.775,58.483 14.841,52.152 14.799 C 48.218 14.772,44.820 14.783,44.600 14.823 C 44.380 14.862,44.035 14.863,43.832 14.825 C 43.630 14.786,43.720 15.070,44.032 15.454 C 44.395 15.901,44.419 16.045,44.100 15.853 C 43.496 15.490,43.464 15.798,44.001 16.802 C 44.275 17.314,44.266 17.635,43.974 17.816 C 43.449 18.141,43.590 20.785,44.174 21.577 C 44.494 22.010,44.475 22.079,44.100 21.853 C 43.825 21.688,43.600 21.724,43.600 21.934 C 43.600 22.143,43.856 22.413,44.169 22.533 C 44.517 22.666,44.654 23.071,44.522 23.576 C 44.404 24.029,44.478 24.400,44.687 24.400 C 44.896 24.400,45.067 24.670,45.067 25.000 C 45.067 25.330,44.907 25.600,44.712 25.600 C 44.298 25.600,44.382 30.910,44.821 32.460 C 44.991 33.060,44.949 33.691,44.723 33.917 C 44.460 34.180,44.469 34.581,44.749 35.104 C 44.982 35.539,45.058 36.008,44.919 36.147 C 44.780 36.286,44.922 36.400,45.233 36.399 C 45.679 36.399,45.771 36.964,45.664 39.045 C 45.589 40.501,45.679 41.598,45.864 41.484 C 46.049 41.370,46.200 41.709,46.200 42.238 C 46.200 42.767,46.020 43.205,45.800 43.212 C 45.580 43.219,45.676 43.386,46.013 43.583 C 46.531 43.887,46.616 45.039,46.561 51.021 C 46.504 57.261,46.574 58.120,47.148 58.271 C 47.693 58.413,47.794 59.029,47.762 62.035 C 47.740 64.012,47.884 65.728,48.081 65.850 C 48.278 65.972,48.205 66.354,47.919 66.701 C 47.506 67.201,47.503 67.365,47.902 67.499 C 48.179 67.592,48.277 67.875,48.121 68.127 C 47.689 68.826,47.686 70.000,48.116 70.000 C 48.326 70.000,48.270 70.274,47.992 70.609 C 47.570 71.118,47.594 71.177,48.143 70.966 C 48.595 70.793,48.800 70.929,48.800 71.400 C 48.800 71.880,48.597 72.008,48.122 71.826 C 47.503 71.588,47.499 71.627,48.073 72.283 C 48.418 72.677,48.643 73.354,48.573 73.786 C 48.503 74.219,48.637 74.804,48.872 75.086 C 49.176 75.453,49.169 75.600,48.848 75.600 C 48.299 75.600,48.429 78.072,49.000 78.500 C 49.267 78.700,49.267 78.900,49.000 79.100 C 48.780 79.265,48.545 79.655,48.477 79.968 C 48.384 80.400,48.483 80.429,48.892 80.090 C 49.529 79.561,49.494 79.302,49.643 85.714 C 49.709 88.557,49.929 90.575,50.198 90.798 C 50.480 91.032,50.617 92.639,50.572 95.184 C 50.516 98.357,50.617 99.200,51.051 99.200 C 51.353 99.200,51.600 99.399,51.600 99.643 C 51.600 99.886,51.327 99.981,50.994 99.853 C 50.528 99.674,50.409 99.890,50.478 100.790 C 50.547 101.695,50.684 101.863,51.084 101.531 C 51.648 101.062,51.646 101.042,51.671 107.100 C 51.678 108.915,51.854 110.400,52.062 110.400 C 52.294 110.400,52.289 110.670,52.048 111.100 C 51.763 111.610,51.839 112.008,52.328 112.569 C 52.698 112.991,52.787 113.214,52.528 113.062 C 51.804 112.641,51.529 113.443,52.204 114.004 C 52.918 114.596,52.988 115.240,52.324 115.100 C 52.062 115.045,51.775 115.336,51.685 115.747 C 51.584 116.215,51.687 116.393,51.962 116.224 C 52.208 116.072,52.400 116.226,52.400 116.576 C 52.400 116.919,52.610 117.200,52.867 117.200 C 53.123 117.200,53.218 117.316,53.076 117.457 C 52.935 117.598,52.500 117.463,52.110 117.157 C 51.465 116.651,51.450 116.664,51.946 117.296 C 52.280 117.723,52.500 119.060,52.513 120.757 C 52.530 122.889,52.657 123.476,53.068 123.319 C 53.661 123.091,53.635 122.828,53.701 129.678 C 53.726 132.251,53.893 134.266,54.073 134.155 C 54.436 133.931,54.479 134.533,54.485 139.900 C 54.488 142.394,54.638 143.602,54.945 143.606 C 55.195 143.609,55.130 143.787,54.800 144.000 C 54.287 144.331,54.302 144.389,54.900 144.394 C 55.285 144.397,55.609 144.625,55.620 144.900 C 55.632 145.175,55.658 148.424,55.679 152.120 C 55.709 157.467,55.823 158.800,56.238 158.641 C 56.566 158.515,56.677 158.654,56.538 159.018 C 56.416 159.336,56.132 159.481,55.906 159.342 C 55.675 159.199,55.584 159.332,55.698 159.644 C 55.809 159.950,56.091 160.159,56.325 160.108 C 56.607 160.048,56.692 161.014,56.578 162.980 C 56.428 165.548,56.498 165.967,57.103 166.125 C 57.764 166.298,57.763 166.310,57.100 166.354 C 56.347 166.403,56.139 167.046,56.804 167.268 C 57.404 167.468,57.586 168.905,57.631 173.794 C 57.653 176.217,57.858 178.425,58.085 178.700 C 58.373 179.049,58.361 179.200,58.045 179.200 C 57.751 179.200,57.625 179.963,57.687 181.367 C 57.740 182.559,57.922 183.448,58.092 183.343 C 58.460 183.116,58.462 183.131,58.511 186.300 C 58.532 187.675,58.679 188.800,58.837 188.800 C 58.996 188.800,59.024 189.188,58.900 189.663 C 58.745 190.254,58.820 190.435,59.137 190.239 C 59.692 189.896,59.671 189.608,59.610 196.664 C 59.583 199.780,59.726 202.431,59.927 202.555 C 60.146 202.690,60.125 203.412,59.876 204.348 C 59.542 205.600,59.574 206.031,60.039 206.496 C 60.368 206.825,60.590 207.709,60.551 208.538 C 60.513 209.342,60.654 210.000,60.865 210.000 C 61.075 210.000,61.107 210.225,60.936 210.500 C 60.528 211.156,60.484 215.596,60.888 215.346 C 61.060 215.240,61.200 215.328,61.200 215.543 C 61.200 215.758,60.988 216.004,60.728 216.091 C 60.149 216.284,60.592 217.600,61.236 217.600 C 61.552 217.600,61.524 217.378,61.149 216.900 C 60.669 216.288,60.676 216.259,61.211 216.675 C 61.702 217.057,61.798 217.938,61.702 221.175 C 61.630 223.578,61.737 225.200,61.968 225.200 C 62.180 225.200,62.284 224.835,62.198 224.389 C 62.112 223.943,62.173 223.660,62.333 223.759 C 62.493 223.858,62.612 226.383,62.596 229.369 C 62.578 232.714,62.719 234.800,62.963 234.800 C 63.181 234.800,63.144 235.016,62.880 235.280 C 62.301 235.859,62.235 236.949,62.800 236.600 C 63.020 236.464,63.200 236.533,63.200 236.753 C 63.200 236.973,63.036 237.254,62.836 237.378 C 62.360 237.672,62.503 238.560,63.152 239.343 C 63.501 239.762,63.675 241.343,63.685 244.183 C 63.695 246.706,63.861 248.400,64.100 248.400 C 64.320 248.400,64.275 248.668,64.000 249.000 C 63.596 249.487,63.613 249.600,64.089 249.600 C 64.576 249.600,64.669 250.482,64.638 254.814 C 64.609 258.723,64.732 260.110,65.126 260.354 C 65.475 260.570,65.662 261.635,65.683 263.528 C 65.701 265.234,65.867 266.282,66.097 266.140 C 66.307 266.010,66.288 266.262,66.053 266.700 C 65.503 267.728,65.569 271.103,66.151 271.723 C 66.435 272.024,66.600 274.082,66.600 277.304 C 66.600 280.691,66.741 282.355,67.018 282.248 C 67.248 282.160,67.485 282.653,67.545 283.344 C 67.834 286.687,68.002 289.495,67.967 290.400 C 67.931 291.356,67.944 291.787,68.045 292.900 C 68.070 293.175,67.974 294.004,67.832 294.743 C 67.667 295.599,67.760 296.312,68.087 296.708 C 68.494 297.202,68.497 297.365,68.100 297.498 C 67.407 297.732,67.471 298.400,68.186 298.400 C 69.072 298.400,69.800 299.970,69.178 300.543 C 68.803 300.889,68.751 300.879,68.965 300.500 C 69.120 300.225,69.057 300.000,68.824 300.000 C 68.576 300.000,68.400 300.925,68.400 302.224 C 68.400 303.604,68.552 304.353,68.800 304.200 C 69.020 304.064,69.214 304.188,69.231 304.476 C 69.247 304.764,69.323 305.325,69.398 305.722 C 69.510 306.311,69.429 306.356,68.959 305.966 C 68.482 305.570,68.430 305.618,68.662 306.243 C 68.816 306.660,69.109 307.112,69.313 307.250 C 69.517 307.387,69.684 308.814,69.684 310.420 C 69.684 312.233,69.875 313.532,70.187 313.844 C 70.553 314.210,70.673 315.997,70.626 320.392 C 70.557 326.910,70.651 327.232,72.713 327.509 C 73.277 327.584,74.055 327.816,74.443 328.023 C 74.830 328.230,75.509 328.400,75.950 328.400 C 76.392 328.400,76.881 328.608,77.038 328.862 C 77.227 329.167,77.146 329.214,76.800 329.000 C 76.479 328.802,76.374 328.834,76.527 329.082 C 76.665 329.305,77.493 329.434,78.367 329.367 C 79.618 329.273,79.910 329.370,79.736 329.823 C 79.598 330.183,79.765 330.400,80.181 330.400 C 80.598 330.400,80.742 330.213,80.565 329.900 C 80.339 329.500,80.390 329.500,80.821 329.900 C 81.118 330.175,81.799 330.400,82.336 330.400 C 82.873 330.400,83.571 330.715,83.889 331.100 C 84.429 331.756,84.450 331.749,84.232 331.000 C 84.014 330.255,84.036 330.248,84.543 330.900 C 85.136 331.662,85.817 331.875,85.375 331.160 C 85.187 330.855,85.367 330.861,85.963 331.180 C 86.436 331.433,86.735 331.781,86.629 331.953 C 86.522 332.126,86.697 332.267,87.018 332.267 C 87.338 332.267,87.600 332.117,87.600 331.933 C 87.600 331.750,87.791 331.600,88.024 331.600 C 88.257 331.600,88.340 331.774,88.208 331.986 C 88.065 332.219,88.680 332.324,89.755 332.250 C 91.253 332.146,91.573 332.253,91.746 332.916 C 91.895 333.485,92.185 333.645,92.783 333.488 C 93.240 333.369,93.868 333.525,94.178 333.836 C 94.489 334.146,95.386 334.400,96.171 334.400 C 97.175 334.400,97.600 334.579,97.600 335.000 C 97.600 335.330,97.791 335.600,98.024 335.600 C 98.257 335.600,98.312 335.375,98.147 335.100 C 97.908 334.703,97.972 334.701,98.453 335.090 C 98.932 335.478,99.170 335.478,99.588 335.090 C 99.987 334.721,100.051 334.719,99.846 335.083 C 99.652 335.427,99.932 335.520,100.820 335.408 C 101.691 335.297,102.009 335.399,101.877 335.743 C 101.771 336.019,102.025 336.262,102.453 336.294 C 102.873 336.326,103.123 336.199,103.008 336.013 C 102.893 335.827,103.235 335.881,103.768 336.132 C 104.301 336.384,104.706 336.748,104.668 336.942 C 104.631 337.135,104.916 337.347,105.302 337.412 C 105.688 337.477,105.901 337.363,105.774 337.158 C 105.648 336.954,105.332 336.906,105.072 337.052 C 104.725 337.247,104.717 337.190,105.040 336.838 C 105.379 336.470,105.900 336.582,107.292 337.322 C 108.636 338.037,109.286 338.184,109.807 337.892 C 110.289 337.622,110.428 337.631,110.249 337.921 C 110.102 338.159,110.382 338.403,110.894 338.481 C 111.392 338.557,111.760 338.826,111.710 339.079 C 111.650 339.387,112.273 339.500,113.606 339.423 C 114.871 339.350,115.748 339.496,116.023 339.827 C 116.259 340.113,116.756 340.341,117.127 340.336 C 118.115 340.320,119.615 340.717,120.141 341.134 C 120.393 341.334,120.909 341.447,121.288 341.386 C 121.666 341.325,121.936 341.479,121.888 341.729 C 121.835 342.004,122.393 342.183,123.300 342.180 C 124.183 342.178,124.800 342.369,124.800 342.645 C 124.800 342.903,125.079 343.222,125.421 343.353 C 125.777 343.489,125.937 343.422,125.797 343.195 C 125.663 342.978,125.743 342.800,125.976 342.800 C 126.209 342.800,126.400 342.968,126.400 343.174 C 126.400 343.379,126.850 343.465,127.400 343.366 C 128.121 343.235,128.400 343.361,128.400 343.816 C 128.400 344.163,128.583 344.334,128.807 344.196 C 129.030 344.058,129.107 343.732,128.977 343.472 C 128.847 343.213,129.015 343.337,129.350 343.748 C 129.762 344.255,130.258 344.422,130.883 344.265 C 131.911 344.007,133.026 344.510,132.677 345.076 C 132.408 345.511,135.198 345.496,135.906 345.058 C 136.220 344.864,136.400 344.988,136.400 345.400 C 136.400 345.787,136.215 345.933,135.938 345.762 C 135.660 345.590,135.585 345.652,135.748 345.916 C 135.898 346.159,136.601 346.300,137.310 346.232 C 138.961 346.073,140.545 346.642,140.164 347.257 C 139.956 347.594,140.342 347.659,141.568 347.495 C 142.766 347.334,143.207 347.404,143.081 347.734 C 142.967 348.030,143.344 348.186,144.111 348.163 C 146.061 348.103,147.813 348.613,147.677 349.201 C 147.580 349.627,147.696 349.620,148.254 349.168 C 148.848 348.685,148.903 348.685,148.614 349.163 C 148.353 349.596,148.470 349.675,149.124 349.504 C 149.645 349.368,149.939 349.459,149.886 349.741 C 149.836 350.010,150.379 350.215,151.200 350.236 C 152.908 350.280,154.400 350.731,154.400 351.204 C 154.400 351.397,154.756 351.485,155.192 351.402 C 155.627 351.318,156.089 351.421,156.219 351.631 C 156.349 351.841,156.610 351.917,156.800 351.800 C 156.990 351.683,157.258 351.770,157.396 351.993 C 157.534 352.217,158.247 352.400,158.981 352.400 C 159.797 352.400,160.404 352.633,160.545 353.000 C 160.671 353.330,161.006 353.586,161.287 353.568 C 161.689 353.544,161.692 353.493,161.300 353.335 C 161.025 353.224,160.800 352.937,160.800 352.697 C 160.800 352.457,161.231 352.665,161.758 353.160 C 162.382 353.746,162.810 353.908,162.985 353.624 C 163.134 353.383,163.426 353.292,163.634 353.421 C 163.843 353.550,163.901 353.837,163.763 354.060 C 163.606 354.314,164.234 354.439,165.457 354.396 C 168.779 354.281,168.965 354.319,168.400 355.000 C 167.984 355.501,168.042 355.600,168.751 355.600 C 169.218 355.600,169.600 355.426,169.600 355.213 C 169.600 354.999,169.864 354.927,170.187 355.050 C 170.510 355.174,170.735 355.461,170.687 355.688 C 170.639 355.915,170.850 356.191,171.156 356.302 C 171.542 356.442,171.610 356.336,171.379 355.952 C 171.103 355.493,171.155 355.488,171.688 355.919 C 172.127 356.275,172.412 356.305,172.592 356.012 C 172.763 355.736,173.303 355.904,174.119 356.485 C 174.928 357.060,176.104 357.428,177.385 357.506 C 178.486 357.573,179.561 357.801,179.774 358.014 C 179.986 358.226,180.484 358.400,180.880 358.400 C 181.276 358.400,181.600 358.670,181.600 359.000 C 181.600 359.330,181.791 359.600,182.024 359.600 C 182.257 359.600,182.336 359.420,182.200 359.200 C 182.064 358.980,182.223 358.800,182.553 358.800 C 182.883 358.800,183.249 358.956,183.367 359.146 C 183.484 359.336,183.990 359.467,184.490 359.437 C 184.991 359.407,185.580 359.606,185.800 359.879 C 186.020 360.152,186.880 360.418,187.711 360.470 C 188.702 360.532,189.158 360.732,189.036 361.050 C 188.900 361.405,189.375 361.478,190.825 361.322 C 192.477 361.144,192.800 361.217,192.800 361.767 C 192.800 362.259,193.128 362.405,194.100 362.345 C 195.505 362.259,197.200 362.686,197.201 363.127 C 197.202 363.610,200.468 363.642,201.044 363.164 C 201.447 362.829,201.600 362.825,201.600 363.151 C 201.600 363.398,201.870 363.600,202.200 363.600 C 202.530 363.600,202.800 363.432,202.800 363.227 C 202.800 362.825,204.371 362.179,204.957 362.340 C 205.154 362.394,205.835 362.257,206.471 362.035 C 207.182 361.787,207.536 361.780,207.390 362.016 C 207.260 362.227,207.453 362.400,207.819 362.400 C 208.227 362.400,208.402 362.182,208.270 361.838 C 208.116 361.437,208.330 361.307,209.016 361.382 C 209.545 361.440,210.265 361.170,210.617 360.781 C 211.088 360.260,211.668 360.122,212.828 360.256 C 214.291 360.424,215.029 359.894,213.900 359.486 C 213.625 359.386,214.255 359.357,215.300 359.420 C 216.351 359.484,217.200 359.361,217.200 359.144 C 217.200 358.929,217.368 358.856,217.572 358.983 C 217.777 359.109,218.045 359.051,218.168 358.852 C 218.291 358.653,219.028 358.371,219.807 358.225 C 220.585 358.079,221.134 357.818,221.027 357.644 C 220.920 357.471,221.701 357.361,222.762 357.400 C 224.536 357.466,224.674 357.405,224.476 356.636 C 224.294 355.929,224.354 355.876,224.867 356.297 C 225.201 356.570,225.554 356.713,225.652 356.615 C 225.750 356.517,226.490 356.392,227.297 356.338 C 228.533 356.255,228.688 356.147,228.282 355.654 C 227.868 355.152,227.924 355.135,228.676 355.536 C 229.226 355.829,229.641 355.858,229.791 355.614 C 229.923 355.401,230.572 355.334,231.233 355.467 C 232.124 355.645,232.405 355.566,232.318 355.165 C 232.237 354.795,232.772 354.553,234.000 354.401 C 234.990 354.279,236.013 354.046,236.272 353.883 C 236.532 353.720,236.870 353.789,237.022 354.036 C 237.219 354.354,237.398 354.327,237.637 353.943 C 237.822 353.644,238.294 353.392,238.687 353.381 C 239.079 353.371,239.355 353.146,239.300 352.881 C 239.236 352.571,239.757 352.400,240.767 352.400 C 242.479 352.400,243.687 352.064,243.436 351.658 C 243.348 351.516,243.971 351.414,244.819 351.431 C 245.668 351.448,246.277 351.325,246.174 351.159 C 245.863 350.655,246.926 350.222,248.154 350.351 C 248.803 350.419,249.457 350.237,249.648 349.936 C 249.927 349.495,249.989 349.500,249.994 349.962 C 249.998 350.385,250.216 350.335,250.869 349.762 C 251.412 349.286,251.608 349.225,251.392 349.600 C 251.097 350.112,251.143 350.122,251.706 349.666 C 252.074 349.367,252.593 349.269,252.882 349.442 C 253.267 349.674,253.259 349.580,252.851 349.077 C 252.477 348.616,252.449 348.400,252.764 348.400 C 253.017 348.400,253.329 348.670,253.455 349.000 C 253.582 349.330,253.866 349.600,254.086 349.600 C 254.306 349.600,254.382 349.330,254.255 349.000 C 254.074 348.528,254.369 348.400,255.641 348.400 C 256.530 348.400,257.519 348.138,257.840 347.817 C 258.161 347.496,258.719 347.348,259.081 347.486 C 259.576 347.676,259.675 347.573,259.482 347.069 C 259.264 346.501,260.918 346.096,262.100 346.428 C 262.155 346.444,262.740 346.247,263.400 345.991 C 264.060 345.736,265.037 345.444,265.572 345.342 C 266.107 345.241,266.730 345.043,266.957 344.903 C 267.185 344.762,268.007 344.582,268.785 344.503 C 269.563 344.423,270.380 344.161,270.600 343.920 C 270.876 343.618,270.845 343.570,270.500 343.765 C 270.225 343.920,270.000 343.861,270.000 343.634 C 270.000 343.387,270.486 343.317,271.200 343.460 C 272.139 343.648,272.400 343.559,272.400 343.050 C 272.400 342.204,273.042 342.212,273.368 343.061 C 273.597 343.659,273.682 343.649,274.241 342.961 C 274.581 342.543,274.745 342.425,274.606 342.700 C 274.467 342.975,274.543 343.200,274.776 343.200 C 275.009 343.200,275.200 343.020,275.200 342.800 C 275.200 342.580,275.515 342.399,275.900 342.398 C 276.285 342.396,277.050 342.167,277.600 341.889 C 278.150 341.610,279.095 341.394,279.700 341.410 C 280.305 341.425,280.800 341.323,280.800 341.183 C 280.800 340.768,282.529 340.156,283.500 340.226 C 284.059 340.266,284.400 340.065,284.400 339.696 C 284.400 339.188,284.498 339.182,285.077 339.651 C 285.521 340.011,285.652 340.030,285.457 339.706 C 285.238 339.341,285.464 339.273,286.323 339.445 C 287.169 339.614,287.551 339.503,287.730 339.038 C 287.895 338.608,288.473 338.400,289.507 338.400 C 290.350 338.400,291.266 338.175,291.542 337.900 C 291.819 337.625,292.530 337.400,293.122 337.400 C 293.805 337.400,294.160 337.206,294.090 336.870 C 294.030 336.579,294.165 336.455,294.390 336.594 C 294.616 336.733,294.800 336.691,294.800 336.501 C 294.800 336.310,295.353 336.192,296.028 336.239 C 296.870 336.297,297.196 336.167,297.065 335.825 C 296.922 335.453,297.470 335.358,299.219 335.453 C 300.662 335.531,301.673 335.406,301.845 335.128 C 302.015 334.852,301.944 334.787,301.662 334.962 C 301.408 335.119,301.200 335.057,301.200 334.824 C 301.200 334.591,301.965 334.383,302.900 334.362 C 306.862 334.275,307.119 334.211,307.996 333.096 C 308.473 332.489,309.017 332.087,309.204 332.203 C 309.392 332.318,309.658 332.230,309.797 332.005 C 309.967 331.729,310.299 331.732,310.824 332.013 C 311.405 332.324,311.602 332.299,311.606 331.914 C 311.610 331.598,311.726 331.554,311.906 331.800 C 312.266 332.290,313.839 332.306,314.279 331.824 C 314.462 331.623,314.358 331.612,314.038 331.798 C 313.678 332.007,313.571 331.971,313.740 331.697 C 313.885 331.462,314.543 331.355,315.202 331.459 C 315.931 331.574,316.400 331.473,316.400 331.200 C 316.400 330.954,316.192 330.881,315.938 331.038 C 315.652 331.215,315.585 331.148,315.762 330.862 C 315.919 330.608,316.832 330.400,317.790 330.400 C 318.749 330.400,319.593 330.225,319.667 330.012 C 319.740 329.798,320.250 329.573,320.800 329.512 C 321.350 329.450,321.905 329.259,322.032 329.086 C 322.160 328.913,322.790 328.671,323.432 328.548 C 324.075 328.425,324.780 328.287,325.000 328.243 C 325.220 328.198,325.772 327.956,326.227 327.706 C 326.683 327.455,327.399 327.300,327.819 327.362 C 328.239 327.423,328.780 327.277,329.020 327.037 C 329.569 326.487,329.681 318.800,329.140 318.800 C 328.927 318.800,328.859 318.628,328.989 318.417 C 329.119 318.207,329.490 318.136,329.813 318.260 C 330.136 318.384,330.400 318.300,330.400 318.072 C 330.400 317.845,330.085 317.576,329.700 317.476 C 329.105 317.320,329.098 317.286,329.654 317.246 C 330.180 317.209,330.301 316.763,330.275 314.972 C 330.257 313.747,330.426 312.622,330.650 312.472 C 331.271 312.058,331.638 310.800,331.138 310.800 C 330.828 310.800,330.831 310.645,331.148 310.262 C 331.440 309.911,331.537 308.246,331.429 305.465 C 331.288 301.837,331.360 301.150,331.913 300.841 C 332.440 300.546,332.469 300.365,332.064 299.878 C 331.666 299.398,331.670 299.236,332.083 299.069 C 332.486 298.907,332.467 298.767,332.000 298.437 C 331.670 298.203,331.580 298.009,331.800 298.006 C 332.042 298.002,332.242 295.775,332.306 292.352 C 332.408 286.886,332.552 285.800,333.128 286.155 C 333.277 286.247,333.400 284.023,333.400 281.213 C 333.400 277.349,333.519 276.148,333.889 276.290 C 334.257 276.431,334.375 275.398,334.366 272.139 C 334.349 265.792,334.355 265.705,334.900 265.129 C 335.238 264.771,335.396 263.201,335.387 260.270 C 335.380 257.888,335.518 255.851,335.694 255.742 C 335.869 255.633,335.909 255.377,335.783 255.172 C 335.656 254.968,335.721 254.800,335.927 254.800 C 336.437 254.800,336.531 247.791,336.032 246.860 C 335.709 246.257,335.811 246.032,336.565 245.689 C 337.777 245.137,338.053 241.604,336.885 241.594 C 336.298 241.589,336.286 241.534,336.800 241.208 C 337.753 240.606,337.229 238.502,336.270 239.084 C 336.089 239.194,336.178 238.905,336.467 238.442 C 336.756 237.979,337.174 237.597,337.396 237.594 C 337.618 237.591,337.530 237.413,337.200 237.200 C 336.791 236.935,336.761 236.810,337.106 236.806 C 337.488 236.801,337.571 235.929,337.445 233.236 C 337.328 230.733,337.439 229.360,337.820 228.627 C 338.123 228.042,338.358 226.388,338.353 224.871 C 338.344 222.066,338.686 220.000,339.158 220.000 C 339.584 220.000,339.593 218.443,339.168 218.180 C 338.958 218.051,338.917 217.734,339.077 217.476 C 339.659 216.533,339.704 213.489,339.130 213.835 C 338.701 214.093,338.695 214.036,339.097 213.540 C 339.370 213.203,339.479 212.812,339.340 212.673 C 339.200 212.533,339.337 212.110,339.643 211.733 C 339.949 211.355,340.005 211.163,339.767 211.306 C 339.528 211.448,339.333 211.320,339.333 211.021 C 339.333 210.721,339.547 210.558,339.807 210.658 C 340.162 210.794,340.287 208.971,340.304 203.440 C 340.326 196.446,340.480 194.955,341.135 195.360 C 341.289 195.455,341.429 194.024,341.447 192.180 C 341.470 189.842,341.346 188.907,341.040 189.090 C 340.798 189.235,340.870 189.021,341.200 188.615 C 341.530 188.209,341.773 187.770,341.740 187.639 C 341.707 187.507,341.811 187.435,341.971 187.477 C 342.132 187.520,342.275 184.494,342.290 180.754 C 342.314 174.737,342.402 173.854,343.059 173.084 C 343.530 172.531,343.570 172.390,343.169 172.698 C 342.637 173.107,342.543 173.043,342.569 172.292 C 342.586 171.801,342.780 171.272,343.000 171.115 C 343.220 170.958,343.442 169.698,343.492 168.315 C 343.543 166.932,343.610 165.620,343.640 165.400 C 343.670 165.180,343.565 164.685,343.405 164.300 C 343.225 163.868,343.293 163.600,343.581 163.600 C 343.837 163.600,343.944 163.768,343.817 163.972 C 343.691 164.177,343.733 164.435,343.911 164.545 C 344.088 164.655,344.275 164.204,344.326 163.543 C 344.387 162.741,344.268 162.434,343.969 162.619 C 343.642 162.822,343.643 162.667,343.974 162.048 C 344.327 161.389,344.314 161.199,343.914 161.194 C 343.584 161.190,343.549 161.082,343.816 160.894 C 344.053 160.726,344.249 158.800,344.273 156.400 C 344.339 149.918,344.361 149.696,345.000 149.057 C 345.728 148.329,345.789 147.839,345.100 148.253 C 344.714 148.485,344.705 148.422,345.061 147.977 C 345.367 147.594,345.496 145.606,345.444 142.072 C 345.399 139.056,345.530 136.643,345.745 136.511 C 345.966 136.374,345.989 136.494,345.800 136.800 C 345.599 137.125,345.634 137.227,345.891 137.067 C 346.134 136.917,346.321 134.943,346.343 132.308 C 346.372 128.764,346.510 127.709,346.990 127.358 C 347.325 127.113,347.600 126.582,347.600 126.179 C 347.600 125.488,347.564 125.490,346.958 126.224 C 346.367 126.938,346.367 126.913,346.952 125.923 C 347.353 125.245,347.530 124.241,347.431 123.214 C 347.330 122.163,347.474 121.383,347.837 121.020 C 348.548 120.309,348.563 119.852,347.867 120.119 C 347.573 120.232,347.333 120.063,347.333 119.745 C 347.333 119.426,347.529 119.241,347.769 119.333 C 348.053 119.442,348.230 118.544,348.277 116.750 C 348.317 115.237,348.181 114.000,347.975 114.000 C 347.769 114.000,347.603 113.685,347.606 113.300 C 347.611 112.702,347.669 112.687,348.000 113.200 C 348.293 113.654,348.389 113.478,348.394 112.476 C 348.398 111.523,348.260 111.237,347.900 111.453 C 347.505 111.691,347.502 111.628,347.886 111.153 C 348.179 110.791,348.366 109.306,348.356 107.426 C 348.346 105.456,348.520 104.134,348.828 103.850 C 349.195 103.512,349.247 103.525,349.035 103.900 C 348.880 104.175,348.943 104.400,349.176 104.400 C 349.740 104.400,349.713 103.873,349.120 103.280 C 348.822 102.982,348.800 102.800,349.060 102.800 C 349.600 102.800,349.544 98.306,349.000 97.906 C 348.758 97.729,348.815 97.610,349.143 97.606 C 349.446 97.603,349.589 97.350,349.468 97.033 C 349.348 96.721,349.509 96.367,349.825 96.246 C 350.141 96.124,350.400 95.649,350.400 95.189 C 350.400 94.695,350.224 94.461,349.970 94.618 C 349.734 94.764,349.779 94.499,350.070 94.030 C 350.518 93.307,350.508 93.117,350.000 92.794 C 349.601 92.540,349.568 92.410,349.900 92.406 C 350.187 92.403,350.383 91.932,350.360 91.300 L 350.320 90.200 350.000 91.200 C 349.664 92.250,349.456 91.669,349.590 90.055 C 349.639 89.469,349.506 89.211,349.239 89.376 C 348.972 89.541,348.901 89.402,349.052 89.009 C 349.267 88.449,349.355 88.458,349.821 89.088 C 350.277 89.704,350.347 89.478,350.341 87.400 C 350.331 84.079,350.343 84.000,350.849 84.000 C 351.172 84.000,351.166 84.159,350.830 84.564 C 350.509 84.950,350.494 85.211,350.781 85.388 C 351.283 85.698,351.261 85.748,351.378 84.000 C 351.430 83.230,351.312 82.391,351.117 82.136 C 350.921 81.880,350.914 81.577,351.101 81.461 C 351.287 81.346,351.424 78.990,351.405 76.226 C 351.386 73.462,351.492 71.200,351.642 71.200 C 351.792 71.200,352.022 70.921,352.153 70.579 C 352.314 70.158,352.232 70.054,351.895 70.256 C 351.520 70.481,351.523 70.401,351.909 69.924 C 352.234 69.524,352.398 68.212,352.361 66.312 C 352.329 64.671,352.497 62.967,352.733 62.525 C 353.048 61.937,353.034 61.593,352.681 61.238 C 352.305 60.859,352.347 60.809,352.873 61.009 C 353.488 61.243,353.538 60.723,353.452 54.932 C 353.384 50.353,353.503 48.298,353.884 47.511 C 354.359 46.525,354.342 46.443,353.705 46.643 C 353.082 46.840,353.071 46.803,353.611 46.333 C 353.968 46.022,354.248 45.050,354.283 44.000 C 354.317 43.010,354.356 41.874,354.372 41.476 C 354.387 41.078,354.564 40.854,354.765 40.978 C 354.966 41.102,355.079 40.888,355.016 40.502 C 354.954 40.116,355.080 39.577,355.296 39.305 C 355.512 39.033,355.551 38.493,355.381 38.105 C 355.212 37.717,355.137 37.220,355.216 37.000 C 355.294 36.780,355.379 34.201,355.405 31.270 C 355.430 28.338,355.619 25.818,355.825 25.670 C 356.424 25.239,356.495 23.496,355.899 23.854 C 355.519 24.082,355.506 24.016,355.845 23.577 C 356.095 23.252,356.317 21.164,356.354 18.800 L 356.419 14.600 324.009 14.713 C 297.857 14.804,291.599 14.727,291.594 14.313 C 291.590 13.954,291.471 13.980,291.200 14.400 C 290.878 14.898,290.810 14.864,290.800 14.200 C 290.790 13.534,290.722 13.501,290.394 14.000 C 290.067 14.497,289.940 14.507,289.650 14.057 C 289.394 13.661,289.223 13.639,289.014 13.977 C 288.799 14.325,288.590 14.324,288.164 13.970 C 287.759 13.634,287.600 13.628,287.600 13.951 C 287.600 14.198,287.409 14.400,287.176 14.400 C 286.943 14.400,286.864 14.220,287.000 14.000 C 287.136 13.780,287.057 13.600,286.824 13.600 C 286.591 13.600,286.400 13.778,286.400 13.996 C 286.400 14.213,285.950 14.354,285.400 14.308 C 284.850 14.263,284.400 14.086,284.400 13.916 C 284.400 13.745,233.645 13.604,171.612 13.601 C 69.528 13.598,58.847 13.657,59.064 14.222 M120.603 89.954 C 120.780 90.413,120.937 90.400,121.516 89.876 C 122.294 89.172,123.222 89.188,124.103 89.920 C 124.812 90.508,279.769 90.597,279.405 90.009 C 279.285 89.814,279.398 89.525,279.655 89.366 C 279.949 89.184,280.016 89.250,279.836 89.541 C 279.673 89.805,279.837 90.116,280.215 90.261 C 280.583 90.402,281.024 90.285,281.200 90.000 C 281.616 89.326,281.878 93.287,281.557 95.400 C 281.423 96.280,281.288 96.854,281.257 96.676 C 281.226 96.498,280.993 96.481,280.739 96.637 C 280.416 96.837,280.479 97.068,280.951 97.414 C 281.487 97.805,281.512 97.948,281.076 98.116 C 280.563 98.312,280.500 102.636,280.977 104.900 C 281.059 105.285,280.978 105.600,280.798 105.600 C 280.405 105.600,280.545 107.264,281.000 108.000 C 281.218 108.353,281.168 108.427,280.846 108.228 C 280.503 108.017,280.438 108.213,280.616 108.923 C 280.767 109.523,280.670 110.033,280.371 110.218 C 280.053 110.415,279.978 110.359,280.162 110.062 C 280.319 109.808,280.257 109.600,280.024 109.600 C 279.791 109.600,279.600 109.971,279.600 110.424 C 279.600 110.944,279.770 111.142,280.062 110.962 C 280.380 110.765,280.412 110.851,280.165 111.238 C 279.968 111.547,279.753 115.940,279.688 121.000 C 279.551 131.719,279.581 131.235,279.065 130.917 C 278.826 130.769,278.767 130.938,278.919 131.334 C 279.060 131.700,279.040 132.000,278.875 132.000 C 278.710 132.000,278.588 135.330,278.604 139.400 C 278.621 143.597,278.477 146.800,278.270 146.800 C 278.070 146.800,277.993 147.250,278.098 147.800 C 278.203 148.350,278.134 148.800,277.945 148.800 C 277.755 148.800,277.600 149.250,277.600 149.800 C 277.600 150.350,277.750 150.800,277.933 150.800 C 278.116 150.800,278.221 151.205,278.166 151.700 C 278.112 152.195,278.033 152.600,277.991 152.600 C 277.950 152.600,277.840 154.130,277.748 156.000 C 277.569 159.634,277.385 160.561,276.903 160.264 C 276.736 160.161,276.609 163.667,276.621 168.055 C 276.635 173.665,276.503 176.149,276.175 176.421 C 275.857 176.685,275.696 178.923,275.669 183.445 C 275.641 188.095,275.480 190.262,275.132 190.682 C 274.386 191.581,274.387 192.398,275.135 192.412 C 275.721 192.423,275.715 192.474,275.080 192.843 C 274.243 193.330,274.145 198.535,274.953 199.577 C 275.294 200.017,275.282 200.083,274.900 199.853 C 274.195 199.429,274.276 200.199,275.000 200.800 C 275.330 201.074,275.589 201.591,275.575 201.949 C 275.559 202.363,275.410 202.252,275.166 201.642 C 274.529 200.049,274.355 200.945,274.869 203.172 C 275.223 204.704,275.234 205.453,274.913 205.968 C 274.661 206.372,274.518 208.077,274.578 209.971 C 274.655 212.398,274.544 213.323,274.159 213.471 C 273.768 213.621,273.651 214.727,273.698 217.836 C 273.742 220.727,273.607 222.152,273.257 222.499 C 272.852 222.901,272.810 222.849,273.044 222.234 C 273.246 221.704,273.194 221.557,272.874 221.755 C 272.390 222.053,272.437 223.889,272.949 224.718 C 273.113 224.983,273.052 225.200,272.813 225.200 C 272.523 225.200,272.461 225.963,272.624 227.500 C 272.759 228.765,272.854 229.980,272.835 230.200 C 272.817 230.420,272.738 232.732,272.662 235.339 C 272.585 237.945,272.353 240.195,272.148 240.339 C 271.738 240.625,271.652 243.783,272.044 244.177 C 272.179 244.312,272.158 245.137,271.998 246.011 C 271.801 247.086,271.852 247.602,272.154 247.606 C 272.440 247.610,272.457 247.717,272.200 247.906 C 271.712 248.264,271.675 248.634,271.560 254.294 C 271.484 257.990,271.373 258.710,270.934 258.345 C 270.207 257.742,270.256 258.378,271.000 259.200 C 272.106 260.422,271.883 262.984,270.564 264.214 C 269.924 264.811,269.719 265.072,270.109 264.793 C 270.715 264.361,270.782 264.383,270.566 264.943 C 270.344 265.522,269.625 265.793,268.700 265.647 C 268.535 265.621,268.400 265.760,268.400 265.955 C 268.400 266.151,267.725 266.437,266.900 266.591 C 266.075 266.745,265.208 267.030,264.973 267.224 C 264.739 267.418,263.953 267.621,263.227 267.677 C 262.501 267.732,261.826 267.987,261.728 268.244 C 261.629 268.501,261.200 268.620,260.774 268.509 C 260.306 268.387,260.000 268.509,260.000 268.820 C 260.000 269.102,259.882 269.215,259.737 269.070 C 259.592 268.925,259.247 268.995,258.970 269.225 C 258.693 269.455,257.839 269.678,257.071 269.721 C 256.304 269.765,255.740 269.903,255.818 270.030 C 256.079 270.451,252.614 271.888,251.687 271.743 C 251.170 271.663,250.683 271.840,250.563 272.153 C 250.416 272.535,249.908 272.646,248.917 272.512 C 247.723 272.351,247.524 272.426,247.729 272.960 C 247.917 273.449,247.718 273.603,246.887 273.613 C 246.289 273.620,245.468 273.877,245.061 274.185 C 244.655 274.493,244.093 274.657,243.813 274.550 C 243.532 274.442,243.055 274.589,242.752 274.877 C 242.190 275.409,242.086 275.435,240.029 275.540 C 239.384 275.573,238.569 275.888,238.217 276.240 C 237.790 276.667,237.236 276.795,236.555 276.624 C 235.935 276.469,235.627 276.521,235.773 276.756 C 236.108 277.299,235.650 277.504,233.800 277.639 C 232.920 277.703,231.864 277.977,231.454 278.248 C 231.044 278.518,230.463 278.646,230.164 278.531 C 229.865 278.416,229.333 278.610,228.982 278.961 C 228.630 279.313,227.985 279.600,227.548 279.600 C 227.111 279.600,226.864 279.780,227.000 280.000 C 227.136 280.220,227.057 280.400,226.824 280.400 C 226.591 280.400,226.400 280.220,226.400 280.000 C 226.400 279.780,226.220 279.600,226.000 279.600 C 225.780 279.600,225.600 279.891,225.600 280.247 C 225.600 280.698,225.357 280.830,224.793 280.682 C 224.349 280.566,223.732 280.725,223.422 281.036 C 223.111 281.346,222.495 281.600,222.052 281.600 C 221.609 281.600,221.124 281.799,220.974 282.043 C 220.783 282.351,220.594 282.321,220.350 281.943 C 220.122 281.590,219.895 281.543,219.700 281.809 C 218.975 282.798,217.208 283.654,217.446 282.901 C 217.627 282.328,217.532 282.351,216.926 283.031 C 216.518 283.488,215.957 283.786,215.679 283.693 C 215.401 283.600,214.903 283.748,214.573 284.022 C 214.243 284.296,213.394 284.550,212.687 284.587 C 211.979 284.624,211.055 284.808,210.634 284.995 C 210.088 285.238,209.952 285.202,210.158 284.868 C 210.317 284.611,210.257 284.400,210.024 284.400 C 209.791 284.400,209.600 284.687,209.600 285.037 C 209.600 285.388,209.240 285.769,208.800 285.884 C 208.360 285.999,208.000 286.272,208.000 286.489 C 208.000 286.707,207.736 286.784,207.413 286.660 C 207.090 286.536,206.723 286.600,206.599 286.802 C 206.461 287.025,205.992 287.025,205.405 286.802 C 204.629 286.507,204.483 286.550,204.662 287.017 C 204.798 287.371,204.632 287.620,204.243 287.650 C 202.859 287.758,202.602 287.850,202.667 288.218 C 202.703 288.428,201.500 288.610,199.993 288.621 C 198.282 288.635,197.280 288.484,197.326 288.221 C 197.367 287.990,196.905 287.810,196.300 287.822 C 195.695 287.835,195.200 287.700,195.200 287.522 C 195.200 287.345,195.506 287.200,195.880 287.200 C 196.428 287.200,196.461 287.103,196.053 286.700 C 195.647 286.299,195.449 286.331,195.058 286.860 C 194.613 287.462,194.500 287.441,193.772 286.624 C 193.333 286.131,192.645 285.776,192.244 285.835 C 191.842 285.894,190.858 285.603,190.057 285.190 C 189.255 284.776,188.105 284.494,187.500 284.564 C 186.807 284.643,186.400 284.500,186.400 284.178 C 186.400 283.839,185.796 283.667,184.605 283.667 C 183.474 283.667,182.567 283.424,182.153 283.010 C 181.792 282.649,181.250 282.449,180.948 282.564 C 180.633 282.686,180.400 282.518,180.400 282.170 C 180.400 281.837,180.175 281.602,179.900 281.648 C 179.107 281.779,177.200 281.149,177.200 280.757 C 177.200 280.560,177.009 280.400,176.776 280.400 C 176.543 280.400,176.482 280.608,176.639 280.863 C 176.842 281.191,176.645 281.241,175.963 281.034 C 175.433 280.873,174.778 280.725,174.506 280.704 C 174.162 280.678,174.136 280.518,174.420 280.175 C 174.707 279.830,174.675 279.690,174.314 279.705 C 172.415 279.782,171.431 279.568,172.000 279.200 C 172.667 278.769,172.654 278.761,171.095 278.622 C 170.487 278.567,169.874 278.407,169.732 278.265 C 169.590 278.123,169.253 278.190,168.984 278.414 C 168.638 278.701,168.425 278.641,168.259 278.210 C 168.101 277.798,167.470 277.596,166.313 277.587 C 164.705 277.575,162.944 276.789,163.433 276.301 C 163.554 276.179,163.433 275.944,163.165 275.778 C 162.853 275.585,162.779 275.643,162.962 275.938 C 163.149 276.241,162.895 276.400,162.224 276.400 C 161.661 276.400,161.200 276.220,161.200 276.000 C 161.200 275.780,160.564 275.600,159.787 275.600 C 158.903 275.600,158.289 275.376,158.146 275.002 C 158.019 274.674,157.755 274.504,157.558 274.626 C 157.361 274.748,157.200 274.548,157.200 274.183 C 157.200 273.617,156.847 273.547,154.800 273.711 C 152.541 273.892,151.813 273.610,152.862 272.962 C 153.167 272.773,153.214 272.854,153.000 273.200 C 152.784 273.549,152.833 273.627,153.145 273.434 C 153.931 272.948,153.258 272.451,152.025 272.607 C 151.339 272.694,150.663 272.517,150.381 272.177 C 150.118 271.860,149.710 271.600,149.475 271.600 C 149.239 271.600,149.396 271.864,149.824 272.187 C 150.251 272.510,150.388 272.780,150.129 272.787 C 149.869 272.794,149.388 272.531,149.059 272.202 C 148.731 271.873,148.092 271.548,147.641 271.479 C 147.190 271.410,146.681 271.200,146.510 271.013 C 146.340 270.825,146.453 270.818,146.762 270.998 C 147.131 271.212,147.230 271.172,147.049 270.879 C 146.898 270.635,146.510 270.536,146.187 270.660 C 145.821 270.801,145.600 270.644,145.600 270.243 C 145.600 269.745,145.150 269.589,143.600 269.550 C 141.029 269.486,140.930 269.469,140.533 269.036 C 140.342 268.826,140.401 268.787,140.672 268.942 C 140.932 269.091,141.242 269.055,141.362 268.862 C 141.481 268.668,141.179 268.534,140.690 268.563 C 140.200 268.592,139.598 268.424,139.352 268.189 C 139.106 267.954,138.206 267.770,137.352 267.781 C 136.323 267.794,135.624 267.564,135.277 267.100 C 134.986 266.710,134.233 266.400,133.577 266.400 C 132.930 266.400,132.400 266.220,132.400 266.000 C 132.400 265.780,131.993 265.600,131.496 265.600 C 130.140 265.600,129.625 264.372,129.531 260.918 C 129.474 258.809,129.267 257.665,128.892 257.382 C 128.443 257.044,128.330 254.790,128.302 245.582 C 128.273 236.374,128.156 234.028,127.687 233.300 C 127.177 232.507,127.180 232.400,127.719 232.400 C 128.387 232.400,128.392 231.833,127.735 230.600 C 127.473 230.109,127.354 227.634,127.427 224.200 L 127.546 218.600 143.973 218.496 C 157.901 218.407,160.400 218.304,160.400 217.819 C 160.400 217.505,160.561 217.148,160.757 217.026 C 160.966 216.897,160.970 217.427,160.767 218.303 C 160.300 220.314,160.310 223.097,160.785 223.391 C 161.031 223.543,161.031 223.992,160.786 224.637 C 160.533 225.302,160.538 225.562,160.801 225.399 C 161.021 225.264,161.200 225.333,161.200 225.553 C 161.200 225.773,161.027 226.060,160.815 226.191 C 160.573 226.341,160.569 226.792,160.805 227.414 C 161.045 228.044,161.039 228.400,160.790 228.400 C 160.576 228.400,160.400 228.760,160.400 229.200 C 160.400 229.640,160.561 230.000,160.758 230.000 C 160.967 230.000,160.971 230.625,160.767 231.500 C 160.188 233.996,160.314 235.992,161.071 236.283 C 161.671 236.513,161.660 236.572,160.971 236.842 C 160.262 237.120,160.258 237.146,160.927 237.172 C 161.482 237.193,161.590 237.401,161.384 238.050 C 161.204 238.618,161.260 238.810,161.553 238.629 C 161.816 238.466,161.906 238.580,161.777 238.915 C 161.660 239.221,161.842 239.703,162.182 239.985 C 162.522 240.267,162.800 240.364,162.800 240.200 C 162.800 240.036,163.068 240.124,163.396 240.396 C 163.723 240.668,163.878 241.074,163.739 241.299 C 163.580 241.556,163.943 241.641,164.719 241.527 C 165.463 241.417,165.921 241.515,165.876 241.773 C 165.834 242.008,166.058 242.144,166.374 242.075 C 167.344 241.865,168.801 242.386,168.698 242.907 C 168.630 243.249,169.231 243.392,170.659 243.375 C 172.083 243.358,172.662 243.495,172.536 243.821 C 172.426 244.108,172.717 244.270,173.278 244.234 C 173.785 244.202,174.505 244.511,174.877 244.922 C 175.790 245.930,177.529 245.500,176.721 244.466 C 176.255 243.871,176.274 243.858,176.896 244.345 C 177.278 244.645,177.493 245.050,177.372 245.245 C 177.251 245.440,177.519 245.600,177.967 245.600 C 178.415 245.600,179.058 246.022,179.396 246.538 C 179.886 247.286,180.314 247.455,181.505 247.374 C 182.327 247.318,183.414 247.535,183.919 247.858 C 184.425 248.180,185.145 248.413,185.519 248.376 C 187.075 248.221,188.000 248.433,188.000 248.945 C 188.000 249.319,188.334 249.425,189.065 249.285 C 189.879 249.130,190.079 249.218,189.909 249.659 C 189.755 250.062,190.008 250.264,190.744 250.328 C 192.677 250.495,193.401 250.703,193.328 251.069 C 193.288 251.269,193.895 251.450,194.676 251.470 C 195.457 251.491,196.234 251.731,196.402 252.003 C 196.587 252.303,197.267 252.433,198.126 252.333 C 198.906 252.242,199.464 252.297,199.365 252.456 C 199.099 252.887,199.933 253.288,200.443 252.974 C 200.762 252.776,200.756 252.620,200.420 252.412 C 200.163 252.254,201.179 252.156,202.677 252.195 C 204.267 252.236,205.519 252.086,205.685 251.833 C 205.842 251.595,206.112 251.387,206.285 251.371 C 206.938 251.312,208.800 250.258,208.800 249.948 C 208.800 249.771,209.070 249.729,209.400 249.855 C 209.731 249.982,210.000 249.867,210.000 249.599 C 210.000 249.283,210.468 249.167,211.337 249.269 C 212.101 249.358,212.880 249.205,213.153 248.912 C 213.416 248.631,214.422 248.400,215.389 248.400 C 216.810 248.400,217.196 248.243,217.407 247.579 C 217.618 246.914,217.777 246.849,218.248 247.239 C 218.714 247.626,218.987 247.550,219.638 246.852 C 220.083 246.373,220.602 246.077,220.790 246.194 C 220.978 246.310,221.201 246.196,221.286 245.942 C 221.371 245.687,221.795 245.452,222.227 245.420 C 222.660 245.388,223.223 245.233,223.479 245.075 C 223.735 244.916,224.057 244.968,224.194 245.189 C 224.353 245.448,224.634 245.415,224.979 245.096 C 225.274 244.823,225.422 244.446,225.308 244.257 C 225.194 244.069,225.662 244.038,226.350 244.189 C 227.179 244.371,227.600 244.310,227.600 244.008 C 227.600 243.758,227.432 243.656,227.228 243.783 C 227.023 243.909,226.756 243.852,226.634 243.656 C 226.513 243.459,227.311 243.344,228.407 243.400 C 229.883 243.476,230.400 243.359,230.400 242.951 C 230.400 242.405,231.095 242.209,232.562 242.343 C 232.981 242.381,233.656 242.112,234.062 241.744 C 234.646 241.215,234.801 241.193,234.806 241.638 C 234.811 242.095,234.885 242.088,235.200 241.600 C 235.413 241.270,235.596 241.180,235.606 241.400 C 235.616 241.620,235.808 241.485,236.032 241.100 C 236.256 240.715,236.862 240.400,237.377 240.400 C 238.367 240.400,238.920 239.577,238.560 238.640 C 238.442 238.333,238.536 237.963,238.768 237.820 C 239.025 237.661,239.098 237.801,238.953 238.179 C 238.822 238.521,238.903 238.800,239.134 238.800 C 239.552 238.800,239.468 237.558,238.999 236.798 C 238.864 236.579,238.988 236.387,239.276 236.372 C 239.564 236.356,239.440 236.189,239.000 236.000 C 238.560 235.811,238.405 235.644,238.657 235.628 C 239.360 235.585,239.744 233.539,239.123 233.138 C 238.702 232.866,238.716 232.724,239.200 232.406 C 239.541 232.182,239.600 232.010,239.335 232.006 C 239.079 232.003,238.919 231.555,238.979 231.011 C 239.039 230.467,238.952 230.106,238.786 230.208 C 238.621 230.311,238.511 229.961,238.542 229.432 C 238.580 228.802,238.747 228.590,239.024 228.820 C 239.315 229.062,239.454 228.331,239.468 226.486 C 239.503 221.788,239.592 220.748,239.939 220.962 C 240.126 221.078,240.317 218.814,240.365 215.932 C 240.433 211.787,240.582 210.560,241.079 210.064 C 241.433 209.710,241.529 209.376,241.300 209.300 C 241.050 209.217,241.008 208.649,241.193 207.831 C 241.358 207.098,241.473 204.309,241.447 201.633 L 241.400 196.769 204.927 196.793 C 175.317 196.812,168.213 196.917,167.174 197.354 C 165.741 197.956,163.308 197.613,162.748 196.729 C 162.491 196.323,162.411 196.358,162.406 196.876 C 162.398 197.795,161.757 198.134,161.638 197.282 C 161.586 196.907,161.498 195.250,161.441 193.600 C 161.309 189.710,161.275 189.507,160.800 189.800 C 160.561 189.947,160.391 189.433,160.377 188.524 C 160.364 187.686,160.325 184.718,160.290 181.930 C 160.256 179.141,160.086 176.947,159.913 177.053 C 159.415 177.362,159.550 176.614,160.100 176.021 C 160.500 175.590,160.500 175.539,160.099 175.766 C 159.582 176.058,159.606 175.224,160.150 173.984 C 160.375 173.472,160.260 171.651,159.980 171.300 C 159.739 170.997,159.794 170.141,160.080 169.753 C 160.269 169.497,160.186 169.120,159.885 168.871 C 159.310 168.393,159.199 163.373,159.744 162.490 C 160.116 161.889,160.931 162.282,160.678 162.940 C 160.549 163.276,162.481 163.400,167.851 163.400 C 171.893 163.400,175.200 163.254,175.200 163.076 C 175.200 162.898,175.389 162.870,175.620 163.012 C 176.583 163.607,181.107 163.426,180.917 162.800 C 180.755 162.267,180.794 162.267,181.267 162.800 C 181.814 163.416,186.512 163.706,186.138 163.100 C 186.036 162.935,186.143 162.800,186.376 162.800 C 186.609 162.800,186.800 162.935,186.800 163.100 C 186.800 163.475,191.926 163.357,192.966 162.958 C 193.482 162.760,193.642 162.809,193.456 163.109 C 193.256 163.433,199.677 163.550,217.191 163.541 C 238.038 163.530,241.200 163.451,241.200 162.941 C 241.200 162.617,241.383 162.466,241.607 162.604 C 241.830 162.742,241.909 163.023,241.783 163.228 C 241.656 163.432,241.722 163.600,241.930 163.600 C 242.137 163.600,242.406 163.222,242.526 162.760 C 242.647 162.298,242.902 162.016,243.093 162.134 C 243.284 162.252,243.415 161.380,243.384 160.196 C 243.353 159.011,243.434 158.054,243.564 158.069 C 244.317 158.152,244.435 157.923,243.949 157.323 C 243.576 156.863,243.560 156.743,243.900 156.947 C 244.211 157.134,244.400 157.021,244.400 156.647 C 244.400 156.317,244.211 155.931,243.981 155.788 C 243.720 155.627,243.701 155.353,243.929 155.064 C 244.132 154.809,244.296 153.037,244.293 151.127 C 244.290 148.409,244.434 147.509,244.958 146.985 C 245.476 146.467,245.523 146.189,245.165 145.758 C 244.910 145.451,244.859 145.200,245.051 145.200 C 245.243 145.200,245.400 144.030,245.400 142.600 C 245.400 141.170,245.235 140.000,245.033 140.000 C 244.832 140.000,244.780 139.886,244.919 139.747 C 245.058 139.608,245.000 139.173,244.789 138.780 C 244.521 138.279,244.556 138.015,244.903 137.898 C 245.258 137.779,245.391 136.573,245.367 133.666 C 245.349 131.430,245.479 129.600,245.655 129.600 C 245.831 129.600,245.860 129.300,245.719 128.934 C 245.571 128.547,245.628 128.370,245.855 128.511 C 246.378 128.834,246.324 125.488,245.800 125.115 C 245.580 124.958,245.400 124.598,245.400 124.315 C 245.400 123.898,233.772 123.782,184.208 123.708 C 124.640 123.618,121.719 123.578,122.158 122.868 C 122.273 122.682,121.833 122.562,121.181 122.601 C 120.529 122.640,120.075 122.592,120.172 122.495 C 120.269 122.397,120.181 121.876,119.976 121.336 C 119.731 120.692,119.740 120.439,120.001 120.601 C 120.565 120.949,120.498 119.858,119.920 119.280 C 119.656 119.016,119.611 118.800,119.820 118.799 C 120.029 118.799,120.236 117.989,120.280 116.999 C 120.324 116.010,120.194 115.200,119.990 115.200 C 119.764 115.200,119.763 114.824,119.987 114.234 C 120.256 113.528,120.210 113.213,119.817 113.062 C 119.453 112.922,119.342 112.398,119.473 111.428 C 119.596 110.513,119.501 110.000,119.209 110.000 C 118.958 110.000,118.878 109.797,119.031 109.550 C 119.736 108.409,119.644 104.401,118.912 104.372 C 118.244 104.345,118.245 104.326,118.930 104.056 C 119.881 103.681,119.774 103.087,118.676 102.654 C 118.134 102.440,117.991 102.237,118.302 102.120 C 118.579 102.017,118.679 101.728,118.526 101.480 C 118.372 101.231,118.277 99.356,118.314 97.314 C 118.352 95.271,118.226 93.600,118.035 93.600 C 117.643 93.600,117.246 90.935,117.494 89.971 C 117.700 89.170,120.294 89.156,120.603 89.954 M244.000 153.000 C 244.000 153.330,243.820 153.600,243.600 153.600 C 243.380 153.600,243.200 153.330,243.200 153.000 C 243.200 152.670,243.380 152.400,243.600 152.400 C 243.820 152.400,244.000 152.670,244.000 153.000 M166.900 162.682 C 166.405 162.778,165.595 162.778,165.100 162.682 C 164.605 162.587,165.010 162.509,166.000 162.509 C 166.990 162.509,167.395 162.587,166.900 162.682 M172.900 162.682 C 172.405 162.778,171.595 162.778,171.100 162.682 C 170.605 162.587,171.010 162.509,172.000 162.509 C 172.990 162.509,173.395 162.587,172.900 162.682 M178.905 162.682 C 178.414 162.777,177.514 162.779,176.905 162.687 C 176.297 162.595,176.700 162.517,177.800 162.514 C 178.900 162.511,179.397 162.587,178.905 162.682 M185.400 162.603 C 184.486 162.921,182.071 163.009,182.252 162.716 C 182.359 162.542,183.202 162.414,184.124 162.432 C 185.046 162.449,185.620 162.526,185.400 162.603 M190.700 162.687 C 190.095 162.778,189.105 162.778,188.500 162.687 C 187.895 162.595,188.390 162.520,189.600 162.520 C 190.810 162.520,191.305 162.595,190.700 162.687 M222.330 197.500 C 212.722 197.560,196.882 197.560,187.130 197.500 C 177.379 197.440,185.240 197.391,204.600 197.391 C 223.960 197.391,231.939 197.440,222.330 197.500 " stroke="none" fill="#a454bc" fill-rule="evenodd"></path><path id="path1" d="M57.815 14.025 C 57.938 14.223,55.255 14.433,51.717 14.501 L 45.400 14.622 52.333 14.711 C 57.458 14.777,59.226 14.679,59.112 14.335 C 59.026 14.079,58.651 13.825,58.276 13.770 C 57.902 13.715,57.695 13.830,57.815 14.025 M284.400 13.917 C 284.400 14.087,284.850 14.263,285.400 14.308 C 285.950 14.354,286.400 14.252,286.400 14.083 C 286.400 13.913,285.950 13.737,285.400 13.692 C 284.850 13.646,284.400 13.748,284.400 13.917 M43.757 14.988 C 43.805 15.312,43.924 15.627,44.022 15.688 C 44.120 15.750,44.157 15.727,44.103 15.637 C 44.050 15.547,44.207 15.232,44.452 14.937 C 44.792 14.527,44.752 14.400,44.284 14.400 C 43.947 14.400,43.710 14.665,43.757 14.988 M307.070 14.700 C 315.689 14.760,329.909 14.760,338.670 14.700 C 347.432 14.640,340.380 14.591,323.000 14.590 C 305.620 14.590,298.452 14.640,307.070 14.700 M355.600 26.200 C 355.600 26.530,355.587 26.931,355.570 27.090 C 355.553 27.250,355.711 27.437,355.920 27.507 C 356.129 27.576,356.300 27.176,356.300 26.617 C 356.300 26.058,356.143 25.600,355.950 25.600 C 355.757 25.600,355.600 25.870,355.600 26.200 M44.477 32.772 C 44.526 33.417,44.684 33.871,44.829 33.782 C 45.098 33.616,44.837 31.600,44.547 31.600 C 44.459 31.600,44.427 32.128,44.477 32.772 M44.406 35.876 C 44.399 37.287,45.097 38.011,45.634 37.151 C 45.864 36.784,45.781 36.557,45.385 36.470 C 45.058 36.398,44.871 36.209,44.969 36.051 C 45.067 35.892,44.982 35.500,44.780 35.181 C 44.511 34.757,44.411 34.944,44.406 35.876 M355.204 39.300 C 355.147 39.465,355.075 39.735,355.044 39.900 C 355.013 40.065,354.837 40.437,354.654 40.727 C 354.221 41.409,354.684 41.876,355.241 41.319 C 355.475 41.085,355.587 40.467,355.488 39.946 C 355.390 39.426,355.262 39.135,355.204 39.300 M45.867 41.467 C 45.502 41.831,45.528 43.200,45.900 43.200 C 46.065 43.200,46.200 42.750,46.200 42.200 C 46.200 41.650,46.185 41.200,46.167 41.200 C 46.148 41.200,46.013 41.320,45.867 41.467 M45.600 43.924 C 45.600 44.139,45.885 44.424,46.233 44.557 C 46.623 44.707,46.806 44.618,46.708 44.325 C 46.509 43.727,45.600 43.398,45.600 43.924 M353.400 46.400 C 353.264 46.620,353.363 46.800,353.619 46.800 C 353.876 46.800,353.976 47.070,353.843 47.400 C 352.982 49.527,352.989 49.456,353.720 48.731 C 354.092 48.362,354.358 47.597,354.311 47.031 C 354.223 45.968,353.834 45.699,353.400 46.400 M352.721 61.304 C 352.996 61.637,353.019 62.040,352.783 62.413 C 352.204 63.329,352.336 63.721,353.000 63.057 C 353.789 62.269,353.763 61.348,352.943 61.034 C 352.437 60.839,352.386 60.902,352.721 61.304 M351.953 69.900 C 351.927 70.065,351.936 70.364,351.974 70.563 C 352.011 70.763,351.808 71.075,351.521 71.257 C 351.131 71.505,351.175 71.589,351.696 71.594 C 352.194 71.598,352.368 71.317,352.308 70.600 C 352.228 69.633,352.050 69.283,351.953 69.900 M47.740 71.151 C 47.771 71.903,47.963 72.236,48.294 72.109 C 48.905 71.874,48.973 70.800,48.376 70.800 C 48.143 70.800,48.064 70.620,48.200 70.400 C 48.336 70.180,48.278 70.000,48.070 70.000 C 47.863 70.000,47.715 70.518,47.740 71.151 M48.533 80.184 C 48.533 80.432,48.754 80.841,49.023 81.092 C 49.400 81.445,49.499 81.341,49.456 80.641 C 49.401 79.744,48.533 79.314,48.533 80.184 M350.715 84.068 C 349.992 84.974,350.169 85.991,350.920 85.240 C 351.292 84.868,351.768 83.191,351.497 83.205 C 351.444 83.208,351.092 83.596,350.715 84.068 M349.054 89.003 C 348.902 89.401,348.971 89.541,349.239 89.376 C 349.506 89.211,349.639 89.469,349.590 90.055 C 349.450 91.740,349.660 92.228,350.016 91.041 C 350.420 89.689,349.522 87.785,349.054 89.003 M121.542 89.909 C 121.059 90.525,121.072 90.544,121.664 90.081 C 122.079 89.757,122.420 89.709,122.572 89.955 C 122.706 90.172,123.170 90.322,123.603 90.290 C 124.114 90.251,124.254 90.094,124.001 89.841 C 123.320 89.160,122.102 89.194,121.542 89.909 M49.800 90.400 C 49.497 90.891,49.894 91.600,50.473 91.600 C 50.754 91.600,50.740 91.410,50.432 91.039 C 50.075 90.608,50.087 90.430,50.483 90.270 C 50.838 90.128,50.851 90.053,50.524 90.032 C 50.262 90.014,49.936 90.180,49.800 90.400 M280.454 102.700 C 280.425 104.295,280.535 105.600,280.700 105.600 C 280.865 105.600,280.948 104.655,280.884 103.500 C 280.691 99.979,280.512 99.646,280.454 102.700 M50.681 101.867 C 50.793 102.160,51.046 102.400,51.243 102.400 C 51.439 102.400,51.600 102.160,51.600 101.867 C 51.600 101.573,51.347 101.333,51.038 101.333 C 50.729 101.333,50.568 101.573,50.681 101.867 M118.498 101.866 C 117.895 102.108,118.236 102.800,118.957 102.800 C 119.237 102.800,119.467 102.530,119.467 102.200 C 119.467 101.575,119.334 101.529,118.498 101.866 M119.380 112.345 C 119.512 113.245,120.364 113.382,120.297 112.492 C 120.266 112.075,120.026 111.733,119.765 111.733 C 119.504 111.733,119.331 112.009,119.380 112.345 M51.600 114.284 C 51.600 114.715,51.870 115.067,52.200 115.067 C 52.530 115.067,52.800 114.939,52.800 114.782 C 52.800 114.626,52.530 114.274,52.200 114.000 C 51.701 113.586,51.600 113.634,51.600 114.284 M51.895 116.255 C 51.578 116.758,52.667 117.866,53.076 117.457 C 53.218 117.316,53.137 117.200,52.896 117.200 C 52.655 117.200,52.396 116.885,52.320 116.500 C 52.229 116.042,52.082 115.957,51.895 116.255 M52.507 123.644 C 52.475 124.061,52.707 124.400,53.025 124.400 C 53.741 124.400,53.786 123.357,53.082 123.087 C 52.779 122.971,52.540 123.202,52.507 123.644 M244.879 123.872 C 244.489 124.028,244.539 124.218,245.079 124.628 C 245.943 125.283,246.400 125.343,246.400 124.800 C 246.400 124.580,246.119 124.400,245.776 124.400 C 245.433 124.400,245.264 124.220,245.400 124.000 C 245.668 123.566,245.652 123.562,244.879 123.872 M279.000 130.000 C 279.136 130.220,279.057 130.400,278.824 130.400 C 278.591 130.400,278.400 130.760,278.400 131.200 C 278.400 131.640,278.574 132.000,278.787 132.000 C 279.001 132.000,279.060 131.700,278.919 131.334 C 278.773 130.953,278.828 130.770,279.049 130.907 C 279.261 131.038,279.460 130.797,279.492 130.372 C 279.524 129.948,279.371 129.600,279.152 129.600 C 278.932 129.600,278.864 129.780,279.000 130.000 M345.360 136.960 C 345.214 137.342,345.292 137.852,345.534 138.094 C 345.854 138.414,346.046 138.345,346.240 137.840 C 346.386 137.458,346.308 136.948,346.066 136.706 C 345.746 136.386,345.554 136.455,345.360 136.960 M245.200 137.400 C 245.200 137.730,245.014 138.000,244.786 138.000 C 244.506 138.000,244.501 138.241,244.772 138.747 C 244.992 139.158,245.058 139.608,244.919 139.747 C 244.780 139.886,244.877 140.000,245.133 140.000 C 245.411 140.000,245.600 139.352,245.600 138.400 C 245.600 137.520,245.510 136.800,245.400 136.800 C 245.290 136.800,245.200 137.070,245.200 137.400 M278.454 140.667 C 278.384 141.794,278.778 142.800,279.292 142.800 C 279.564 142.800,279.563 142.635,279.287 142.300 C 279.061 142.025,278.794 141.350,278.693 140.800 C 278.533 139.929,278.502 139.912,278.454 140.667 M245.293 142.000 C 245.293 142.770,245.375 143.085,245.476 142.700 C 245.576 142.315,245.576 141.685,245.476 141.300 C 245.375 140.915,245.293 141.230,245.293 142.000 M55.093 145.200 C 55.470 145.640,55.811 146.000,55.851 146.000 C 55.892 146.000,55.831 145.640,55.716 145.200 C 55.601 144.760,55.259 144.400,54.957 144.400 C 54.537 144.400,54.568 144.587,55.093 145.200 M277.867 145.867 C 277.474 146.259,277.542 148.800,277.945 148.800 C 278.134 148.800,278.203 148.350,278.098 147.800 C 277.986 147.216,278.093 146.800,278.353 146.800 C 278.599 146.800,278.800 146.530,278.800 146.200 C 278.800 145.575,278.327 145.406,277.867 145.867 M277.690 151.781 C 277.783 152.901,278.121 152.777,278.208 151.592 C 278.240 151.156,278.118 150.800,277.938 150.800 C 277.757 150.800,277.645 151.241,277.690 151.781 M243.200 153.000 C 243.200 153.330,243.380 153.600,243.600 153.600 C 243.820 153.600,244.000 153.330,244.000 153.000 C 244.000 152.670,243.820 152.400,243.600 152.400 C 243.380 152.400,243.200 152.670,243.200 153.000 M276.517 160.700 C 276.485 161.305,276.560 161.530,276.683 161.200 C 276.807 160.870,277.085 160.375,277.303 160.100 C 277.580 159.750,277.530 159.600,277.136 159.600 C 276.804 159.600,276.551 160.050,276.517 160.700 M160.392 162.700 C 160.664 163.261,161.162 163.583,161.714 163.554 C 162.517 163.512,162.526 163.488,161.810 163.307 C 161.375 163.197,160.781 162.813,160.488 162.453 C 160.029 161.890,160.016 161.924,160.392 162.700 M165.100 162.682 C 165.595 162.778,166.405 162.778,166.900 162.682 C 167.395 162.587,166.990 162.509,166.000 162.509 C 165.010 162.509,164.605 162.587,165.100 162.682 M171.100 162.682 C 171.595 162.778,172.405 162.778,172.900 162.682 C 173.395 162.587,172.990 162.509,172.000 162.509 C 171.010 162.509,170.605 162.587,171.100 162.682 M176.905 162.687 C 177.514 162.779,178.414 162.777,178.905 162.682 C 179.397 162.587,178.900 162.511,177.800 162.514 C 176.700 162.517,176.297 162.595,176.905 162.687 M182.217 162.772 C 182.091 162.977,182.167 163.256,182.388 163.392 C 182.906 163.713,186.800 163.539,186.800 163.196 C 186.800 163.052,185.765 162.980,184.500 163.036 C 182.256 163.135,182.244 163.130,184.000 162.829 L 185.800 162.520 184.124 162.460 C 183.202 162.427,182.344 162.568,182.217 162.772 M188.500 162.687 C 189.105 162.778,190.095 162.778,190.700 162.687 C 191.305 162.595,190.810 162.520,189.600 162.520 C 188.390 162.520,187.895 162.595,188.500 162.687 M192.441 163.166 C 192.063 163.406,192.385 163.517,193.441 163.511 C 194.631 163.504,194.811 163.425,194.200 163.179 C 193.146 162.754,193.093 162.753,192.441 163.166 M165.100 163.482 C 165.595 163.578,166.405 163.578,166.900 163.482 C 167.395 163.387,166.990 163.309,166.000 163.309 C 165.010 163.309,164.605 163.387,165.100 163.482 M171.100 163.482 C 171.595 163.578,172.405 163.578,172.900 163.482 C 173.395 163.387,172.990 163.309,172.000 163.309 C 171.010 163.309,170.605 163.387,171.100 163.482 M177.305 163.487 C 177.914 163.579,178.814 163.577,179.305 163.482 C 179.797 163.387,179.300 163.311,178.200 163.314 C 177.100 163.317,176.697 163.395,177.305 163.487 M188.500 163.487 C 189.105 163.578,190.095 163.578,190.700 163.487 C 191.305 163.395,190.810 163.320,189.600 163.320 C 188.390 163.320,187.895 163.395,188.500 163.487 M343.200 163.890 C 343.200 164.086,343.468 164.596,343.795 165.024 C 344.368 165.772,344.385 165.764,344.258 164.821 C 344.136 163.914,343.200 163.090,343.200 163.890 M276.493 165.600 C 276.493 166.370,276.575 166.685,276.676 166.300 C 276.776 165.915,276.776 165.285,276.676 164.900 C 276.575 164.515,276.493 164.830,276.493 165.600 M56.533 167.895 C 56.533 168.278,56.774 168.831,57.069 169.126 C 57.516 169.573,57.576 169.508,57.432 168.731 C 57.337 168.219,57.246 167.665,57.230 167.500 C 57.168 166.873,56.533 167.233,56.533 167.895 M159.200 167.948 C 159.200 168.171,159.358 168.451,159.552 168.570 C 159.745 168.690,159.857 169.333,159.800 170.000 C 159.743 170.667,159.862 171.315,160.063 171.439 C 160.626 171.787,160.306 168.673,159.717 168.071 C 159.433 167.781,159.200 167.725,159.200 167.948 M276.514 169.800 C 276.517 170.900,276.595 171.303,276.687 170.695 C 276.779 170.086,276.777 169.186,276.682 168.695 C 276.587 168.203,276.511 168.700,276.514 169.800 M343.000 171.106 C 342.497 171.475,342.495 173.158,342.996 173.297 C 343.202 173.354,343.384 172.815,343.401 172.100 C 343.418 171.385,343.425 170.803,343.416 170.806 C 343.407 170.809,343.220 170.944,343.000 171.106 M159.955 174.100 C 159.738 174.579,159.763 177.163,159.990 177.780 C 160.167 178.260,160.286 177.683,160.300 176.280 C 160.319 174.384,160.191 173.577,159.955 174.100 M276.446 174.900 C 276.421 175.285,276.220 175.600,276.000 175.600 C 275.780 175.600,275.600 175.909,275.600 176.286 C 275.600 176.914,275.654 176.918,276.238 176.333 C 276.590 175.982,276.790 175.358,276.685 174.947 C 276.515 174.288,276.487 174.282,276.446 174.900 M57.710 183.600 C 57.675 184.065,57.896 184.400,58.239 184.400 C 58.704 184.400,58.738 184.232,58.400 183.600 C 58.165 183.160,57.926 182.800,57.871 182.800 C 57.816 182.800,57.743 183.160,57.710 183.600 M341.600 187.400 C 341.326 187.730,341.236 188.000,341.400 188.000 C 341.564 188.000,341.451 188.299,341.149 188.664 C 340.649 189.270,340.677 189.281,341.469 188.787 C 341.947 188.489,342.314 187.921,342.284 187.523 C 342.218 186.650,342.222 186.650,341.600 187.400 M161.471 196.000 C 161.560 196.550,161.655 197.217,161.683 197.482 C 161.711 197.748,161.883 197.872,162.067 197.759 C 162.521 197.478,162.490 196.400,162.028 196.400 C 161.823 196.400,161.578 196.085,161.483 195.700 C 161.388 195.315,161.383 195.450,161.471 196.000 M166.749 197.075 C 166.258 197.678,166.285 197.710,167.000 197.375 C 167.469 197.155,182.790 196.915,204.000 196.796 L 240.200 196.592 203.749 196.496 C 169.964 196.407,167.258 196.449,166.749 197.075 M187.130 197.500 C 196.882 197.560,212.722 197.560,222.330 197.500 C 231.939 197.440,223.960 197.391,204.600 197.391 C 185.240 197.391,177.379 197.440,187.130 197.500 M274.440 204.124 C 274.415 205.580,274.549 206.355,274.800 206.200 C 275.263 205.914,275.263 204.246,274.800 202.800 C 274.556 202.039,274.470 202.356,274.440 204.124 M241.115 208.000 C 241.018 208.660,241.087 209.200,241.269 209.200 C 241.451 209.200,241.600 208.660,241.600 208.000 C 241.600 207.340,241.530 206.800,241.445 206.800 C 241.360 206.800,241.212 207.340,241.115 208.000 M274.590 208.430 C 274.446 208.887,274.433 209.367,274.563 209.497 C 274.694 209.627,274.800 209.433,274.800 209.067 C 274.800 208.700,274.980 208.400,275.200 208.400 C 275.420 208.400,275.600 208.220,275.600 208.000 C 275.600 207.270,274.858 207.586,274.590 208.430 M160.554 217.377 C 160.432 217.694,160.403 218.279,160.489 218.677 C 160.587 219.128,160.724 218.912,160.854 218.100 C 161.071 216.738,160.930 216.396,160.554 217.377 M338.624 221.047 C 338.479 221.623,338.460 222.193,338.581 222.314 C 338.701 222.435,338.800 222.223,338.800 221.843 C 338.800 221.463,338.969 221.257,339.176 221.385 C 339.382 221.513,339.524 221.253,339.491 220.809 C 339.405 219.673,338.936 219.802,338.624 221.047 M160.465 224.717 C 160.501 225.625,160.660 226.287,160.819 226.188 C 161.160 225.978,161.032 223.699,160.659 223.325 C 160.517 223.183,160.430 223.810,160.465 224.717 M62.160 224.613 C 62.160 225.156,62.303 225.600,62.477 225.600 C 62.652 225.600,62.741 225.245,62.674 224.810 C 62.493 223.620,62.160 223.493,62.160 224.613 M239.200 228.424 C 239.200 228.657,239.065 228.764,238.900 228.662 C 238.735 228.560,238.574 228.908,238.542 229.436 C 238.511 229.963,238.621 230.311,238.786 230.208 C 238.952 230.106,239.039 230.467,238.979 231.011 C 238.919 231.555,239.038 232.000,239.243 232.000 C 239.447 232.000,239.583 231.100,239.544 230.000 C 239.485 228.340,239.200 227.033,239.200 228.424 M272.428 230.100 C 272.448 231.303,272.545 231.574,272.759 231.027 C 273.042 230.305,272.893 228.400,272.553 228.400 C 272.469 228.400,272.413 229.165,272.428 230.100 M127.200 229.475 C 127.200 230.216,128.373 231.475,128.387 230.749 C 128.394 230.391,128.130 229.874,127.800 229.600 C 127.470 229.326,127.200 229.270,127.200 229.475 M160.400 231.200 C 160.400 231.860,160.470 232.400,160.555 232.400 C 160.640 232.400,160.788 231.860,160.885 231.200 C 160.982 230.540,160.913 230.000,160.731 230.000 C 160.549 230.000,160.400 230.540,160.400 231.200 M127.600 233.200 C 127.835 233.640,128.101 234.000,128.189 234.000 C 128.278 234.000,128.323 233.640,128.290 233.200 C 128.257 232.760,127.992 232.400,127.701 232.400 C 127.296 232.400,127.272 232.587,127.600 233.200 M239.200 234.967 C 239.200 235.278,238.975 235.624,238.700 235.735 C 238.401 235.856,238.482 235.950,238.900 235.968 C 239.344 235.988,239.600 235.707,239.600 235.200 C 239.600 234.760,239.510 234.400,239.400 234.400 C 239.290 234.400,239.200 234.655,239.200 234.967 M239.011 236.818 C 239.153 237.047,239.059 237.488,238.803 237.797 C 238.495 238.167,238.465 238.586,238.713 239.030 C 238.969 239.487,239.179 239.558,239.368 239.251 C 239.522 239.003,239.457 238.800,239.224 238.800 C 238.991 238.800,238.800 238.609,238.800 238.376 C 238.800 238.143,238.942 238.040,239.115 238.148 C 239.288 238.255,239.466 237.905,239.511 237.371 C 239.555 236.837,239.402 236.400,239.172 236.400 C 238.941 236.400,238.869 236.588,239.011 236.818 M160.562 237.900 C 160.627 238.761,161.665 240.400,162.145 240.400 C 162.339 240.400,162.280 240.138,162.015 239.818 C 161.749 239.497,161.664 239.019,161.827 238.756 C 162.024 238.438,161.953 238.382,161.619 238.588 C 161.248 238.818,161.186 238.675,161.384 238.050 C 161.573 237.454,161.483 237.200,161.082 237.200 C 160.767 237.200,160.533 237.515,160.562 237.900 M336.467 238.442 C 336.178 238.905,336.134 239.164,336.370 239.018 C 336.607 238.872,336.800 238.943,336.800 239.176 C 336.800 239.409,336.978 239.600,337.196 239.600 C 337.413 239.600,337.554 239.150,337.508 238.600 C 337.407 237.379,337.154 237.341,336.467 238.442 M62.400 239.200 C 62.400 239.420,62.591 239.600,62.824 239.600 C 63.057 239.600,63.136 239.780,63.000 240.000 C 62.864 240.220,63.061 240.400,63.438 240.400 C 64.073 240.400,64.070 240.341,63.400 239.600 C 62.584 238.698,62.400 238.625,62.400 239.200 M336.823 240.628 C 337.111 240.974,337.079 241.184,336.717 241.330 C 336.378 241.465,336.433 241.548,336.875 241.568 C 337.293 241.588,337.529 241.321,337.495 240.867 C 337.465 240.463,337.209 240.133,336.926 240.133 C 336.564 240.133,336.533 240.279,336.823 240.628 M234.005 241.795 C 233.495 242.408,233.534 242.463,234.388 242.338 C 234.910 242.262,235.410 241.930,235.499 241.600 C 235.631 241.112,235.590 241.102,235.279 241.545 C 234.992 241.955,234.856 241.969,234.734 241.601 C 234.620 241.259,234.401 241.317,234.005 241.795 M231.100 242.276 C 230.715 242.376,230.400 242.715,230.400 243.029 C 230.400 243.828,230.902 243.740,231.707 242.800 C 232.401 241.990,232.353 241.948,231.100 242.276 M271.600 245.576 C 271.600 246.469,271.670 247.200,271.756 247.200 C 272.077 247.200,272.232 244.344,271.923 244.152 C 271.745 244.042,271.600 244.683,271.600 245.576 M188.800 249.485 C 189.130 249.607,189.629 249.889,189.909 250.110 C 190.290 250.412,190.355 250.348,190.166 249.857 C 190.028 249.495,189.529 249.214,189.057 249.232 C 188.472 249.253,188.390 249.334,188.800 249.485 M210.000 249.643 C 210.000 249.886,209.730 249.982,209.400 249.855 C 209.070 249.729,208.800 249.799,208.800 250.013 C 208.800 250.226,209.160 250.400,209.600 250.400 C 210.040 250.400,210.400 250.232,210.400 250.027 C 210.400 249.821,210.895 249.578,211.500 249.487 C 212.524 249.331,212.510 249.316,211.300 249.260 C 210.580 249.227,210.000 249.398,210.000 249.643 M64.493 250.800 C 64.493 251.570,64.575 251.885,64.676 251.500 C 64.776 251.115,64.776 250.485,64.676 250.100 C 64.575 249.715,64.493 250.030,64.493 250.800 M192.600 250.800 C 192.464 251.020,192.408 251.214,192.476 251.231 C 193.793 251.557,194.017 251.503,193.573 250.968 C 193.013 250.293,192.923 250.277,192.600 250.800 M207.450 250.914 C 206.793 251.394,206.801 251.429,207.573 251.429 C 208.028 251.429,208.400 251.197,208.400 250.914 C 208.400 250.631,208.344 250.400,208.276 250.400 C 208.209 250.400,207.836 250.631,207.450 250.914 M198.803 252.389 C 197.912 252.953,198.849 253.692,200.251 253.531 C 201.573 253.380,201.838 252.281,200.600 252.084 C 200.002 251.989,199.937 252.051,200.343 252.328 C 200.722 252.588,200.752 252.783,200.443 252.974 C 199.882 253.320,199.111 252.868,199.417 252.372 C 199.705 251.906,199.561 251.910,198.803 252.389 M64.528 260.169 C 64.602 261.369,65.600 262.174,65.600 261.033 C 65.600 260.685,65.433 260.400,65.229 260.400 C 65.025 260.400,64.768 260.085,64.658 259.700 C 64.547 259.315,64.489 259.526,64.528 260.169 M264.667 266.667 C 264.174 267.160,264.380 267.714,264.900 267.292 C 265.175 267.069,265.760 266.798,266.200 266.689 C 266.844 266.531,266.798 266.484,265.967 266.446 C 265.398 266.421,264.813 266.520,264.667 266.667 M258.667 268.667 C 258.160 269.174,258.401 269.697,258.937 269.252 C 259.232 269.007,259.592 268.925,259.737 269.070 C 259.882 269.215,260.000 269.123,260.000 268.867 C 260.000 268.364,259.104 268.230,258.667 268.667 M146.200 270.881 C 147.030 271.369,147.133 271.375,147.300 270.940 C 147.355 270.797,146.950 270.619,146.400 270.545 C 145.460 270.418,145.448 270.439,146.200 270.881 M253.600 270.800 C 253.600 271.301,254.024 271.301,254.800 270.800 C 255.285 270.486,255.228 270.411,254.500 270.406 C 254.005 270.403,253.600 270.580,253.600 270.800 M148.800 272.043 C 148.800 272.192,149.085 272.424,149.433 272.557 C 150.269 272.878,150.267 272.879,150.267 272.286 C 150.267 272.003,149.937 271.771,149.533 271.771 C 149.130 271.771,148.800 271.894,148.800 272.043 M152.508 273.220 C 152.448 274.019,152.979 274.281,153.372 273.645 C 153.493 273.450,153.361 273.099,153.079 272.866 C 152.694 272.546,152.553 272.635,152.508 273.220 M246.884 273.015 C 246.452 273.505,246.498 273.600,247.172 273.600 C 247.721 273.600,247.902 273.411,247.745 273.000 C 247.471 272.287,247.527 272.286,246.884 273.015 M240.834 274.959 C 240.458 275.412,240.552 275.506,241.334 275.459 C 242.706 275.375,243.564 274.400,242.265 274.400 C 241.733 274.400,241.089 274.651,240.834 274.959 M161.200 276.000 C 161.200 276.220,161.572 276.400,162.026 276.400 C 162.481 276.400,163.201 276.586,163.626 276.814 C 164.052 277.042,164.399 277.087,164.397 276.914 C 164.393 276.544,162.471 275.600,161.720 275.600 C 161.434 275.600,161.200 275.780,161.200 276.000 M237.397 275.995 C 237.537 276.222,237.377 276.289,237.021 276.153 C 236.679 276.022,236.400 276.114,236.400 276.357 C 236.400 276.998,237.557 276.901,238.257 276.200 C 238.790 275.667,238.762 275.600,238.005 275.600 C 237.536 275.600,237.263 275.778,237.397 275.995 M168.254 278.198 C 168.381 278.526,168.645 278.696,168.842 278.574 C 169.039 278.452,169.200 278.573,169.200 278.843 C 169.200 279.113,169.294 279.239,169.409 279.124 C 169.775 278.758,169.137 277.600,168.570 277.600 C 168.251 277.600,168.120 277.848,168.254 278.198 M173.902 279.892 C 174.179 279.989,174.322 280.203,174.220 280.367 C 174.118 280.532,174.252 280.684,174.518 280.704 C 174.783 280.725,175.450 280.872,176.000 281.030 C 176.585 281.199,176.862 281.169,176.667 280.959 C 176.483 280.762,176.123 280.592,175.867 280.582 C 175.610 280.572,175.438 280.369,175.483 280.132 C 175.529 279.894,175.079 279.704,174.483 279.708 C 173.888 279.712,173.626 279.795,173.902 279.892 M177.200 280.800 C 177.200 281.020,177.470 281.200,177.800 281.200 C 178.130 281.200,178.400 281.020,178.400 280.800 C 178.400 280.580,178.130 280.400,177.800 280.400 C 177.470 280.400,177.200 280.580,177.200 280.800 M221.851 280.682 C 221.365 281.168,221.608 281.600,222.367 281.600 C 222.788 281.600,223.225 281.375,223.336 281.100 C 223.489 280.724,223.644 280.748,223.963 281.200 C 224.218 281.560,224.390 281.611,224.394 281.329 C 224.397 281.070,224.715 280.788,225.100 280.703 C 225.485 280.617,224.968 280.521,223.951 280.489 C 222.934 280.457,221.989 280.544,221.851 280.682 M66.881 282.341 C 66.464 282.606,66.480 282.768,66.958 283.166 C 67.456 283.578,67.544 283.523,67.492 282.830 C 67.458 282.374,67.423 282.003,67.415 282.006 C 67.407 282.009,67.166 282.160,66.881 282.341 M333.301 283.800 C 333.305 284.680,333.387 284.993,333.483 284.495 C 333.579 283.998,333.575 283.278,333.475 282.895 C 333.375 282.513,333.296 282.920,333.301 283.800 M193.200 285.978 C 193.200 286.655,194.741 287.530,194.955 286.974 C 195.075 286.660,194.956 286.452,194.686 286.505 C 194.419 286.557,194.235 286.405,194.278 286.167 C 194.321 285.928,194.096 285.733,193.778 285.733 C 193.460 285.733,193.200 285.843,193.200 285.978 M207.455 286.200 C 207.329 286.530,207.399 286.800,207.613 286.800 C 207.826 286.800,208.000 286.633,208.000 286.429 C 208.000 286.225,208.315 285.976,208.700 285.876 C 209.252 285.731,209.219 285.683,208.543 285.646 C 208.071 285.621,207.582 285.870,207.455 286.200 M204.580 286.833 C 204.437 287.064,204.428 287.361,204.560 287.493 C 204.692 287.625,204.800 287.502,204.800 287.220 C 204.800 286.904,205.107 286.787,205.600 286.916 C 206.039 287.031,206.476 287.000,206.571 286.847 C 206.665 286.695,206.314 286.534,205.791 286.491 C 205.268 286.448,204.723 286.601,204.580 286.833 M67.628 289.900 C 67.613 290.835,67.669 291.600,67.753 291.600 C 68.093 291.600,68.242 289.695,67.959 288.973 C 67.745 288.426,67.648 288.697,67.628 289.900 M67.606 293.100 C 67.603 293.815,67.669 294.400,67.753 294.400 C 68.117 294.400,68.272 292.841,67.957 292.344 C 67.723 291.974,67.610 292.216,67.606 293.100 M68.413 299.100 C 68.406 299.595,68.591 300.000,68.824 300.000 C 69.057 300.000,69.119 300.208,68.962 300.462 C 68.785 300.748,68.852 300.815,69.138 300.638 C 69.747 300.262,69.721 299.913,69.013 298.976 C 68.440 298.219,68.425 298.223,68.413 299.100 M331.467 301.067 C 330.860 301.674,331.172 302.922,331.800 302.400 C 332.130 302.126,332.400 301.654,332.400 301.351 C 332.400 300.768,331.913 300.620,331.467 301.067 M68.718 304.273 C 68.348 305.021,68.635 307.337,69.110 307.435 C 69.391 307.493,69.436 307.449,69.210 307.337 C 68.985 307.225,68.800 306.868,68.800 306.543 C 68.800 306.218,68.969 306.057,69.175 306.185 C 69.390 306.317,69.465 305.947,69.351 305.317 C 69.126 304.079,68.955 303.796,68.718 304.273 M69.600 313.829 C 69.600 313.954,69.870 314.327,70.200 314.657 C 70.851 315.308,70.933 315.211,70.557 314.233 C 70.329 313.638,69.600 313.330,69.600 313.829 M70.514 321.000 C 70.517 322.100,70.595 322.503,70.687 321.895 C 70.779 321.286,70.777 320.386,70.682 319.895 C 70.587 319.403,70.511 319.900,70.514 321.000 M76.695 328.816 C 76.967 329.109,77.586 329.410,78.070 329.484 C 78.555 329.558,78.844 329.511,78.712 329.379 C 78.581 329.248,78.232 329.103,77.937 329.059 C 77.641 329.014,77.130 328.821,76.800 328.630 C 76.315 328.349,76.294 328.384,76.695 328.816 M322.500 328.688 C 322.225 328.786,322.000 329.016,322.000 329.198 C 322.000 329.614,322.953 329.496,323.133 329.058 C 323.318 328.609,323.091 328.477,322.500 328.688 M313.200 331.835 L 312.200 332.392 313.233 332.314 C 313.802 332.272,314.267 332.003,314.267 331.718 C 314.267 331.433,314.252 331.218,314.233 331.239 C 314.215 331.261,313.750 331.529,313.200 331.835 M301.292 334.875 C 301.539 335.617,302.400 335.740,302.400 335.033 C 302.400 334.685,302.115 334.400,301.767 334.400 C 301.418 334.400,301.205 334.614,301.292 334.875 M297.087 335.882 C 297.357 336.586,298.400 336.541,298.400 335.825 C 298.400 335.507,298.061 335.275,297.644 335.307 C 297.202 335.340,296.971 335.579,297.087 335.882 M294.800 336.344 C 294.800 336.621,294.650 336.755,294.467 336.641 C 294.283 336.528,294.133 336.697,294.133 337.018 C 294.133 337.697,295.029 337.800,295.422 337.165 C 295.569 336.926,295.490 336.530,295.245 336.285 C 294.918 335.958,294.800 335.974,294.800 336.344 M104.771 336.965 C 104.979 337.216,105.638 337.462,106.234 337.511 C 106.831 337.560,107.567 337.806,107.869 338.057 C 108.172 338.309,108.533 338.401,108.671 338.262 C 108.954 337.980,106.185 336.671,105.096 336.572 C 104.611 336.529,104.510 336.651,104.771 336.965 M284.400 339.885 C 284.400 340.555,284.721 340.537,285.433 339.825 C 285.933 339.324,285.903 339.257,285.204 339.310 C 284.762 339.343,284.400 339.602,284.400 339.885 M118.601 340.799 C 118.464 341.020,118.408 341.213,118.476 341.230 C 120.405 341.694,120.920 341.507,119.624 340.813 C 119.108 340.537,118.766 340.532,118.601 340.799 M277.600 341.833 C 276.656 342.357,276.648 342.389,277.457 342.394 C 277.929 342.397,278.418 342.130,278.545 341.800 C 278.671 341.470,278.736 341.218,278.687 341.239 C 278.639 341.261,278.150 341.528,277.600 341.833 M124.528 342.600 C 124.611 343.402,126.400 343.898,126.400 343.118 C 126.400 342.914,126.055 342.856,125.633 342.990 C 125.103 343.158,124.800 343.011,124.655 342.517 C 124.484 341.932,124.461 341.947,124.528 342.600 M272.400 343.000 C 272.400 343.330,272.664 343.600,272.987 343.600 C 273.345 343.600,273.485 343.365,273.345 343.000 C 273.218 342.670,272.954 342.400,272.757 342.400 C 272.561 342.400,272.400 342.670,272.400 343.000 M274.184 342.827 C 274.039 343.061,274.020 343.353,274.143 343.476 C 274.512 343.846,275.602 343.262,275.568 342.713 C 275.544 342.311,275.493 342.308,275.335 342.700 C 275.224 342.975,274.958 343.200,274.743 343.200 C 274.528 343.200,274.464 343.020,274.600 342.800 C 274.736 342.580,274.757 342.400,274.647 342.400 C 274.537 342.400,274.329 342.592,274.184 342.827 M270.000 343.576 C 270.000 344.134,270.735 344.487,271.243 344.174 C 271.551 343.983,271.521 343.796,271.143 343.556 C 270.429 343.104,270.000 343.111,270.000 343.576 M266.400 345.063 C 265.418 345.579,265.416 345.588,266.300 345.594 C 266.795 345.597,267.203 345.375,267.206 345.100 C 267.211 344.732,267.303 344.743,267.556 345.143 C 267.768 345.476,267.995 345.531,268.148 345.285 C 268.551 344.632,267.479 344.496,266.400 345.063 M135.600 345.207 C 135.165 345.483,135.144 345.589,135.524 345.594 C 135.826 345.597,135.928 345.811,135.765 346.100 C 135.549 346.483,135.600 346.491,135.986 346.135 C 136.690 345.486,136.370 344.718,135.600 345.207 M142.400 347.715 C 142.400 348.021,142.926 348.245,143.700 348.267 C 144.495 348.290,144.650 348.235,144.100 348.125 C 143.605 348.025,143.200 347.777,143.200 347.572 C 143.200 347.367,143.020 347.200,142.800 347.200 C 142.580 347.200,142.400 347.432,142.400 347.715 M252.547 348.714 C 252.689 348.944,252.579 349.219,252.302 349.325 C 252.026 349.431,252.207 349.498,252.705 349.474 C 253.654 349.427,253.729 348.776,252.819 348.473 C 252.524 348.375,252.403 348.482,252.547 348.714 M162.796 353.804 C 162.394 354.289,162.419 354.400,162.927 354.400 C 163.674 354.400,164.162 353.748,163.652 353.432 C 163.453 353.309,163.068 353.477,162.796 353.804 M167.473 354.645 C 167.714 355.275,168.246 355.372,168.572 354.845 C 168.692 354.650,168.446 354.401,168.025 354.291 C 167.489 354.151,167.324 354.257,167.473 354.645 M228.133 355.742 C 228.133 356.016,228.463 356.265,228.867 356.295 C 229.270 356.325,229.600 356.278,229.600 356.189 C 229.600 356.101,229.270 355.852,228.867 355.636 C 228.338 355.353,228.133 355.382,228.133 355.742 M224.400 356.575 C 224.400 356.999,224.216 357.141,223.900 356.959 C 223.625 356.801,223.540 356.826,223.712 357.014 C 224.137 357.482,225.153 357.600,225.394 357.210 C 225.502 357.034,225.323 356.668,224.996 356.396 C 224.508 355.992,224.400 356.024,224.400 356.575 M221.022 357.636 C 221.126 357.803,220.893 358.022,220.505 358.123 C 219.943 358.270,219.974 358.317,220.657 358.354 C 221.129 358.379,221.607 358.160,221.719 357.867 C 221.832 357.573,221.679 357.333,221.379 357.333 C 221.080 357.333,220.919 357.470,221.022 357.636 M180.492 358.875 C 180.739 359.617,181.600 359.740,181.600 359.033 C 181.600 358.685,181.315 358.400,180.967 358.400 C 180.618 358.400,180.405 358.614,180.492 358.875 M218.196 358.807 C 218.058 359.030,217.777 359.109,217.572 358.983 C 217.368 358.856,217.200 358.943,217.200 359.176 C 217.200 359.802,218.366 359.691,219.057 359.000 C 219.590 358.467,219.590 358.400,219.052 358.400 C 218.719 358.400,218.334 358.583,218.196 358.807 M182.200 359.200 C 182.336 359.420,182.717 359.600,183.047 359.600 C 183.377 359.600,183.536 359.420,183.400 359.200 C 183.264 358.980,182.883 358.800,182.553 358.800 C 182.223 358.800,182.064 358.980,182.200 359.200 M210.522 360.886 C 210.167 361.279,210.019 361.600,210.194 361.600 C 210.369 361.600,210.771 361.285,211.089 360.900 C 211.556 360.332,211.629 360.320,211.471 360.833 C 211.361 361.191,211.508 361.467,211.809 361.467 C 212.102 361.467,212.425 361.149,212.526 360.762 C 212.771 359.826,211.405 359.911,210.522 360.886 M187.600 360.848 C 187.600 361.068,187.780 361.136,188.000 361.000 C 188.220 360.864,188.400 360.954,188.400 361.200 C 188.400 361.446,188.580 361.536,188.800 361.400 C 189.450 360.999,189.259 360.575,188.400 360.510 C 187.960 360.477,187.600 360.629,187.600 360.848 M190.900 361.476 C 191.285 361.576,191.600 361.825,191.600 362.029 C 191.600 362.233,191.870 362.400,192.200 362.400 C 192.530 362.400,192.800 362.130,192.800 361.800 C 192.800 361.380,192.410 361.214,191.500 361.246 C 190.785 361.272,190.515 361.375,190.900 361.476 " stroke="none" fill="#a854bc" fill-rule="evenodd"></path></g></svg>