<svg id="svg" version="1.1" xmlns="http://www.w3.org/2000/svg" xmlns:xlink="http://www.w3.org/1999/xlink" width="400" height="400" viewBox="0, 0, 400,400"><g id="svgg"><path id="path1" d="M0.000 200.000 L 0.000 400.000 200.000 400.000 L 400.000 400.000 400.000 200.000 L 400.000 0.000 200.000 0.000 L 0.000 0.000 0.000 200.000 M313.400 182.006 C 314.500 182.198,316.390 182.477,317.600 182.625 C 331.302 184.299,344.566 192.728,353.171 205.228 C 354.144 206.643,355.472 208.579,356.120 209.531 C 357.613 211.724,359.788 209.993,338.200 223.788 C 336.660 224.772,335.130 225.768,334.800 226.000 C 328.387 230.515,328.487 230.512,325.750 226.280 C 322.445 221.171,318.224 217.751,312.400 215.464 C 310.485 214.712,309.422 214.602,304.200 214.613 L 298.200 214.626 295.134 216.147 C 288.140 219.618,285.243 225.317,286.379 233.372 C 287.473 241.129,292.212 245.769,304.600 251.208 C 305.700 251.691,307.140 252.324,307.800 252.614 C 308.460 252.904,309.720 253.448,310.600 253.824 C 314.464 255.472,315.876 256.084,317.000 256.601 C 319.778 257.876,321.974 258.800,322.226 258.800 C 323.573 258.800,339.316 267.331,344.099 270.652 C 350.852 275.341,361.200 285.707,361.200 287.782 C 361.200 287.909,361.785 289.044,362.500 290.306 C 368.349 300.626,370.217 322.907,366.012 332.200 C 365.813 332.640,365.537 333.450,365.398 334.000 C 365.072 335.291,363.346 339.064,361.593 342.318 C 357.299 350.291,346.574 358.934,335.800 363.104 C 331.753 364.671,329.689 365.242,320.800 367.259 C 309.205 369.889,287.204 367.773,274.400 362.797 C 273.190 362.327,271.687 361.751,271.059 361.518 C 260.456 357.574,246.586 345.388,240.240 334.442 C 238.266 331.036,238.052 329.902,239.266 329.283 C 239.780 329.020,240.470 328.627,240.800 328.408 C 241.863 327.704,255.244 320.000,255.405 320.000 C 255.490 320.000,256.351 319.466,257.317 318.814 C 258.284 318.162,259.508 317.442,260.037 317.215 C 260.567 316.988,261.270 316.624,261.600 316.407 C 267.722 312.382,268.121 312.402,271.429 316.900 C 280.852 329.710,290.359 334.871,304.484 334.844 C 322.011 334.810,331.448 327.693,330.695 315.078 C 330.219 307.091,326.254 302.652,314.000 296.383 C 311.948 295.334,307.268 293.200,307.018 293.200 C 306.899 293.200,305.677 292.682,304.301 292.050 C 302.925 291.417,299.370 289.859,296.400 288.587 C 293.430 287.316,290.730 286.132,290.400 285.956 C 290.070 285.781,288.090 284.820,286.000 283.822 C 279.144 280.547,274.394 277.669,268.400 273.159 C 263.534 269.497,257.986 263.173,256.155 259.200 C 256.003 258.870,255.667 258.330,255.409 258.000 C 254.935 257.395,252.525 251.794,251.623 249.200 C 249.725 243.743,249.110 238.732,249.298 230.268 C 249.472 222.472,249.628 221.484,251.744 214.768 C 252.944 210.959,256.881 203.668,258.886 201.540 C 259.169 201.240,260.293 199.933,261.384 198.636 C 266.012 193.131,274.855 187.486,283.200 184.709 C 284.190 184.379,285.630 183.891,286.400 183.623 C 287.170 183.356,289.870 182.861,292.400 182.524 C 294.930 182.186,297.900 181.771,299.000 181.601 C 301.334 181.240,310.499 181.498,313.400 182.006 M217.410 184.900 C 218.065 187.516,217.360 321.411,216.674 324.600 C 215.008 332.346,214.502 334.320,213.786 335.860 C 213.464 336.554,213.200 337.290,213.200 337.496 C 213.200 338.135,209.425 345.325,207.776 347.827 C 204.689 352.510,199.694 356.891,191.981 361.680 C 189.465 363.242,181.839 366.130,179.000 366.596 C 178.120 366.741,176.050 367.153,174.400 367.513 C 169.957 368.482,152.620 368.456,148.400 367.475 C 143.098 366.241,139.033 365.129,137.740 364.557 C 137.046 364.251,136.264 364.000,136.001 364.000 C 135.738 364.000,135.046 363.742,134.462 363.427 C 133.878 363.113,132.500 362.444,131.400 361.942 C 123.317 358.252,113.841 349.420,108.568 340.661 C 105.182 335.038,105.007 334.356,106.700 333.398 C 107.305 333.056,108.277 332.466,108.861 332.088 C 109.444 331.710,112.017 330.140,114.577 328.600 C 117.138 327.060,119.659 325.530,120.181 325.200 C 120.703 324.870,122.601 323.700,124.400 322.600 C 126.199 321.500,128.092 320.330,128.607 320.000 C 135.627 315.500,135.941 315.450,137.444 318.592 C 138.581 320.971,140.779 324.255,142.536 326.200 C 143.331 327.080,143.986 327.916,143.991 328.058 C 144.014 328.712,150.055 332.844,152.200 333.673 C 157.010 335.531,168.489 334.844,171.231 332.532 C 171.579 332.239,172.036 332.000,172.248 332.000 C 172.916 332.000,175.881 328.685,177.132 326.538 C 179.893 321.802,179.769 325.187,179.894 251.400 C 179.955 214.880,180.089 184.775,180.190 184.500 C 180.334 184.110,184.421 184.000,198.780 184.000 L 217.185 184.000 217.410 184.900 " stroke="none" fill="#0fc8e0" fill-rule="evenodd"></path></g></svg>