<svg id="svg" xmlns="http://www.w3.org/2000/svg" xmlns:xlink="http://www.w3.org/1999/xlink" width="400" height="400" viewBox="0, 0, 400,400" version="1.1"><g id="svgg"><path id="path0" d="M190.494 9.229 C 166.776 11.521,150.342 24.647,146.209 44.600 C 144.622 52.263,145.186 77.106,147.830 116.000 C 149.123 135.022,147.140 142.063,136.956 154.600 C 132.222 160.428,128.827 165.038,122.520 174.200 C 112.765 188.370,111.257 191.238,105.802 206.000 C 97.640 228.089,93.324 237.965,87.796 247.200 C 81.633 257.495,80.705 262.355,83.408 270.186 C 85.059 274.970,84.942 275.481,80.730 281.850 C 72.459 294.357,65.058 299.523,51.600 302.185 C 40.072 304.465,40.005 304.581,40.002 322.429 C 40.001 329.156,39.777 337.976,39.505 342.029 C 37.894 366.006,35.843 363.799,67.000 371.618 C 94.959 378.634,104.235 381.435,121.719 388.141 C 134.661 393.105,142.145 391.915,151.600 383.390 C 159.698 376.088,166.741 372.780,176.779 371.564 C 180.770 371.080,210.840 371.479,236.600 372.359 C 247.632 372.735,248.326 373.074,252.119 379.941 C 257.054 388.874,264.322 391.912,277.326 390.477 C 288.144 389.284,293.269 386.780,302.271 378.288 C 314.547 366.707,324.016 360.229,339.876 352.561 C 354.263 345.604,361.203 339.834,361.199 334.831 C 361.196 331.560,359.879 330.065,349.200 321.204 C 333.496 308.175,330.748 303.947,330.612 292.600 C 330.524 285.282,329.342 282.818,325.239 281.404 L 324.068 281.000 325.399 277.711 C 330.605 264.838,327.610 235.926,318.778 213.800 C 312.013 196.852,304.247 183.802,283.191 154.000 C 265.403 128.824,260.872 116.651,259.592 90.600 C 258.087 59.960,255.033 46.327,246.954 34.182 C 235.452 16.891,213.157 7.038,190.494 9.229 M218.288 61.004 C 231.956 65.063,238.171 90.962,228.326 102.835 C 226.656 104.849,223.876 104.876,218.020 102.936 C 212.733 101.184,212.812 101.554,217.014 98.224 C 224.513 92.281,224.389 81.872,216.773 77.986 C 209.347 74.198,203.872 83.492,206.200 95.935 C 206.497 97.524,206.192 97.489,202.048 95.453 C 192.913 90.967,191.628 77.876,199.322 67.685 C 203.533 62.107,211.982 59.131,218.288 61.004 M170.148 64.911 C 175.479 67.753,180.113 76.783,180.147 84.400 C 180.164 88.068,179.336 90.077,176.539 93.156 C 173.840 96.128,173.044 95.883,172.408 91.884 C 171.056 83.384,170.168 81.580,165.791 78.437 L 164.083 77.210 161.615 79.847 C 158.542 83.133,158.286 83.780,158.796 86.973 C 159.507 91.426,161.302 95.068,164.255 98.050 L 166.880 100.701 164.030 103.003 C 160.667 105.721,160.760 105.751,157.576 100.905 C 148.329 86.832,151.247 65.283,162.669 63.292 C 165.111 62.867,167.134 63.305,170.148 64.911 M240.334 148.212 C 245.821 161.185,251.604 175.040,253.184 179.000 C 254.765 182.960,258.274 190.700,260.982 196.200 C 271.023 216.589,273.176 226.674,273.189 253.400 C 273.199 274.409,272.525 276.680,265.900 277.957 C 254.929 280.071,255.531 278.782,255.228 300.800 L 255.000 317.400 253.513 320.400 C 246.783 333.978,219.576 350.144,198.000 353.385 C 173.182 357.112,157.087 351.442,146.690 335.309 C 145.217 333.022,145.125 333.152,149.300 331.625 C 158.466 328.275,161.578 324.950,161.102 319.015 C 160.646 313.339,159.179 311.943,128.196 287.723 C 112.649 275.571,111.560 273.648,112.146 259.400 C 112.765 244.337,115.337 233.635,122.094 218.000 C 123.853 213.930,128.135 203.477,131.611 194.772 C 141.080 171.053,143.787 165.242,148.914 157.635 C 153.809 150.371,154.762 146.590,154.484 135.537 L 154.296 128.075 155.448 127.490 L 156.600 126.905 164.200 133.468 C 181.385 148.308,189.358 148.917,208.000 136.813 C 219.017 129.660,229.506 123.889,230.279 124.556 C 230.322 124.593,234.847 135.238,240.334 148.212 " stroke="none" fill="#a451bd" fill-rule="evenodd"></path><path id="path1" d="" stroke="none" fill="#080404" fill-rule="evenodd"></path><path id="path2" d="" stroke="none" fill="#080404" fill-rule="evenodd"></path><path id="path3" d="" stroke="none" fill="#080404" fill-rule="evenodd"></path><path id="path4" d="" stroke="none" fill="#080404" fill-rule="evenodd"></path></g></svg>