<svg xmlns="http://www.w3.org/2000/svg" version="1.0" width="860.000000pt" height="1046.000000pt" viewBox="0 0 860.000000 1046.000000" preserveAspectRatio="xMidYMid meet">

<g transform="translate(0.000000,1046.000000) scale(0.100000,-0.100000)" fill="#a351bd" stroke="none">
<path d="M4020 10448 c-1194 -90 -2321 -804 -3075 -1948 -773 -1172 -1093 -2690 -880 -4177 206 -1435 898 -2696 1920 -3500 559 -439 1223 -717 1915 -800 178 -21 590 -23 760 -4 789 89 1483 396 2117 938 141 121 416 399 532 538 672 809 1100 1824 1240 2942 37 291 46 443 46 793 0 350 -9 502 -46 793 -124 989 -479 1915 -1021 2660 -887 1222 -2168 1867 -3508 1765z m675 -213 c1079 -125 2062 -749 2772 -1759 964 -1372 1241 -3291 722 -4996 -261 -854 -707 -1599 -1307 -2182 -466 -452 -1017 -780 -1598 -952 -543 -161 -1132 -185 -1689 -70 -1502 313 -2744 1607 -3230 3364 -219 793 -269 1664 -145 2498 151 1007 555 1933 1165 2667 707 852 1660 1368 2670 1445 155 11 475 4 640 -15z" fill="#a351bd"/>
<path d="M4135 9790 c-418 -21 -824 -126 -1223 -320 -253 -123 -449 -247 -677 -428 -161 -129 -487 -455 -617 -620 -566 -712 -923 -1593 -1032 -2547 -59 -510 -44 -1071 39 -1570 193 -1146 763 -2185 1562 -2847 961 -796 2176 -1007 3279 -568 1109 441 1992 1496 2378 2840 88 310 144 609 188 1005 17 159 17 803 0 980 -103 1051 -454 1955 -1048 2705 -118 148 -427 464 -569 581 -79 65 -304 231 -360 266 -366 226 -684 361 -1050 447 -283 66 -563 90 -870 76z m-276 -394 c18 -73 19 -72 -78 -91 l-88 -17 24 -116 c14 -65 27 -119 29 -121 2 -3 40 3 85 13 45 10 83 15 86 12 6 -6 22 -76 23 -97 0 -12 -20 -20 -82 -33 -44 -9 -83 -18 -85 -20 -5 -5 64 -327 72 -334 3 -3 42 2 87 11 45 9 85 14 89 10 4 -5 11 -31 15 -59 l6 -52 -48 -10 c-27 -6 -97 -20 -156 -33 -60 -12 -109 -20 -111 -18 -3 3 -178 825 -193 904 l-5 30 143 31 c79 18 150 32 159 33 12 1 20 -13 28 -43z m1171 7 c66 -34 91 -66 97 -128 6 -48 -23 -211 -38 -221 -5 -3 -36 1 -69 8 -68 14 -67 10 -45 113 18 90 7 120 -45 120 -30 0 -38 -5 -52 -35 -29 -58 -23 -109 22 -192 116 -212 132 -269 107 -392 -21 -103 -51 -161 -100 -197 -34 -25 -49 -29 -102 -29 -121 0 -214 77 -215 177 0 35 36 221 45 231 6 6 126 -21 131 -30 3 -5 -4 -51 -16 -104 -20 -88 -21 -96 -6 -119 21 -32 65 -33 92 -4 14 16 20 39 22 98 3 73 1 79 -38 151 -88 163 -103 199 -108 271 -9 127 47 262 121 294 55 24 136 19 197 -12z m661 -205 c89 -46 112 -82 106 -168 -3 -42 -16 -92 -37 -142 l-32 -76 -56 25 c-32 13 -60 28 -65 32 -4 4 7 42 25 84 26 63 30 82 22 104 -8 24 -15 28 -49 28 -39 0 -41 -1 -73 -65 -64 -127 -224 -506 -229 -542 -7 -46 9 -68 47 -68 35 0 52 20 96 115 20 44 38 81 39 83 5 6 125 -51 125 -60 0 -21 -78 -175 -106 -207 -15 -19 -48 -43 -72 -53 -56 -25 -108 -18 -180 23 -86 49 -110 125 -76 239 14 49 195 473 229 541 41 78 123 138 191 139 17 0 60 -15 95 -32z m-2502 -330 c80 -189 152 -362 162 -385 l18 -42 81 35 c94 39 96 40 103 17 3 -10 12 -34 20 -54 l16 -36 -150 -63 c-83 -34 -153 -60 -155 -57 -3 2 -87 200 -188 438 l-184 434 57 27 c31 15 61 27 66 28 6 0 75 -154 154 -342z m-527 36 c46 -32 141 -150 135 -167 -2 -6 -26 -28 -54 -49 l-52 -38 -46 65 c-64 90 -109 109 -140 61 -14 -21 -14 -28 -2 -58 17 -40 339 -496 369 -520 27 -24 61 -23 83 2 24 27 14 58 -47 146 l-51 73 -28 -20 -28 -19 -30 44 c-17 25 -31 48 -31 53 0 9 146 113 160 113 11 0 263 -350 264 -368 1 -7 -11 -20 -26 -29 -26 -17 -28 -16 -53 7 l-25 23 0 -38 c0 -50 -32 -99 -84 -130 -82 -48 -158 -21 -243 87 -102 130 -325 450 -348 500 -28 61 -33 134 -11 177 18 34 79 89 120 107 47 22 120 12 168 -22z m3675 -130 c93 -75 108 -155 51 -263 -37 -69 -324 -417 -405 -491 -29 -27 -69 -54 -89 -60 -116 -39 -254 59 -254 180 0 72 36 132 191 320 177 214 262 306 308 331 56 30 149 22 198 -17z m-4027 -599 c195 -152 364 -285 375 -295 19 -20 19 -20 -25 -65 -24 -25 -48 -45 -53 -45 -5 0 -47 32 -93 70 -47 39 -89 70 -93 70 -5 0 -25 -18 -45 -41 -32 -35 -35 -43 -24 -57 7 -9 41 -50 76 -91 34 -41 62 -77 62 -80 0 -4 -17 -24 -38 -45 l-39 -37 -244 297 c-134 164 -270 330 -301 368 -32 39 -58 74 -58 79 0 10 130 147 139 147 4 0 166 -124 361 -275z m4465 165 c22 -26 40 -52 42 -57 1 -4 -31 -35 -71 -68 -40 -33 -174 -146 -298 -252 -239 -204 -266 -236 -233 -273 24 -27 55 -25 98 4 19 13 157 128 307 255 149 127 276 231 283 231 13 -1 82 -84 82 -99 0 -5 -70 -69 -155 -141 -471 -400 -474 -402 -561 -408 -52 -4 -64 -1 -99 23 -49 34 -100 108 -101 149 -4 113 22 144 351 423 124 105 243 207 265 227 22 19 42 35 45 35 3 0 23 -22 45 -49z m-2213 -105 c240 -31 466 -102 688 -216 236 -120 411 -249 619 -456 l135 -134 -50 -23 c-27 -13 -67 -43 -89 -66 -67 -70 -64 -70 -158 23 -157 156 -361 304 -549 398 -54 27 -100 49 -103 49 -3 0 -5 -227 -5 -505 0 -318 -4 -505 -10 -505 -20 0 -84 -66 -101 -105 -23 -49 -24 -153 -4 -245 29 -130 13 -263 -41 -345 -22 -34 -70 -55 -123 -55 -34 0 -43 4 -54 28 -8 15 -17 51 -21 80 -4 29 -16 81 -26 115 -11 34 -20 80 -20 102 0 22 -11 64 -25 93 -14 30 -25 71 -25 91 0 33 -20 76 -42 92 -11 7 14 77 46 128 14 22 26 50 26 62 0 20 -3 20 -92 12 -117 -10 -223 -7 -313 8 -38 7 -79 12 -90 10 -48 -5 -106 -35 -139 -72 -30 -32 -42 -39 -74 -39 -114 0 -192 -56 -192 -137 0 -59 27 -96 86 -119 49 -19 63 -12 64 28 0 22 35 41 60 33 36 -11 87 -84 110 -155 20 -61 21 -76 11 -116 -7 -26 -26 -66 -44 -89 -18 -24 -44 -63 -58 -87 -23 -38 -34 -47 -72 -57 -61 -15 -101 -14 -143 4 -28 11 -41 27 -66 81 -39 84 -46 166 -24 292 30 175 18 253 -49 322 l-35 36 -2 511 -3 512 -90 -43 c-198 -94 -380 -223 -556 -393 l-116 -113 -64 59 c-35 32 -81 67 -102 78 l-39 19 103 108 c371 389 873 650 1354 704 129 15 384 13 507 -3z m-2982 -360 c6 -7 -8 -38 -40 -87 l-48 -76 91 -59 c50 -32 96 -62 104 -66 8 -5 27 14 59 63 26 38 52 70 57 70 15 0 87 -51 87 -61 0 -4 -18 -36 -40 -71 -22 -35 -41 -67 -41 -71 0 -5 65 -50 144 -101 l143 -93 48 74 c27 40 52 73 57 73 15 0 89 -50 89 -60 0 -5 -38 -68 -85 -141 -83 -127 -86 -130 -108 -116 -12 7 -188 121 -392 252 -203 131 -374 241 -378 245 -11 10 -2 26 90 166 l75 114 39 -22 c22 -12 44 -27 49 -33z m5667 -127 c40 -68 84 -142 98 -165 l25 -41 -51 -32 c-28 -17 -52 -30 -53 -28 -2 2 -13 21 -27 42 -13 22 -27 44 -30 49 -4 5 -162 -84 -352 -197 -190 -113 -352 -209 -360 -212 -10 -3 -26 14 -50 53 -32 52 -34 58 -19 69 10 6 170 102 357 214 187 111 341 204 343 205 2 2 -8 21 -22 44 -14 22 -27 45 -28 51 -3 8 75 67 92 69 3 1 38 -54 77 -121z m-4656 -390 c19 -6 70 -43 114 -83 224 -201 497 -382 760 -505 92 -43 106 -53 124 -89 26 -49 27 -113 5 -230 -31 -162 -2 -319 73 -402 42 -47 95 -63 176 -56 31 3 57 4 57 4 -16 -70 -40 -131 -51 -129 -8 2 -84 42 -170 89 l-156 85 5 48 c6 61 -10 107 -54 158 l-35 41 35 46 c115 149 58 281 -174 407 -197 106 -373 236 -539 396 -85 82 -111 97 -111 65 0 -65 190 -244 428 -402 85 -57 92 -64 92 -94 -1 -18 -11 -44 -23 -60 l-23 -28 -90 57 c-281 176 -469 357 -525 504 -24 62 -25 152 -3 174 18 19 39 20 85 4z m3494 -2 c16 -11 20 -26 20 -73 0 -170 -200 -391 -555 -613 l-81 -50 -24 27 c-15 17 -24 41 -25 61 0 29 7 36 73 79 223 143 426 327 452 411 13 42 -26 24 -104 -51 -185 -176 -348 -297 -544 -403 -59 -32 -125 -73 -147 -91 -54 -47 -94 -131 -88 -186 6 -54 31 -107 68 -143 l28 -29 -30 -34 c-49 -55 -71 -116 -65 -172 l6 -48 -139 -75 c-76 -42 -143 -76 -148 -76 -5 0 -13 16 -16 36 -4 19 -10 42 -13 50 -4 10 3 14 28 14 98 0 161 48 201 154 19 50 23 80 23 171 0 61 -6 148 -14 195 -26 159 -5 193 172 278 255 122 535 312 738 499 82 77 143 99 184 69z m238 -386 c231 -400 375 -853 432 -1360 17 -157 20 -550 5 -715 -57 -614 -279 -1221 -613 -1675 -365 -495 -839 -826 -1368 -955 -968 -235 -1974 270 -2528 1269 -548 990 -568 2286 -50 3296 77 150 207 361 227 368 6 2 12 -3 12 -10 0 -8 11 -37 25 -64 31 -60 31 -60 0 -68 -14 -4 -32 -18 -41 -31 -21 -33 -13 -73 27 -139 l32 -50 -25 -46 c-73 -131 -90 -165 -138 -275 -135 -311 -220 -655 -251 -1014 -14 -174 -7 -536 16 -701 72 -533 266 -1020 569 -1428 103 -138 342 -377 479 -479 111 -83 280 -184 380 -227 l57 -26 0 311 0 312 88 -7 c184 -14 401 -25 490 -26 l92 0 0 -143 c0 -131 -2 -145 -20 -162 -33 -30 -45 -85 -27 -128 38 -90 158 -102 213 -20 17 25 19 52 22 239 l4 210 231 12 c128 7 267 15 310 19 l77 6 0 -307 c0 -168 3 -306 6 -306 17 0 222 113 309 170 258 171 525 446 702 725 230 363 372 754 445 1225 30 198 33 683 5 885 -57 407 -186 801 -368 1127 l-32 58 32 59 c17 32 31 71 31 85 0 29 -40 76 -65 76 -20 0 -20 -2 15 72 16 34 30 70 30 78 0 18 94 -120 163 -240z m-3581 -163 c75 -60 233 -169 352 -242 21 -12 49 -122 34 -131 -4 -3 -8 -14 -8 -25 0 -24 2 -24 -71 6 -167 67 -385 259 -507 444 -70 106 -77 138 -34 143 22 3 37 -7 84 -58 32 -34 99 -95 150 -137z m3372 182 c11 -10 -41 -104 -111 -198 -117 -156 -290 -300 -446 -371 -37 -16 -71 -30 -76 -30 -14 0 -21 54 -14 109 l6 50 109 68 c162 100 271 186 378 294 80 81 99 95 120 91 14 -2 29 -8 34 -13z m-4576 -194 l7 -159 167 -51 c93 -27 168 -52 168 -55 0 -3 -75 -31 -168 -63 l-167 -57 3 -183 c2 -148 0 -179 -10 -166 -7 8 -56 73 -108 142 -52 70 -99 127 -105 127 -5 0 -82 -25 -169 -55 -87 -31 -160 -54 -162 -52 -2 2 31 52 73 113 42 60 87 125 100 146 l24 36 -105 139 c-58 76 -102 139 -97 141 5 2 77 -17 159 -42 83 -26 157 -46 165 -46 8 0 59 64 113 143 70 100 100 136 102 122 1 -11 6 -92 10 -180z m5689 49 l98 -141 160 48 c88 27 166 49 173 49 7 0 -35 -63 -94 -140 -58 -77 -104 -146 -101 -153 3 -6 48 -73 100 -147 52 -74 94 -136 92 -138 -1 -1 -74 22 -163 53 -88 30 -164 55 -169 55 -5 0 -56 -62 -113 -137 l-105 -137 -5 178 -5 179 -162 56 c-90 31 -163 58 -163 61 0 3 75 28 168 56 l167 50 3 178 c1 109 6 176 12 174 5 -2 54 -66 107 -144z m-2937 -54 c49 -7 120 -9 168 -5 l83 6 -17 -33 c-10 -18 -23 -51 -29 -73 -11 -36 -15 -40 -49 -43 -28 -2 -57 7 -115 37 -70 36 -88 41 -160 43 -67 3 -83 0 -98 -15 -17 -18 -17 -19 6 -38 28 -23 62 -24 100 -4 35 18 64 10 146 -36 52 -29 67 -33 129 -32 79 1 86 -3 86 -60 0 -21 11 -59 25 -85 46 -87 57 -83 -206 -80 l-232 3 -12 41 c-7 23 -26 67 -43 98 -16 31 -28 56 -26 56 3 0 15 -7 28 -16 36 -23 41 0 6 29 -16 14 -54 31 -84 38 -48 10 -61 10 -101 -5 -25 -10 -51 -26 -58 -36 -17 -24 -35 -13 -43 26 -15 75 89 119 178 75 58 -28 60 -27 53 13 -9 46 8 74 58 97 44 21 49 21 207 -1z m-890 -186 c53 -48 77 -111 61 -164 -16 -53 -70 -110 -105 -110 -79 0 -160 95 -173 200 -10 88 2 89 58 6 39 -58 56 -76 74 -76 38 0 37 27 -2 78 -36 48 -73 122 -73 148 0 20 109 -36 160 -82z m1945 57 c-20 -56 -33 -80 -71 -128 -39 -48 -39 -47 -19 -67 24 -23 42 -10 98 73 l52 76 3 -45 c7 -89 -35 -174 -106 -217 -67 -41 -115 -25 -153 50 -41 79 -23 148 53 210 39 31 132 85 150 87 4 0 1 -18 -7 -39z m-2490 -209 c75 -49 206 -117 247 -127 25 -6 38 -39 38 -99 0 -26 -30 -17 -175 53 -220 107 -335 221 -335 332 l0 31 78 -72 c42 -39 109 -92 147 -118z m3110 151 c-15 -83 -71 -158 -170 -229 -64 -45 -267 -147 -319 -160 l-29 -7 8 49 c4 27 9 52 11 55 2 3 25 14 51 24 119 44 301 164 393 259 24 25 48 46 53 46 5 0 6 -17 2 -37z m-566 -306 c-18 -96 -87 -188 -163 -217 -42 -16 -106 -13 -113 5 -9 24 26 104 65 147 26 28 42 38 66 38 39 0 105 30 130 59 11 11 20 20 22 19 1 -2 -2 -25 -7 -51z m-2604 3 c54 -37 153 -86 250 -126 l79 -32 16 -63 c8 -35 18 -69 22 -74 45 -72 -218 49 -332 152 -64 58 -100 115 -100 158 0 29 0 29 65 -15z m529 -27 c34 -4 54 -14 76 -36 38 -39 72 -109 68 -139 -2 -19 -10 -24 -45 -26 -51 -4 -107 23 -157 74 -36 38 -76 126 -76 169 l0 25 44 -31 c28 -20 61 -33 90 -36z m2540 40 c-27 -112 -137 -211 -334 -300 -107 -48 -112 -46 -86 35 8 26 16 57 18 70 2 19 17 29 75 52 90 35 224 103 278 140 50 36 57 37 49 3z m-1253 -58 c9 -27 20 -72 24 -100 4 -27 22 -95 41 -151 40 -118 41 -128 14 -121 -16 4 -18 2 -11 -11 5 -10 19 -25 30 -34 30 -25 27 -48 -6 -48 -25 0 -26 0 -8 -20 10 -11 24 -20 32 -20 10 0 13 -18 13 -71 l0 -72 -45 6 -45 7 16 -26 c10 -14 30 -28 47 -31 28 -6 29 -7 25 -55 -6 -61 -15 -70 -56 -59 -18 5 -32 6 -32 2 0 -13 41 -51 55 -51 8 0 15 -4 15 -8 0 -11 -41 -132 -45 -132 -1 0 -19 7 -38 15 -111 46 -245 -16 -298 -139 -21 -48 -33 -151 -40 -321 -1 -27 -7 24 -14 115 -14 190 -32 240 -106 304 -53 45 -97 59 -165 54 -38 -3 -55 -1 -58 9 -3 8 2 13 13 13 10 0 25 8 33 18 31 36 29 40 -16 35 -51 -6 -69 11 -37 33 11 8 25 24 31 34 9 17 7 18 -24 13 -31 -5 -33 -3 -40 27 -10 55 -7 100 11 127 17 25 17 26 -7 18 l-23 -7 6 84 c9 119 16 148 36 148 9 0 22 9 29 20 11 18 10 20 -13 20 -30 0 -29 -6 -6 61 26 76 66 154 116 224 23 33 46 76 50 95 4 19 9 38 12 43 2 4 109 6 236 5 l232 -3 16 -50z m-1271 -239 c30 -9 70 -16 89 -16 30 0 66 -22 224 -137 l187 -137 0 -75 c1 -99 14 -205 41 -314 12 -48 18 -91 14 -95 -11 -12 -168 -7 -207 7 -34 11 -105 77 -95 87 2 3 44 1 93 -4 94 -10 124 -1 111 32 -8 20 -11 21 -127 35 -119 13 -181 34 -225 76 -26 24 -35 41 -35 65 0 27 3 31 18 25 41 -18 164 -55 180 -55 10 0 23 5 30 12 21 21 -6 44 -75 63 -193 50 -319 157 -339 287 l-7 43 53 -48 c70 -63 245 -150 272 -136 22 12 21 38 -2 50 -8 5 -51 25 -94 46 -131 62 -230 169 -249 271 l-7 33 49 -50 c36 -36 62 -53 101 -65z m2047 49 c-36 -104 -132 -194 -273 -254 -79 -34 -97 -53 -73 -77 15 -14 22 -13 86 14 86 37 142 72 199 124 l44 41 0 -30 c0 -16 -14 -58 -31 -92 -49 -97 -155 -167 -323 -211 -54 -14 -61 -18 -61 -40 0 -23 4 -25 40 -23 23 1 68 11 100 23 84 31 90 30 88 -4 -6 -78 -134 -134 -342 -149 -42 -3 -65 -32 -39 -51 12 -9 39 -10 104 -4 48 5 89 7 91 4 11 -11 -33 -57 -72 -76 -45 -22 -185 -40 -185 -24 0 5 11 43 24 85 33 101 49 224 44 343 l-3 99 160 117 c155 114 161 118 220 122 75 6 133 35 177 87 38 46 46 39 25 -24z m-2392 -88 c39 -19 91 -42 118 -52 44 -17 47 -20 47 -54 0 -20 9 -55 20 -78 10 -24 16 -43 12 -43 -4 0 -53 22 -109 49 -146 71 -223 147 -223 221 l0 32 33 -20 c17 -11 64 -36 102 -55z m2733 29 c-7 -57 -39 -98 -120 -152 -52 -35 -195 -104 -215 -104 -2 0 6 18 17 39 10 22 22 57 26 79 6 39 7 40 103 81 53 23 116 55 141 71 25 16 47 29 49 29 2 1 1 -19 -1 -43z m-2603 -287 c83 -34 167 -73 187 -88 34 -24 37 -30 36 -74 l-1 -49 -51 7 c-160 21 -287 70 -328 128 -34 47 -38 158 -5 143 6 -3 80 -33 162 -67z m2523 18 c5 -80 -39 -134 -146 -176 -43 -17 -208 -51 -247 -51 -5 0 -10 22 -11 48 -1 44 2 49 37 74 22 15 92 48 156 74 65 26 134 55 153 65 19 10 40 17 45 15 6 -1 11 -23 13 -49z m-4423 -33 c231 -14 420 -26 421 -27 6 -6 -17 -253 -26 -286 -20 -75 -85 -107 -209 -104 -121 3 -195 39 -207 103 -8 36 -44 44 -44 9 0 -11 -13 -33 -28 -49 -37 -37 -110 -46 -239 -32 -117 14 -179 41 -199 88 -15 36 -18 153 -8 266 l7 67 56 -5 c31 -2 245 -16 476 -30z m2015 -244 c36 -5 81 -10 101 -10 25 0 42 -7 58 -24 13 -13 45 -34 72 -46 48 -20 55 -29 73 -87 l7 -23 -128 0 c-156 1 -201 9 -255 46 -39 27 -98 97 -98 115 0 13 73 48 90 44 8 -2 44 -9 80 -15z m2258 -6 c12 -8 22 -20 22 -27 0 -20 -58 -85 -106 -118 -44 -30 -46 -30 -211 -36 -161 -6 -166 -6 -159 13 5 10 13 31 18 47 7 19 24 34 58 48 26 11 58 32 71 45 17 18 33 24 68 24 25 1 75 7 111 14 69 14 92 12 128 -10z m2432 -73 l0 -70 -42 -5 c-24 -3 -78 -8 -120 -12 l-78 -6 0 -58 c0 -66 -5 -63 115 -75 130 -13 125 -10 125 -71 l0 -54 -32 1 c-18 0 -233 26 -478 57 l-445 57 -3 106 -3 105 443 43 c244 23 450 44 458 45 58 13 60 11 60 -63z m-3831 -165 c52 -27 98 -90 110 -148 9 -48 41 -528 41 -620 0 -35 -2 -38 -29 -38 -17 0 -33 6 -38 13 -4 6 -8 129 -8 272 0 257 0 260 -21 263 -12 2 -24 -3 -27 -11 -3 -8 -9 -114 -13 -236 -4 -121 -10 -221 -14 -221 -17 0 -58 42 -70 70 -11 26 -10 39 5 85 24 77 25 144 2 159 -23 14 -42 -9 -51 -64 -8 -49 -101 -190 -191 -288 -86 -93 -133 -118 -174 -93 -11 7 -3 20 35 58 99 99 256 347 325 512 27 66 29 75 16 89 -20 19 -47 9 -55 -21 -3 -12 -31 -74 -63 -137 -90 -180 -238 -389 -303 -429 -39 -24 -86 -28 -86 -7 0 18 64 99 156 200 87 93 133 182 204 386 27 79 60 154 72 168 46 49 123 66 177 38z m521 -2 c54 -22 69 -47 119 -194 69 -204 115 -291 212 -400 113 -128 149 -175 149 -194 0 -24 -51 -20 -88 8 -75 55 -223 268 -303 436 -28 58 -56 116 -63 130 -6 14 -20 25 -31 25 -17 0 -20 -7 -19 -37 3 -86 206 -429 330 -556 60 -62 61 -64 38 -74 -52 -24 -101 11 -218 156 -80 97 -146 212 -146 251 0 27 -24 49 -45 41 -20 -7 -20 -86 0 -152 8 -27 15 -60 15 -72 0 -26 -64 -97 -78 -88 -5 3 -12 106 -15 228 -6 191 -9 225 -24 235 -13 10 -20 10 -31 1 -12 -10 -13 -50 -7 -258 8 -273 6 -290 -45 -290 -36 0 -35 -39 -11 351 20 320 27 356 74 408 56 61 113 74 187 45z m-990 -29 c0 -14 0 -28 1 -32 2 -17 -130 -42 -221 -42 -72 0 -105 4 -137 18 -40 18 -61 50 -48 71 4 6 82 10 206 10 l199 0 0 -25z m1740 2 c0 -52 -66 -77 -194 -76 -109 1 -209 25 -214 52 -9 46 -4 47 208 47 l200 0 0 -23z m-1574 -17 l43 0 -11 -31 c-9 -27 -13 -29 -42 -23 -54 11 -74 22 -87 45 -11 21 -10 22 21 15 18 -3 52 -6 76 -6z m1094 -10 c-13 -24 -35 -36 -80 -45 -32 -6 -36 -4 -47 24 l-11 30 57 4 c31 2 64 4 74 5 15 2 16 -1 7 -18z m-3345 -60 c129 -55 153 -240 44 -323 -56 -42 -129 -55 -422 -77 -300 -22 -358 -20 -423 20 -70 44 -102 149 -70 233 33 88 102 123 268 138 444 40 529 41 603 9z m2222 -45 l32 -6 -27 -75 c-25 -69 -29 -74 -61 -80 -47 -9 -163 3 -211 22 -75 30 -109 108 -52 119 76 16 151 36 187 48 36 13 43 13 70 -3 17 -10 44 -21 62 -25z m1332 -11 c41 -8 76 -16 78 -18 2 -2 1 -15 -2 -29 -9 -32 -51 -71 -95 -86 -51 -17 -192 -26 -216 -13 -17 9 -73 138 -63 146 2 1 25 10 51 20 26 10 50 21 53 26 3 5 31 0 63 -11 31 -11 90 -27 131 -35z m2105 -174 c39 -6 72 -12 74 -14 2 -3 1 -34 -3 -70 l-7 -66 -94 6 c-104 8 -124 0 -124 -46 0 -53 17 -58 331 -100 161 -22 308 -40 327 -40 41 0 72 24 72 55 0 38 -32 55 -130 70 -51 8 -94 16 -97 19 -10 10 9 136 20 136 30 0 185 -29 212 -40 87 -33 133 -109 122 -200 -9 -78 -41 -126 -105 -157 -50 -25 -59 -26 -155 -20 -56 4 -206 22 -333 40 -332 48 -385 78 -392 222 -3 58 1 78 20 114 46 89 113 112 262 91z m-3494 -47 c0 -12 -39 -73 -73 -117 -27 -34 -32 -37 -38 -20 -9 23 -11 107 -3 128 5 12 20 16 60 16 30 0 54 -3 54 -7z m1288 -62 c4 -92 -2 -102 -39 -60 -16 19 -41 56 -55 82 l-25 48 58 -3 58 -3 3 -64z m-3315 -209 l15 -64 -42 -17 c-22 -10 -103 -42 -178 -71 -197 -76 -191 -84 56 -75 218 8 200 14 212 -75 l6 -49 -313 6 -314 5 -165 -35 c-90 -20 -166 -34 -168 -32 -6 6 -31 129 -27 133 2 2 81 21 177 42 172 38 175 38 448 168 151 72 276 130 277 129 1 -1 8 -31 16 -65z m2286 -106 c8 -9 11 -51 9 -122 -3 -103 -4 -109 -25 -112 -35 -5 -46 29 -41 135 3 68 8 97 18 104 20 12 26 11 39 -5z m695 -2 c12 -12 16 -38 16 -113 0 -99 -7 -121 -41 -121 -25 0 -29 20 -29 130 0 84 3 101 18 109 9 6 18 11 19 11 1 0 9 -7 17 -16z m-566 -135 c2 -69 0 -86 -14 -96 -12 -9 -22 -9 -35 -2 -17 8 -19 22 -19 109 l0 100 33 -13 32 -13 3 -85z m458 -86 c-8 -20 -44 -16 -56 6 -5 11 -10 49 -10 85 0 64 1 67 33 86 l32 20 3 -92 c1 -50 1 -97 -2 -105z m-355 124 c14 -4 42 -2 62 4 25 7 49 7 76 -1 46 -12 101 5 120 37 8 14 10 -8 11 -89 l0 -108 -175 0 -175 0 0 107 0 107 28 -26 c15 -14 39 -28 53 -31z m587 -67 c-3 -62 -4 -65 -28 -65 -25 0 -25 1 -28 95 l-3 95 31 -30 c29 -28 31 -33 28 -95z m-930 23 c-3 -86 -3 -88 -28 -88 -24 0 -25 3 -28 64 -3 54 0 67 19 87 12 13 26 24 31 24 5 0 7 -39 6 -87z m3520 -57 c233 -57 425 -105 427 -107 2 -2 -4 -34 -13 -72 -12 -52 -19 -66 -31 -62 -9 2 -200 49 -426 104 -540 132 -489 116 -481 154 3 17 11 48 16 68 10 37 10 37 48 28 20 -5 227 -56 460 -113z m-3827 88 c35 -43 119 -57 173 -29 15 8 30 15 32 15 2 0 4 -29 4 -65 l0 -64 -107 -3 c-108 -3 -108 -3 -108 -28 l0 -25 122 -3 122 -3 3 -47 c3 -45 4 -47 33 -47 29 0 30 2 33 48 l3 47 55 0 54 0 0 -52 c0 -64 10 -81 41 -76 21 3 25 11 35 68 l12 65 1 -121 1 -122 -35 -6 c-45 -9 -71 6 -90 51 -14 33 -17 35 -47 28 -80 -16 -116 -17 -146 -1 -42 22 -45 30 -27 66 13 25 14 35 4 46 -17 21 -35 17 -53 -11 -11 -17 -26 -25 -46 -25 -24 0 -29 5 -32 28 -3 28 -22 34 -60 17 -17 -7 -18 3 -18 122 0 71 3 133 7 136 10 11 19 8 34 -9z m1529 -124 c0 -71 -3 -130 -6 -130 -3 0 -14 5 -25 11 -24 13 -49 -4 -49 -32 0 -30 -53 -25 -74 6 -19 28 -38 32 -56 10 -9 -11 -8 -21 7 -45 l18 -32 -29 -25 c-25 -21 -36 -24 -80 -20 -28 3 -65 9 -83 12 -29 7 -33 4 -47 -28 -18 -44 -48 -61 -92 -52 l-34 6 0 119 c0 73 4 120 10 120 6 0 10 -27 10 -60 0 -65 17 -88 52 -69 14 8 18 22 18 69 l0 60 55 0 55 0 0 -37 c0 -49 12 -66 41 -61 21 3 24 9 27 51 l3 47 118 0 c124 0 148 8 130 42 -9 16 -23 18 -119 18 l-110 0 0 70 c0 39 2 70 5 70 2 0 19 -9 37 -20 46 -28 106 -26 149 4 66 47 69 42 69 -104z m-2215 -79 c146 -47 366 -113 473 -141 41 -11 42 -11 42 -55 0 -32 -4 -45 -14 -45 -26 0 -510 80 -548 90 -21 6 -50 26 -68 47 -33 37 -80 126 -80 152 0 16 -13 19 195 -48z m3085 55 c0 -2 -7 -22 -15 -45 -18 -52 -69 -127 -100 -147 -21 -13 -521 -103 -577 -104 -15 0 -18 9 -18 45 0 44 0 44 43 55 72 19 437 128 547 165 105 34 120 38 120 31z m-1748 -137 c4 -68 8 -84 29 -104 38 -37 88 -37 124 0 22 22 25 32 25 105 l0 80 45 0 45 0 0 -110 c0 -135 -13 -174 -66 -196 -59 -25 -125 -28 -187 -10 -82 24 -91 43 -94 184 -2 63 0 118 3 123 3 5 20 9 38 9 l33 0 5 -81z m2763 -14 c120 -32 205 -101 205 -167 0 -42 19 -43 55 -4 27 30 40 36 72 36 44 0 51 -2 230 -66 68 -24 134 -44 148 -44 36 0 39 -18 14 -84 l-21 -58 -43 7 c-24 3 -105 28 -179 55 -75 28 -147 50 -161 50 -28 0 -71 -36 -79 -66 -6 -19 10 -27 196 -94 112 -40 206 -76 211 -80 9 -7 -34 -130 -46 -130 -5 0 -151 52 -325 116 -174 64 -366 133 -427 155 -60 22 -117 44 -125 49 -13 8 -11 20 14 92 55 159 95 220 152 238 41 12 43 12 109 -5z m-1920 -294 c-11 -10 -220 -28 -483 -42 -261 -13 -594 -4 -872 24 l-115 12 -3 126 -3 126 33 -5 c20 -3 50 -20 75 -43 50 -46 76 -53 154 -46 51 4 59 3 64 -13 3 -11 22 -29 41 -41 30 -18 45 -21 93 -16 55 6 59 5 86 -23 77 -80 257 -80 356 0 33 26 41 28 91 23 61 -6 105 10 133 49 14 20 22 22 80 20 52 -3 72 0 105 19 22 13 47 33 55 46 11 16 25 23 48 23 17 0 39 5 47 10 13 8 15 -8 18 -117 1 -69 0 -128 -3 -132z m-1957 129 c309 -50 289 -45 295 -76 5 -26 5 -26 -47 -20 -28 4 -157 24 -286 44 l-235 38 -3 27 c-2 19 1 27 13 27 8 0 127 -18 263 -40z m2722 23 c0 -10 -4 -23 -8 -29 -6 -9 -508 -94 -554 -94 -20 0 -23 17 -9 39 6 10 91 28 263 57 299 49 308 50 308 27z m-2600 -164 c853 -136 1375 -134 2260 10 162 26 296 47 298 46 4 -3 -42 -77 -95 -155 -23 -34 -45 -78 -48 -98 -11 -66 -42 -122 -78 -137 -38 -16 -363 -58 -632 -82 -241 -21 -915 -24 -1145 -5 -389 33 -678 72 -717 98 -28 18 -48 59 -58 121 -4 24 -18 60 -33 80 -78 113 -112 166 -112 174 0 5 10 7 23 4 12 -3 164 -28 337 -56z m-1283 -18 c54 -39 95 -123 95 -191 0 -78 -31 -117 -140 -174 -50 -25 -95 -46 -102 -46 -10 0 -60 94 -60 115 0 6 34 27 75 48 88 43 108 71 81 112 -19 29 -49 32 -100 11 -45 -19 -90 -77 -117 -150 -39 -107 -90 -195 -139 -239 -84 -76 -214 -125 -293 -111 -86 14 -163 129 -155 230 7 81 38 114 165 175 58 28 106 49 108 47 9 -10 55 -109 55 -118 0 -6 -38 -28 -84 -50 -95 -43 -122 -72 -107 -113 16 -40 52 -44 117 -12 67 33 100 75 144 187 18 46 42 99 53 118 63 109 192 189 308 190 46 0 63 -5 96 -29z m4754 -127 l48 -27 -40 -78 c-21 -43 -39 -81 -39 -83 0 -6 200 -116 210 -116 3 0 22 32 40 71 19 39 38 73 42 75 4 3 30 -7 58 -21 l51 -26 -41 -77 c-37 -72 -39 -78 -23 -90 21 -15 279 -152 287 -152 2 0 24 36 48 79 l43 79 30 -15 c17 -8 40 -21 52 -29 l22 -14 -56 -108 c-32 -59 -66 -123 -78 -143 l-20 -37 -130 70 c-72 38 -191 101 -265 140 -207 110 -424 226 -437 235 -9 6 8 47 64 151 42 78 79 142 81 142 2 0 26 -12 53 -26z m-4502 -348 c15 -8 43 -32 61 -52 93 -106 77 -212 -48 -307 -52 -40 -94 -67 -105 -67 -6 0 -79 111 -75 114 2 2 31 22 65 45 86 57 102 92 62 132 -15 15 -28 19 -46 14 -30 -7 -519 -337 -545 -367 -26 -29 -23 -65 7 -84 31 -20 66 -10 134 40 89 63 86 63 126 4 19 -29 35 -56 35 -60 0 -4 -26 -25 -57 -46 -160 -108 -244 -117 -326 -36 -98 98 -91 217 17 312 57 49 461 320 518 347 61 28 134 33 177 11z m4758 -425 c253 -200 241 -183 185 -250 l-29 -33 -302 238 c-392 310 -350 279 -357 259 -5 -13 66 -90 285 -309 l292 -292 -36 -47 c-20 -26 -39 -47 -42 -47 -3 0 -97 56 -207 124 -444 274 -498 306 -507 300 -22 -13 -42 3 449 -383 100 -79 182 -147 182 -151 0 -4 -15 -23 -32 -44 l-33 -37 -372 293 c-205 161 -372 296 -372 299 -1 11 131 174 139 172 4 -1 135 -83 291 -182 223 -141 286 -177 297 -168 11 9 0 24 -60 81 -40 38 -151 146 -246 240 -198 194 -187 163 -95 278 l55 67 141 -112 c78 -62 246 -195 374 -296z m-4414 -4 c44 -19 104 -88 117 -136 14 -53 -2 -116 -44 -174 -54 -76 -439 -442 -491 -467 -100 -49 -185 -29 -252 59 -56 72 -53 142 8 234 44 67 438 441 496 471 54 28 117 33 166 13z m3707 -543 l335 -335 -50 -45 c-27 -24 -52 -44 -56 -44 -4 0 -43 39 -88 86 l-82 86 -44 -37 c-25 -20 -45 -39 -45 -41 0 -3 27 -47 60 -98 33 -51 60 -98 60 -104 0 -11 -79 -77 -84 -71 -10 11 -498 791 -502 803 -5 13 130 134 151 136 6 0 161 -151 345 -336z m-3364 215 l55 -40 -34 -47 c-168 -232 -412 -591 -420 -618 -9 -28 -7 -37 8 -54 23 -25 45 -25 78 0 14 11 119 154 233 318 114 163 214 305 222 314 13 16 18 14 68 -19 30 -20 54 -40 54 -45 0 -20 -417 -604 -467 -654 -85 -86 -153 -93 -250 -28 -95 65 -113 142 -60 256 22 48 443 658 453 658 3 0 30 -18 60 -41z m613 -348 c52 -22 96 -42 98 -44 3 -4 -35 -97 -43 -106 -2 -2 -26 6 -55 18 -28 12 -53 20 -56 17 -8 -8 -323 -737 -323 -748 0 -13 -32 -5 -94 23 -27 12 -45 26 -43 32 3 7 74 170 157 362 84 193 156 360 161 373 8 21 4 25 -46 48 -47 20 -54 27 -46 42 5 9 16 34 24 54 l16 38 78 -34 c43 -19 120 -52 172 -75z m1836 6 c10 -26 16 -49 14 -51 -2 -1 -41 -17 -85 -35 l-82 -32 45 -112 c25 -62 46 -113 47 -115 2 -1 36 11 76 28 40 16 77 30 82 30 8 0 48 -82 48 -100 0 -5 -33 -21 -72 -35 -40 -15 -77 -31 -81 -35 -5 -4 30 -103 77 -221 47 -117 83 -216 78 -219 -18 -16 -116 -50 -123 -43 -12 12 -342 846 -343 866 -1 15 29 31 144 77 80 32 148 55 151 52 4 -4 14 -28 24 -55z m-1392 -113 c61 -21 102 -60 118 -112 10 -36 9 -59 -6 -148 -17 -98 -19 -105 -39 -100 -12 2 -42 8 -68 11 -54 8 -53 5 -36 103 14 83 6 120 -26 128 -57 14 -86 -22 -86 -105 0 -50 16 -88 98 -226 42 -72 72 -163 72 -223 0 -18 -7 -64 -16 -101 -32 -143 -108 -210 -223 -197 -100 12 -172 72 -186 155 -5 31 27 236 39 248 2 2 34 -2 71 -8 64 -12 67 -14 62 -38 -36 -185 -34 -207 18 -226 23 -8 30 -6 50 17 55 64 39 171 -45 303 -68 107 -90 170 -90 254 0 131 52 239 130 270 38 15 111 13 163 -5z m870 -8 c44 -18 81 -64 106 -130 23 -61 111 -560 111 -627 0 -121 -59 -196 -168 -214 -93 -15 -170 32 -212 130 -16 37 -42 168 -100 509 -24 142 -17 217 26 273 49 65 159 92 237 59z" fill="#a351bd"/>
<path d="M6203 8674 c-21 -9 -418 -494 -425 -520 -5 -20 -1 -32 17 -50 13 -13 28 -24 32 -24 31 0 100 77 419 465 44 55 52 87 25 114 -20 20 -42 25 -68 15z" fill="#a351bd"/>
<path d="M1962 8268 c-7 -7 34 -58 146 -180 l156 -169 25 33 c14 18 26 36 26 40 0 3 -59 55 -130 115 -203 168 -210 174 -223 161z" fill="#a351bd"/>
<path d="M4375 6250 c20 -23 45 -26 63 -8 21 21 13 28 -35 28 -45 0 -46 0 -28 -20z" fill="#a351bd"/>
<path d="M4110 6099 c0 -9 35 -39 47 -39 9 0 43 32 43 41 0 2 -20 4 -45 4 -25 0 -45 -3 -45 -6z" fill="#a351bd"/>
<path d="M4543 6073 c25 -25 46 -24 64 5 10 17 6 18 -38 18 l-50 0 24 -23z" fill="#a351bd"/>
<path d="M4520 5879 c0 -9 35 -39 47 -39 9 0 43 32 43 41 0 2 -20 4 -45 4 -25 0 -45 -3 -45 -6z" fill="#a351bd"/>
<path d="M4067 5864 c7 -20 50 -29 68 -14 25 21 17 28 -29 28 -35 0 -43 -3 -39 -14z" fill="#a351bd"/>
<path d="M4216 5865 c8 -21 51 -30 69 -15 26 21 17 30 -30 30 -35 0 -43 -3 -39 -15z" fill="#a351bd"/>
<path d="M4376 5859 c22 -24 46 -24 68 0 17 19 16 19 -34 19 -51 1 -52 0 -34 -19z" fill="#a351bd"/>
<path d="M3970 5770 c6 -12 21 -20 35 -20 14 0 29 8 35 20 10 19 8 20 -35 20 -43 0 -45 -1 -35 -20z" fill="#a351bd"/>
<path d="M4110 5786 c0 -3 7 -12 16 -20 21 -22 51 -20 64 4 10 19 8 20 -35 20 -25 0 -45 -2 -45 -4z" fill="#a351bd"/>
<path d="M4300 5781 c0 -32 71 -38 84 -6 4 12 -4 15 -39 15 -25 0 -45 -4 -45 -9z" fill="#a351bd"/>
<path d="M4490 5781 c0 -32 64 -41 80 -12 9 18 6 19 -35 19 -25 0 -45 -3 -45 -7z" fill="#a351bd"/>
<path d="M4170 5681 c25 -47 65 -57 96 -24 32 34 30 43 -5 33 -16 -4 -46 -5 -65 0 -32 7 -35 6 -26 -9z" fill="#a351bd"/>
<path d="M4377 5685 c16 -27 38 -45 58 -45 20 0 42 18 58 45 3 6 -19 10 -58 10 -39 0 -61 -4 -58 -10z" fill="#a351bd"/>
<path d="M4573 5686 c2 -5 15 -19 30 -30 l27 -20 27 20 c44 33 38 41 -27 41 -37 0 -59 -4 -57 -11z" fill="#a351bd"/>
<path d="M3932 5667 c5 -10 20 -23 34 -29 21 -10 28 -8 49 12 14 13 25 26 25 29 0 4 -27 6 -59 6 -54 0 -58 -1 -49 -18z" fill="#a351bd"/>
<path d="M4030 5609 c0 -12 46 -59 58 -59 14 0 62 40 62 52 0 6 -13 8 -34 4 -18 -4 -45 -2 -60 4 -17 6 -26 6 -26 -1z" fill="#a351bd"/>
<path d="M4260 5599 c0 -13 48 -49 67 -49 18 0 41 18 56 45 3 6 -19 10 -59 10 -35 0 -64 -3 -64 -6z" fill="#a351bd"/>
<path d="M4460 5599 c0 -11 47 -49 61 -49 14 0 59 39 59 51 0 3 -27 5 -60 4 -33 0 -60 -3 -60 -6z" fill="#a351bd"/>
<path d="M3940 5519 c0 -13 48 -49 67 -49 18 0 41 18 56 45 3 6 -19 10 -59 10 -35 0 -64 -3 -64 -6z" fill="#a351bd"/>
<path d="M4143 5510 c34 -45 66 -51 97 -18 11 12 20 24 20 27 0 3 -29 6 -64 6 -55 0 -63 -2 -53 -15z" fill="#a351bd"/>
<path d="M4551 5508 c23 -43 75 -46 102 -5 14 22 14 22 -48 22 -57 0 -62 -2 -54 -17z" fill="#a351bd"/>
<path d="M4350 5509 c0 -14 48 -49 67 -49 12 0 30 12 41 28 l20 27 -64 0 c-35 0 -64 -3 -64 -6z" fill="#a351bd"/>
<path d="M4460 5452 c1 -13 25 -39 46 -50 23 -12 56 4 74 38 9 17 7 18 -23 9 -20 -5 -46 -5 -65 0 -18 5 -32 7 -32 3z" fill="#a351bd"/>
<path d="M4030 5430 c0 -4 14 -20 31 -35 28 -23 34 -24 52 -12 11 7 27 23 35 35 13 20 13 21 -20 12 -21 -6 -46 -6 -66 -1 -18 5 -32 6 -32 1z" fill="#a351bd"/>
<path d="M4240 5432 c1 -13 25 -39 46 -50 23 -12 56 4 74 38 9 17 7 18 -26 8 -24 -6 -45 -6 -65 1 -16 5 -29 7 -29 3z" fill="#a351bd"/>
<path d="M4147 5343 c27 -41 79 -38 102 5 8 15 3 17 -54 17 -62 0 -62 0 -48 -22z" fill="#a351bd"/>
<path d="M4357 5355 c28 -49 81 -61 107 -23 9 12 16 25 16 28 0 3 -29 5 -64 5 -40 0 -62 -4 -59 -10z" fill="#a351bd"/>
<path d="M4550 5360 c0 -4 14 -20 31 -35 28 -23 34 -24 52 -12 11 7 27 23 34 34 14 21 13 21 -22 13 -20 -5 -50 -4 -66 0 -16 5 -29 5 -29 0z" fill="#a351bd"/>
<path d="M4226 5267 c35 -62 83 -62 117 -1 5 8 -5 9 -31 4 -20 -3 -49 -3 -65 1 -19 5 -25 4 -21 -4z" fill="#a351bd"/>
<path d="M790 5556 c0 -22 8 -44 23 -61 19 -22 35 -27 112 -36 145 -16 195 2 195 72 l0 37 -137 7 c-76 3 -150 8 -165 11 -26 5 -28 3 -28 -30z" fill="#a351bd"/>
<path d="M1240 5515 c0 -63 24 -76 144 -83 86 -4 95 -3 115 17 13 13 21 34 21 55 0 33 -2 35 -42 40 -24 3 -87 8 -140 11 l-98 5 0 -45z" fill="#a351bd"/>
<path d="M7325 5262 c-192 -14 -231 -21 -209 -41 5 -5 101 -14 214 -20 113 -7 213 -15 223 -17 15 -5 17 2 17 45 0 47 -2 51 -22 49 -13 0 -113 -8 -223 -16z" fill="#a351bd"/>
<path d="M1149 4964 c-163 -12 -306 -25 -318 -29 -52 -16 -52 -87 1 -104 50 -16 638 30 673 53 45 30 25 88 -35 98 -14 2 -158 -6 -321 -18z" fill="#a351bd"/>
<path d="M6883 3889 c-25 -9 -59 -67 -46 -79 12 -10 231 -90 248 -90 8 0 17 15 21 36 9 49 -18 82 -87 110 -69 27 -108 34 -136 23z" fill="#a351bd"/>
<path d="M3247 3613 c-3 -21 -9 -65 -13 -99 -6 -58 -5 -61 17 -67 49 -13 115 -8 132 11 19 21 22 53 6 69 -8 8 -8 13 0 17 6 4 11 20 11 36 0 37 -28 56 -96 64 l-51 6 -6 -37z m111 -31 c5 -16 -22 -26 -52 -18 -17 4 -23 11 -19 25 4 15 11 17 36 12 17 -4 32 -12 35 -19z m-3 -73 c15 -16 -19 -36 -53 -31 -25 3 -28 7 -24 29 4 22 8 24 36 19 16 -4 35 -11 41 -17z" fill="#a351bd"/>
<path d="M5283 3633 c-13 -2 -23 -7 -23 -9 0 -10 21 -150 26 -172 5 -22 8 -23 57 -17 71 9 100 38 100 100 0 69 -27 100 -89 101 -27 1 -59 0 -71 -3z m108 -60 c16 -43 7 -76 -24 -91 -16 -8 -32 -10 -37 -6 -4 5 -10 35 -14 67 l-6 57 35 0 c29 0 37 -5 46 -27z" fill="#a351bd"/>
<path d="M3466 3559 c-3 -34 -6 -79 -6 -99 0 -37 1 -37 46 -44 83 -11 104 -8 104 14 0 18 -7 20 -56 20 -52 0 -55 1 -52 23 3 19 9 22 48 22 26 0 48 5 53 13 12 19 4 24 -48 29 -36 5 -45 9 -45 25 0 18 5 19 55 13 50 -7 55 -6 55 12 0 16 -9 22 -46 27 -101 13 -100 14 -108 -55z" fill="#a351bd"/>
<path d="M5101 3613 l-43 -4 7 -92 c4 -51 9 -95 12 -99 5 -10 64 -10 116 -2 27 5 37 11 37 25 0 17 -7 19 -57 17 -53 -3 -58 -1 -61 19 -3 20 2 22 45 25 37 2 49 7 51 22 3 16 -2 18 -47 15 -40 -3 -51 -1 -54 13 -5 18 18 28 71 28 25 0 32 4 32 20 0 21 -5 22 -109 13z" fill="#a351bd"/>
<path d="M4880 3591 l-44 -6 2 -50 c5 -112 13 -145 33 -145 16 0 19 7 19 41 0 39 1 40 32 37 28 -3 34 -8 38 -33 4 -24 11 -31 32 -33 26 -3 27 -3 16 35 -5 21 -14 43 -20 50 -6 7 -5 14 2 18 5 3 10 19 10 35 0 30 -32 61 -60 58 -8 0 -35 -4 -60 -7z m75 -56 c0 -16 -8 -21 -37 -23 -35 -3 -38 -1 -38 23 0 24 3 26 38 23 29 -2 37 -7 37 -23z" fill="#a351bd"/>
<path d="M3779 3505 c-1 -47 -2 -91 -3 -97 -1 -7 9 -14 22 -16 19 -3 22 1 22 32 0 35 1 36 38 36 48 0 70 16 78 56 10 50 -21 74 -96 74 l-60 0 -1 -85z m111 20 c0 -21 -5 -25 -30 -25 -25 0 -30 4 -30 25 0 21 5 25 30 25 25 0 30 -4 30 -25z" fill="#a351bd"/>
<path d="M3990 3480 c0 -92 1 -100 19 -100 16 0 20 8 23 38 2 29 8 38 24 40 28 4 54 -23 54 -54 0 -17 5 -24 20 -24 17 0 20 7 20 39 0 22 -5 43 -10 46 -6 4 -4 12 5 21 21 21 19 50 -5 74 -16 16 -33 20 -85 20 l-65 0 0 -100z m118 38 c-2 -18 -11 -24 -35 -26 -30 -3 -33 -1 -33 22 0 23 4 26 36 26 31 0 35 -3 32 -22z" fill="#a351bd"/>
<path d="M4227 3573 c-4 -3 -7 -51 -7 -105 l0 -98 75 0 c68 0 75 2 75 20 0 18 -7 20 -55 20 -52 0 -55 1 -55 25 0 23 3 25 50 25 43 0 50 3 50 20 0 17 -7 20 -51 20 -43 0 -50 3 -47 18 2 13 15 18 56 20 96 6 50 42 -54 42 -17 0 -34 -3 -37 -7z" fill="#a351bd"/>
<path d="M4434 3567 c-3 -8 -4 -54 -2 -103 3 -84 4 -89 26 -92 20 -3 22 1 22 37 l0 41 39 0 c67 0 93 59 46 105 -19 20 -34 25 -75 25 -33 0 -52 -5 -56 -13z m104 -51 c4 -20 -13 -36 -40 -36 -13 0 -18 8 -18 31 0 27 3 30 27 27 18 -2 29 -10 31 -22z" fill="#a351bd"/>
<path d="M4661 3557 c-12 -30 -51 -162 -51 -171 0 -16 42 -4 47 14 4 16 14 20 43 20 29 0 39 -4 43 -20 3 -12 14 -20 27 -20 19 0 21 4 15 28 -3 15 -20 60 -37 100 -25 61 -33 72 -54 72 -16 0 -27 -8 -33 -23z m42 -95 c-22 -5 -26 4 -18 35 l8 28 12 -30 c11 -26 11 -30 -2 -33z" fill="#a351bd"/>
<path d="M2423 2673 c-17 -10 -131 -115 -252 -234 -231 -225 -245 -244 -205 -283 31 -32 67 -18 145 54 60 55 365 359 380 379 25 32 24 66 -3 85 -28 20 -27 20 -65 -1z" fill="#a351bd"/>
<path d="M5876 2411 c-3 -4 53 -90 125 -190 l130 -181 35 26 c19 15 33 30 32 34 -7 19 -298 320 -309 320 -4 0 -10 -4 -13 -9z" fill="#a351bd"/>
<path d="M4664 1875 c-16 -25 -14 -40 35 -328 28 -166 58 -317 66 -334 30 -67 105 -48 105 26 0 62 -100 615 -116 639 -21 31 -68 30 -90 -3z" fill="#a351bd"/>
</g>
</svg>