<svg id="svg" xmlns="http://www.w3.org/2000/svg" xmlns:xlink="http://www.w3.org/1999/xlink" width="400" height="400" viewBox="0, 0, 400,400" version="1.1"><g id="svgg"><path id="path0" d="" stroke="none" fill="#0ccce4" fill-rule="evenodd"></path><path id="path1" d="" stroke="none" fill="#14cce4" fill-rule="evenodd"></path><path id="path2" d="M169.200 53.222 C 166.890 53.415,164.280 53.664,163.400 53.775 C 162.520 53.886,161.377 53.982,160.860 53.989 C 160.343 53.997,159.722 54.125,159.480 54.274 C 159.238 54.424,158.671 54.596,158.220 54.658 C 154.867 55.115,152.257 55.621,150.200 56.214 C 148.880 56.595,147.125 56.991,146.300 57.095 C 145.475 57.199,144.800 57.415,144.800 57.575 C 144.800 57.736,144.532 57.867,144.205 57.867 C 143.619 57.867,139.763 59.003,138.200 59.636 C 137.760 59.814,135.933 60.410,134.141 60.961 C 131.491 61.774,125.530 63.968,121.000 65.798 C 120.560 65.975,120.020 66.162,119.800 66.212 C 119.580 66.262,118.230 66.841,116.800 67.500 C 115.370 68.158,113.390 69.006,112.400 69.384 C 110.642 70.056,108.666 70.933,103.800 73.202 C 102.480 73.817,99.780 75.062,97.800 75.968 C 95.820 76.873,93.840 77.821,93.400 78.074 C 92.960 78.327,90.260 79.731,87.400 81.194 C 84.540 82.657,81.570 84.242,80.800 84.714 C 80.030 85.187,78.635 85.944,77.700 86.397 C 76.765 86.850,76.000 87.395,76.000 87.610 C 76.000 87.824,75.865 87.956,75.700 87.902 C 75.266 87.761,71.070 90.193,70.441 90.950 C 70.149 91.303,69.774 91.507,69.608 91.405 C 69.442 91.303,68.985 91.575,68.591 92.009 C 68.198 92.444,67.718 92.800,67.525 92.800 C 67.213 92.800,62.021 96.072,61.000 96.912 C 60.780 97.093,59.754 97.817,58.720 98.520 C 54.110 101.658,50.425 104.407,48.000 106.520 C 46.903 107.476,42.260 111.392,41.625 111.897 C 41.281 112.170,40.100 113.225,39.000 114.240 C 37.900 115.256,36.325 116.646,35.500 117.329 C 34.675 118.013,34.000 118.711,34.000 118.881 C 34.000 119.050,32.508 120.676,30.685 122.494 C 27.857 125.314,25.629 127.814,22.800 131.341 C 22.470 131.753,22.011 132.294,21.780 132.545 C 20.934 133.461,17.783 137.801,17.200 138.852 C 16.870 139.447,16.017 140.765,15.304 141.781 C 14.591 142.797,13.897 144.072,13.761 144.614 C 13.625 145.156,13.390 145.600,13.239 145.600 C 13.088 145.600,12.630 146.410,12.222 147.400 C 11.813 148.390,11.327 149.200,11.140 149.200 C 10.953 149.200,10.800 149.524,10.800 149.920 C 10.800 150.316,10.646 150.811,10.457 151.020 C 10.268 151.229,9.442 153.110,8.621 155.200 C 7.075 159.136,6.939 159.533,5.874 163.200 C 5.522 164.410,4.958 166.300,4.620 167.400 C 3.205 172.007,3.857 180.137,5.999 184.600 C 6.211 185.040,6.982 186.842,7.715 188.605 C 8.840 191.315,10.085 193.462,13.707 198.946 C 14.435 200.048,16.861 203.250,17.577 204.054 C 20.572 207.416,23.793 210.827,25.765 212.724 C 27.065 213.976,28.595 215.473,29.165 216.052 C 29.734 216.631,31.242 217.944,32.516 218.970 C 35.669 221.510,36.401 222.117,37.016 222.700 C 37.306 222.975,37.736 223.200,37.971 223.200 C 38.207 223.200,38.400 223.359,38.400 223.554 C 38.400 223.749,39.494 224.694,40.831 225.654 C 42.168 226.614,44.103 228.051,45.131 228.846 C 47.013 230.302,52.687 234.252,53.982 235.007 C 54.699 235.425,56.909 237.079,57.735 237.815 C 57.991 238.043,58.830 238.621,59.600 239.099 C 60.370 239.577,61.540 240.443,62.200 241.022 C 62.860 241.601,63.940 242.349,64.600 242.682 C 65.260 243.016,66.340 243.780,67.000 244.380 C 67.660 244.980,69.010 245.958,70.000 246.554 C 70.990 247.150,72.340 248.035,73.000 248.520 C 76.358 250.992,79.081 253.073,79.775 253.700 C 80.202 254.085,80.742 254.402,80.975 254.404 C 81.411 254.408,78.269 256.400,77.710 256.475 C 77.539 256.498,76.770 256.914,76.000 257.400 C 75.230 257.886,74.195 258.412,73.700 258.569 C 73.205 258.725,72.800 259.032,72.800 259.251 C 72.800 259.469,72.635 259.545,72.432 259.420 C 72.230 259.295,71.786 259.471,71.447 259.811 C 71.107 260.150,70.733 260.425,70.617 260.420 C 70.115 260.398,67.600 261.778,67.600 262.074 C 67.600 262.253,67.354 262.400,67.054 262.400 C 66.754 262.400,66.050 262.760,65.491 263.200 C 64.931 263.640,64.299 264.000,64.085 264.000 C 63.601 264.000,59.773 266.291,58.236 267.500 C 57.607 267.995,56.917 268.400,56.704 268.400 C 56.491 268.400,55.480 268.971,54.458 269.669 C 53.436 270.367,51.245 271.852,49.589 272.969 C 46.474 275.070,43.304 277.513,41.645 279.092 C 41.120 279.591,40.537 280.000,40.348 280.000 C 39.454 280.000,31.745 287.208,28.400 291.172 C 27.410 292.345,26.420 293.506,26.199 293.752 C 24.556 295.588,21.240 301.679,19.486 306.082 C 18.316 309.020,17.953 310.592,17.334 315.400 C 16.675 320.525,17.462 327.347,19.171 331.333 C 19.627 332.396,20.000 333.422,20.000 333.612 C 20.000 335.251,26.107 342.800,27.433 342.800 C 27.745 342.800,28.000 342.939,28.000 343.109 C 28.000 343.605,30.477 344.796,32.000 345.032 C 32.770 345.152,33.850 345.340,34.400 345.450 C 34.950 345.560,35.670 345.699,36.000 345.759 C 36.330 345.820,37.674 346.099,38.986 346.381 C 43.819 347.417,59.827 346.037,61.782 344.415 C 62.030 344.209,62.810 343.939,63.516 343.815 C 66.039 343.370,70.927 341.216,75.107 338.705 C 76.486 337.877,77.709 337.200,77.824 337.200 C 78.053 337.200,78.291 337.020,80.453 335.214 C 81.252 334.546,82.092 334.000,82.319 334.000 C 82.547 334.000,82.793 333.850,82.867 333.666 C 82.940 333.482,84.350 332.182,86.000 330.777 C 87.650 329.371,89.059 328.084,89.132 327.915 C 89.204 327.747,90.117 326.752,91.159 325.705 C 92.993 323.861,97.600 317.924,97.600 317.403 C 97.600 317.262,98.031 316.574,98.558 315.873 C 100.507 313.283,104.628 303.408,105.348 299.600 C 105.452 299.050,105.825 297.504,106.176 296.164 C 106.794 293.801,106.995 292.443,107.469 287.400 C 108.325 278.307,107.105 267.442,104.527 261.200 C 104.391 260.870,104.233 260.420,104.176 260.200 C 104.120 259.980,103.783 259.121,103.428 258.291 C 102.821 256.875,102.825 256.766,103.491 256.517 C 103.881 256.371,105.550 255.452,107.200 254.474 C 110.526 252.504,112.217 251.541,114.600 250.260 C 115.480 249.787,116.290 249.289,116.400 249.153 C 116.510 249.017,117.320 248.552,118.200 248.120 C 120.250 247.114,122.855 245.633,123.510 245.100 C 124.212 244.529,124.546 244.976,124.081 245.866 C 123.412 247.148,121.463 255.367,121.014 258.804 C 120.942 259.356,120.680 260.560,120.433 261.478 C 120.185 262.397,120.022 263.295,120.070 263.474 C 120.118 263.653,120.015 264.863,119.842 266.162 C 119.669 267.461,119.533 270.881,119.541 273.762 C 119.553 278.328,119.827 280.810,121.026 287.200 C 121.499 289.720,123.920 296.548,125.210 299.000 C 127.518 303.386,128.597 305.199,128.900 305.200 C 129.065 305.200,129.200 305.451,129.200 305.759 C 129.200 306.224,130.449 307.464,132.620 309.155 C 137.008 312.572,146.801 311.229,150.484 306.704 C 153.282 303.266,157.499 296.196,157.824 294.400 C 157.844 294.290,158.415 293.030,159.093 291.600 C 159.771 290.170,161.171 287.110,162.204 284.800 C 163.237 282.490,164.607 279.520,165.248 278.200 L 166.414 275.800 166.191 278.800 C 165.596 286.820,165.746 291.440,166.733 295.400 C 166.952 296.280,167.231 297.429,167.353 297.953 C 169.425 306.871,178.360 308.270,185.942 300.864 C 189.427 297.460,190.456 295.867,197.227 283.400 C 199.258 279.660,201.461 275.610,202.123 274.400 C 203.901 271.151,203.886 271.180,204.995 268.800 C 205.559 267.590,206.631 265.524,207.378 264.210 C 208.125 262.895,208.650 261.680,208.544 261.510 C 208.439 261.339,208.543 261.200,208.776 261.200 C 209.009 261.200,209.160 261.065,209.112 260.900 C 209.063 260.735,209.897 258.800,210.966 256.600 C 213.088 252.229,216.805 244.038,216.956 243.400 C 217.008 243.180,217.448 242.146,217.935 241.101 C 218.709 239.439,219.591 237.408,219.803 236.800 C 219.964 236.336,221.369 233.203,222.582 230.600 C 223.299 229.060,224.493 226.302,225.234 224.471 C 225.975 222.640,226.610 221.290,226.645 221.471 C 227.240 224.500,227.803 226.691,228.081 227.058 C 228.272 227.310,228.387 227.670,228.338 227.858 C 227.879 229.596,231.807 240.356,236.003 248.858 C 238.523 253.963,238.500 254.677,235.697 258.277 C 232.060 262.948,228.552 267.260,227.187 268.737 C 226.850 269.102,225.866 270.300,225.001 271.400 C 224.135 272.500,223.318 273.490,223.186 273.600 C 223.053 273.710,222.197 274.819,221.285 276.066 C 220.372 277.312,219.150 278.842,218.570 279.466 C 217.989 280.089,216.963 281.365,216.289 282.300 C 215.615 283.235,214.915 284.000,214.732 284.000 C 214.549 284.000,214.400 284.188,214.400 284.417 C 214.400 284.647,213.955 285.315,213.411 285.902 C 208.334 291.376,208.842 298.589,214.367 299.494 C 217.495 300.006,221.076 300.359,221.600 300.207 C 221.930 300.112,223.370 299.938,224.800 299.821 C 226.230 299.703,228.750 299.240,230.400 298.791 C 232.050 298.342,234.081 297.798,234.914 297.582 C 235.746 297.367,236.736 297.028,237.114 296.830 C 237.491 296.632,238.880 295.975,240.200 295.370 C 241.520 294.765,243.352 293.759,244.272 293.135 C 245.192 292.511,246.103 292.000,246.297 292.000 C 246.491 292.000,246.999 291.685,247.426 291.300 C 247.853 290.915,249.242 289.809,250.513 288.843 C 254.714 285.646,258.583 279.873,259.653 275.205 C 259.880 274.212,260.152 273.040,260.256 272.600 C 261.161 268.786,260.096 259.727,258.094 254.200 C 256.126 248.765,256.177 248.353,259.308 244.300 C 259.946 243.475,260.355 242.800,260.218 242.800 C 260.081 242.800,260.167 242.575,260.410 242.300 C 261.248 241.353,266.623 232.997,267.423 231.400 C 268.238 229.772,268.966 228.555,270.694 225.935 C 271.226 225.129,271.697 224.223,271.741 223.922 C 271.785 223.621,272.190 222.840,272.640 222.187 C 273.091 221.534,274.058 219.830,274.789 218.400 C 275.521 216.970,276.604 214.900,277.196 213.800 C 277.789 212.700,278.515 211.350,278.810 210.800 C 279.324 209.841,281.089 214.963,281.178 217.674 C 281.190 218.045,281.410 218.855,281.666 219.474 C 281.923 220.093,282.156 220.690,282.184 220.800 C 282.212 220.910,282.480 221.990,282.779 223.200 C 283.548 226.308,286.536 233.558,288.412 236.870 C 289.286 238.411,290.000 239.736,290.000 239.815 C 290.000 239.894,287.300 242.659,284.000 245.961 C 280.700 249.262,278.000 252.123,278.000 252.319 C 278.000 252.515,277.539 253.199,276.977 253.838 C 276.414 254.477,275.689 255.495,275.366 256.100 C 275.044 256.705,274.645 257.200,274.481 257.200 C 274.203 257.200,272.618 259.852,272.586 260.369 C 272.578 260.496,272.315 261.050,272.001 261.600 C 267.638 269.243,266.198 277.555,268.383 282.476 C 269.157 284.220,271.996 287.161,272.972 287.231 C 273.207 287.247,273.760 287.339,274.200 287.434 C 276.999 288.037,282.939 286.912,286.095 285.181 C 286.477 284.971,287.152 284.800,287.595 284.800 C 288.038 284.800,288.400 284.641,288.400 284.447 C 288.400 284.141,288.866 283.926,290.100 283.663 C 290.841 283.505,295.763 280.771,296.988 279.836 C 297.735 279.266,298.433 278.800,298.539 278.800 C 299.373 278.800,306.709 271.651,308.595 269.000 C 310.350 266.533,312.189 263.200,311.794 263.200 C 311.672 263.200,311.773 262.824,312.019 262.365 C 312.265 261.906,312.539 261.141,312.630 260.665 C 312.720 260.189,312.896 259.350,313.021 258.800 C 313.798 255.387,313.131 249.367,311.364 243.848 C 310.073 239.815,310.111 239.748,314.400 238.598 C 314.510 238.569,315.410 238.302,316.400 238.005 C 326.619 234.942,341.223 234.291,352.000 236.419 C 354.812 236.974,355.244 237.076,357.800 237.784 C 359.120 238.150,360.470 238.496,360.800 238.552 C 361.130 238.608,361.940 238.883,362.600 239.163 C 363.260 239.442,364.790 240.043,366.000 240.498 C 368.748 241.532,372.338 243.437,373.426 244.439 C 373.880 244.858,374.446 245.200,374.683 245.200 C 374.920 245.200,375.218 245.470,375.345 245.800 C 375.471 246.130,375.745 246.400,375.953 246.400 C 376.161 246.400,377.291 247.389,378.465 248.598 C 381.231 251.446,381.600 251.888,381.600 252.350 C 381.600 252.561,381.742 252.793,381.916 252.867 C 382.089 252.940,382.773 253.900,383.436 255.000 C 390.068 266.015,387.426 278.167,377.000 284.605 C 370.768 288.452,373.681 291.206,380.600 288.009 C 382.723 287.028,387.611 283.326,389.050 281.608 C 389.683 280.853,390.599 279.803,391.087 279.274 C 392.505 277.736,394.382 274.142,395.271 271.265 C 396.049 268.746,396.112 267.712,395.937 260.400 C 395.848 256.673,391.906 247.072,388.883 243.220 C 386.840 240.618,381.400 235.158,380.000 234.307 C 379.230 233.838,377.970 232.899,377.200 232.219 C 376.044 231.199,369.084 227.277,368.400 227.261 C 368.290 227.258,367.660 227.049,367.000 226.796 C 362.907 225.225,360.370 224.429,358.800 224.221 C 358.470 224.177,357.840 224.023,357.400 223.878 C 356.960 223.734,355.880 223.508,355.000 223.377 C 354.120 223.246,352.950 223.058,352.400 222.958 C 349.436 222.420,347.532 222.319,340.600 222.329 C 334.547 222.338,332.104 222.513,328.600 223.188 C 326.180 223.653,323.840 224.100,323.400 224.180 C 321.418 224.541,316.169 226.099,315.138 226.632 C 314.512 226.956,314.000 227.139,314.000 227.038 C 314.000 226.882,312.904 227.280,308.600 229.001 C 308.160 229.177,307.620 229.375,307.400 229.440 C 307.180 229.506,306.618 229.674,306.151 229.813 C 305.476 230.015,305.210 229.833,304.857 228.933 C 304.612 228.310,304.232 227.530,304.013 227.200 C 303.028 225.714,299.214 217.164,298.656 215.190 C 296.166 206.375,296.150 199.551,298.601 191.000 C 299.169 189.020,299.706 187.130,299.795 186.800 C 299.884 186.470,300.326 184.941,300.778 183.401 C 301.891 179.612,301.096 177.077,298.736 176.891 C 298.441 176.868,297.470 176.665,296.578 176.440 C 294.979 176.037,286.937 176.104,284.600 176.540 C 281.658 177.089,280.900 177.311,279.329 178.079 C 277.541 178.953,277.346 179.293,276.037 183.800 C 275.590 185.340,274.660 188.490,273.970 190.800 C 273.280 193.110,272.689 195.164,272.658 195.365 C 272.626 195.566,271.720 197.546,270.644 199.765 C 269.569 201.984,268.684 204.025,268.678 204.300 C 268.672 204.575,268.517 204.800,268.333 204.800 C 268.150 204.800,268.000 205.064,268.000 205.386 C 268.000 205.949,266.308 209.274,265.505 210.291 C 265.292 210.561,264.581 211.821,263.926 213.091 C 262.052 216.726,260.625 219.348,259.375 221.454 C 258.740 222.524,258.216 223.494,258.210 223.609 C 258.205 223.724,257.615 224.730,256.900 225.844 C 256.185 226.958,255.600 228.002,255.600 228.163 C 255.600 228.324,255.087 229.208,254.459 230.128 C 253.832 231.048,253.247 231.980,253.159 232.200 C 253.071 232.420,252.392 233.556,251.650 234.725 L 250.301 236.849 249.559 235.629 C 249.151 234.959,248.706 233.965,248.570 233.421 C 248.433 232.878,248.074 232.227,247.771 231.976 C 247.469 231.725,247.106 230.908,246.966 230.160 C 246.826 229.412,246.589 228.800,246.441 228.800 C 246.292 228.800,246.141 228.409,246.105 227.930 C 246.069 227.452,245.862 226.597,245.645 226.030 C 245.057 224.497,243.716 214.510,243.875 212.851 C 244.416 207.202,244.670 205.670,245.411 203.568 C 245.716 202.706,245.860 202.000,245.733 202.000 C 245.606 202.000,245.675 201.775,245.885 201.500 C 246.096 201.225,246.571 199.920,246.940 198.600 C 247.310 197.280,247.879 195.366,248.206 194.346 C 249.333 190.831,248.346 189.109,244.600 188.055 C 243.435 187.727,233.243 187.788,231.600 188.132 C 229.920 188.485,227.554 189.212,227.000 189.546 C 226.780 189.679,226.439 189.791,226.243 189.794 C 225.787 189.802,224.377 191.679,224.264 192.429 C 224.216 192.743,224.072 193.180,223.944 193.400 C 223.816 193.620,223.565 194.340,223.388 195.000 C 223.210 195.660,223.038 196.290,223.005 196.400 C 222.972 196.510,222.699 197.410,222.400 198.400 C 222.101 199.390,221.828 200.290,221.795 200.400 C 221.762 200.510,221.595 201.140,221.425 201.800 C 221.254 202.460,220.774 203.732,220.357 204.626 C 219.941 205.521,219.600 206.545,219.600 206.903 C 219.600 207.261,219.247 208.153,218.815 208.885 C 218.383 209.617,217.770 210.933,217.453 211.808 C 217.136 212.684,216.411 214.436,215.842 215.702 C 215.274 216.968,214.843 218.048,214.886 218.102 C 214.929 218.156,214.664 218.740,214.298 219.400 C 213.621 220.623,210.000 228.387,210.000 228.618 C 210.000 228.687,209.460 229.911,208.800 231.337 C 208.140 232.763,207.600 234.028,207.600 234.149 C 207.600 234.270,206.772 236.131,205.759 238.285 C 204.747 240.438,203.885 242.380,203.843 242.600 C 203.801 242.820,203.172 244.260,202.445 245.800 C 199.208 252.656,198.800 253.543,198.800 253.738 C 198.800 253.851,198.283 255.082,197.651 256.472 C 197.019 257.862,195.646 260.890,194.600 263.200 C 191.562 269.908,186.954 278.973,185.297 281.501 C 183.135 284.800,183.517 275.629,185.992 264.800 C 186.168 264.030,186.608 262.050,186.970 260.400 C 187.707 257.038,190.938 244.211,192.813 237.200 C 194.956 229.185,194.220 226.645,189.354 225.266 C 186.599 224.486,182.000 225.222,182.000 226.443 C 182.000 226.640,181.802 226.800,181.561 226.800 C 181.257 226.800,181.212 226.027,181.415 224.300 C 182.007 219.264,181.924 216.509,181.036 211.733 C 180.424 208.444,177.164 204.178,174.479 203.152 C 171.452 201.996,164.848 201.969,163.037 203.105 C 162.797 203.256,162.420 203.395,162.200 203.414 C 161.980 203.433,161.080 203.786,160.200 204.199 C 159.320 204.611,158.465 204.915,158.300 204.874 C 158.135 204.833,158.000 204.959,158.000 205.153 C 158.000 205.348,157.636 205.602,157.191 205.718 C 155.906 206.054,155.876 206.068,154.308 207.058 C 153.487 207.576,152.701 208.000,152.561 208.000 C 152.420 208.000,151.725 208.495,151.016 209.100 C 150.307 209.705,149.313 210.470,148.807 210.800 C 147.681 211.536,145.667 213.158,144.711 214.100 C 144.320 214.485,143.850 214.800,143.668 214.800 C 143.485 214.800,143.118 215.205,142.853 215.701 C 142.588 216.197,141.813 216.922,141.131 217.314 C 140.449 217.705,139.984 218.118,140.097 218.231 C 140.211 218.344,139.594 219.193,138.728 220.118 C 137.861 221.043,136.580 222.542,135.880 223.449 C 134.398 225.371,133.144 226.244,128.085 228.878 C 123.606 231.209,122.661 231.732,122.400 232.022 C 122.290 232.143,121.030 232.843,119.600 233.576 C 118.170 234.310,116.910 235.020,116.800 235.155 C 116.690 235.290,115.340 236.023,113.800 236.785 C 112.260 237.547,109.920 238.822,108.600 239.619 C 107.280 240.416,105.480 241.400,104.600 241.805 C 103.720 242.210,102.468 242.915,101.817 243.371 C 101.166 243.827,99.456 244.784,98.017 245.498 L 95.400 246.797 93.200 244.498 C 90.877 242.072,87.287 238.800,86.948 238.800 C 86.837 238.800,86.084 238.172,85.273 237.403 C 84.463 236.635,83.615 236.005,83.388 236.003 C 83.162 236.002,82.717 235.640,82.400 235.200 C 82.083 234.760,81.603 234.400,81.334 234.400 C 81.065 234.400,80.610 234.083,80.323 233.696 C 79.838 233.044,78.311 231.742,76.083 230.083 C 75.578 229.707,74.408 228.727,73.483 227.905 C 72.557 227.083,71.659 226.408,71.486 226.405 C 71.313 226.402,70.773 226.045,70.286 225.611 C 68.728 224.223,66.300 222.241,62.408 219.181 C 60.323 217.542,58.318 215.930,57.954 215.600 C 57.589 215.270,56.444 214.289,55.409 213.419 C 51.688 210.292,45.687 204.075,43.421 201.000 C 42.773 200.120,42.141 199.310,42.017 199.200 C 41.729 198.943,39.551 195.646,38.979 194.600 C 38.739 194.160,38.336 193.440,38.085 193.000 C 36.793 190.737,35.849 187.981,34.524 182.600 C 32.945 176.189,35.612 162.127,39.750 155.043 C 40.278 154.139,41.203 152.500,41.805 151.400 C 42.407 150.300,43.642 148.419,44.550 147.220 C 45.457 146.021,46.891 144.131,47.735 143.020 C 50.324 139.614,59.735 130.311,63.400 127.536 C 64.060 127.036,64.690 126.531,64.800 126.414 C 64.910 126.296,65.810 125.583,66.800 124.829 C 67.790 124.075,68.870 123.218,69.200 122.924 C 70.430 121.831,74.815 118.800,75.168 118.800 C 75.369 118.800,75.593 118.655,75.667 118.477 C 75.879 117.961,84.843 112.000,85.406 112.000 C 85.685 112.000,86.018 111.730,86.145 111.400 C 86.271 111.070,86.638 110.800,86.959 110.800 C 87.280 110.800,87.795 110.548,88.103 110.239 C 88.412 109.931,89.640 109.181,90.832 108.572 C 92.024 107.964,93.315 107.198,93.700 106.871 C 94.085 106.544,94.400 106.407,94.400 106.567 C 94.400 106.727,94.874 106.485,95.454 106.029 C 96.034 105.573,96.649 105.200,96.821 105.200 C 96.993 105.200,98.504 104.390,100.178 103.400 C 101.853 102.410,103.325 101.600,103.450 101.600 C 103.574 101.600,104.199 101.228,104.838 100.773 C 105.477 100.318,106.000 100.060,106.000 100.200 C 106.000 100.340,106.495 100.115,107.100 99.700 C 107.705 99.285,109.280 98.451,110.600 97.847 C 111.920 97.244,113.270 96.581,113.600 96.374 C 113.930 96.167,114.650 95.808,115.200 95.575 C 115.750 95.342,117.470 94.542,119.023 93.798 C 122.584 92.090,128.841 89.517,129.500 89.488 C 129.775 89.476,130.000 89.349,130.000 89.206 C 130.000 89.063,131.305 88.536,132.900 88.036 C 134.495 87.535,136.070 87.023,136.400 86.897 C 136.730 86.772,137.090 86.646,137.200 86.617 C 137.966 86.420,140.743 85.483,141.400 85.200 C 141.840 85.011,143.550 84.469,145.200 83.995 C 146.850 83.521,148.830 82.931,149.600 82.685 C 150.370 82.438,151.120 82.268,151.266 82.307 C 151.412 82.345,152.402 82.121,153.466 81.807 C 154.530 81.494,155.940 81.140,156.600 81.021 C 157.260 80.901,158.340 80.706,159.000 80.586 C 159.660 80.466,160.501 80.278,160.868 80.167 C 162.299 79.737,167.566 78.856,170.142 78.617 C 171.054 78.533,173.060 78.314,174.600 78.132 C 179.637 77.535,196.338 77.816,199.600 78.552 C 200.150 78.676,201.140 78.853,201.800 78.945 C 202.460 79.037,204.089 79.398,205.421 79.747 C 206.752 80.095,208.192 80.448,208.621 80.529 C 209.049 80.611,209.907 80.885,210.526 81.139 C 211.145 81.392,211.758 81.600,211.887 81.600 C 212.148 81.600,215.854 83.273,217.927 84.326 C 218.657 84.697,219.594 85.315,220.010 85.700 C 220.426 86.085,220.933 86.400,221.137 86.400 C 223.239 86.400,227.975 93.989,229.000 99.000 C 230.068 104.219,229.710 108.720,227.679 115.600 C 227.322 116.810,227.007 117.890,226.979 118.000 C 226.952 118.110,226.439 119.280,225.840 120.600 C 225.240 121.920,224.537 123.495,224.277 124.100 C 224.017 124.705,223.669 125.200,223.502 125.200 C 223.336 125.200,223.200 125.384,223.200 125.610 C 223.200 126.118,219.943 131.350,219.513 131.533 C 219.341 131.607,219.200 131.833,219.200 132.037 C 219.200 133.068,209.609 143.583,205.552 147.000 C 204.768 147.660,203.265 148.920,202.211 149.800 C 201.157 150.680,199.823 151.806,199.247 152.302 C 198.671 152.799,197.885 153.306,197.500 153.429 C 197.115 153.553,196.800 153.822,196.800 154.027 C 196.800 154.232,196.647 154.400,196.459 154.400 C 196.272 154.400,194.787 155.286,193.159 156.369 C 188.772 159.288,179.358 164.025,173.000 166.514 C 165.559 169.426,165.856 169.314,165.400 169.384 C 165.180 169.418,164.730 169.559,164.400 169.698 C 162.345 170.564,153.971 172.580,147.400 173.791 C 146.960 173.872,146.510 173.974,146.400 174.017 C 146.290 174.060,146.058 174.071,145.884 174.042 C 145.710 174.013,143.850 174.245,141.751 174.557 C 128.189 176.575,115.031 174.488,106.119 168.904 C 104.975 168.187,103.955 167.600,103.854 167.600 C 103.667 167.600,101.969 166.055,98.979 163.166 C 95.241 159.553,93.106 163.097,95.851 168.358 C 96.150 168.931,96.396 169.625,96.398 169.900 C 96.399 170.175,96.591 170.400,96.824 170.400 C 97.057 170.400,97.136 170.580,97.000 170.800 C 96.864 171.020,96.931 171.200,97.149 171.200 C 97.368 171.200,97.647 171.518,97.771 171.907 C 98.040 172.758,101.200 176.060,103.600 178.000 C 104.552 178.770,105.527 179.580,105.766 179.800 C 106.005 180.020,106.740 180.470,107.400 180.799 C 108.060 181.129,108.690 181.510,108.800 181.647 C 109.788 182.872,118.538 186.248,122.800 187.047 C 124.670 187.398,126.560 187.768,127.000 187.868 C 131.846 188.977,150.004 188.715,157.065 187.434 C 157.469 187.361,158.880 187.176,160.200 187.024 C 161.520 186.871,163.230 186.586,164.000 186.391 C 164.770 186.195,165.940 185.942,166.600 185.828 C 168.941 185.424,182.034 182.010,182.784 181.608 C 183.204 181.384,183.807 181.200,184.125 181.200 C 184.442 181.200,185.399 180.898,186.251 180.529 C 187.103 180.160,187.980 179.822,188.200 179.778 C 188.420 179.734,189.320 179.377,190.200 178.985 C 191.080 178.593,191.890 178.241,192.000 178.203 C 192.110 178.164,192.650 177.942,193.200 177.709 C 193.750 177.476,195.010 176.966,196.000 176.576 C 196.990 176.186,198.250 175.573,198.800 175.213 C 199.350 174.853,200.970 173.952,202.400 173.211 C 205.573 171.568,208.116 170.009,208.445 169.506 C 208.579 169.300,208.805 169.148,208.947 169.169 C 209.336 169.225,213.600 166.328,213.600 166.008 C 213.600 165.854,214.019 165.538,214.530 165.304 C 217.281 164.051,228.602 153.353,231.785 149.000 C 232.428 148.120,233.149 147.220,233.386 147.000 C 233.624 146.780,234.528 145.610,235.396 144.400 C 236.264 143.190,237.160 142.068,237.387 141.906 C 237.614 141.744,237.652 141.609,237.471 141.606 C 237.291 141.603,237.381 141.336,237.671 141.014 C 238.734 139.836,239.200 139.229,239.200 139.025 C 239.200 138.910,239.806 137.867,240.547 136.708 C 243.267 132.450,247.865 121.943,248.617 118.268 C 248.699 117.865,248.892 117.145,249.046 116.668 C 249.200 116.191,249.361 115.440,249.403 115.000 C 249.445 114.560,249.582 113.930,249.706 113.600 C 249.831 113.270,249.935 112.730,249.937 112.400 C 249.939 112.070,250.028 111.350,250.135 110.800 C 251.236 105.134,250.928 92.479,249.643 90.600 C 249.493 90.380,249.313 89.663,249.244 89.006 C 249.088 87.524,245.941 80.723,244.595 78.958 C 244.048 78.241,243.599 77.506,243.598 77.327 C 243.597 77.147,243.057 76.425,242.398 75.722 C 241.739 75.019,241.200 74.322,241.200 74.174 C 241.200 73.842,235.118 68.000,234.773 68.000 C 234.636 68.000,234.001 67.537,233.362 66.972 C 232.723 66.406,231.840 65.776,231.400 65.573 C 230.522 65.166,229.114 64.314,228.800 64.000 C 228.227 63.427,219.992 59.600,219.332 59.600 C 218.907 59.600,218.389 59.434,218.180 59.231 C 217.872 58.933,212.998 57.062,211.400 56.629 C 211.180 56.570,210.730 56.408,210.400 56.271 C 210.070 56.134,208.990 55.831,208.000 55.599 C 207.010 55.367,205.840 55.089,205.400 54.981 C 204.960 54.874,203.992 54.684,203.249 54.560 C 202.506 54.436,201.516 54.255,201.049 54.157 C 196.046 53.113,177.146 52.558,169.200 53.222 M169.600 220.710 C 169.600 221.639,169.017 225.023,168.208 228.800 C 168.090 229.350,167.915 230.213,167.820 230.717 C 167.725 231.222,167.348 232.662,166.982 233.917 C 166.617 235.173,166.251 236.470,166.170 236.800 C 166.089 237.130,165.557 238.750,164.987 240.400 C 164.418 242.050,163.885 243.670,163.803 244.000 C 163.721 244.330,163.191 245.759,162.627 247.176 C 162.062 248.593,161.600 249.912,161.600 250.108 C 161.600 250.409,160.370 253.761,159.218 256.600 C 159.039 257.040,158.232 259.020,157.424 261.000 C 156.616 262.980,155.892 264.870,155.814 265.200 C 155.737 265.530,154.661 268.140,153.424 271.000 C 152.186 273.860,151.020 276.560,150.831 277.000 C 149.783 279.443,148.160 282.618,147.900 282.733 C 147.735 282.807,147.598 283.077,147.595 283.333 C 147.582 284.456,143.865 288.400,142.820 288.400 C 139.604 288.400,137.241 274.962,138.565 264.200 C 138.755 262.660,138.943 261.130,138.983 260.800 C 139.024 260.470,139.165 259.930,139.297 259.600 C 139.429 259.270,139.671 258.280,139.833 257.400 C 139.996 256.520,140.200 255.530,140.287 255.200 C 140.374 254.870,140.518 254.240,140.607 253.800 C 140.765 253.016,142.529 247.984,143.061 246.800 C 143.210 246.470,143.362 246.110,143.399 246.000 C 144.084 243.987,147.333 237.398,148.725 235.200 C 149.491 233.990,150.118 232.910,150.117 232.800 C 150.115 232.161,154.870 226.233,157.015 224.200 C 160.261 221.124,160.664 220.800,161.252 220.800 C 161.519 220.800,162.021 220.544,162.369 220.231 C 164.684 218.145,169.600 218.471,169.600 220.710 M294.770 251.900 C 295.157 253.350,295.377 259.176,295.090 260.400 C 294.190 264.245,292.160 268.734,291.140 269.133 C 290.953 269.207,290.800 269.451,290.800 269.676 C 290.800 271.049,281.716 277.235,279.742 277.207 C 279.281 277.200,278.791 274.142,279.187 273.746 C 279.304 273.629,279.415 273.413,279.434 273.267 C 279.452 273.120,279.677 272.493,279.934 271.874 C 280.190 271.255,280.400 270.587,280.400 270.390 C 280.400 267.946,286.468 258.043,290.719 253.552 C 294.149 249.926,294.233 249.892,294.770 251.900 M89.566 267.100 C 91.894 275.906,91.424 285.964,88.248 295.319 C 87.464 297.629,85.108 302.552,84.700 302.733 C 84.535 302.807,84.400 303.108,84.400 303.403 C 84.400 303.697,83.934 304.492,83.364 305.169 C 82.795 305.846,82.475 306.400,82.653 306.400 C 82.832 306.400,82.578 306.680,82.089 307.023 C 81.600 307.365,81.200 307.831,81.200 308.057 C 81.200 309.047,70.598 319.600,69.603 319.600 C 69.382 319.600,69.199 319.735,69.197 319.900 C 69.190 320.826,59.403 325.444,55.800 326.221 C 47.970 327.911,43.215 326.811,41.128 322.828 C 38.917 318.606,40.622 307.972,44.499 301.804 C 47.063 297.725,47.985 296.462,49.844 294.483 C 51.023 293.227,52.086 291.930,52.208 291.600 C 52.329 291.270,53.276 290.327,54.314 289.505 C 55.351 288.683,56.855 287.423,57.655 286.705 C 59.905 284.686,62.880 282.243,63.626 281.800 C 63.997 281.580,66.323 279.960,68.793 278.200 C 71.264 276.440,74.391 274.309,75.741 273.465 C 77.092 272.620,78.294 271.772,78.412 271.580 C 78.531 271.388,79.252 270.951,80.014 270.609 C 80.776 270.268,82.570 269.245,84.000 268.337 C 89.102 265.098,89.040 265.112,89.566 267.100 M242.256 270.300 C 242.025 272.226,239.417 277.933,238.500 278.520 C 238.225 278.696,238.000 279.026,238.000 279.253 C 238.000 281.339,229.815 288.685,226.278 289.774 C 222.717 290.870,222.718 290.865,227.800 285.096 C 229.340 283.348,230.780 281.624,231.000 281.265 C 231.220 280.906,231.699 280.385,232.065 280.108 C 232.431 279.830,234.106 277.894,235.786 275.805 C 239.002 271.806,242.000 268.400,242.303 268.400 C 242.402 268.400,242.381 269.255,242.256 270.300 " stroke="none" fill="#a451bd" fill-rule="evenodd"></path><path id="path3" d="M34.109 176.400 C 34.109 177.390,34.187 177.795,34.282 177.300 C 34.378 176.805,34.378 175.995,34.282 175.500 C 34.187 175.005,34.109 175.410,34.109 176.400 " stroke="none" fill="#0cccdc" fill-rule="evenodd"></path><path id="path4" d="" stroke="none" fill="#10cce4" fill-rule="evenodd"></path></g></svg>